%TF.GenerationSoftware,KiCad,Pcbnew,7.0.6*%
%TF.CreationDate,2023-12-06T13:06:40-07:00*%
%TF.ProjectId,SparkFun_Thing_Plus_ESP32-S3,53706172-6b46-4756-9e5f-5468696e675f,rev?*%
%TF.SameCoordinates,Original*%
%TF.FileFunction,Copper,L4,Bot*%
%TF.FilePolarity,Positive*%
%FSLAX46Y46*%
G04 Gerber Fmt 4.6, Leading zero omitted, Abs format (unit mm)*
G04 Created by KiCad (PCBNEW 7.0.6) date 2023-12-06 13:06:40*
%MOMM*%
%LPD*%
G01*
G04 APERTURE LIST*
G04 Aperture macros list*
%AMRoundRect*
0 Rectangle with rounded corners*
0 $1 Rounding radius*
0 $2 $3 $4 $5 $6 $7 $8 $9 X,Y pos of 4 corners*
0 Add a 4 corners polygon primitive as box body*
4,1,4,$2,$3,$4,$5,$6,$7,$8,$9,$2,$3,0*
0 Add four circle primitives for the rounded corners*
1,1,$1+$1,$2,$3*
1,1,$1+$1,$4,$5*
1,1,$1+$1,$6,$7*
1,1,$1+$1,$8,$9*
0 Add four rect primitives between the rounded corners*
20,1,$1+$1,$2,$3,$4,$5,0*
20,1,$1+$1,$4,$5,$6,$7,0*
20,1,$1+$1,$6,$7,$8,$9,0*
20,1,$1+$1,$8,$9,$2,$3,0*%
G04 Aperture macros list end*
%ADD10C,0.250000*%
%TA.AperFunction,ComponentPad*%
%ADD11O,1.000000X1.600000*%
%TD*%
%TA.AperFunction,ComponentPad*%
%ADD12O,1.000000X2.100000*%
%TD*%
%TA.AperFunction,ComponentPad*%
%ADD13C,1.879600*%
%TD*%
%TA.AperFunction,SMDPad,CuDef*%
%ADD14RoundRect,0.508000X0.000000X0.000000X0.000000X0.000000X0.000000X0.000000X0.000000X0.000000X0*%
%TD*%
%TA.AperFunction,SMDPad,CuDef*%
%ADD15R,1.270000X0.660400*%
%TD*%
%TA.AperFunction,SMDPad,CuDef*%
%ADD16RoundRect,0.135000X-0.185000X0.135000X-0.185000X-0.135000X0.185000X-0.135000X0.185000X0.135000X0*%
%TD*%
%TA.AperFunction,SMDPad,CuDef*%
%ADD17RoundRect,0.140000X0.170000X-0.140000X0.170000X0.140000X-0.170000X0.140000X-0.170000X-0.140000X0*%
%TD*%
%TA.AperFunction,SMDPad,CuDef*%
%ADD18R,0.500000X1.000000*%
%TD*%
%TA.AperFunction,SMDPad,CuDef*%
%ADD19R,0.950000X1.200000*%
%TD*%
%TA.AperFunction,SMDPad,CuDef*%
%ADD20C,0.500000*%
%TD*%
%TA.AperFunction,ViaPad*%
%ADD21C,0.560000*%
%TD*%
%TA.AperFunction,ViaPad*%
%ADD22C,0.609600*%
%TD*%
%TA.AperFunction,Conductor*%
%ADD23C,0.406400*%
%TD*%
%TA.AperFunction,Conductor*%
%ADD24C,0.152400*%
%TD*%
%TA.AperFunction,Conductor*%
%ADD25C,0.348996*%
%TD*%
G04 APERTURE END LIST*
D10*
G36*
X21119049Y6750031D02*
G01*
X21137981Y6731098D01*
X21170391Y6666277D01*
X21210950Y6504041D01*
X21210950Y6296723D01*
X21170391Y6134487D01*
X21137980Y6069664D01*
X21119049Y6050732D01*
X21068348Y6025381D01*
X21032127Y6025381D01*
X20981425Y6050732D01*
X20962493Y6069664D01*
X20930082Y6134485D01*
X20889522Y6296724D01*
X20889522Y6504040D01*
X20930082Y6666279D01*
X20962492Y6731099D01*
X20981425Y6750031D01*
X21032127Y6775381D01*
X21068348Y6775381D01*
X21119049Y6750031D01*
G37*
G36*
X22410092Y5632524D02*
G01*
X19545557Y5632524D01*
X19545557Y5882592D01*
X19688414Y5882592D01*
X19717673Y5818523D01*
X19776925Y5780444D01*
X19812142Y5775381D01*
X20383570Y5775381D01*
X20451150Y5795224D01*
X20497274Y5848454D01*
X20507298Y5918170D01*
X20478039Y5982239D01*
X20418787Y6020318D01*
X20383570Y6025381D01*
X20222856Y6025381D01*
X20222856Y6281334D01*
X20639523Y6281334D01*
X20640481Y6278071D01*
X20643255Y6251017D01*
X20690874Y6060541D01*
X20693093Y6056759D01*
X20700339Y6034956D01*
X20747957Y5939719D01*
X20749552Y5938005D01*
X20750050Y5935715D01*
X20771372Y5907233D01*
X20818991Y5859613D01*
X20821047Y5858491D01*
X20822244Y5856475D01*
X20851478Y5836197D01*
X20946716Y5788578D01*
X20957866Y5786572D01*
X20967401Y5780444D01*
X21002618Y5775381D01*
X21097856Y5775381D01*
X21108728Y5778574D01*
X21119994Y5777357D01*
X21153758Y5788578D01*
X21248995Y5836196D01*
X21250710Y5837792D01*
X21253001Y5838290D01*
X21281483Y5859613D01*
X21329102Y5907232D01*
X21330224Y5909289D01*
X21332238Y5910484D01*
X21352516Y5939718D01*
X21400135Y6034956D01*
X21400910Y6039267D01*
X21409600Y6060541D01*
X21457219Y6251017D01*
X21457080Y6254415D01*
X21460951Y6281334D01*
X21460951Y6519429D01*
X21459992Y6522692D01*
X21457219Y6549746D01*
X21454687Y6559874D01*
X21544491Y6559874D01*
X21551567Y6525006D01*
X21789662Y5858339D01*
X21806315Y5835432D01*
X21820235Y5810766D01*
X21826748Y5807327D01*
X21831079Y5801370D01*
X21857471Y5791104D01*
X21882518Y5777878D01*
X21889856Y5778507D01*
X21896721Y5775836D01*
X21924478Y5781470D01*
X21952696Y5783884D01*
X21958529Y5788380D01*
X21965747Y5789844D01*
X21986050Y5809589D01*
X22008485Y5826877D01*
X22013399Y5836184D01*
X22016242Y5838948D01*
X22017327Y5843624D01*
X22025098Y5858339D01*
X22263193Y6525006D01*
X22267235Y6595323D01*
X22232619Y6656663D01*
X22170336Y6689551D01*
X22100159Y6683545D01*
X22044370Y6640552D01*
X22027757Y6609090D01*
X21907379Y6272034D01*
X21787003Y6609090D01*
X21745586Y6666059D01*
X21679944Y6691593D01*
X21610918Y6677585D01*
X21560423Y6628482D01*
X21544491Y6559874D01*
X21454687Y6559874D01*
X21409600Y6740222D01*
X21407381Y6744005D01*
X21400135Y6765807D01*
X21352516Y6861045D01*
X21350921Y6862760D01*
X21350423Y6865049D01*
X21329101Y6893532D01*
X21281482Y6941150D01*
X21279427Y6942272D01*
X21278230Y6944288D01*
X21248995Y6964566D01*
X21153758Y7012184D01*
X21142607Y7014191D01*
X21133073Y7020318D01*
X21097856Y7025381D01*
X21002618Y7025381D01*
X20991745Y7022189D01*
X20980479Y7023405D01*
X20946716Y7012184D01*
X20851478Y6964565D01*
X20849763Y6962971D01*
X20847474Y6962472D01*
X20818991Y6941150D01*
X20771373Y6893531D01*
X20770251Y6891477D01*
X20768235Y6890279D01*
X20747957Y6861044D01*
X20700339Y6765807D01*
X20699563Y6761496D01*
X20690874Y6740222D01*
X20643255Y6549746D01*
X20643393Y6546349D01*
X20639523Y6519429D01*
X20639523Y6281334D01*
X20222856Y6281334D01*
X20222856Y6557124D01*
X20232430Y6550483D01*
X20327668Y6502864D01*
X20396987Y6490389D01*
X20462047Y6517372D01*
X20502191Y6575245D01*
X20504673Y6645635D01*
X20468706Y6706193D01*
X20439471Y6726471D01*
X20362375Y6765019D01*
X20290234Y6837160D01*
X20201862Y6969719D01*
X20175627Y6991691D01*
X20149783Y7014085D01*
X20148702Y7014241D01*
X20147865Y7014942D01*
X20113932Y7019240D01*
X20080067Y7024109D01*
X20079072Y7023655D01*
X20077990Y7023792D01*
X20047139Y7009072D01*
X20015998Y6994850D01*
X20015407Y6993931D01*
X20014423Y6993461D01*
X19996430Y6964403D01*
X19977919Y6935598D01*
X19977714Y6934176D01*
X19977344Y6933577D01*
X19977373Y6931806D01*
X19972856Y6900381D01*
X19972856Y6025381D01*
X19812142Y6025381D01*
X19744562Y6005538D01*
X19698438Y5952308D01*
X19688414Y5882592D01*
X19545557Y5882592D01*
X19545557Y7168238D01*
X22410092Y7168238D01*
X22410092Y5632524D01*
G37*
%TA.AperFunction,EtchedComponent*%
%TO.C,JP1*%
G36*
X11580000Y23880000D02*
G01*
X11280000Y23880000D01*
X11280000Y24380000D01*
X11580000Y24380000D01*
X11580000Y23880000D01*
G37*
%TD.AperFunction*%
%TA.AperFunction,EtchedComponent*%
%TO.C,JP4*%
G36*
X11580000Y31614300D02*
G01*
X11280000Y31614300D01*
X11280000Y32114300D01*
X11580000Y32114300D01*
X11580000Y31614300D01*
G37*
%TD.AperFunction*%
%TD*%
D11*
%TO.P,J1,NC1,NC*%
%TO.N,unconnected-(J1-NC-PadNC1)*%
X7112000Y1251250D03*
D12*
%TO.P,J1,NC2,NC*%
%TO.N,unconnected-(J1-NC-PadNC2)*%
X7112000Y5431250D03*
%TO.P,J1,NC3,NC*%
%TO.N,unconnected-(J1-NC-PadNC3)*%
X15748000Y5431250D03*
D11*
%TO.P,J1,S,SHIELD*%
%TO.N,GND*%
X15748000Y1251250D03*
%TD*%
D13*
%TO.P,U10,1,SDA*%
%TO.N,ESP8{slash}SDA*%
X1270000Y52070000D03*
%TO.P,U10,2,SCL*%
%TO.N,ESP9{slash}SCL*%
X1270000Y49530000D03*
%TO.P,U10,3,GPIO6*%
%TO.N,ESP1*%
X1270000Y46990000D03*
%TO.P,U10,4,GPIO5*%
%TO.N,ESP2*%
X1270000Y44450000D03*
%TO.P,U10,5,GPIO4*%
%TO.N,ESP4*%
X1270000Y41910000D03*
%TO.P,U10,6,GPIO3*%
%TO.N,ESP5*%
X1270000Y39370000D03*
%TO.P,U10,7,GPIO2*%
%TO.N,ESP6*%
X1270000Y36830000D03*
%TO.P,U10,8,GPIO1*%
%TO.N,ESP7*%
X1270000Y34290000D03*
%TO.P,U10,9,GPIO0*%
%TO.N,ESP21*%
X1270000Y31750000D03*
%TO.P,U10,10,V_USB*%
%TO.N,VUSB*%
X1270000Y29210000D03*
%TO.P,U10,11,EN*%
%TO.N,EN*%
X1270000Y26670000D03*
%TO.P,U10,12,V_BATT*%
%TO.N,VBATT*%
X1270000Y24130000D03*
%TO.P,U10,13,FREEBIE*%
%TO.N,ESP42{slash}FREE*%
X21590000Y52070000D03*
%TO.P,U10,14,TX*%
%TO.N,ESP43{slash}TXO*%
X21590000Y49530000D03*
%TO.P,U10,15,RX*%
%TO.N,ESP44{slash}RXI*%
X21590000Y46990000D03*
%TO.P,U10,16,POCI*%
%TO.N,ESP13{slash}POCI*%
X21590000Y44450000D03*
%TO.P,U10,17,PICO*%
%TO.N,ESP11{slash}PICO*%
X21590000Y41910000D03*
%TO.P,U10,18,SCK*%
%TO.N,ESP12{slash}SCK*%
X21590000Y39370000D03*
%TO.P,U10,19,A5*%
%TO.N,ESP18{slash}A5*%
X21590000Y36830000D03*
%TO.P,U10,20,A4*%
%TO.N,ESP17{slash}A4*%
X21590000Y34290000D03*
%TO.P,U10,21,A3*%
%TO.N,ESP16{slash}A3*%
X21590000Y31750000D03*
%TO.P,U10,22,A2*%
%TO.N,ESP15{slash}A2*%
X21590000Y29210000D03*
%TO.P,U10,23,A1*%
%TO.N,ESP14{slash}A1*%
X21590000Y26670000D03*
%TO.P,U10,24,A0*%
%TO.N,ESP10{slash}A0*%
X21590000Y24130000D03*
%TO.P,U10,25,GND*%
%TO.N,GND*%
X21590000Y21590000D03*
%TO.P,U10,26,AREF/NC*%
%TO.N,unconnected-(U10-AREF{slash}NC-Pad26)*%
X21590000Y19050000D03*
%TO.P,U10,27,3.3V*%
%TO.N,+3.3V*%
X21590000Y16510000D03*
%TO.P,U10,28,~{RESET}*%
%TO.N,ESP~{RST}*%
X21590000Y13970000D03*
%TD*%
D14*
%TO.P,TP2,1,1*%
%TO.N,ESP0{slash}STAT*%
X13811250Y23018750D03*
%TD*%
D15*
%TO.P,JP1,1,A*%
%TO.N,Net-(JP1-A)*%
X11430000Y24650700D03*
%TO.P,JP1,2,B*%
%TO.N,VUSB*%
X11430000Y23609300D03*
%TD*%
D16*
%TO.P,R3,1*%
%TO.N,+3.3V*%
X16192500Y19560000D03*
%TO.P,R3,2*%
%TO.N,ESP39{slash}SDIO0*%
X16192500Y18540000D03*
%TD*%
D17*
%TO.P,C5,1*%
%TO.N,+3.3V*%
X12382500Y18570000D03*
%TO.P,C5,2*%
%TO.N,GND*%
X12382500Y19530000D03*
%TD*%
D16*
%TO.P,R6,1*%
%TO.N,+3.3V*%
X6667500Y19560000D03*
%TO.P,R6,2*%
%TO.N,ESP33{slash}SDIO3*%
X6667500Y18540000D03*
%TD*%
D18*
%TO.P,J2,1,DAT2*%
%TO.N,ESP47{slash}SDIO2*%
X8215000Y7201000D03*
%TO.P,J2,2,DAT3/CD*%
%TO.N,ESP33{slash}SDIO3*%
X9315000Y7201000D03*
%TO.P,J2,3,CMD/SDI*%
%TO.N,ESP34{slash}SDIO_CMD*%
X10415000Y7201000D03*
%TO.P,J2,4,VDD*%
%TO.N,+3.3V*%
X11165000Y7201000D03*
%TO.P,J2,5,CLK/SCK*%
%TO.N,ESP38{slash}SDIO_CLK*%
X12615000Y7201000D03*
%TO.P,J2,6,VSS*%
%TO.N,GND*%
X13715000Y7201000D03*
%TO.P,J2,7,DAT0/SDO*%
%TO.N,ESP39{slash}SDIO0*%
X14815000Y7201000D03*
%TO.P,J2,8,DAT1*%
%TO.N,ESP40{slash}SDIO1*%
X15915000Y7201000D03*
%TO.P,J2,9,~{DET}*%
%TO.N,ESP48{slash}SDIO_~{DET}*%
X11865000Y7201000D03*
D19*
%TO.P,J2,10,SHIELD*%
%TO.N,GND*%
X17165000Y8951000D03*
X17165000Y13401000D03*
X6965000Y8951000D03*
X6965000Y13401000D03*
%TD*%
D16*
%TO.P,R2,1*%
%TO.N,+3.3V*%
X14287500Y19560000D03*
%TO.P,R2,2*%
%TO.N,ESP38{slash}SDIO_CLK*%
X14287500Y18540000D03*
%TD*%
%TO.P,R5,1*%
%TO.N,+3.3V*%
X4762500Y19560000D03*
%TO.P,R5,2*%
%TO.N,ESP47{slash}SDIO2*%
X4762500Y18540000D03*
%TD*%
%TO.P,R4,1*%
%TO.N,+3.3V*%
X18097500Y19560000D03*
%TO.P,R4,2*%
%TO.N,ESP40{slash}SDIO1*%
X18097500Y18540000D03*
%TD*%
D20*
%TO.P,FID2,*%
%TO.N,*%
X1270000Y57150000D03*
%TD*%
%TO.P,FID1,*%
%TO.N,*%
X17145000Y635000D03*
%TD*%
D16*
%TO.P,R1,1*%
%TO.N,+3.3V*%
X8572500Y19560000D03*
%TO.P,R1,2*%
%TO.N,ESP34{slash}SDIO_CMD*%
X8572500Y18540000D03*
%TD*%
D14*
%TO.P,TP1,1,1*%
%TO.N,Net-(D6-DOUT)*%
X20320000Y57150000D03*
%TD*%
D17*
%TO.P,C4,1*%
%TO.N,+3.3V*%
X10477500Y18570000D03*
%TO.P,C4,2*%
%TO.N,GND*%
X10477500Y19530000D03*
%TD*%
D15*
%TO.P,JP4,1,A*%
%TO.N,Net-(JP4-A)*%
X11430000Y31343600D03*
%TO.P,JP4,2,B*%
%TO.N,+3.3V*%
X11430000Y32385000D03*
%TD*%
D21*
%TO.N,GND*%
X10160000Y48768000D03*
X14478000Y45720000D03*
X17018000Y27432000D03*
X7366000Y16510000D03*
X12954000Y42926000D03*
X8382000Y47244000D03*
X19558000Y38862000D03*
X4064000Y37592000D03*
X10414000Y20574000D03*
X5588000Y51562000D03*
X13970000Y51562000D03*
X8128000Y11181902D03*
X16596902Y6985000D03*
X12204600Y25390202D03*
X17272000Y50546000D03*
X20320000Y11430000D03*
X3556000Y38354000D03*
X16636900Y22098000D03*
X508000Y53848000D03*
X17932900Y37338100D03*
X19812000Y56197500D03*
X14478000Y44450000D03*
X7112000Y51562000D03*
X5842000Y50546000D03*
X11430000Y51562000D03*
X8382000Y43942000D03*
X12700000Y51562000D03*
X2032000Y17272000D03*
X14478000Y47498000D03*
X16256000Y12446000D03*
X11430000Y42926000D03*
X9906000Y42926000D03*
X8636000Y51562000D03*
X5842000Y25717500D03*
X19812000Y53340000D03*
X13716000Y16764000D03*
X5842000Y6350000D03*
X10160000Y51562000D03*
X7071900Y8128000D03*
X10794900Y17780000D03*
X11430000Y48768000D03*
X21590000Y8128000D03*
X18541900Y13208000D03*
X8382000Y45720000D03*
X12954000Y48768000D03*
X17780000Y33528000D03*
X15240000Y51562000D03*
X5080000Y11938000D03*
X19304000Y7874000D03*
X16510000Y24892000D03*
%TO.N,+5V*%
X7937500Y30480000D03*
X9271900Y9398000D03*
X9271900Y15113900D03*
X5080000Y23653750D03*
X5080000Y15240000D03*
%TO.N,+3.3V*%
X11430000Y33528000D03*
X8572500Y20478750D03*
X4762500Y20478750D03*
X21505000Y54610000D03*
X14287500Y20478750D03*
X18097500Y20478750D03*
X6667500Y20478750D03*
X18415000Y24130000D03*
X8128000Y27432000D03*
X16236685Y20496208D03*
X3175000Y50165000D03*
X11430000Y16827500D03*
%TO.N,ESP~{RST}*%
X18441000Y27146250D03*
X16192500Y51435000D03*
%TO.N,Net-(D4-K)*%
X19050000Y12446000D03*
X19050000Y17303750D03*
%TO.N,Net-(JP4-A)*%
X9048750Y29368750D03*
%TO.N,ESP43{slash}TXO*%
X17145000Y46513750D03*
%TO.N,ESP8{slash}SDA*%
X5873750Y42227500D03*
X4318000Y12700000D03*
X3810000Y9048750D03*
X18034000Y6604000D03*
%TO.N,ESP9{slash}SCL*%
X17113150Y7541483D03*
X6305600Y7575600D03*
X5333300Y41433750D03*
%TO.N,Net-(JP1-A)*%
X14224000Y29210000D03*
%TO.N,ESP42{slash}FREE*%
X16510000Y45771500D03*
%TO.N,ESP0{slash}STAT*%
X9048750Y33337500D03*
X13811250Y23018750D03*
X9048750Y49053750D03*
X15968919Y31364345D03*
%TO.N,EN*%
X4414900Y23971250D03*
X5942400Y31242000D03*
X7143750Y28575000D03*
%TO.N,Net-(D6-DOUT)*%
X19685000Y57785000D03*
%TO.N,ESP45{slash}Q_EN*%
X2794000Y13462000D03*
X5514468Y48218218D03*
%TO.N,VUSB*%
X14478000Y16764000D03*
X13462000Y4318000D03*
X9398000Y4318000D03*
X12204600Y27686000D03*
%TO.N,ESP33{slash}SDIO3*%
X15494000Y39624000D03*
%TO.N,ESP47{slash}SDIO2*%
X14732000Y39624000D03*
%TO.N,ESP34{slash}SDIO_CMD*%
X16256000Y39624000D03*
%TO.N,ESP21*%
X13550400Y39948350D03*
D22*
X13550400Y34773100D03*
%TO.N,ESP20{slash}D+*%
X12382500Y40005000D03*
D21*
X12700000Y8890000D03*
%TO.N,ESP19{slash}D-*%
X12445500Y11519729D03*
D22*
X11430000Y40005000D03*
D21*
%TO.N,ESP13{slash}POCI*%
X16150719Y43539281D03*
%TO.N,ESP11{slash}PICO*%
X15443100Y42825359D03*
%TO.N,ESP12{slash}SCK*%
X15030306Y42164000D03*
%TO.N,ESP10{slash}A0*%
X6350000Y37465000D03*
X6406650Y41433750D03*
%TO.N,ESP48{slash}SDIO_~{DET}*%
X17018000Y39624000D03*
%TO.N,ESP38{slash}SDIO_CLK*%
X17018000Y40386000D03*
%TO.N,ESP39{slash}SDIO0*%
X16764000Y41096806D03*
%TO.N,ESP40{slash}SDIO1*%
X16002000Y40894000D03*
%TD*%
D23*
%TO.N,GND*%
X12382500Y19530000D02*
X10477500Y19530000D01*
X10477500Y20510500D02*
X10414000Y20574000D01*
X10477500Y19530000D02*
X10477500Y20510500D01*
%TO.N,+5V*%
X5080000Y15240000D02*
X5080000Y16589374D01*
X7937500Y28469875D02*
X7937500Y30480000D01*
X5080000Y26352500D02*
X6032500Y27305000D01*
X5080000Y23653750D02*
X5080000Y26352500D01*
X5080000Y16589374D02*
X4086900Y17582474D01*
X4086900Y21073150D02*
X4086900Y17582474D01*
X5080000Y22066250D02*
X4086900Y21073150D01*
X5080000Y23653750D02*
X5080000Y22066250D01*
X6032500Y27305000D02*
X6772625Y27305000D01*
X6772625Y27305000D02*
X7937500Y28469875D01*
X9271900Y15113900D02*
X9271900Y9398000D01*
%TO.N,+3.3V*%
X11433750Y18570000D02*
X11430000Y18573750D01*
X16192500Y20452023D02*
X16236685Y20496208D01*
X12382500Y18570000D02*
X11433750Y18570000D01*
X11430000Y12772800D02*
X11430000Y15240000D01*
X14287500Y19560000D02*
X14287500Y20478750D01*
X18097500Y19560000D02*
X18097500Y20478750D01*
D24*
X11430000Y32385000D02*
X11430000Y33528000D01*
D23*
X4762500Y19560000D02*
X4762500Y20478750D01*
X11165000Y12507800D02*
X11430000Y12772800D01*
X8572500Y19560000D02*
X8572500Y20478750D01*
X10481250Y18573750D02*
X10477500Y18570000D01*
X11165000Y7201000D02*
X11165000Y12507800D01*
X16192500Y19560000D02*
X16192500Y20452023D01*
X11430000Y15240000D02*
X11430000Y18573750D01*
X6667500Y19560000D02*
X6667500Y20478750D01*
X11430000Y18573750D02*
X10481250Y18573750D01*
D24*
%TO.N,ESP~{RST}*%
X18441000Y27146250D02*
X18441000Y41249000D01*
X14521706Y42715706D02*
X15748000Y43942000D01*
X15748000Y43942000D02*
X15748000Y50990500D01*
X16002000Y41910000D02*
X15240000Y41148000D01*
X15240000Y41148000D02*
X14732000Y41148000D01*
X18441000Y27146250D02*
X19685000Y25902250D01*
X15748000Y50990500D02*
X16192500Y51435000D01*
X17780000Y41910000D02*
X16002000Y41910000D01*
X19685000Y25902250D02*
X19685000Y15875000D01*
X14732000Y41148000D02*
X14521706Y41358294D01*
X18441000Y41249000D02*
X17780000Y41910000D01*
X19685000Y15875000D02*
X21590000Y13970000D01*
X14521706Y41358294D02*
X14521706Y42715706D01*
%TO.N,Net-(D4-K)*%
X19050000Y15748000D02*
X19304000Y15494000D01*
X19304000Y12700000D02*
X19050000Y12446000D01*
X19050000Y17303750D02*
X19050000Y15748000D01*
X19304000Y15494000D02*
X19304000Y12700000D01*
%TO.N,Net-(JP4-A)*%
X10160000Y29368750D02*
X11430000Y30638750D01*
X11430000Y30638750D02*
X11430000Y31343600D01*
X9048750Y29368750D02*
X10160000Y29368750D01*
%TO.N,ESP43{slash}TXO*%
X20161250Y49530000D02*
X21590000Y49530000D01*
X17145000Y46513750D02*
X20161250Y49530000D01*
%TO.N,ESP8{slash}SDA*%
X6667500Y48895000D02*
X3492500Y52070000D01*
X5434300Y29042852D02*
X3655100Y27263652D01*
X4064000Y12954000D02*
X4318000Y12700000D01*
X5873750Y42227500D02*
X6667500Y43021250D01*
X17018000Y3302000D02*
X18034000Y4318000D01*
X5873750Y41254930D02*
X5434300Y40815480D01*
X5434300Y40815480D02*
X5434300Y29042852D01*
X6096000Y3302000D02*
X17018000Y3302000D01*
X3492500Y52070000D02*
X1270000Y52070000D01*
X6667500Y43021250D02*
X6667500Y48895000D01*
X3655100Y17403616D02*
X4064000Y16994716D01*
X3810000Y5588000D02*
X6096000Y3302000D01*
X5873750Y42227500D02*
X5873750Y41254930D01*
X18034000Y4318000D02*
X18034000Y6604000D01*
X3655100Y27263652D02*
X3655100Y17403616D01*
X4064000Y16994716D02*
X4064000Y12954000D01*
X3810000Y9048750D02*
X3810000Y5588000D01*
%TO.N,ESP9{slash}SCL*%
X17208500Y6710230D02*
X17729200Y6189530D01*
X17145000Y7620000D02*
X17208500Y7620000D01*
X5080000Y4749052D02*
X5080000Y7273481D01*
X6191250Y48736250D02*
X5397500Y49530000D01*
X5080000Y7273481D02*
X5080000Y8801200D01*
X6003481Y7273481D02*
X5080000Y7273481D01*
X16891748Y3606800D02*
X6222252Y3606800D01*
X6222252Y3606800D02*
X5080000Y4749052D01*
X5333300Y41433750D02*
X5365150Y41465600D01*
X5365150Y41465600D02*
X5365150Y42438170D01*
X5129500Y41229950D02*
X5333300Y41433750D01*
X3556000Y17071664D02*
X3350300Y17277364D01*
X17729200Y4444252D02*
X16891748Y3606800D01*
X17208500Y7620000D02*
X17208500Y6710230D01*
X17729200Y6189530D02*
X17729200Y4444252D01*
X3350300Y17277364D02*
X3350300Y27389904D01*
X5397500Y49530000D02*
X1270000Y49530000D01*
X3556000Y10325200D02*
X3556000Y17071664D01*
X5129500Y29169104D02*
X5129500Y41229950D01*
X6191250Y43264270D02*
X6191250Y48736250D01*
X5080000Y8801200D02*
X3556000Y10325200D01*
X3350300Y27389904D02*
X5129500Y29169104D01*
X5365150Y42438170D02*
X6191250Y43264270D01*
X6305600Y7575600D02*
X6003481Y7273481D01*
%TO.N,Net-(JP1-A)*%
X13474700Y24650700D02*
X14224000Y25400000D01*
X14224000Y25400000D02*
X14224000Y29210000D01*
X11430000Y24650700D02*
X13474700Y24650700D01*
%TO.N,ESP42{slash}FREE*%
X16510000Y45771500D02*
X16510000Y46990000D01*
X16510000Y46990000D02*
X21590000Y52070000D01*
%TO.N,ESP0{slash}STAT*%
X14935200Y24142700D02*
X13811250Y23018750D01*
X9048750Y33337500D02*
X9048750Y49053750D01*
X14935200Y30330626D02*
X14935200Y24142700D01*
X15968919Y31364345D02*
X14935200Y30330626D01*
%TO.N,EN*%
X5942400Y31242000D02*
X6858000Y31242000D01*
X7112000Y30988000D02*
X7112000Y28606750D01*
X4445000Y27622500D02*
X5397500Y28575000D01*
X6858000Y31242000D02*
X7112000Y30988000D01*
X7112000Y28606750D02*
X7143750Y28575000D01*
X5397500Y28575000D02*
X7143750Y28575000D01*
X4414900Y23971250D02*
X4445000Y24001350D01*
X4445000Y24001350D02*
X4445000Y27622500D01*
%TO.N,Net-(D6-DOUT)*%
X20320000Y57150000D02*
X19685000Y57785000D01*
%TO.N,ESP45{slash}Q_EN*%
X3045500Y17151112D02*
X3045500Y27516156D01*
X4824700Y29295356D02*
X4824700Y47528450D01*
X3048000Y17148612D02*
X3045500Y17151112D01*
X3045500Y27516156D02*
X4824700Y29295356D01*
X2794000Y13462000D02*
X3048000Y13716000D01*
X4824700Y47528450D02*
X5514468Y48218218D01*
X3048000Y13716000D02*
X3048000Y17148612D01*
%TO.N,VUSB*%
X10414000Y23876000D02*
X10414000Y25895400D01*
X14922500Y17208500D02*
X14922500Y20563020D01*
D25*
X9398000Y4318000D02*
X13462000Y4318000D01*
D24*
X12446000Y21082600D02*
X11430000Y22098600D01*
X10414000Y25895400D02*
X12204600Y27686000D01*
X11430000Y23609300D02*
X10680700Y23609300D01*
X14922500Y20563020D02*
X14402920Y21082600D01*
X11430000Y22098600D02*
X11430000Y23609300D01*
X14478000Y16764000D02*
X14922500Y17208500D01*
X10680700Y23609300D02*
X10414000Y23876000D01*
X14402920Y21082600D02*
X12446000Y21082600D01*
%TO.N,ESP33{slash}SDIO3*%
X7618000Y18540000D02*
X7620000Y18542000D01*
X7620000Y17272000D02*
X7620000Y18542000D01*
X7620000Y25603948D02*
X15036800Y33020748D01*
X6667500Y18540000D02*
X7618000Y18540000D01*
X9315000Y7201000D02*
X9315000Y8465000D01*
X8763300Y16128700D02*
X7620000Y17272000D01*
X8763300Y9016700D02*
X8763300Y16128700D01*
X15036800Y33020748D02*
X15036800Y39166800D01*
X15036800Y39166800D02*
X15494000Y39624000D01*
X7620000Y18542000D02*
X7620000Y25603948D01*
X9315000Y8465000D02*
X8763300Y9016700D01*
%TO.N,ESP47{slash}SDIO2*%
X5842000Y24257000D02*
X5842000Y18542000D01*
X7668600Y11478600D02*
X7668600Y14429400D01*
X14732000Y39624000D02*
X14732000Y33147000D01*
X8215000Y7201000D02*
X8215000Y9281500D01*
X7619400Y11429400D02*
X7668600Y11478600D01*
X8215000Y9281500D02*
X7619400Y9877100D01*
X7668600Y14429400D02*
X5842000Y16256000D01*
X4762500Y18540000D02*
X5840000Y18540000D01*
X5842000Y16256000D02*
X5842000Y18542000D01*
X5840000Y18540000D02*
X5842000Y18542000D01*
X14732000Y33147000D02*
X5842000Y24257000D01*
X7619400Y9877100D02*
X7619400Y11429400D01*
%TO.N,ESP34{slash}SDIO_CMD*%
X15341600Y38709600D02*
X15341600Y32894496D01*
X10415000Y7201000D02*
X10415000Y17017000D01*
X8572500Y18540000D02*
X9396000Y18540000D01*
X9398000Y26950896D02*
X9398000Y18542000D01*
X15341600Y32894496D02*
X9398000Y26950896D01*
X9398000Y18034000D02*
X9906000Y17526000D01*
X9396000Y18540000D02*
X9398000Y18542000D01*
X10415000Y17017000D02*
X9906000Y17526000D01*
X16256000Y39624000D02*
X15341600Y38709600D01*
X9398000Y18542000D02*
X9398000Y18034000D01*
%TO.N,ESP21*%
X13550400Y34773100D02*
X13550400Y39948350D01*
%TO.N,ESP13{slash}POCI*%
X21590000Y44450000D02*
X17061438Y44450000D01*
X17061438Y44450000D02*
X16150719Y43539281D01*
%TO.N,ESP11{slash}PICO*%
X20828000Y42672000D02*
X21590000Y41910000D01*
X15596459Y42672000D02*
X20828000Y42672000D01*
X15443100Y42825359D02*
X15596459Y42672000D01*
%TO.N,ESP12{slash}SCK*%
X15183565Y42317259D02*
X18642741Y42317259D01*
X18642741Y42317259D02*
X21590000Y39370000D01*
X15030306Y42164000D02*
X15183565Y42317259D01*
%TO.N,ESP10{slash}A0*%
X6406650Y37521650D02*
X6350000Y37465000D01*
X6406650Y41433750D02*
X6406650Y37521650D01*
%TO.N,ESP48{slash}SDIO_~{DET}*%
X12423779Y20320000D02*
X11684000Y20320000D01*
X12700000Y17780000D02*
X12954000Y18034000D01*
X11865000Y14659000D02*
X12700000Y15494000D01*
X12700000Y15494000D02*
X12700000Y17780000D01*
X15646400Y32768244D02*
X15646400Y38252400D01*
X11684000Y20370800D02*
X9702800Y22352000D01*
X12954000Y19789779D02*
X12423779Y20320000D01*
X11865000Y7201000D02*
X11865000Y14659000D01*
X15646400Y38252400D02*
X17018000Y39624000D01*
X11684000Y20320000D02*
X11684000Y20370800D01*
X9702800Y22352000D02*
X9702800Y26824644D01*
X12954000Y18034000D02*
X12954000Y19789779D01*
X9702800Y26824644D02*
X15646400Y32768244D01*
%TO.N,ESP38{slash}SDIO_CLK*%
X10007600Y22478252D02*
X11861052Y20624800D01*
X11861052Y20624800D02*
X12550031Y20624800D01*
X12615000Y7201000D02*
X12615000Y8255730D01*
X15951200Y38049200D02*
X15951200Y32641992D01*
X17526600Y39370600D02*
X17018000Y38862000D01*
X17018000Y38862000D02*
X16764000Y38862000D01*
X13464000Y18540000D02*
X13462000Y18542000D01*
X17018000Y40386000D02*
X17526600Y39877400D01*
X17526600Y39877400D02*
X17526600Y39370600D01*
X12169800Y8700930D02*
X12169800Y10524759D01*
X14287500Y18540000D02*
X13464000Y18540000D01*
X12550031Y20624800D02*
X13462000Y19712831D01*
X15951200Y32641992D02*
X10007600Y26698392D01*
X10007600Y26698392D02*
X10007600Y22478252D01*
X12615000Y8255730D02*
X12169800Y8700930D01*
X13004800Y11359759D02*
X13004800Y17653748D01*
X13462000Y18110948D02*
X13462000Y18542000D01*
X12169800Y10524759D02*
X13004800Y11359759D01*
X13004800Y17653748D02*
X13462000Y18110948D01*
X13462000Y19712831D02*
X13462000Y18542000D01*
X16764000Y38862000D02*
X15951200Y38049200D01*
%TO.N,ESP39{slash}SDIO0*%
X15494000Y27178000D02*
X15494000Y18542000D01*
X15494000Y18542000D02*
X15494000Y15748000D01*
X16192500Y18540000D02*
X15496000Y18540000D01*
X16477519Y28161519D02*
X15494000Y27178000D01*
X17026464Y41096806D02*
X17831400Y40291870D01*
X14815000Y15069000D02*
X15494000Y15748000D01*
X17831400Y38405400D02*
X16477519Y37051519D01*
X16764000Y41096806D02*
X17026464Y41096806D01*
X16477519Y37051519D02*
X16477519Y28161519D01*
X14815000Y7201000D02*
X14815000Y15069000D01*
X15496000Y18540000D02*
X15494000Y18542000D01*
X17831400Y40291870D02*
X17831400Y38405400D01*
%TO.N,ESP40{slash}SDIO1*%
X16002000Y41054076D02*
X16553330Y41605406D01*
X15915000Y11390000D02*
X15747400Y11557600D01*
X15915000Y7201000D02*
X15915000Y11390000D01*
X18136200Y38279148D02*
X16782319Y36925267D01*
X15798800Y27051748D02*
X15798800Y21653363D01*
X15798800Y21653363D02*
X17272000Y20180163D01*
X17274000Y18540000D02*
X17272000Y18542000D01*
X16782319Y36925267D02*
X16782319Y28035267D01*
X16002000Y40894000D02*
X16002000Y41054076D01*
X17322594Y41605406D02*
X18136200Y40791800D01*
X18136200Y40791800D02*
X18136200Y38279148D01*
X16553330Y41605406D02*
X17322594Y41605406D01*
X18097500Y18540000D02*
X17274000Y18540000D01*
X15747400Y11557600D02*
X15747400Y14150600D01*
X17272000Y15675200D02*
X17272000Y18542000D01*
X17272000Y20180163D02*
X17272000Y18542000D01*
X15747400Y14150600D02*
X17272000Y15675200D01*
X16782319Y28035267D02*
X15798800Y27051748D01*
%TD*%
%TA.AperFunction,Conductor*%
%TO.N,GND*%
G36*
X132350Y49352136D02*
G01*
X170999Y49306076D01*
X172944Y49300067D01*
X205914Y49184190D01*
X222936Y49124365D01*
X315300Y48938875D01*
X315301Y48938874D01*
X315302Y48938872D01*
X348432Y48895001D01*
X440174Y48773514D01*
X516616Y48703828D01*
X593305Y48633916D01*
X593314Y48633910D01*
X608467Y48624528D01*
X769485Y48524830D01*
X962707Y48449976D01*
X962711Y48449976D01*
X962715Y48449974D01*
X1071601Y48429620D01*
X1166393Y48411900D01*
X1166394Y48411900D01*
X1373606Y48411900D01*
X1373607Y48411900D01*
X1508741Y48437162D01*
X1577284Y48449974D01*
X1577286Y48449975D01*
X1577293Y48449976D01*
X1770515Y48524830D01*
X1946692Y48633914D01*
X2099826Y48773514D01*
X2224700Y48938875D01*
X2317064Y49124365D01*
X2341900Y49211657D01*
X2377141Y49260371D01*
X2426444Y49275500D01*
X5255672Y49275500D01*
X5312173Y49254935D01*
X5317827Y49249755D01*
X5776697Y48790885D01*
X5802108Y48736391D01*
X5786545Y48678313D01*
X5737292Y48643825D01*
X5689777Y48644391D01*
X5580366Y48676518D01*
X5580362Y48676518D01*
X5448574Y48676518D01*
X5448569Y48676518D01*
X5322125Y48639389D01*
X5322121Y48639388D01*
X5211262Y48568143D01*
X5211257Y48568138D01*
X5124957Y48468544D01*
X5070210Y48348664D01*
X5070208Y48348658D01*
X5051455Y48218222D01*
X5051455Y48218216D01*
X5058152Y48171636D01*
X5045838Y48112784D01*
X5033302Y48096972D01*
X4668581Y47732251D01*
X4655266Y47721323D01*
X4641217Y47711935D01*
X4641215Y47711933D01*
X4627708Y47691721D01*
X4627706Y47691717D01*
X4584965Y47627751D01*
X4565214Y47528451D01*
X4568511Y47511873D01*
X4570199Y47494727D01*
X4570200Y29437185D01*
X4549635Y29380684D01*
X4544455Y29375030D01*
X2889381Y27719957D01*
X2876066Y27709029D01*
X2862017Y27699641D01*
X2862015Y27699639D01*
X2848508Y27679427D01*
X2848506Y27679423D01*
X2847816Y27678390D01*
X2810472Y27622500D01*
X2805766Y27615457D01*
X2795222Y27562446D01*
X2786014Y27516156D01*
X2788924Y27501528D01*
X2789311Y27499582D01*
X2791000Y27482433D01*
X2791000Y17184836D01*
X2789311Y17167688D01*
X2786014Y17151113D01*
X2791811Y17121970D01*
X2793500Y17104821D01*
X2793500Y14005303D01*
X2772935Y13948802D01*
X2730365Y13920964D01*
X2601657Y13883171D01*
X2601653Y13883170D01*
X2490794Y13811925D01*
X2490789Y13811920D01*
X2404489Y13712326D01*
X2349742Y13592446D01*
X2349740Y13592440D01*
X2330987Y13462004D01*
X2330987Y13461997D01*
X2349740Y13331561D01*
X2349741Y13331556D01*
X2349742Y13331554D01*
X2358627Y13312099D01*
X2404489Y13211675D01*
X2440830Y13169736D01*
X2490791Y13112078D01*
X2490793Y13112077D01*
X2490794Y13112076D01*
X2601653Y13040831D01*
X2601654Y13040831D01*
X2601657Y13040829D01*
X2687782Y13015541D01*
X2728101Y13003701D01*
X2728104Y13003701D01*
X2728106Y13003700D01*
X2728107Y13003700D01*
X2859893Y13003700D01*
X2859894Y13003700D01*
X2859896Y13003701D01*
X2859898Y13003701D01*
X2874927Y13008115D01*
X2986343Y13040829D01*
X3097209Y13112078D01*
X3147171Y13169738D01*
X3199710Y13198970D01*
X3258751Y13187591D01*
X3296664Y13140924D01*
X3301499Y13112174D01*
X3301499Y10358924D01*
X3299811Y10341779D01*
X3296514Y10325201D01*
X3296514Y10325200D01*
X3316266Y10225898D01*
X3359656Y10160960D01*
X3359672Y10160938D01*
X3372516Y10141716D01*
X3386561Y10132332D01*
X3399881Y10121401D01*
X3864177Y9657105D01*
X3889588Y9602611D01*
X3874025Y9544533D01*
X3824772Y9510045D01*
X3802022Y9507050D01*
X3744101Y9507050D01*
X3617657Y9469921D01*
X3617653Y9469920D01*
X3506794Y9398675D01*
X3506789Y9398670D01*
X3420489Y9299076D01*
X3365742Y9179196D01*
X3365740Y9179190D01*
X3346987Y9048754D01*
X3346987Y9048747D01*
X3365740Y8918311D01*
X3365741Y8918306D01*
X3365742Y8918304D01*
X3420489Y8798426D01*
X3506790Y8698829D01*
X3506792Y8698827D01*
X3510859Y8696214D01*
X3515118Y8693477D01*
X3551534Y8645632D01*
X3555500Y8619528D01*
X3555500Y5621724D01*
X3553811Y5604576D01*
X3550514Y5588001D01*
X3550514Y5588000D01*
X3570266Y5488698D01*
X3613656Y5423760D01*
X3613672Y5423738D01*
X3626516Y5404516D01*
X3640561Y5395132D01*
X3653881Y5384201D01*
X5892199Y3145883D01*
X5903129Y3132564D01*
X5912516Y3118515D01*
X5927019Y3108825D01*
X5932234Y3105341D01*
X5932242Y3105335D01*
X5933763Y3104319D01*
X5933766Y3104316D01*
X5985861Y3069509D01*
X5993050Y3062992D01*
X5996699Y3062267D01*
X5996699Y3062266D01*
X6070933Y3047500D01*
X6070937Y3047500D01*
X6096000Y3042515D01*
X6112571Y3045812D01*
X6129719Y3047500D01*
X16984276Y3047500D01*
X17001424Y3045811D01*
X17017999Y3042514D01*
X17017999Y3042515D01*
X17018000Y3042514D01*
X17117301Y3062266D01*
X17180234Y3104316D01*
X17180234Y3104318D01*
X17186423Y3108452D01*
X17186430Y3108459D01*
X17201484Y3118516D01*
X17210870Y3132564D01*
X17221795Y3145879D01*
X18190121Y4114205D01*
X18203437Y4125131D01*
X18217484Y4134516D01*
X18227541Y4149570D01*
X18227548Y4149577D01*
X18231682Y4155766D01*
X18231684Y4155766D01*
X18273734Y4218699D01*
X18293486Y4318000D01*
X18293302Y4318923D01*
X18290189Y4334576D01*
X18288500Y4351724D01*
X18288500Y6174778D01*
X18309065Y6231279D01*
X18328880Y6248726D01*
X18337209Y6254078D01*
X18423511Y6353676D01*
X18478258Y6473554D01*
X18478554Y6475613D01*
X18497013Y6603997D01*
X18497013Y6604004D01*
X18478259Y6734440D01*
X18478258Y6734441D01*
X18478258Y6734446D01*
X18423511Y6854324D01*
X18423510Y6854325D01*
X18423510Y6854326D01*
X18380360Y6904124D01*
X18337209Y6953922D01*
X18337206Y6953924D01*
X18337205Y6953925D01*
X18226346Y7025170D01*
X18226343Y7025171D01*
X18197133Y7033748D01*
X18099898Y7062300D01*
X18099894Y7062300D01*
X17968106Y7062300D01*
X17968101Y7062300D01*
X17841657Y7025171D01*
X17841653Y7025170D01*
X17730794Y6953925D01*
X17730789Y6953920D01*
X17644488Y6854324D01*
X17644487Y6854322D01*
X17630856Y6824474D01*
X17588679Y6781622D01*
X17528824Y6775906D01*
X17479299Y6810002D01*
X17463000Y6860989D01*
X17463000Y7162762D01*
X19550334Y7162762D01*
X19550334Y5637722D01*
X19550335Y5637722D01*
X22405231Y5637722D01*
X22405232Y5637722D01*
X22405232Y7162762D01*
X19550334Y7162762D01*
X17463000Y7162762D01*
X17463000Y7212604D01*
X17483565Y7269105D01*
X17484471Y7270167D01*
X17487344Y7273482D01*
X17502661Y7291159D01*
X17557408Y7411037D01*
X17576163Y7541483D01*
X17576163Y7541487D01*
X17557409Y7671923D01*
X17557408Y7671924D01*
X17557408Y7671929D01*
X17502661Y7791807D01*
X17502660Y7791808D01*
X17502660Y7791809D01*
X17439632Y7864546D01*
X17416359Y7891405D01*
X17416356Y7891407D01*
X17416355Y7891408D01*
X17305496Y7962653D01*
X17305493Y7962654D01*
X17280203Y7970080D01*
X17179048Y7999783D01*
X17179044Y7999783D01*
X17114892Y7999783D01*
X17071786Y8015473D01*
X17056567Y8002702D01*
X17051268Y8000962D01*
X16920807Y7962655D01*
X16920803Y7962653D01*
X16809944Y7891408D01*
X16809939Y7891403D01*
X16723639Y7791809D01*
X16668892Y7671929D01*
X16668890Y7671923D01*
X16650137Y7541487D01*
X16650137Y7541480D01*
X16668890Y7411044D01*
X16668892Y7411038D01*
X16723639Y7291158D01*
X16753318Y7256907D01*
X16809941Y7191561D01*
X16913622Y7124930D01*
X16950036Y7077084D01*
X16954000Y7050984D01*
X16954000Y6743954D01*
X16952311Y6726806D01*
X16949014Y6710231D01*
X16949014Y6710230D01*
X16968766Y6610928D01*
X17012156Y6545990D01*
X17012172Y6545968D01*
X17019942Y6534340D01*
X17025016Y6526746D01*
X17039061Y6517362D01*
X17052381Y6506431D01*
X17260026Y6298786D01*
X17448955Y6109858D01*
X17474366Y6055364D01*
X17474700Y6047703D01*
X17474700Y4586080D01*
X17454135Y4529579D01*
X17448955Y4523925D01*
X16812075Y3887045D01*
X16757581Y3861634D01*
X16749920Y3861300D01*
X13865159Y3861300D01*
X13808658Y3881865D01*
X13778594Y3933936D01*
X13789035Y3993150D01*
X13798729Y4006762D01*
X13851510Y4067675D01*
X13851509Y4067675D01*
X13851511Y4067676D01*
X13906258Y4187554D01*
X13925013Y4318000D01*
X13925012Y4318001D01*
X13925728Y4322975D01*
X13954123Y4375974D01*
X14009943Y4398322D01*
X14046368Y4391676D01*
X14169764Y4340563D01*
X14256098Y4329197D01*
X14282278Y4325750D01*
X14282280Y4325750D01*
X14357722Y4325750D01*
X14381172Y4328838D01*
X14470236Y4340563D01*
X14610233Y4398552D01*
X14730451Y4490799D01*
X14822698Y4611017D01*
X14880687Y4751014D01*
X14894652Y4857090D01*
X14918795Y4903469D01*
X14899201Y4926821D01*
X14894652Y4945412D01*
X14893141Y4956885D01*
X14880687Y5051486D01*
X14822698Y5191483D01*
X14730451Y5311701D01*
X14635968Y5384201D01*
X14610235Y5403947D01*
X14610233Y5403948D01*
X14470236Y5461937D01*
X14357722Y5476750D01*
X14357720Y5476750D01*
X14282280Y5476750D01*
X14282278Y5476750D01*
X14169763Y5461937D01*
X14029766Y5403948D01*
X14029764Y5403947D01*
X13909552Y5311704D01*
X13909546Y5311698D01*
X13817303Y5191486D01*
X13817302Y5191484D01*
X13759313Y5051487D01*
X13739534Y4901250D01*
X13747534Y4840481D01*
X13734520Y4781779D01*
X13686818Y4745176D01*
X13635622Y4744669D01*
X13527900Y4776299D01*
X13527894Y4776300D01*
X13396106Y4776300D01*
X13396101Y4776300D01*
X13269658Y4739172D01*
X13269655Y4739171D01*
X13184979Y4684752D01*
X13137457Y4670798D01*
X9722543Y4670798D01*
X9675021Y4684752D01*
X9590344Y4739171D01*
X9590341Y4739172D01*
X9463898Y4776300D01*
X9463894Y4776300D01*
X9332106Y4776300D01*
X9332105Y4776300D01*
X9332099Y4776299D01*
X9224377Y4744669D01*
X9164371Y4748482D01*
X9120855Y4789975D01*
X9112465Y4840480D01*
X9120466Y4901250D01*
X9100687Y5051486D01*
X9042698Y5191483D01*
X8950451Y5311701D01*
X8855968Y5384201D01*
X8830235Y5403947D01*
X8830233Y5403948D01*
X8690236Y5461937D01*
X8577722Y5476750D01*
X8577720Y5476750D01*
X8502280Y5476750D01*
X8502278Y5476750D01*
X8389763Y5461937D01*
X8249766Y5403948D01*
X8249764Y5403947D01*
X8129552Y5311704D01*
X8129546Y5311698D01*
X8037303Y5191486D01*
X8037302Y5191484D01*
X7979313Y5051487D01*
X7965347Y4945411D01*
X7941203Y4899032D01*
X7960794Y4875690D01*
X7965347Y4857090D01*
X7979313Y4751014D01*
X8037302Y4611017D01*
X8037303Y4611015D01*
X8056437Y4586080D01*
X8129549Y4490799D01*
X8249767Y4398552D01*
X8389764Y4340563D01*
X8476098Y4329197D01*
X8502278Y4325750D01*
X8502280Y4325750D01*
X8577722Y4325750D01*
X8598959Y4328547D01*
X8690236Y4340563D01*
X8813630Y4391676D01*
X8873697Y4394298D01*
X8921400Y4357695D01*
X8934271Y4322975D01*
X8953740Y4187561D01*
X8953742Y4187555D01*
X9008489Y4067675D01*
X9061271Y4006762D01*
X9082730Y3950595D01*
X9063064Y3893774D01*
X9011476Y3862888D01*
X8994841Y3861300D01*
X6364080Y3861300D01*
X6307579Y3881865D01*
X6301925Y3887045D01*
X5360245Y4828725D01*
X5354884Y4840222D01*
X6433700Y4840222D01*
X6445969Y4739171D01*
X6448573Y4717730D01*
X6448575Y4717726D01*
X6506983Y4563714D01*
X6506983Y4563713D01*
X6591341Y4441500D01*
X6600556Y4428150D01*
X6723852Y4318920D01*
X6869705Y4242370D01*
X7029639Y4202950D01*
X7029641Y4202950D01*
X7194358Y4202950D01*
X7194361Y4202950D01*
X7354295Y4242370D01*
X7500148Y4318920D01*
X7623444Y4428150D01*
X7717016Y4563713D01*
X7775427Y4717730D01*
X7790300Y4840220D01*
X7790300Y4845608D01*
X7810857Y4902109D01*
X7814001Y4903925D01*
X7792382Y4937861D01*
X7790300Y4956876D01*
X7790300Y6022280D01*
X7775427Y6144770D01*
X7717016Y6298787D01*
X7717016Y6298788D01*
X7623446Y6434347D01*
X7623444Y6434350D01*
X7500148Y6543580D01*
X7500146Y6543581D01*
X7500145Y6543582D01*
X7445135Y6572453D01*
X7354295Y6620130D01*
X7354292Y6620131D01*
X7275756Y6639488D01*
X7194361Y6659550D01*
X7029639Y6659550D01*
X6950801Y6640119D01*
X6869707Y6620131D01*
X6869705Y6620131D01*
X6869705Y6620130D01*
X6821087Y6594614D01*
X6723854Y6543582D01*
X6723849Y6543578D01*
X6600553Y6434347D01*
X6506983Y6298788D01*
X6506983Y6298787D01*
X6454065Y6159252D01*
X6448573Y6144770D01*
X6448572Y6144768D01*
X6448572Y6144765D01*
X6433700Y6022279D01*
X6433700Y4840222D01*
X5354884Y4840222D01*
X5334834Y4883219D01*
X5334500Y4890880D01*
X5334500Y6931081D01*
X5355065Y6987582D01*
X5407136Y7017646D01*
X5422400Y7018981D01*
X5969757Y7018981D01*
X5986905Y7017292D01*
X6003480Y7013995D01*
X6003480Y7013996D01*
X6003481Y7013995D01*
X6102782Y7033747D01*
X6165715Y7075797D01*
X6165715Y7075799D01*
X6171904Y7079933D01*
X6171911Y7079940D01*
X6186965Y7089997D01*
X6186967Y7090001D01*
X6188527Y7091559D01*
X6191093Y7092756D01*
X6194167Y7094809D01*
X6194483Y7094336D01*
X6243023Y7116966D01*
X6250678Y7117300D01*
X6371493Y7117300D01*
X6371494Y7117300D01*
X6371496Y7117301D01*
X6371498Y7117301D01*
X6386527Y7121715D01*
X6497943Y7154429D01*
X6608809Y7225678D01*
X6695111Y7325276D01*
X6749858Y7445154D01*
X6761773Y7528025D01*
X6768613Y7575597D01*
X6768613Y7575604D01*
X6749859Y7706040D01*
X6749858Y7706041D01*
X6749858Y7706046D01*
X6695111Y7825924D01*
X6695110Y7825925D01*
X6695110Y7825926D01*
X6648861Y7879299D01*
X6608809Y7925522D01*
X6608806Y7925524D01*
X6608805Y7925525D01*
X6497946Y7996770D01*
X6483670Y8000962D01*
X6435252Y8036614D01*
X6425613Y8076352D01*
X6393651Y8042964D01*
X6354775Y8033900D01*
X6239701Y8033900D01*
X6113257Y7996771D01*
X6113253Y7996770D01*
X6002394Y7925525D01*
X6002389Y7925520D01*
X5916089Y7825926D01*
X5861342Y7706046D01*
X5861340Y7706040D01*
X5846579Y7603372D01*
X5818183Y7550372D01*
X5762363Y7528025D01*
X5759574Y7527981D01*
X5422400Y7527981D01*
X5365899Y7548546D01*
X5335835Y7600617D01*
X5334500Y7615881D01*
X5334500Y8333492D01*
X6312201Y8333492D01*
X6322516Y8281625D01*
X6361811Y8222818D01*
X6361817Y8222812D01*
X6403611Y8194885D01*
X6439164Y8146395D01*
X6438041Y8129269D01*
X6447781Y8148919D01*
X6502865Y8173024D01*
X6508437Y8173201D01*
X6876100Y8173201D01*
X6876100Y8173202D01*
X7053899Y8173202D01*
X7053900Y8173201D01*
X7457509Y8173201D01*
X7509375Y8183517D01*
X7568182Y8222812D01*
X7568188Y8222818D01*
X7607483Y8281625D01*
X7617800Y8333488D01*
X7617800Y8862099D01*
X7617799Y8862100D01*
X7053901Y8862100D01*
X7053899Y8862099D01*
X7053899Y8173202D01*
X6876100Y8173202D01*
X6876100Y8862099D01*
X6876099Y8862100D01*
X6312202Y8862100D01*
X6312201Y8862099D01*
X6312201Y8333492D01*
X5334500Y8333492D01*
X5334500Y8767482D01*
X5336189Y8784631D01*
X5339485Y8801200D01*
X5334500Y8826263D01*
X5334500Y8826267D01*
X5319734Y8900501D01*
X5319734Y8900502D01*
X5282319Y8956495D01*
X5263484Y8984684D01*
X5249433Y8994073D01*
X5236114Y9005003D01*
X5201216Y9039901D01*
X6312200Y9039901D01*
X6312201Y9039900D01*
X6876099Y9039900D01*
X6876100Y9039901D01*
X6876100Y9728799D01*
X6876099Y9728800D01*
X6472486Y9728800D01*
X6472484Y9728799D01*
X6420628Y9718486D01*
X6420624Y9718484D01*
X6361817Y9679189D01*
X6361811Y9679183D01*
X6322516Y9620376D01*
X6312200Y9568513D01*
X6312200Y9039901D01*
X5201216Y9039901D01*
X3836245Y10404873D01*
X3810834Y10459367D01*
X3810500Y10467028D01*
X3810500Y12350175D01*
X3831065Y12406676D01*
X3883136Y12436740D01*
X3942350Y12426299D01*
X3964824Y12407742D01*
X4014791Y12350078D01*
X4014793Y12350077D01*
X4014794Y12350076D01*
X4125653Y12278831D01*
X4125654Y12278831D01*
X4125657Y12278829D01*
X4211782Y12253541D01*
X4252101Y12241701D01*
X4252104Y12241701D01*
X4252106Y12241700D01*
X4252107Y12241700D01*
X4383893Y12241700D01*
X4383894Y12241700D01*
X4383896Y12241701D01*
X4383898Y12241701D01*
X4398927Y12246115D01*
X4510343Y12278829D01*
X4621209Y12350078D01*
X4707511Y12449676D01*
X4762258Y12569554D01*
X4766736Y12600701D01*
X4781013Y12699997D01*
X4781013Y12700004D01*
X4769009Y12783492D01*
X6312201Y12783492D01*
X6322516Y12731625D01*
X6361811Y12672818D01*
X6361817Y12672812D01*
X6420624Y12633517D01*
X6472486Y12623201D01*
X6876100Y12623201D01*
X6876100Y13312099D01*
X6876099Y13312100D01*
X6312202Y13312100D01*
X6312201Y13312099D01*
X6312201Y12783492D01*
X4769009Y12783492D01*
X4762259Y12830440D01*
X4762258Y12830441D01*
X4762258Y12830446D01*
X4707511Y12950324D01*
X4707510Y12950325D01*
X4707510Y12950326D01*
X4664360Y13000124D01*
X4621209Y13049922D01*
X4621206Y13049924D01*
X4621205Y13049925D01*
X4510346Y13121170D01*
X4510343Y13121171D01*
X4472067Y13132410D01*
X4381635Y13158964D01*
X4333217Y13194614D01*
X4318500Y13243303D01*
X4318500Y13489901D01*
X6312200Y13489901D01*
X6312201Y13489900D01*
X6876099Y13489900D01*
X6876100Y13489901D01*
X6876100Y14178799D01*
X6876099Y14178800D01*
X6472486Y14178800D01*
X6472484Y14178799D01*
X6420628Y14168486D01*
X6420624Y14168484D01*
X6361817Y14129189D01*
X6361811Y14129183D01*
X6322516Y14070376D01*
X6312200Y14018513D01*
X6312200Y13489901D01*
X4318500Y13489901D01*
X4318500Y16599142D01*
X4339065Y16655643D01*
X4391136Y16685707D01*
X4450350Y16675266D01*
X4468555Y16661297D01*
X4672754Y16457098D01*
X4698165Y16402604D01*
X4698499Y16394943D01*
X4698499Y15526986D01*
X4690556Y15490471D01*
X4635742Y15370446D01*
X4635740Y15370440D01*
X4616987Y15240004D01*
X4616987Y15239997D01*
X4635740Y15109561D01*
X4635742Y15109555D01*
X4690489Y14989675D01*
X4729879Y14944217D01*
X4776791Y14890078D01*
X4776793Y14890077D01*
X4776794Y14890076D01*
X4887653Y14818831D01*
X4887654Y14818831D01*
X4887657Y14818829D01*
X4973782Y14793541D01*
X5014101Y14781701D01*
X5014104Y14781701D01*
X5014106Y14781700D01*
X5014107Y14781700D01*
X5145893Y14781700D01*
X5145894Y14781700D01*
X5145896Y14781701D01*
X5145898Y14781701D01*
X5160927Y14786115D01*
X5272343Y14818829D01*
X5383209Y14890078D01*
X5469511Y14989676D01*
X5524258Y15109554D01*
X5530775Y15154878D01*
X5543013Y15239997D01*
X5543013Y15240004D01*
X5524259Y15370440D01*
X5524258Y15370442D01*
X5524258Y15370446D01*
X5524256Y15370449D01*
X5524256Y15370452D01*
X5469444Y15490472D01*
X5461500Y15526987D01*
X5461500Y16077603D01*
X5482065Y16134104D01*
X5534136Y16164168D01*
X5593350Y16153727D01*
X5622484Y16126440D01*
X5644316Y16093766D01*
X5644319Y16093763D01*
X5658516Y16072516D01*
X5672561Y16063132D01*
X5685881Y16052201D01*
X7388355Y14349728D01*
X7413766Y14295234D01*
X7414100Y14287573D01*
X7414100Y14266700D01*
X7393535Y14210199D01*
X7341464Y14180135D01*
X7326200Y14178800D01*
X7053899Y14178800D01*
X7053900Y13489900D01*
X7053899Y12623202D01*
X7053900Y12623201D01*
X7326200Y12623201D01*
X7382701Y12602636D01*
X7412765Y12550565D01*
X7414100Y12535301D01*
X7414100Y11606901D01*
X7399287Y11558068D01*
X7379666Y11528702D01*
X7359914Y11429401D01*
X7363211Y11412826D01*
X7364900Y11395677D01*
X7364900Y9910824D01*
X7363211Y9893676D01*
X7359914Y9877101D01*
X7359914Y9877100D01*
X7368517Y9833848D01*
X7359370Y9774421D01*
X7314164Y9734776D01*
X7282306Y9728800D01*
X7053899Y9728800D01*
X7053899Y9039902D01*
X7053901Y9039900D01*
X7617798Y9039900D01*
X7617799Y9039901D01*
X7617799Y9306574D01*
X7638364Y9363075D01*
X7690435Y9393139D01*
X7749649Y9382698D01*
X7767854Y9368729D01*
X7934755Y9201828D01*
X7960166Y9147334D01*
X7960500Y9139673D01*
X7960500Y7954037D01*
X7939935Y7897536D01*
X7902218Y7875203D01*
X7903433Y7872270D01*
X7895433Y7868957D01*
X7836454Y7829548D01*
X7836452Y7829546D01*
X7797045Y7770569D01*
X7786700Y7718560D01*
X7786700Y6683437D01*
X7786701Y6683435D01*
X7797043Y6631435D01*
X7797043Y6631434D01*
X7797044Y6631432D01*
X7797045Y6631431D01*
X7836453Y6572453D01*
X7895431Y6533045D01*
X7947439Y6522700D01*
X8482560Y6522701D01*
X8482563Y6522701D01*
X8482565Y6522702D01*
X8534565Y6533044D01*
X8534566Y6533044D01*
X8534566Y6533045D01*
X8534569Y6533045D01*
X8593547Y6572453D01*
X8632955Y6631431D01*
X8643300Y6683439D01*
X8643299Y7718560D01*
X8643299Y7718561D01*
X8643299Y7718564D01*
X8643298Y7718566D01*
X8632956Y7770566D01*
X8632956Y7770567D01*
X8618764Y7791807D01*
X8593547Y7829547D01*
X8534569Y7868955D01*
X8534568Y7868956D01*
X8534567Y7868956D01*
X8526571Y7872268D01*
X8527847Y7875350D01*
X8488842Y7899023D01*
X8469499Y7954034D01*
X8469499Y8738375D01*
X8490064Y8794874D01*
X8542135Y8824938D01*
X8601349Y8814497D01*
X8619554Y8800528D01*
X9034755Y8385328D01*
X9060166Y8330834D01*
X9060500Y8323173D01*
X9060500Y7954037D01*
X9039935Y7897536D01*
X9002218Y7875203D01*
X9003433Y7872270D01*
X8995433Y7868957D01*
X8936454Y7829548D01*
X8936452Y7829546D01*
X8897045Y7770569D01*
X8886700Y7718560D01*
X8886700Y6683437D01*
X8886701Y6683435D01*
X8897043Y6631435D01*
X8897043Y6631434D01*
X8897044Y6631432D01*
X8897045Y6631431D01*
X8936453Y6572453D01*
X8995431Y6533045D01*
X9047439Y6522700D01*
X9582560Y6522701D01*
X9582563Y6522701D01*
X9582565Y6522702D01*
X9634565Y6533044D01*
X9634566Y6533044D01*
X9634566Y6533045D01*
X9634569Y6533045D01*
X9693547Y6572453D01*
X9732955Y6631431D01*
X9743300Y6683439D01*
X9743299Y7718560D01*
X9743299Y7718561D01*
X9743299Y7718564D01*
X9743298Y7718566D01*
X9732956Y7770566D01*
X9732956Y7770567D01*
X9718764Y7791807D01*
X9693547Y7829547D01*
X9634569Y7868955D01*
X9634568Y7868956D01*
X9634567Y7868956D01*
X9626571Y7872268D01*
X9627847Y7875350D01*
X9588840Y7899028D01*
X9569500Y7954036D01*
X9569500Y8431277D01*
X9571189Y8448426D01*
X9574486Y8465000D01*
X9554734Y8564301D01*
X9512684Y8627233D01*
X9511047Y8629683D01*
X9511041Y8629691D01*
X9498484Y8648484D01*
X9498485Y8648484D01*
X9484433Y8657873D01*
X9471114Y8668803D01*
X9338717Y8801200D01*
X9336199Y8803718D01*
X9310789Y8858211D01*
X9326352Y8916289D01*
X9373591Y8950211D01*
X9375237Y8950695D01*
X9464243Y8976829D01*
X9575109Y9048078D01*
X9661411Y9147676D01*
X9716158Y9267554D01*
X9722429Y9311171D01*
X9734913Y9397997D01*
X9734913Y9398004D01*
X9716159Y9528440D01*
X9716158Y9528442D01*
X9716158Y9528446D01*
X9716156Y9528449D01*
X9716156Y9528452D01*
X9661344Y9648472D01*
X9653400Y9684987D01*
X9653400Y14826913D01*
X9661344Y14863428D01*
X9716156Y14983449D01*
X9716156Y14983451D01*
X9716158Y14983454D01*
X9717807Y14994923D01*
X9734913Y15113897D01*
X9734913Y15113904D01*
X9716159Y15244340D01*
X9716158Y15244341D01*
X9716158Y15244346D01*
X9661411Y15364224D01*
X9661410Y15364225D01*
X9661410Y15364226D01*
X9604438Y15429974D01*
X9575109Y15463822D01*
X9575106Y15463824D01*
X9575105Y15463825D01*
X9464246Y15535070D01*
X9464243Y15535071D01*
X9433153Y15544200D01*
X9337798Y15572200D01*
X9337794Y15572200D01*
X9206006Y15572200D01*
X9206005Y15572200D01*
X9130464Y15550019D01*
X9070458Y15553833D01*
X9026942Y15595326D01*
X9017800Y15634359D01*
X9017800Y16094982D01*
X9019489Y16112131D01*
X9022785Y16128700D01*
X9017800Y16153763D01*
X9017800Y16153767D01*
X9003034Y16228001D01*
X9003034Y16228002D01*
X8965619Y16283995D01*
X8946784Y16312184D01*
X8939274Y16317202D01*
X8932733Y16321573D01*
X8919414Y16332503D01*
X7900245Y17351673D01*
X7874834Y17406167D01*
X7874500Y17413828D01*
X7874500Y18508282D01*
X7876189Y18525431D01*
X7879485Y18542001D01*
X7878708Y18545906D01*
X7876188Y18558576D01*
X7874499Y18575709D01*
X7874500Y25462121D01*
X7895065Y25518622D01*
X7900234Y25524265D01*
X8993446Y26617477D01*
X9047939Y26642887D01*
X9106017Y26627324D01*
X9140505Y26578071D01*
X9143500Y26555321D01*
X9143500Y20735739D01*
X9122935Y20679238D01*
X9070864Y20649174D01*
X9011650Y20659615D01*
X8975644Y20699224D01*
X8962012Y20729072D01*
X8962011Y20729074D01*
X8946908Y20746504D01*
X8875709Y20828672D01*
X8875706Y20828674D01*
X8875705Y20828675D01*
X8764846Y20899920D01*
X8764843Y20899921D01*
X8732312Y20909473D01*
X8638398Y20937050D01*
X8638394Y20937050D01*
X8506606Y20937050D01*
X8506601Y20937050D01*
X8380157Y20899921D01*
X8380153Y20899920D01*
X8269294Y20828675D01*
X8269289Y20828670D01*
X8182989Y20729076D01*
X8128242Y20609196D01*
X8128240Y20609190D01*
X8109487Y20478754D01*
X8109487Y20478747D01*
X8128240Y20348311D01*
X8128243Y20348299D01*
X8183056Y20228278D01*
X8191000Y20191763D01*
X8191000Y19977983D01*
X8170435Y19921482D01*
X8165255Y19915829D01*
X8126902Y19877476D01*
X8126901Y19877474D01*
X8080207Y19777341D01*
X8074200Y19731713D01*
X8074200Y19388287D01*
X8074201Y19388285D01*
X8080205Y19342666D01*
X8080207Y19342660D01*
X8126900Y19242528D01*
X8126901Y19242526D01*
X8205026Y19164401D01*
X8223647Y19155718D01*
X8279518Y19129664D01*
X8322034Y19087147D01*
X8327274Y19027249D01*
X8292786Y18977996D01*
X8279518Y18970336D01*
X8205027Y18935600D01*
X8126900Y18857473D01*
X8080207Y18757341D01*
X8074200Y18711713D01*
X8074200Y18368287D01*
X8074201Y18368285D01*
X8080205Y18322666D01*
X8080207Y18322660D01*
X8126900Y18222528D01*
X8126901Y18222526D01*
X8205026Y18144401D01*
X8305161Y18097707D01*
X8350789Y18091700D01*
X8794210Y18091701D01*
X8794213Y18091701D01*
X8794214Y18091702D01*
X8817024Y18094704D01*
X8839834Y18097706D01*
X8839835Y18097707D01*
X8839839Y18097707D01*
X8939974Y18144401D01*
X8993446Y18197874D01*
X9047939Y18223284D01*
X9106017Y18207721D01*
X9140505Y18158468D01*
X9143500Y18135717D01*
X9143499Y18067723D01*
X9141811Y18050579D01*
X9138514Y18034001D01*
X9138514Y18034000D01*
X9158266Y17934698D01*
X9201656Y17869760D01*
X9201672Y17869738D01*
X9214516Y17850516D01*
X9228564Y17841129D01*
X9241882Y17830200D01*
X9708314Y17363769D01*
X9708316Y17363766D01*
X10134754Y16937328D01*
X10160165Y16882835D01*
X10160499Y16875174D01*
X10160499Y7954037D01*
X10139934Y7897536D01*
X10102218Y7875202D01*
X10103433Y7872270D01*
X10095433Y7868957D01*
X10036454Y7829548D01*
X10036452Y7829546D01*
X9997045Y7770569D01*
X9986700Y7718560D01*
X9986700Y6683437D01*
X9986701Y6683435D01*
X9997043Y6631435D01*
X9997043Y6631434D01*
X9997044Y6631432D01*
X9997045Y6631431D01*
X10036453Y6572453D01*
X10095431Y6533045D01*
X10147439Y6522700D01*
X10682560Y6522701D01*
X10682563Y6522701D01*
X10682565Y6522702D01*
X10734565Y6533044D01*
X10734565Y6533045D01*
X10734569Y6533045D01*
X10741164Y6537453D01*
X10799567Y6551745D01*
X10838834Y6537453D01*
X10845431Y6533045D01*
X10897439Y6522700D01*
X11432560Y6522701D01*
X11432562Y6522701D01*
X11461447Y6528447D01*
X11484569Y6533045D01*
X11484569Y6533046D01*
X11493059Y6534734D01*
X11493553Y6532249D01*
X11536820Y6534139D01*
X11536939Y6534734D01*
X11539371Y6534251D01*
X11541430Y6534340D01*
X11544453Y6533240D01*
X11545429Y6533046D01*
X11545431Y6533045D01*
X11597439Y6522700D01*
X12132560Y6522701D01*
X12132563Y6522701D01*
X12132565Y6522702D01*
X12184565Y6533044D01*
X12184565Y6533045D01*
X12184569Y6533045D01*
X12191164Y6537453D01*
X12249567Y6551745D01*
X12288834Y6537453D01*
X12295431Y6533045D01*
X12347439Y6522700D01*
X12882560Y6522701D01*
X12882563Y6522701D01*
X12882565Y6522702D01*
X12934565Y6533044D01*
X12934566Y6533044D01*
X12934566Y6533045D01*
X12934569Y6533045D01*
X12993547Y6572453D01*
X13032955Y6631431D01*
X13043300Y6683439D01*
X13043300Y6683492D01*
X13287200Y6683492D01*
X13297516Y6631625D01*
X13336811Y6572818D01*
X13336817Y6572812D01*
X13395624Y6533517D01*
X13447486Y6523201D01*
X13626100Y6523201D01*
X13626100Y6523202D01*
X13803899Y6523202D01*
X13803900Y6523201D01*
X13982509Y6523201D01*
X14034375Y6533517D01*
X14093182Y6572812D01*
X14093188Y6572818D01*
X14132483Y6631625D01*
X14142800Y6683488D01*
X14142800Y7112099D01*
X14142799Y7112100D01*
X13803901Y7112100D01*
X13803899Y7112099D01*
X13803899Y6523202D01*
X13626100Y6523202D01*
X13626100Y7112100D01*
X13287202Y7112100D01*
X13287201Y7112099D01*
X13287200Y6683492D01*
X13043300Y6683492D01*
X13043299Y7289901D01*
X13287200Y7289901D01*
X13287201Y7289900D01*
X13626099Y7289900D01*
X13626100Y7289901D01*
X13626100Y7878800D01*
X13803899Y7878800D01*
X13803899Y7289902D01*
X13803901Y7289900D01*
X14142798Y7289900D01*
X14142799Y7289901D01*
X14142799Y7718509D01*
X14132483Y7770376D01*
X14093188Y7829183D01*
X14093182Y7829189D01*
X14034375Y7868484D01*
X13982513Y7878800D01*
X13803899Y7878800D01*
X13626100Y7878800D01*
X13447486Y7878800D01*
X13447484Y7878799D01*
X13395628Y7868486D01*
X13395624Y7868484D01*
X13336817Y7829189D01*
X13336811Y7829183D01*
X13297516Y7770376D01*
X13287200Y7718513D01*
X13287200Y7289901D01*
X13043299Y7289901D01*
X13043299Y7718560D01*
X13043299Y7718561D01*
X13043299Y7718564D01*
X13043298Y7718566D01*
X13032956Y7770566D01*
X13032956Y7770567D01*
X13018764Y7791807D01*
X12993547Y7829547D01*
X12934569Y7868955D01*
X12934568Y7868956D01*
X12934567Y7868956D01*
X12926571Y7872268D01*
X12927847Y7875350D01*
X12888840Y7899028D01*
X12869500Y7954036D01*
X12869500Y8222007D01*
X12871189Y8239156D01*
X12871607Y8241257D01*
X12874486Y8255730D01*
X12854734Y8355031D01*
X12854730Y8355036D01*
X12853526Y8357945D01*
X12853349Y8361994D01*
X12853045Y8363522D01*
X12853280Y8363569D01*
X12850901Y8418015D01*
X12887212Y8465532D01*
X12892341Y8468829D01*
X12892343Y8468829D01*
X13003209Y8540078D01*
X13089511Y8639676D01*
X13144258Y8759554D01*
X13146642Y8776138D01*
X13163013Y8889997D01*
X13163013Y8890004D01*
X13144259Y9020440D01*
X13144258Y9020441D01*
X13144258Y9020446D01*
X13089511Y9140324D01*
X13089510Y9140325D01*
X13089510Y9140326D01*
X13046360Y9190124D01*
X13003209Y9239922D01*
X13003206Y9239924D01*
X13003205Y9239925D01*
X12892346Y9311170D01*
X12892343Y9311171D01*
X12863034Y9319777D01*
X12765898Y9348300D01*
X12765894Y9348300D01*
X12634106Y9348300D01*
X12634101Y9348300D01*
X12536965Y9319777D01*
X12476958Y9323590D01*
X12433442Y9365082D01*
X12424300Y9404116D01*
X12424300Y10382933D01*
X12444865Y10439434D01*
X12450034Y10445077D01*
X13160918Y11155962D01*
X13174232Y11166887D01*
X13188284Y11176275D01*
X13244534Y11260458D01*
X13259300Y11334692D01*
X13259300Y11334697D01*
X13264285Y11359759D01*
X13260988Y11376331D01*
X13259300Y11393478D01*
X13259300Y17511922D01*
X13279865Y17568423D01*
X13285034Y17574066D01*
X13618118Y17907151D01*
X13631432Y17918076D01*
X13645484Y17927464D01*
X13701734Y18011647D01*
X13716500Y18085881D01*
X13716500Y18085886D01*
X13721485Y18110948D01*
X13720410Y18116348D01*
X13729558Y18175775D01*
X13774764Y18215420D01*
X13834877Y18216731D01*
X13868774Y18195653D01*
X13920026Y18144401D01*
X14020161Y18097707D01*
X14065789Y18091700D01*
X14509210Y18091701D01*
X14509213Y18091701D01*
X14509214Y18091702D01*
X14526433Y18093968D01*
X14554836Y18097706D01*
X14555502Y18097900D01*
X14556041Y18097865D01*
X14561507Y18098584D01*
X14561650Y18097498D01*
X14615500Y18093968D01*
X14658934Y18052390D01*
X14668000Y18013512D01*
X14667999Y17350328D01*
X14647434Y17293827D01*
X14642254Y17288174D01*
X14602127Y17248046D01*
X14547634Y17222635D01*
X14539972Y17222300D01*
X14412101Y17222300D01*
X14285657Y17185171D01*
X14285653Y17185170D01*
X14174794Y17113925D01*
X14174789Y17113920D01*
X14088489Y17014326D01*
X14033742Y16894446D01*
X14033740Y16894440D01*
X14014987Y16764004D01*
X14014987Y16763997D01*
X14033740Y16633561D01*
X14033741Y16633556D01*
X14033742Y16633554D01*
X14049458Y16599142D01*
X14088489Y16513675D01*
X14137514Y16457098D01*
X14174791Y16414078D01*
X14174793Y16414077D01*
X14174794Y16414076D01*
X14285653Y16342831D01*
X14285654Y16342831D01*
X14285657Y16342829D01*
X14358048Y16321573D01*
X14412101Y16305701D01*
X14412104Y16305701D01*
X14412106Y16305700D01*
X14412107Y16305700D01*
X14543893Y16305700D01*
X14543894Y16305700D01*
X14543896Y16305701D01*
X14543898Y16305701D01*
X14558927Y16310115D01*
X14670343Y16342829D01*
X14781209Y16414078D01*
X14867511Y16513676D01*
X14922258Y16633554D01*
X14928255Y16675266D01*
X14941013Y16763998D01*
X14941013Y16764000D01*
X14934315Y16810585D01*
X14946629Y16869436D01*
X14959161Y16885245D01*
X15078621Y17004705D01*
X15091937Y17015631D01*
X15102769Y17022869D01*
X15161173Y17037157D01*
X15215099Y17010561D01*
X15239312Y16955525D01*
X15239500Y16949780D01*
X15239500Y15889829D01*
X15218935Y15833328D01*
X15213755Y15827674D01*
X14658881Y15272801D01*
X14645566Y15261873D01*
X14631517Y15252485D01*
X14631515Y15252483D01*
X14618008Y15232271D01*
X14618006Y15232267D01*
X14575265Y15168301D01*
X14555514Y15069001D01*
X14558811Y15052426D01*
X14560500Y15035277D01*
X14560500Y7954037D01*
X14539935Y7897536D01*
X14502218Y7875203D01*
X14503433Y7872270D01*
X14495433Y7868957D01*
X14436454Y7829548D01*
X14436452Y7829546D01*
X14397045Y7770569D01*
X14386700Y7718560D01*
X14386700Y6683437D01*
X14386701Y6683435D01*
X14397043Y6631435D01*
X14397043Y6631434D01*
X14397044Y6631432D01*
X14397045Y6631431D01*
X14436453Y6572453D01*
X14495431Y6533045D01*
X14547439Y6522700D01*
X15082560Y6522701D01*
X15082562Y6522701D01*
X15119093Y6529967D01*
X15178521Y6520820D01*
X15218165Y6475613D01*
X15219476Y6415501D01*
X15208582Y6393824D01*
X15142982Y6298786D01*
X15088088Y6154041D01*
X15084573Y6144770D01*
X15084572Y6144768D01*
X15084572Y6144765D01*
X15069700Y6022279D01*
X15069700Y4956885D01*
X15049135Y4900384D01*
X15045999Y4898574D01*
X15067616Y4864641D01*
X15069700Y4845616D01*
X15069700Y4840222D01*
X15081969Y4739171D01*
X15084573Y4717730D01*
X15084575Y4717726D01*
X15142983Y4563714D01*
X15142983Y4563713D01*
X15227341Y4441500D01*
X15236556Y4428150D01*
X15359852Y4318920D01*
X15505705Y4242370D01*
X15665639Y4202950D01*
X15665641Y4202950D01*
X15830358Y4202950D01*
X15830361Y4202950D01*
X15990295Y4242370D01*
X16136148Y4318920D01*
X16259444Y4428150D01*
X16353016Y4563713D01*
X16411427Y4717730D01*
X16426300Y4840220D01*
X16426300Y6022280D01*
X16411427Y6144770D01*
X16353016Y6298787D01*
X16353016Y6298788D01*
X16256424Y6438726D01*
X16258589Y6440221D01*
X16240000Y6487294D01*
X16259030Y6544330D01*
X16279032Y6562755D01*
X16293547Y6572453D01*
X16332955Y6631431D01*
X16343300Y6683439D01*
X16343299Y7718560D01*
X16343299Y7718561D01*
X16343299Y7718564D01*
X16343298Y7718566D01*
X16332956Y7770566D01*
X16332956Y7770567D01*
X16318764Y7791807D01*
X16293547Y7829547D01*
X16234569Y7868955D01*
X16234568Y7868956D01*
X16234567Y7868956D01*
X16226571Y7872268D01*
X16227847Y7875350D01*
X16188840Y7899028D01*
X16169500Y7954036D01*
X16169500Y8862100D01*
X16512201Y8862100D01*
X16512201Y8333492D01*
X16522516Y8281625D01*
X16561811Y8222818D01*
X16561817Y8222812D01*
X16620624Y8183517D01*
X16672486Y8173201D01*
X17026503Y8173201D01*
X17062865Y8159966D01*
X17076100Y8173201D01*
X17076099Y8862100D01*
X17253900Y8862100D01*
X17253900Y8173202D01*
X17253901Y8173201D01*
X17657509Y8173201D01*
X17709375Y8183517D01*
X17768182Y8222812D01*
X17768188Y8222818D01*
X17807483Y8281625D01*
X17817800Y8333488D01*
X17817800Y8862099D01*
X17817799Y8862100D01*
X17253900Y8862100D01*
X17076099Y8862100D01*
X16512201Y8862100D01*
X16169500Y8862100D01*
X16169500Y9039901D01*
X16512200Y9039901D01*
X16512201Y9039900D01*
X17076099Y9039900D01*
X17076099Y9039901D01*
X17253900Y9039901D01*
X17253901Y9039900D01*
X17817798Y9039900D01*
X17817799Y9039902D01*
X17817799Y9568509D01*
X17807483Y9620376D01*
X17768188Y9679183D01*
X17768182Y9679189D01*
X17709375Y9718484D01*
X17657513Y9728800D01*
X17253901Y9728800D01*
X17253900Y9728799D01*
X17253900Y9039901D01*
X17076099Y9039901D01*
X17076099Y9728800D01*
X16672486Y9728800D01*
X16672484Y9728799D01*
X16620628Y9718486D01*
X16620624Y9718484D01*
X16561817Y9679189D01*
X16561811Y9679183D01*
X16522516Y9620376D01*
X16512200Y9568513D01*
X16512200Y9039901D01*
X16169500Y9039901D01*
X16169500Y11356282D01*
X16171189Y11373431D01*
X16174485Y11390000D01*
X16169500Y11415063D01*
X16169500Y11415067D01*
X16154734Y11489301D01*
X16145138Y11503663D01*
X16111482Y11554034D01*
X16111463Y11554059D01*
X16098484Y11573484D01*
X16084436Y11582871D01*
X16071117Y11593801D01*
X16027645Y11637273D01*
X16002234Y11691767D01*
X16001900Y11699428D01*
X16001900Y12783492D01*
X16512201Y12783492D01*
X16522516Y12731625D01*
X16561811Y12672818D01*
X16561817Y12672812D01*
X16620624Y12633517D01*
X16672486Y12623201D01*
X17076100Y12623201D01*
X17076100Y12623202D01*
X17253900Y12623202D01*
X17253901Y12623201D01*
X17657509Y12623201D01*
X17709375Y12633517D01*
X17768182Y12672812D01*
X17768188Y12672818D01*
X17807483Y12731625D01*
X17817800Y12783488D01*
X17817800Y13312099D01*
X17817799Y13312100D01*
X17253901Y13312100D01*
X17253900Y13312099D01*
X17253900Y12623202D01*
X17076100Y12623202D01*
X17076099Y13312099D01*
X17076099Y13312100D01*
X16512202Y13312100D01*
X16512201Y13312099D01*
X16512201Y12783492D01*
X16001900Y12783492D01*
X16001900Y13489901D01*
X16512200Y13489901D01*
X16512201Y13489900D01*
X17076099Y13489900D01*
X17076099Y13489901D01*
X17253900Y13489901D01*
X17253901Y13489900D01*
X17817798Y13489900D01*
X17817799Y13489901D01*
X17817799Y14018509D01*
X17807483Y14070376D01*
X17768188Y14129183D01*
X17768182Y14129189D01*
X17709375Y14168484D01*
X17657513Y14178800D01*
X17253901Y14178800D01*
X17253900Y14178799D01*
X17253900Y13489901D01*
X17076099Y13489901D01*
X17076099Y14178800D01*
X16672486Y14178800D01*
X16672484Y14178799D01*
X16620628Y14168486D01*
X16620624Y14168484D01*
X16561817Y14129189D01*
X16561811Y14129183D01*
X16522516Y14070376D01*
X16512200Y14018513D01*
X16512200Y13489901D01*
X16001900Y13489901D01*
X16001900Y14008773D01*
X16022465Y14065274D01*
X16027634Y14070917D01*
X17428121Y15471405D01*
X17441437Y15482331D01*
X17455484Y15491716D01*
X17465541Y15506770D01*
X17465548Y15506777D01*
X17469682Y15512966D01*
X17469684Y15512966D01*
X17511734Y15575899D01*
X17531486Y15675200D01*
X17531064Y15677320D01*
X17528189Y15691772D01*
X17526499Y15708925D01*
X17526499Y16991934D01*
X17526499Y18135721D01*
X17547064Y18192219D01*
X17599135Y18222283D01*
X17658349Y18211842D01*
X17676553Y18197873D01*
X17704772Y18169655D01*
X17730026Y18144401D01*
X17830161Y18097707D01*
X17875789Y18091700D01*
X18319210Y18091701D01*
X18319213Y18091701D01*
X18319214Y18091702D01*
X18342024Y18094704D01*
X18364834Y18097706D01*
X18364835Y18097707D01*
X18364839Y18097707D01*
X18464974Y18144401D01*
X18543099Y18222526D01*
X18589793Y18322661D01*
X18595800Y18368289D01*
X18595799Y18711710D01*
X18595799Y18711713D01*
X18595799Y18711714D01*
X18595798Y18711716D01*
X18589794Y18757335D01*
X18589792Y18757341D01*
X18568816Y18802324D01*
X18543099Y18857474D01*
X18464974Y18935599D01*
X18464972Y18935600D01*
X18390481Y18970336D01*
X18347965Y19012852D01*
X18342725Y19072751D01*
X18377213Y19122004D01*
X18390481Y19129664D01*
X18399799Y19134010D01*
X18464974Y19164401D01*
X18543099Y19242526D01*
X18589793Y19342661D01*
X18595800Y19388289D01*
X18595799Y19731710D01*
X18595799Y19731713D01*
X18595799Y19731714D01*
X18595798Y19731716D01*
X18589794Y19777335D01*
X18589792Y19777341D01*
X18576201Y19806486D01*
X18543099Y19877474D01*
X18504743Y19915830D01*
X18479333Y19970322D01*
X18478999Y19977964D01*
X18478999Y20191763D01*
X18486943Y20228278D01*
X18488595Y20231894D01*
X18541758Y20348304D01*
X18545480Y20374191D01*
X18560513Y20478747D01*
X18560513Y20478754D01*
X18541759Y20609190D01*
X18541758Y20609191D01*
X18541758Y20609196D01*
X18487011Y20729074D01*
X18487010Y20729075D01*
X18487010Y20729076D01*
X18416228Y20810762D01*
X18400709Y20828672D01*
X18400706Y20828674D01*
X18400705Y20828675D01*
X18289846Y20899920D01*
X18289843Y20899921D01*
X18257312Y20909473D01*
X18163398Y20937050D01*
X18163394Y20937050D01*
X18031606Y20937050D01*
X18031601Y20937050D01*
X17905157Y20899921D01*
X17905153Y20899920D01*
X17794294Y20828675D01*
X17794289Y20828670D01*
X17707989Y20729076D01*
X17653242Y20609196D01*
X17653240Y20609190D01*
X17634487Y20478754D01*
X17634487Y20478747D01*
X17649519Y20374191D01*
X17637204Y20315338D01*
X17631551Y20310894D01*
X17639876Y20311075D01*
X17686769Y20273442D01*
X17691580Y20264355D01*
X17708056Y20228279D01*
X17716000Y20191763D01*
X17716000Y19977983D01*
X17695435Y19921482D01*
X17690261Y19915836D01*
X17682209Y19907782D01*
X17676555Y19902128D01*
X17622061Y19876717D01*
X17563983Y19892280D01*
X17529495Y19941533D01*
X17526500Y19964283D01*
X17526500Y20146445D01*
X17528189Y20163594D01*
X17531485Y20180163D01*
X17527340Y20200999D01*
X17527340Y20201007D01*
X17526500Y20205230D01*
X17525414Y20210689D01*
X17526007Y20214543D01*
X17525653Y20218137D01*
X17525653Y20218143D01*
X17526561Y20218143D01*
X17534558Y20270115D01*
X17545357Y20279587D01*
X17529844Y20280079D01*
X17489428Y20312847D01*
X17481245Y20325094D01*
X17455484Y20363647D01*
X17441433Y20373036D01*
X17428114Y20383966D01*
X16766507Y21045573D01*
X16079043Y21733038D01*
X16053633Y21787530D01*
X16053299Y21795169D01*
X16053299Y24129997D01*
X17951987Y24129997D01*
X17970740Y23999561D01*
X17970742Y23999555D01*
X18025489Y23879675D01*
X18076497Y23820809D01*
X18111791Y23780078D01*
X18111793Y23780077D01*
X18111794Y23780076D01*
X18222653Y23708831D01*
X18222654Y23708831D01*
X18222657Y23708829D01*
X18308782Y23683541D01*
X18349101Y23671701D01*
X18349104Y23671701D01*
X18349106Y23671700D01*
X18349107Y23671700D01*
X18480893Y23671700D01*
X18480894Y23671700D01*
X18480896Y23671701D01*
X18480898Y23671701D01*
X18497064Y23676448D01*
X18607343Y23708829D01*
X18718209Y23780078D01*
X18804511Y23879676D01*
X18859258Y23999554D01*
X18869106Y24068047D01*
X18878013Y24129997D01*
X18878013Y24130004D01*
X18859259Y24260440D01*
X18859258Y24260441D01*
X18859258Y24260446D01*
X18804511Y24380324D01*
X18804510Y24380325D01*
X18804510Y24380326D01*
X18752381Y24440485D01*
X18718209Y24479922D01*
X18718206Y24479924D01*
X18718205Y24479925D01*
X18607346Y24551170D01*
X18607343Y24551171D01*
X18582053Y24558597D01*
X18480898Y24588300D01*
X18480894Y24588300D01*
X18349106Y24588300D01*
X18349101Y24588300D01*
X18222657Y24551171D01*
X18222653Y24551170D01*
X18111794Y24479925D01*
X18111789Y24479920D01*
X18025489Y24380326D01*
X17970742Y24260446D01*
X17970740Y24260440D01*
X17951987Y24130004D01*
X17951987Y24129997D01*
X16053299Y24129997D01*
X16053300Y26909921D01*
X16073865Y26966422D01*
X16079045Y26972076D01*
X16503543Y27396574D01*
X16938440Y27831472D01*
X16951756Y27842398D01*
X16965803Y27851783D01*
X16975860Y27866837D01*
X16975867Y27866844D01*
X16980001Y27873033D01*
X16980003Y27873033D01*
X17022053Y27935966D01*
X17041805Y28035267D01*
X17038508Y28051843D01*
X17036819Y28068991D01*
X17036819Y36783439D01*
X17057384Y36839940D01*
X17062564Y36845594D01*
X17546049Y37329079D01*
X18036446Y37819477D01*
X18090939Y37844887D01*
X18149017Y37829324D01*
X18183505Y37780071D01*
X18186500Y37757321D01*
X18186500Y27575473D01*
X18165935Y27518972D01*
X18146124Y27501528D01*
X18137792Y27496174D01*
X18051488Y27396573D01*
X17996742Y27276696D01*
X17996740Y27276690D01*
X17977987Y27146254D01*
X17977987Y27146247D01*
X17996740Y27015811D01*
X17996741Y27015806D01*
X17996742Y27015804D01*
X18016712Y26972076D01*
X18051489Y26895925D01*
X18093134Y26847865D01*
X18137791Y26796328D01*
X18137793Y26796327D01*
X18137794Y26796326D01*
X18248653Y26725081D01*
X18248654Y26725081D01*
X18248657Y26725079D01*
X18330717Y26700984D01*
X18375101Y26687951D01*
X18375104Y26687951D01*
X18375106Y26687950D01*
X18375107Y26687950D01*
X18502973Y26687950D01*
X18559474Y26667385D01*
X18565128Y26662205D01*
X19404755Y25822578D01*
X19430166Y25768084D01*
X19430500Y25760423D01*
X19430500Y17764977D01*
X19409935Y17708476D01*
X19357864Y17678412D01*
X19298650Y17688853D01*
X19295078Y17691031D01*
X19242347Y17724920D01*
X19242343Y17724921D01*
X19217053Y17732347D01*
X19115898Y17762050D01*
X19115894Y17762050D01*
X18984106Y17762050D01*
X18984101Y17762050D01*
X18857657Y17724921D01*
X18857653Y17724920D01*
X18746794Y17653675D01*
X18746789Y17653670D01*
X18660489Y17554076D01*
X18605742Y17434196D01*
X18605740Y17434190D01*
X18586987Y17303754D01*
X18586987Y17303747D01*
X18605740Y17173311D01*
X18605741Y17173306D01*
X18605742Y17173304D01*
X18660489Y17053426D01*
X18697632Y17010561D01*
X18745320Y16955525D01*
X18746791Y16953828D01*
X18755121Y16948475D01*
X18791534Y16900630D01*
X18795499Y16874529D01*
X18795499Y15781724D01*
X18793811Y15764579D01*
X18790514Y15748001D01*
X18790514Y15748000D01*
X18810266Y15648698D01*
X18853656Y15583760D01*
X18853672Y15583738D01*
X18866516Y15564516D01*
X18880559Y15555133D01*
X18893881Y15544200D01*
X19023754Y15414326D01*
X19049165Y15359833D01*
X19049499Y15352172D01*
X19049500Y12989303D01*
X19028935Y12932802D01*
X18986365Y12904964D01*
X18857657Y12867171D01*
X18857653Y12867170D01*
X18746794Y12795925D01*
X18746789Y12795920D01*
X18660489Y12696326D01*
X18605742Y12576446D01*
X18605740Y12576440D01*
X18586987Y12446004D01*
X18586987Y12445997D01*
X18605740Y12315561D01*
X18605741Y12315556D01*
X18605742Y12315554D01*
X18622514Y12278829D01*
X18660489Y12195675D01*
X18711497Y12136809D01*
X18746791Y12096078D01*
X18746793Y12096077D01*
X18746794Y12096076D01*
X18857653Y12024831D01*
X18857654Y12024831D01*
X18857657Y12024829D01*
X18943782Y11999541D01*
X18984101Y11987701D01*
X18984104Y11987701D01*
X18984106Y11987700D01*
X18984107Y11987700D01*
X19115893Y11987700D01*
X19115894Y11987700D01*
X19115896Y11987701D01*
X19115898Y11987701D01*
X19130927Y11992115D01*
X19242343Y12024829D01*
X19353209Y12096078D01*
X19439511Y12195676D01*
X19494258Y12315554D01*
X19499179Y12349778D01*
X19513013Y12445997D01*
X19513013Y12446001D01*
X19511857Y12454038D01*
X19504942Y12502132D01*
X19517255Y12560982D01*
X19518833Y12563434D01*
X19543734Y12600699D01*
X19545233Y12608234D01*
X19550262Y12633517D01*
X19560194Y12683447D01*
X19560194Y12683462D01*
X19563485Y12700000D01*
X19563484Y12700004D01*
X19560188Y12716575D01*
X19558499Y12733724D01*
X19558499Y14070928D01*
X19558499Y15429376D01*
X19579063Y15485874D01*
X19631134Y15515938D01*
X19690348Y15505497D01*
X19708553Y15491528D01*
X20591794Y14608288D01*
X20617205Y14553794D01*
X20608324Y14506953D01*
X20542937Y14375639D01*
X20542934Y14375629D01*
X20486229Y14176335D01*
X20486229Y14176334D01*
X20467110Y13970001D01*
X20467110Y13970000D01*
X20486229Y13763667D01*
X20486229Y13763666D01*
X20534946Y13592446D01*
X20542936Y13564365D01*
X20635300Y13378875D01*
X20760174Y13213514D01*
X20851584Y13130183D01*
X20913305Y13073916D01*
X20913314Y13073910D01*
X20966742Y13040829D01*
X21089485Y12964830D01*
X21282707Y12889976D01*
X21282711Y12889976D01*
X21282715Y12889974D01*
X21391601Y12869620D01*
X21486393Y12851900D01*
X21486394Y12851900D01*
X21693606Y12851900D01*
X21693607Y12851900D01*
X21828741Y12877162D01*
X21897284Y12889974D01*
X21897286Y12889975D01*
X21897293Y12889976D01*
X22090515Y12964830D01*
X22266692Y13073914D01*
X22419826Y13213514D01*
X22544700Y13378875D01*
X22637064Y13564365D01*
X22679162Y13712324D01*
X22687056Y13740067D01*
X22722298Y13788783D01*
X22780609Y13803449D01*
X22834705Y13777202D01*
X22859273Y13722324D01*
X22859500Y13716012D01*
X22859499Y2541239D01*
X22859430Y2538775D01*
X22853012Y2424476D01*
X22842539Y2251356D01*
X22841998Y2246645D01*
X22818723Y2109657D01*
X22791280Y1959903D01*
X22790282Y1955656D01*
X22750624Y1817999D01*
X22706498Y1676397D01*
X22705142Y1672651D01*
X22649609Y1538582D01*
X22589357Y1404712D01*
X22587745Y1401490D01*
X22517044Y1273561D01*
X22441440Y1148499D01*
X22439672Y1145803D01*
X22355325Y1026927D01*
X22354078Y1025254D01*
X22264726Y911206D01*
X22262900Y909025D01*
X22165654Y800205D01*
X22163960Y798413D01*
X22061587Y696040D01*
X22059795Y694346D01*
X21950975Y597100D01*
X21948794Y595274D01*
X21834746Y505922D01*
X21833073Y504675D01*
X21714197Y420328D01*
X21711501Y418560D01*
X21586444Y342960D01*
X21574698Y336468D01*
X21458510Y272255D01*
X21455288Y270643D01*
X21321418Y210391D01*
X21187349Y154858D01*
X21183603Y153502D01*
X21042001Y109376D01*
X20904344Y69718D01*
X20900097Y68720D01*
X20750343Y41277D01*
X20613355Y18002D01*
X20608644Y17461D01*
X20435524Y6988D01*
X20321226Y569D01*
X20318761Y500D01*
X17371957Y500D01*
X17315456Y21065D01*
X17285392Y73136D01*
X17295833Y132350D01*
X17341893Y170999D01*
X17347167Y172732D01*
X17355053Y175047D01*
X17476128Y252857D01*
X17570377Y361627D01*
X17630165Y492543D01*
X17639214Y555483D01*
X17650647Y634997D01*
X17650647Y635004D01*
X17630166Y777451D01*
X17630165Y777452D01*
X17630165Y777457D01*
X17570377Y908373D01*
X17476128Y1017143D01*
X17476126Y1017144D01*
X17476124Y1017146D01*
X17355054Y1094953D01*
X17355050Y1094954D01*
X17216967Y1135499D01*
X17216961Y1135500D01*
X17073039Y1135500D01*
X17073038Y1135500D01*
X17073032Y1135499D01*
X16934949Y1094954D01*
X16934945Y1094953D01*
X16813875Y1017146D01*
X16813870Y1017142D01*
X16719622Y908372D01*
X16659835Y777457D01*
X16659833Y777451D01*
X16639353Y635004D01*
X16639353Y634997D01*
X16659833Y492550D01*
X16659834Y492545D01*
X16659835Y492543D01*
X16719623Y361627D01*
X16762304Y312370D01*
X16794617Y275078D01*
X16813872Y252857D01*
X16934947Y175047D01*
X16942808Y172739D01*
X16991226Y137090D01*
X17005401Y78658D01*
X16978701Y24784D01*
X16923618Y677D01*
X16918043Y500D01*
X2541239Y500D01*
X2538774Y569D01*
X2424475Y6988D01*
X2251354Y17461D01*
X2246643Y18002D01*
X2109656Y41277D01*
X1990011Y63203D01*
X1959897Y68721D01*
X1955654Y69718D01*
X1817998Y109376D01*
X1676395Y153502D01*
X1672649Y154858D01*
X1538581Y210391D01*
X1404710Y270643D01*
X1401488Y272255D01*
X1273576Y342948D01*
X1148495Y418562D01*
X1145801Y420328D01*
X1026925Y504675D01*
X1025270Y505908D01*
X961993Y555483D01*
X911204Y595274D01*
X909023Y597100D01*
X800203Y694346D01*
X798411Y696040D01*
X696038Y798413D01*
X694344Y800205D01*
X597098Y909025D01*
X595272Y911206D01*
X564945Y949915D01*
X505897Y1025285D01*
X504673Y1026927D01*
X456406Y1094953D01*
X420320Y1145812D01*
X418569Y1148482D01*
X342956Y1273561D01*
X289000Y1371187D01*
X272253Y1401490D01*
X270641Y1404712D01*
X210390Y1538582D01*
X206997Y1546773D01*
X154851Y1672664D01*
X153500Y1676397D01*
X116751Y1794327D01*
X109372Y1818010D01*
X101655Y1844796D01*
X69710Y1955682D01*
X68726Y1959868D01*
X41288Y2109584D01*
X17998Y2246661D01*
X17459Y2251357D01*
X6992Y2424397D01*
X4410Y2470375D01*
X634685Y2470375D01*
X649968Y2331480D01*
X665129Y2193694D01*
X687097Y2109663D01*
X735533Y1924394D01*
X844389Y1668235D01*
X844390Y1668233D01*
X844392Y1668229D01*
X844393Y1668228D01*
X906622Y1566261D01*
X989395Y1430633D01*
X1167437Y1216693D01*
X1167442Y1216688D01*
X1374745Y1030944D01*
X1374747Y1030943D01*
X1374750Y1030940D01*
X1606875Y877368D01*
X1606883Y877363D01*
X1858909Y759218D01*
X1858913Y759217D01*
X1858915Y759216D01*
X1904040Y745640D01*
X2125451Y679027D01*
X2125455Y679027D01*
X2125457Y679026D01*
X2132096Y678049D01*
X2400828Y638500D01*
X2400835Y638500D01*
X2609493Y638500D01*
X2730473Y647355D01*
X2817601Y653732D01*
X3089286Y714252D01*
X3349263Y813685D01*
X3521271Y910220D01*
X6433700Y910220D01*
X6437689Y877368D01*
X6448557Y787857D01*
X6448573Y787730D01*
X6459386Y759218D01*
X6506983Y633714D01*
X6506983Y633713D01*
X6595191Y505922D01*
X6600556Y498150D01*
X6723852Y388920D01*
X6869705Y312370D01*
X7029639Y272950D01*
X7029641Y272950D01*
X7194358Y272950D01*
X7194361Y272950D01*
X7354295Y312370D01*
X7500148Y388920D01*
X7623444Y498150D01*
X7717016Y633713D01*
X7775427Y787730D01*
X7790300Y910220D01*
X7790300Y1162349D01*
X15070199Y1162349D01*
X15070200Y910254D01*
X15085061Y787857D01*
X15085064Y787847D01*
X15143429Y633948D01*
X15143429Y633947D01*
X15236930Y498487D01*
X15236932Y498485D01*
X15360140Y389334D01*
X15505883Y312843D01*
X15505886Y312841D01*
X15659099Y275078D01*
X15659099Y664638D01*
X15719840Y647355D01*
X15831521Y657704D01*
X15836900Y660383D01*
X15836900Y275079D01*
X15990113Y312841D01*
X15990116Y312843D01*
X16135859Y389334D01*
X16259067Y498485D01*
X16259069Y498487D01*
X16352570Y633947D01*
X16352570Y633948D01*
X16410935Y787847D01*
X16410938Y787857D01*
X16425800Y910254D01*
X16425800Y1162349D01*
X16425799Y1162350D01*
X16048000Y1162350D01*
X16048000Y1340150D01*
X16425799Y1340150D01*
X16425800Y1340151D01*
X16425800Y1592247D01*
X16410938Y1714644D01*
X16410935Y1714654D01*
X16352570Y1868553D01*
X16352570Y1868554D01*
X16259069Y2004014D01*
X16259067Y2004016D01*
X16135859Y2113167D01*
X15990114Y2189660D01*
X15836900Y2227424D01*
X15836900Y1837863D01*
X15776160Y1855145D01*
X15664479Y1844796D01*
X15659099Y1842118D01*
X15659099Y2227424D01*
X15505886Y2189660D01*
X15505882Y2189658D01*
X15360140Y2113167D01*
X15236932Y2004016D01*
X15236930Y2004014D01*
X15143429Y1868554D01*
X15143429Y1868553D01*
X15085064Y1714654D01*
X15085061Y1714644D01*
X15070200Y1592247D01*
X15070199Y1340151D01*
X15070201Y1340150D01*
X15448000Y1340150D01*
X15448000Y1162350D01*
X15070201Y1162350D01*
X15070199Y1162349D01*
X7790300Y1162349D01*
X7790300Y1592280D01*
X7775427Y1714770D01*
X7717016Y1868787D01*
X7717016Y1868788D01*
X7623676Y2004014D01*
X7623444Y2004350D01*
X7500148Y2113580D01*
X7500146Y2113581D01*
X7500145Y2113582D01*
X7456612Y2136430D01*
X7354295Y2190130D01*
X7354292Y2190131D01*
X7298986Y2203763D01*
X7194361Y2229550D01*
X7029639Y2229550D01*
X6950801Y2210119D01*
X6869707Y2190131D01*
X6869705Y2190131D01*
X6869705Y2190130D01*
X6821087Y2164614D01*
X6723854Y2113582D01*
X6723849Y2113578D01*
X6600553Y2004347D01*
X6506983Y1868788D01*
X6506983Y1868787D01*
X6454065Y1729252D01*
X6448573Y1714770D01*
X6448572Y1714768D01*
X6448572Y1714765D01*
X6442922Y1668233D01*
X6433700Y1592280D01*
X6433700Y910220D01*
X3521271Y910220D01*
X3591993Y949911D01*
X3812301Y1120028D01*
X4005492Y1320408D01*
X4167449Y1546782D01*
X4294719Y1794325D01*
X4302796Y1817999D01*
X4339655Y1926044D01*
X4384591Y2057761D01*
X4435148Y2331474D01*
X4440224Y2470375D01*
X18414685Y2470375D01*
X18429968Y2331480D01*
X18445129Y2193694D01*
X18467097Y2109663D01*
X18515533Y1924394D01*
X18624389Y1668235D01*
X18624390Y1668233D01*
X18624392Y1668229D01*
X18624393Y1668228D01*
X18686622Y1566261D01*
X18769395Y1430633D01*
X18947437Y1216693D01*
X18947442Y1216688D01*
X19154745Y1030944D01*
X19154747Y1030943D01*
X19154750Y1030940D01*
X19386875Y877368D01*
X19386883Y877363D01*
X19638909Y759218D01*
X19638913Y759217D01*
X19638915Y759216D01*
X19684040Y745640D01*
X19905451Y679027D01*
X19905455Y679027D01*
X19905457Y679026D01*
X19912096Y678049D01*
X20180828Y638500D01*
X20180835Y638500D01*
X20389493Y638500D01*
X20510473Y647355D01*
X20597601Y653732D01*
X20869286Y714252D01*
X21129263Y813685D01*
X21371993Y949911D01*
X21592301Y1120028D01*
X21785492Y1320408D01*
X21947449Y1546782D01*
X22074719Y1794325D01*
X22082796Y1817999D01*
X22119655Y1926043D01*
X22164591Y2057761D01*
X22215148Y2331474D01*
X22225314Y2609632D01*
X22194871Y2886306D01*
X22124469Y3155599D01*
X22015607Y3411772D01*
X21870607Y3649364D01*
X21870604Y3649368D01*
X21692562Y3863308D01*
X21692556Y3863314D01*
X21485249Y4049061D01*
X21253124Y4202633D01*
X21253120Y4202635D01*
X21253117Y4202637D01*
X21001091Y4320782D01*
X21001089Y4320783D01*
X21001084Y4320785D01*
X20734551Y4400973D01*
X20734542Y4400975D01*
X20459182Y4441499D01*
X20459176Y4441500D01*
X20459172Y4441500D01*
X20250511Y4441500D01*
X20250507Y4441500D01*
X20042402Y4426269D01*
X20042396Y4426268D01*
X19770722Y4365751D01*
X19770710Y4365747D01*
X19510736Y4266315D01*
X19268002Y4130087D01*
X19268001Y4130086D01*
X19047699Y3959973D01*
X19047696Y3959970D01*
X18854513Y3759599D01*
X18854505Y3759589D01*
X18692557Y3533228D01*
X18692550Y3533217D01*
X18565279Y3285674D01*
X18475409Y3022242D01*
X18424851Y2748521D01*
X18414685Y2470375D01*
X4440224Y2470375D01*
X4445314Y2609632D01*
X4414871Y2886306D01*
X4344469Y3155599D01*
X4235607Y3411772D01*
X4090607Y3649364D01*
X4090604Y3649368D01*
X3912562Y3863308D01*
X3912556Y3863314D01*
X3705249Y4049061D01*
X3473124Y4202633D01*
X3473120Y4202635D01*
X3473117Y4202637D01*
X3221091Y4320782D01*
X3221089Y4320783D01*
X3221084Y4320785D01*
X2954551Y4400973D01*
X2954542Y4400975D01*
X2679182Y4441499D01*
X2679176Y4441500D01*
X2679172Y4441500D01*
X2470511Y4441500D01*
X2470507Y4441500D01*
X2262402Y4426269D01*
X2262396Y4426268D01*
X1990722Y4365751D01*
X1990710Y4365747D01*
X1730736Y4266315D01*
X1488002Y4130087D01*
X1488001Y4130086D01*
X1267699Y3959973D01*
X1267696Y3959970D01*
X1074513Y3759599D01*
X1074505Y3759589D01*
X912557Y3533228D01*
X912550Y3533217D01*
X785279Y3285674D01*
X695409Y3022242D01*
X644851Y2748521D01*
X634685Y2470375D01*
X4410Y2470375D01*
X569Y2538775D01*
X500Y2541238D01*
X500Y23876012D01*
X21065Y23932513D01*
X73136Y23962577D01*
X132350Y23952136D01*
X170999Y23906076D01*
X172944Y23900067D01*
X207083Y23780081D01*
X222936Y23724365D01*
X315300Y23538875D01*
X315301Y23538874D01*
X315302Y23538872D01*
X335387Y23512275D01*
X440174Y23373514D01*
X494936Y23323592D01*
X593305Y23233916D01*
X593314Y23233910D01*
X632683Y23209534D01*
X769485Y23124830D01*
X962707Y23049976D01*
X962711Y23049976D01*
X962715Y23049974D01*
X1071601Y23029620D01*
X1166393Y23011900D01*
X1166394Y23011900D01*
X1373606Y23011900D01*
X1373607Y23011900D01*
X1508741Y23037162D01*
X1577284Y23049974D01*
X1577286Y23049975D01*
X1577293Y23049976D01*
X1770515Y23124830D01*
X1946692Y23233914D01*
X2099826Y23373514D01*
X2224700Y23538875D01*
X2317064Y23724365D01*
X2367055Y23900067D01*
X2373770Y23923666D01*
X2373770Y23923667D01*
X2373769Y23923667D01*
X2373771Y23923670D01*
X2392890Y24130000D01*
X2373771Y24336330D01*
X2369594Y24351010D01*
X2339393Y24457156D01*
X2317064Y24535635D01*
X2224700Y24721125D01*
X2099826Y24886486D01*
X1982876Y24993100D01*
X1946694Y25026085D01*
X1946685Y25026091D01*
X1770517Y25135169D01*
X1770511Y25135172D01*
X1577296Y25210023D01*
X1577284Y25210027D01*
X1373609Y25248100D01*
X1373607Y25248100D01*
X1166393Y25248100D01*
X1166390Y25248100D01*
X962715Y25210027D01*
X962703Y25210023D01*
X769488Y25135172D01*
X769482Y25135169D01*
X593314Y25026091D01*
X593305Y25026085D01*
X440173Y24886485D01*
X315302Y24721129D01*
X315300Y24721126D01*
X315300Y24721125D01*
X230673Y24551171D01*
X222936Y24535634D01*
X222934Y24535629D01*
X172944Y24359934D01*
X137702Y24311218D01*
X79391Y24296552D01*
X25295Y24322799D01*
X727Y24377678D01*
X500Y24383989D01*
X500Y26416012D01*
X21065Y26472513D01*
X73136Y26502577D01*
X132350Y26492136D01*
X170999Y26446076D01*
X172944Y26440067D01*
X208350Y26315629D01*
X222936Y26264365D01*
X315300Y26078875D01*
X440174Y25913514D01*
X531584Y25830183D01*
X593305Y25773916D01*
X593314Y25773910D01*
X626158Y25753574D01*
X769485Y25664830D01*
X962707Y25589976D01*
X962711Y25589976D01*
X962715Y25589974D01*
X1071601Y25569620D01*
X1166393Y25551900D01*
X1166394Y25551900D01*
X1373606Y25551900D01*
X1373607Y25551900D01*
X1508741Y25577162D01*
X1577284Y25589974D01*
X1577286Y25589975D01*
X1577293Y25589976D01*
X1770515Y25664830D01*
X1946692Y25773914D01*
X2099826Y25913514D01*
X2224700Y26078875D01*
X2317064Y26264365D01*
X2373771Y26463670D01*
X2392890Y26670000D01*
X2373771Y26876330D01*
X2368195Y26895926D01*
X2352557Y26950887D01*
X2317064Y27075635D01*
X2224700Y27261125D01*
X2099826Y27426486D01*
X2015837Y27503052D01*
X1946694Y27566085D01*
X1946685Y27566091D01*
X1770517Y27675169D01*
X1770511Y27675172D01*
X1577296Y27750023D01*
X1577284Y27750027D01*
X1373609Y27788100D01*
X1373607Y27788100D01*
X1166393Y27788100D01*
X1166390Y27788100D01*
X962715Y27750027D01*
X962703Y27750023D01*
X769488Y27675172D01*
X769482Y27675169D01*
X593314Y27566091D01*
X593305Y27566085D01*
X440173Y27426485D01*
X315302Y27261129D01*
X315300Y27261126D01*
X315300Y27261125D01*
X224860Y27079497D01*
X222936Y27075634D01*
X222934Y27075629D01*
X172944Y26899934D01*
X137702Y26851218D01*
X79391Y26836552D01*
X25295Y26862799D01*
X727Y26917678D01*
X500Y26923989D01*
X500Y28956012D01*
X21065Y29012513D01*
X73136Y29042577D01*
X132350Y29032136D01*
X170999Y28986076D01*
X172944Y28980067D01*
X207286Y28859368D01*
X222936Y28804365D01*
X315300Y28618875D01*
X440174Y28453514D01*
X492060Y28406214D01*
X593305Y28313916D01*
X593314Y28313910D01*
X638730Y28285790D01*
X769485Y28204830D01*
X962707Y28129976D01*
X962711Y28129976D01*
X962715Y28129974D01*
X1069969Y28109925D01*
X1166393Y28091900D01*
X1166394Y28091900D01*
X1373606Y28091900D01*
X1373607Y28091900D01*
X1508741Y28117162D01*
X1577284Y28129974D01*
X1577286Y28129975D01*
X1577293Y28129976D01*
X1770515Y28204830D01*
X1946692Y28313914D01*
X2099826Y28453514D01*
X2224700Y28618875D01*
X2317064Y28804365D01*
X2373771Y29003670D01*
X2392890Y29210000D01*
X2373771Y29416330D01*
X2367837Y29437185D01*
X2340892Y29531887D01*
X2317064Y29615635D01*
X2224700Y29801125D01*
X2099826Y29966486D01*
X2015837Y30043052D01*
X1946694Y30106085D01*
X1946685Y30106091D01*
X1770517Y30215169D01*
X1770511Y30215172D01*
X1577296Y30290023D01*
X1577284Y30290027D01*
X1373609Y30328100D01*
X1373607Y30328100D01*
X1166393Y30328100D01*
X1166390Y30328100D01*
X962715Y30290027D01*
X962703Y30290023D01*
X769488Y30215172D01*
X769482Y30215169D01*
X593314Y30106091D01*
X593305Y30106085D01*
X440173Y29966485D01*
X315302Y29801129D01*
X315300Y29801126D01*
X315300Y29801125D01*
X224649Y29619074D01*
X222936Y29615634D01*
X222934Y29615629D01*
X172944Y29439934D01*
X137702Y29391218D01*
X79391Y29376552D01*
X25295Y29402799D01*
X727Y29457678D01*
X500Y29463989D01*
X500Y31496012D01*
X21065Y31552513D01*
X73136Y31582577D01*
X132350Y31572136D01*
X170999Y31526076D01*
X172944Y31520067D01*
X207642Y31398119D01*
X222936Y31344365D01*
X315300Y31158875D01*
X440174Y30993514D01*
X500741Y30938300D01*
X593305Y30853916D01*
X593314Y30853910D01*
X706706Y30783701D01*
X769485Y30744830D01*
X962707Y30669976D01*
X962711Y30669976D01*
X962715Y30669974D01*
X1071601Y30649620D01*
X1166393Y30631900D01*
X1166394Y30631900D01*
X1373606Y30631900D01*
X1373607Y30631900D01*
X1511206Y30657622D01*
X1577284Y30669974D01*
X1577286Y30669975D01*
X1577293Y30669976D01*
X1770515Y30744830D01*
X1946692Y30853914D01*
X2099826Y30993514D01*
X2224700Y31158875D01*
X2317064Y31344365D01*
X2373771Y31543670D01*
X2392890Y31750000D01*
X2373771Y31956330D01*
X2317064Y32155635D01*
X2224700Y32341125D01*
X2099826Y32506486D01*
X2015837Y32583052D01*
X1946694Y32646085D01*
X1946685Y32646091D01*
X1770517Y32755169D01*
X1770511Y32755172D01*
X1577296Y32830023D01*
X1577284Y32830027D01*
X1373609Y32868100D01*
X1373607Y32868100D01*
X1166393Y32868100D01*
X1166390Y32868100D01*
X962715Y32830027D01*
X962703Y32830023D01*
X769488Y32755172D01*
X769482Y32755169D01*
X593314Y32646091D01*
X593305Y32646085D01*
X440173Y32506485D01*
X315302Y32341129D01*
X222936Y32155634D01*
X222934Y32155629D01*
X172944Y31979934D01*
X137702Y31931218D01*
X79391Y31916552D01*
X25295Y31942799D01*
X727Y31997678D01*
X500Y32003989D01*
X500Y34036012D01*
X21065Y34092513D01*
X73136Y34122577D01*
X132350Y34112136D01*
X170999Y34066076D01*
X172944Y34060067D01*
X193933Y33986300D01*
X222936Y33884365D01*
X315300Y33698875D01*
X440174Y33533514D01*
X531584Y33450182D01*
X593305Y33393916D01*
X593308Y33393914D01*
X769485Y33284830D01*
X962707Y33209976D01*
X962711Y33209976D01*
X962715Y33209974D01*
X1071601Y33189620D01*
X1166393Y33171900D01*
X1166394Y33171900D01*
X1373606Y33171900D01*
X1373607Y33171900D01*
X1508741Y33197162D01*
X1577284Y33209974D01*
X1577286Y33209975D01*
X1577293Y33209976D01*
X1770515Y33284830D01*
X1946692Y33393914D01*
X2099826Y33533514D01*
X2224700Y33698875D01*
X2317064Y33884365D01*
X2373771Y34083670D01*
X2392890Y34290000D01*
X2373771Y34496330D01*
X2370100Y34509231D01*
X2352557Y34570887D01*
X2317064Y34695635D01*
X2224700Y34881125D01*
X2099826Y35046486D01*
X2015837Y35123052D01*
X1946694Y35186085D01*
X1946685Y35186091D01*
X1770517Y35295169D01*
X1770511Y35295172D01*
X1577296Y35370023D01*
X1577284Y35370027D01*
X1373609Y35408100D01*
X1373607Y35408100D01*
X1166393Y35408100D01*
X1166390Y35408100D01*
X962715Y35370027D01*
X962703Y35370023D01*
X769488Y35295172D01*
X769482Y35295169D01*
X593314Y35186091D01*
X593305Y35186085D01*
X440173Y35046485D01*
X315302Y34881129D01*
X315300Y34881126D01*
X315300Y34881125D01*
X261510Y34773100D01*
X222936Y34695634D01*
X222934Y34695629D01*
X172944Y34519934D01*
X137702Y34471218D01*
X79391Y34456552D01*
X25295Y34482799D01*
X727Y34537678D01*
X500Y34543989D01*
X500Y36576012D01*
X21065Y36632513D01*
X73136Y36662577D01*
X132350Y36652136D01*
X170999Y36606076D01*
X172944Y36600067D01*
X222934Y36424372D01*
X222936Y36424365D01*
X315300Y36238875D01*
X440174Y36073514D01*
X531584Y35990182D01*
X593305Y35933916D01*
X593308Y35933914D01*
X769485Y35824830D01*
X962707Y35749976D01*
X962711Y35749976D01*
X962715Y35749974D01*
X1071601Y35729620D01*
X1166393Y35711900D01*
X1166394Y35711900D01*
X1373606Y35711900D01*
X1373607Y35711900D01*
X1508741Y35737162D01*
X1577284Y35749974D01*
X1577286Y35749975D01*
X1577293Y35749976D01*
X1770515Y35824830D01*
X1946692Y35933914D01*
X2099826Y36073514D01*
X2224700Y36238875D01*
X2317064Y36424365D01*
X2373771Y36623670D01*
X2392890Y36830000D01*
X2373771Y37036330D01*
X2371637Y37043829D01*
X2341196Y37150820D01*
X2317064Y37235635D01*
X2224700Y37421125D01*
X2099826Y37586486D01*
X2015837Y37663052D01*
X1946694Y37726085D01*
X1946685Y37726091D01*
X1770517Y37835169D01*
X1770511Y37835172D01*
X1577296Y37910023D01*
X1577284Y37910027D01*
X1373609Y37948100D01*
X1373607Y37948100D01*
X1166393Y37948100D01*
X1166390Y37948100D01*
X962715Y37910027D01*
X962703Y37910023D01*
X769488Y37835172D01*
X769482Y37835169D01*
X593314Y37726091D01*
X593305Y37726085D01*
X440173Y37586485D01*
X315302Y37421129D01*
X315300Y37421126D01*
X315300Y37421125D01*
X237192Y37264263D01*
X222936Y37235634D01*
X222934Y37235629D01*
X172944Y37059934D01*
X137702Y37011218D01*
X79391Y36996552D01*
X25295Y37022799D01*
X727Y37077678D01*
X500Y37083989D01*
X500Y39116012D01*
X21065Y39172513D01*
X73136Y39202577D01*
X132350Y39192136D01*
X170999Y39146076D01*
X172944Y39140067D01*
X195332Y39061383D01*
X222936Y38964365D01*
X315300Y38778875D01*
X440174Y38613514D01*
X512885Y38547229D01*
X593305Y38473916D01*
X593308Y38473914D01*
X769485Y38364830D01*
X962707Y38289976D01*
X962711Y38289976D01*
X962715Y38289974D01*
X1071601Y38269620D01*
X1166393Y38251900D01*
X1166394Y38251900D01*
X1373606Y38251900D01*
X1373607Y38251900D01*
X1508741Y38277162D01*
X1577284Y38289974D01*
X1577286Y38289975D01*
X1577293Y38289976D01*
X1770515Y38364830D01*
X1946692Y38473914D01*
X2099826Y38613514D01*
X2224700Y38778875D01*
X2317064Y38964365D01*
X2373771Y39163670D01*
X2392890Y39370000D01*
X2373771Y39576330D01*
X2317064Y39775635D01*
X2224700Y39961125D01*
X2099826Y40126486D01*
X2015837Y40203052D01*
X1946694Y40266085D01*
X1946685Y40266091D01*
X1770517Y40375169D01*
X1770511Y40375172D01*
X1577296Y40450023D01*
X1577284Y40450027D01*
X1373609Y40488100D01*
X1373607Y40488100D01*
X1166393Y40488100D01*
X1166390Y40488100D01*
X962715Y40450027D01*
X962703Y40450023D01*
X769488Y40375172D01*
X769482Y40375169D01*
X593314Y40266091D01*
X593305Y40266085D01*
X440173Y40126485D01*
X315302Y39961129D01*
X315300Y39961126D01*
X315300Y39961125D01*
X243985Y39817905D01*
X222936Y39775634D01*
X222934Y39775629D01*
X172944Y39599934D01*
X137702Y39551218D01*
X79391Y39536552D01*
X25295Y39562799D01*
X727Y39617678D01*
X500Y39623989D01*
X500Y41656012D01*
X21065Y41712513D01*
X73136Y41742577D01*
X132350Y41732136D01*
X170999Y41686076D01*
X172944Y41680067D01*
X205914Y41564190D01*
X222936Y41504365D01*
X315300Y41318875D01*
X315301Y41318874D01*
X315302Y41318872D01*
X333717Y41294487D01*
X440174Y41153514D01*
X506892Y41092693D01*
X593305Y41013916D01*
X593314Y41013910D01*
X673090Y40964515D01*
X769485Y40904830D01*
X962707Y40829976D01*
X962711Y40829976D01*
X962715Y40829974D01*
X1071601Y40809620D01*
X1166393Y40791900D01*
X1166394Y40791900D01*
X1373606Y40791900D01*
X1373607Y40791900D01*
X1508741Y40817162D01*
X1577284Y40829974D01*
X1577286Y40829975D01*
X1577293Y40829976D01*
X1770515Y40904830D01*
X1946692Y41013914D01*
X2099826Y41153514D01*
X2224700Y41318875D01*
X2317064Y41504365D01*
X2367055Y41680067D01*
X2373770Y41703666D01*
X2373770Y41703667D01*
X2373769Y41703667D01*
X2373771Y41703670D01*
X2392890Y41910000D01*
X2392639Y41912704D01*
X2386665Y41977176D01*
X2373771Y42116330D01*
X2317064Y42315635D01*
X2224700Y42501125D01*
X2099826Y42666486D01*
X2015837Y42743052D01*
X1946694Y42806085D01*
X1946685Y42806091D01*
X1770517Y42915169D01*
X1770511Y42915172D01*
X1577296Y42990023D01*
X1577284Y42990027D01*
X1373609Y43028100D01*
X1373607Y43028100D01*
X1166393Y43028100D01*
X1166390Y43028100D01*
X962715Y42990027D01*
X962703Y42990023D01*
X769488Y42915172D01*
X769482Y42915169D01*
X593314Y42806091D01*
X593305Y42806085D01*
X440173Y42666485D01*
X315302Y42501129D01*
X315300Y42501126D01*
X315300Y42501125D01*
X223933Y42317636D01*
X222936Y42315634D01*
X222934Y42315629D01*
X172944Y42139934D01*
X137702Y42091218D01*
X79391Y42076552D01*
X25295Y42102799D01*
X727Y42157678D01*
X500Y42163989D01*
X500Y44196012D01*
X21065Y44252513D01*
X73136Y44282577D01*
X132350Y44272136D01*
X170999Y44226076D01*
X172944Y44220067D01*
X215580Y44070217D01*
X222936Y44044365D01*
X315300Y43858875D01*
X440174Y43693514D01*
X476356Y43660530D01*
X593305Y43553916D01*
X593308Y43553914D01*
X769485Y43444830D01*
X962707Y43369976D01*
X962711Y43369976D01*
X962715Y43369974D01*
X1071601Y43349620D01*
X1166393Y43331900D01*
X1166394Y43331900D01*
X1373606Y43331900D01*
X1373607Y43331900D01*
X1508741Y43357162D01*
X1577284Y43369974D01*
X1577286Y43369975D01*
X1577293Y43369976D01*
X1770515Y43444830D01*
X1946692Y43553914D01*
X2099826Y43693514D01*
X2224700Y43858875D01*
X2317064Y44044365D01*
X2373771Y44243670D01*
X2392890Y44450000D01*
X2373771Y44656330D01*
X2372594Y44660465D01*
X2341900Y44768345D01*
X2317064Y44855635D01*
X2224700Y45041125D01*
X2099826Y45206486D01*
X2015837Y45283052D01*
X1946694Y45346085D01*
X1946685Y45346091D01*
X1770517Y45455169D01*
X1770511Y45455172D01*
X1577296Y45530023D01*
X1577284Y45530027D01*
X1373609Y45568100D01*
X1373607Y45568100D01*
X1166393Y45568100D01*
X1166390Y45568100D01*
X962715Y45530027D01*
X962703Y45530023D01*
X769488Y45455172D01*
X769482Y45455169D01*
X593314Y45346091D01*
X593305Y45346085D01*
X440173Y45206485D01*
X315302Y45041129D01*
X222936Y44855634D01*
X222934Y44855629D01*
X172944Y44679934D01*
X137702Y44631218D01*
X79391Y44616552D01*
X25295Y44642799D01*
X727Y44697678D01*
X500Y44703989D01*
X500Y46736012D01*
X21065Y46792513D01*
X73136Y46822577D01*
X132350Y46812136D01*
X170999Y46766076D01*
X172944Y46760067D01*
X217382Y46603886D01*
X222936Y46584365D01*
X315300Y46398875D01*
X315301Y46398874D01*
X315302Y46398872D01*
X358033Y46342287D01*
X440174Y46233514D01*
X516613Y46163831D01*
X593305Y46093916D01*
X593314Y46093910D01*
X655523Y46055392D01*
X769485Y45984830D01*
X962707Y45909976D01*
X962711Y45909976D01*
X962715Y45909974D01*
X1071601Y45889620D01*
X1166393Y45871900D01*
X1166394Y45871900D01*
X1373606Y45871900D01*
X1373607Y45871900D01*
X1534337Y45901946D01*
X1577284Y45909974D01*
X1577286Y45909975D01*
X1577293Y45909976D01*
X1770515Y45984830D01*
X1946692Y46093914D01*
X2099826Y46233514D01*
X2224700Y46398875D01*
X2317064Y46584365D01*
X2373771Y46783670D01*
X2392890Y46990000D01*
X2373771Y47196330D01*
X2317064Y47395635D01*
X2224700Y47581125D01*
X2099826Y47746486D01*
X1993422Y47843486D01*
X1946694Y47886085D01*
X1946685Y47886091D01*
X1770517Y47995169D01*
X1770511Y47995172D01*
X1577296Y48070023D01*
X1577284Y48070027D01*
X1373609Y48108100D01*
X1373607Y48108100D01*
X1166393Y48108100D01*
X1166390Y48108100D01*
X962715Y48070027D01*
X962703Y48070023D01*
X769488Y47995172D01*
X769482Y47995169D01*
X593314Y47886091D01*
X593305Y47886085D01*
X440173Y47746485D01*
X315302Y47581129D01*
X315300Y47581126D01*
X315300Y47581125D01*
X236579Y47423032D01*
X222936Y47395634D01*
X222934Y47395629D01*
X172944Y47219934D01*
X137702Y47171218D01*
X79391Y47156552D01*
X25295Y47182799D01*
X727Y47237678D01*
X500Y47243989D01*
X500Y49276012D01*
X21065Y49332513D01*
X73136Y49362577D01*
X132350Y49352136D01*
G37*
%TD.AperFunction*%
%TA.AperFunction,Conductor*%
G36*
X7334101Y18264935D02*
G01*
X7364165Y18212864D01*
X7365500Y18197600D01*
X7365500Y17305724D01*
X7363811Y17288576D01*
X7360514Y17272001D01*
X7360514Y17272000D01*
X7380266Y17172698D01*
X7424711Y17106181D01*
X7424720Y17106170D01*
X7436514Y17088518D01*
X7436517Y17088515D01*
X7450558Y17079134D01*
X7463883Y17068200D01*
X8483055Y16049028D01*
X8508466Y15994534D01*
X8508800Y15986873D01*
X8508800Y9559828D01*
X8488235Y9503327D01*
X8436164Y9473263D01*
X8376950Y9483704D01*
X8358745Y9497673D01*
X7899645Y9956773D01*
X7874234Y10011267D01*
X7873900Y10018928D01*
X7873900Y11301101D01*
X7888714Y11349936D01*
X7908334Y11379299D01*
X7910320Y11389283D01*
X7911155Y11393478D01*
X7915449Y11415067D01*
X7923100Y11453533D01*
X7923100Y11453538D01*
X7928085Y11478600D01*
X7924788Y11495172D01*
X7923100Y11512319D01*
X7923100Y14395682D01*
X7924789Y14412831D01*
X7928085Y14429400D01*
X7923100Y14454463D01*
X7923100Y14454467D01*
X7908334Y14528701D01*
X7908334Y14528702D01*
X7852085Y14612882D01*
X7852084Y14612884D01*
X7838033Y14622273D01*
X7824714Y14633203D01*
X6122245Y16335673D01*
X6096834Y16390167D01*
X6096500Y16397828D01*
X6096500Y18135718D01*
X6117065Y18192219D01*
X6169136Y18222283D01*
X6228350Y18211842D01*
X6246550Y18197877D01*
X6300026Y18144401D01*
X6400161Y18097707D01*
X6445789Y18091700D01*
X6889210Y18091701D01*
X6889213Y18091701D01*
X6889214Y18091702D01*
X6912024Y18094704D01*
X6934834Y18097706D01*
X6934835Y18097707D01*
X6934839Y18097707D01*
X7034974Y18144401D01*
X7113099Y18222526D01*
X7118797Y18234747D01*
X7161314Y18277264D01*
X7198463Y18285500D01*
X7277600Y18285500D01*
X7334101Y18264935D01*
G37*
%TD.AperFunction*%
%TA.AperFunction,Conductor*%
G36*
X9784350Y21906296D02*
G01*
X9802555Y21892327D01*
X11417983Y20276899D01*
X11442039Y20231894D01*
X11444266Y20220699D01*
X11500516Y20136516D01*
X11584699Y20080266D01*
X11684000Y20060514D01*
X11700576Y20063811D01*
X11717724Y20065500D01*
X11946352Y20065500D01*
X12002853Y20044935D01*
X12032917Y19992864D01*
X12022476Y19933650D01*
X12008507Y19915445D01*
X11948157Y19855096D01*
X11948156Y19855094D01*
X11900793Y19753526D01*
X11894700Y19707244D01*
X11894699Y19618901D01*
X11894701Y19618900D01*
X12383500Y19618900D01*
X12440001Y19598335D01*
X12470065Y19546264D01*
X12471400Y19531000D01*
X12471400Y19529000D01*
X12450835Y19472499D01*
X12398764Y19442435D01*
X12383500Y19441100D01*
X11894701Y19441100D01*
X11894699Y19441099D01*
X11894700Y19352757D01*
X11900793Y19306475D01*
X11948156Y19204907D01*
X11948157Y19204905D01*
X12027404Y19125658D01*
X12032177Y19122316D01*
X12066667Y19073064D01*
X12061429Y19013166D01*
X12032182Y18978308D01*
X12020816Y18970349D01*
X12019338Y18972460D01*
X11975107Y18951834D01*
X11967446Y18951500D01*
X11519252Y18951500D01*
X11500929Y18954558D01*
X11500845Y18954051D01*
X11486476Y18956449D01*
X11486563Y18956974D01*
X11485134Y18957182D01*
X11485069Y18956654D01*
X11477840Y18957556D01*
X11440628Y18956016D01*
X11435178Y18956129D01*
X11398062Y18959204D01*
X11398056Y18959204D01*
X11393068Y18957940D01*
X11371490Y18955250D01*
X10888462Y18955250D01*
X10838046Y18971145D01*
X10827820Y18978305D01*
X10793332Y19027558D01*
X10798571Y19087456D01*
X10827825Y19122318D01*
X10832596Y19125659D01*
X10911842Y19204905D01*
X10911843Y19204907D01*
X10959206Y19306475D01*
X10965300Y19352757D01*
X10965300Y19441100D01*
X9989700Y19441100D01*
X9989700Y19352757D01*
X9995793Y19306475D01*
X10043156Y19204907D01*
X10043157Y19204905D01*
X10122404Y19125658D01*
X10127177Y19122316D01*
X10161667Y19073064D01*
X10156429Y19013166D01*
X10127182Y18978308D01*
X10122117Y18974762D01*
X10042742Y18895387D01*
X9995303Y18793655D01*
X9989200Y18747298D01*
X9989200Y18392703D01*
X9995303Y18346346D01*
X10019939Y18293514D01*
X10042742Y18244614D01*
X10122114Y18165242D01*
X10223847Y18117803D01*
X10255218Y18113673D01*
X10270202Y18111700D01*
X10270204Y18111700D01*
X10684798Y18111700D01*
X10699782Y18113673D01*
X10731153Y18117803D01*
X10832886Y18165242D01*
X10834149Y18166505D01*
X10835768Y18167261D01*
X10839189Y18169655D01*
X10839611Y18169053D01*
X10888643Y18191916D01*
X10896304Y18192250D01*
X10960600Y18192250D01*
X11017101Y18171685D01*
X11047165Y18119614D01*
X11048500Y18104350D01*
X11048500Y17114487D01*
X11040556Y17077972D01*
X10985743Y16957952D01*
X10985740Y16957940D01*
X10966987Y16827504D01*
X10966987Y16827497D01*
X10985740Y16697061D01*
X10985743Y16697049D01*
X11040556Y16577028D01*
X11048500Y16540513D01*
X11048500Y12967233D01*
X11027935Y12910732D01*
X11022754Y12905078D01*
X10929660Y12811985D01*
X10915588Y12800556D01*
X10903042Y12792359D01*
X10880166Y12762968D01*
X10876561Y12758885D01*
X10872885Y12755210D01*
X10859099Y12735900D01*
X10826764Y12694357D01*
X10775832Y12662401D01*
X10716275Y12670659D01*
X10675960Y12715269D01*
X10669499Y12748344D01*
X10669499Y16983288D01*
X10671188Y17000422D01*
X10674486Y17017000D01*
X10667240Y17053426D01*
X10654734Y17116301D01*
X10631474Y17151112D01*
X10612684Y17179233D01*
X10611047Y17181683D01*
X10611041Y17181691D01*
X10598484Y17200484D01*
X10598485Y17200484D01*
X10584433Y17209873D01*
X10571114Y17220803D01*
X10357721Y17434196D01*
X10068234Y17723684D01*
X10068231Y17723686D01*
X9873836Y17918081D01*
X9678245Y18113673D01*
X9652834Y18168167D01*
X9652500Y18175828D01*
X9652500Y18508282D01*
X9654189Y18525431D01*
X9657485Y18542001D01*
X9654189Y18558571D01*
X9652500Y18575719D01*
X9652500Y19618901D01*
X9989700Y19618901D01*
X9989701Y19618900D01*
X10388599Y19618900D01*
X10388600Y19618901D01*
X10388600Y19618902D01*
X10566400Y19618902D01*
X10566401Y19618900D01*
X10965299Y19618900D01*
X10965300Y19618902D01*
X10965300Y19707244D01*
X10959206Y19753526D01*
X10911843Y19855094D01*
X10911842Y19855096D01*
X10832595Y19934343D01*
X10832593Y19934344D01*
X10731024Y19981707D01*
X10731025Y19981707D01*
X10684744Y19987800D01*
X10566401Y19987800D01*
X10566400Y19987799D01*
X10566400Y19618902D01*
X10388600Y19618902D01*
X10388600Y19987799D01*
X10388599Y19987800D01*
X10270256Y19987800D01*
X10223974Y19981707D01*
X10122406Y19934344D01*
X10122404Y19934343D01*
X10043157Y19855096D01*
X10043156Y19855094D01*
X9995793Y19753526D01*
X9989700Y19707244D01*
X9989700Y19618901D01*
X9652500Y19618901D01*
X9652500Y21830172D01*
X9673065Y21886673D01*
X9725136Y21916737D01*
X9784350Y21906296D01*
G37*
%TD.AperFunction*%
%TA.AperFunction,Conductor*%
G36*
X18557414Y42042194D02*
G01*
X18563068Y42037014D01*
X20591794Y40008288D01*
X20617205Y39953794D01*
X20608324Y39906953D01*
X20542937Y39775639D01*
X20542934Y39775629D01*
X20486229Y39576335D01*
X20486229Y39576334D01*
X20467110Y39370001D01*
X20467110Y39370000D01*
X20486229Y39163667D01*
X20486229Y39163666D01*
X20542934Y38964372D01*
X20542936Y38964365D01*
X20635300Y38778875D01*
X20760174Y38613514D01*
X20832885Y38547229D01*
X20913305Y38473916D01*
X20913308Y38473914D01*
X21089485Y38364830D01*
X21282707Y38289976D01*
X21282711Y38289976D01*
X21282715Y38289974D01*
X21391601Y38269620D01*
X21486393Y38251900D01*
X21486394Y38251900D01*
X21693606Y38251900D01*
X21693607Y38251900D01*
X21828741Y38277162D01*
X21897284Y38289974D01*
X21897286Y38289975D01*
X21897293Y38289976D01*
X22090515Y38364830D01*
X22266692Y38473914D01*
X22419826Y38613514D01*
X22544700Y38778875D01*
X22637064Y38964365D01*
X22667951Y39072926D01*
X22687056Y39140067D01*
X22722298Y39188783D01*
X22780609Y39203449D01*
X22834705Y39177202D01*
X22859273Y39122324D01*
X22859500Y39116012D01*
X22859500Y37083989D01*
X22838935Y37027488D01*
X22786864Y36997424D01*
X22727650Y37007865D01*
X22689001Y37053925D01*
X22687056Y37059934D01*
X22659090Y37158222D01*
X22637064Y37235635D01*
X22544700Y37421125D01*
X22419826Y37586486D01*
X22335837Y37663052D01*
X22266694Y37726085D01*
X22266685Y37726091D01*
X22090517Y37835169D01*
X22090511Y37835172D01*
X21897296Y37910023D01*
X21897284Y37910027D01*
X21693609Y37948100D01*
X21693607Y37948100D01*
X21486393Y37948100D01*
X21486390Y37948100D01*
X21282715Y37910027D01*
X21282703Y37910023D01*
X21089488Y37835172D01*
X21089482Y37835169D01*
X20913314Y37726091D01*
X20913305Y37726085D01*
X20760173Y37586485D01*
X20635302Y37421129D01*
X20635300Y37421126D01*
X20635300Y37421125D01*
X20557192Y37264263D01*
X20542936Y37235634D01*
X20542934Y37235629D01*
X20486229Y37036335D01*
X20486229Y37036334D01*
X20467110Y36830001D01*
X20467110Y36830000D01*
X20486229Y36623667D01*
X20486229Y36623666D01*
X20542934Y36424372D01*
X20542936Y36424365D01*
X20635300Y36238875D01*
X20760174Y36073514D01*
X20851584Y35990182D01*
X20913305Y35933916D01*
X20913308Y35933914D01*
X21089485Y35824830D01*
X21282707Y35749976D01*
X21282711Y35749976D01*
X21282715Y35749974D01*
X21391601Y35729620D01*
X21486393Y35711900D01*
X21486394Y35711900D01*
X21693606Y35711900D01*
X21693607Y35711900D01*
X21828741Y35737162D01*
X21897284Y35749974D01*
X21897286Y35749975D01*
X21897293Y35749976D01*
X22090515Y35824830D01*
X22266692Y35933914D01*
X22419826Y36073514D01*
X22544700Y36238875D01*
X22637064Y36424365D01*
X22667951Y36532926D01*
X22687056Y36600067D01*
X22722298Y36648783D01*
X22780609Y36663449D01*
X22834705Y36637202D01*
X22859273Y36582324D01*
X22859500Y36576012D01*
X22859500Y34543989D01*
X22838935Y34487488D01*
X22786864Y34457424D01*
X22727650Y34467865D01*
X22689001Y34513925D01*
X22687056Y34519934D01*
X22654147Y34635595D01*
X22637064Y34695635D01*
X22544700Y34881125D01*
X22419826Y35046486D01*
X22335837Y35123052D01*
X22266694Y35186085D01*
X22266685Y35186091D01*
X22090517Y35295169D01*
X22090511Y35295172D01*
X21897296Y35370023D01*
X21897284Y35370027D01*
X21693609Y35408100D01*
X21693607Y35408100D01*
X21486393Y35408100D01*
X21486390Y35408100D01*
X21282715Y35370027D01*
X21282703Y35370023D01*
X21089488Y35295172D01*
X21089482Y35295169D01*
X20913314Y35186091D01*
X20913305Y35186085D01*
X20760173Y35046485D01*
X20635302Y34881129D01*
X20635300Y34881126D01*
X20635300Y34881125D01*
X20581510Y34773100D01*
X20542936Y34695634D01*
X20542934Y34695629D01*
X20486229Y34496335D01*
X20486229Y34496334D01*
X20467110Y34290001D01*
X20467110Y34290000D01*
X20486229Y34083667D01*
X20486229Y34083666D01*
X20524497Y33949171D01*
X20542936Y33884365D01*
X20635300Y33698875D01*
X20760174Y33533514D01*
X20851584Y33450182D01*
X20913305Y33393916D01*
X20913308Y33393914D01*
X21089485Y33284830D01*
X21282707Y33209976D01*
X21282711Y33209976D01*
X21282715Y33209974D01*
X21391601Y33189620D01*
X21486393Y33171900D01*
X21486394Y33171900D01*
X21693606Y33171900D01*
X21693607Y33171900D01*
X21828741Y33197162D01*
X21897284Y33209974D01*
X21897286Y33209975D01*
X21897293Y33209976D01*
X22090515Y33284830D01*
X22266692Y33393914D01*
X22419826Y33533514D01*
X22544700Y33698875D01*
X22637064Y33884365D01*
X22667951Y33992926D01*
X22687056Y34060067D01*
X22722298Y34108783D01*
X22780609Y34123449D01*
X22834705Y34097202D01*
X22859273Y34042324D01*
X22859500Y34036012D01*
X22859500Y32003989D01*
X22838935Y31947488D01*
X22786864Y31917424D01*
X22727650Y31927865D01*
X22689001Y31973925D01*
X22687056Y31979934D01*
X22659090Y32078222D01*
X22637064Y32155635D01*
X22544700Y32341125D01*
X22419826Y32506486D01*
X22335837Y32583052D01*
X22266694Y32646085D01*
X22266685Y32646091D01*
X22090517Y32755169D01*
X22090511Y32755172D01*
X21897296Y32830023D01*
X21897284Y32830027D01*
X21693609Y32868100D01*
X21693607Y32868100D01*
X21486393Y32868100D01*
X21486390Y32868100D01*
X21282715Y32830027D01*
X21282703Y32830023D01*
X21089488Y32755172D01*
X21089482Y32755169D01*
X20913314Y32646091D01*
X20913305Y32646085D01*
X20760173Y32506485D01*
X20635302Y32341129D01*
X20542936Y32155634D01*
X20542934Y32155629D01*
X20486229Y31956335D01*
X20486229Y31956334D01*
X20467110Y31750001D01*
X20467110Y31750000D01*
X20486229Y31543667D01*
X20486229Y31543666D01*
X20537250Y31364349D01*
X20542936Y31344365D01*
X20635300Y31158875D01*
X20760174Y30993514D01*
X20820741Y30938300D01*
X20913305Y30853916D01*
X20913314Y30853910D01*
X21026706Y30783701D01*
X21089485Y30744830D01*
X21282707Y30669976D01*
X21282711Y30669976D01*
X21282715Y30669974D01*
X21391601Y30649620D01*
X21486393Y30631900D01*
X21486394Y30631900D01*
X21693606Y30631900D01*
X21693607Y30631900D01*
X21831206Y30657622D01*
X21897284Y30669974D01*
X21897286Y30669975D01*
X21897293Y30669976D01*
X22090515Y30744830D01*
X22266692Y30853914D01*
X22419826Y30993514D01*
X22544700Y31158875D01*
X22637064Y31344365D01*
X22679864Y31494791D01*
X22687056Y31520067D01*
X22722298Y31568783D01*
X22780609Y31583449D01*
X22834705Y31557202D01*
X22859273Y31502324D01*
X22859500Y31496012D01*
X22859500Y29463989D01*
X22838935Y29407488D01*
X22786864Y29377424D01*
X22727650Y29387865D01*
X22689001Y29433925D01*
X22687056Y29439934D01*
X22654087Y29555806D01*
X22637064Y29615635D01*
X22544700Y29801125D01*
X22419826Y29966486D01*
X22335837Y30043052D01*
X22266694Y30106085D01*
X22266685Y30106091D01*
X22090517Y30215169D01*
X22090511Y30215172D01*
X21897296Y30290023D01*
X21897284Y30290027D01*
X21693609Y30328100D01*
X21693607Y30328100D01*
X21486393Y30328100D01*
X21486390Y30328100D01*
X21282715Y30290027D01*
X21282703Y30290023D01*
X21089488Y30215172D01*
X21089482Y30215169D01*
X20913314Y30106091D01*
X20913305Y30106085D01*
X20760173Y29966485D01*
X20635302Y29801129D01*
X20635300Y29801126D01*
X20635300Y29801125D01*
X20544649Y29619074D01*
X20542936Y29615634D01*
X20542934Y29615629D01*
X20486229Y29416335D01*
X20486229Y29416334D01*
X20467110Y29210001D01*
X20467110Y29210000D01*
X20486229Y29003667D01*
X20486229Y29003666D01*
X20535784Y28829500D01*
X20542936Y28804365D01*
X20635300Y28618875D01*
X20760174Y28453514D01*
X20812060Y28406214D01*
X20913305Y28313916D01*
X20913314Y28313910D01*
X20958730Y28285790D01*
X21089485Y28204830D01*
X21282707Y28129976D01*
X21282711Y28129976D01*
X21282715Y28129974D01*
X21389969Y28109925D01*
X21486393Y28091900D01*
X21486394Y28091900D01*
X21693606Y28091900D01*
X21693607Y28091900D01*
X21828741Y28117162D01*
X21897284Y28129974D01*
X21897286Y28129975D01*
X21897293Y28129976D01*
X22090515Y28204830D01*
X22266692Y28313914D01*
X22419826Y28453514D01*
X22544700Y28618875D01*
X22637064Y28804365D01*
X22674250Y28935060D01*
X22687056Y28980067D01*
X22722298Y29028783D01*
X22780609Y29043449D01*
X22834705Y29017202D01*
X22859273Y28962324D01*
X22859500Y28956012D01*
X22859500Y26923989D01*
X22838935Y26867488D01*
X22786864Y26837424D01*
X22727650Y26847865D01*
X22689001Y26893925D01*
X22687056Y26899934D01*
X22651470Y27025003D01*
X22637064Y27075635D01*
X22544700Y27261125D01*
X22419826Y27426486D01*
X22335837Y27503052D01*
X22266694Y27566085D01*
X22266685Y27566091D01*
X22090517Y27675169D01*
X22090511Y27675172D01*
X21897296Y27750023D01*
X21897284Y27750027D01*
X21693609Y27788100D01*
X21693607Y27788100D01*
X21486393Y27788100D01*
X21486390Y27788100D01*
X21282715Y27750027D01*
X21282703Y27750023D01*
X21089488Y27675172D01*
X21089482Y27675169D01*
X20913314Y27566091D01*
X20913305Y27566085D01*
X20760173Y27426485D01*
X20635302Y27261129D01*
X20635300Y27261126D01*
X20635300Y27261125D01*
X20544860Y27079497D01*
X20542936Y27075634D01*
X20542934Y27075629D01*
X20486229Y26876335D01*
X20486229Y26876334D01*
X20467110Y26670001D01*
X20467110Y26670000D01*
X20486229Y26463667D01*
X20486229Y26463666D01*
X20528350Y26315629D01*
X20542936Y26264365D01*
X20635300Y26078875D01*
X20760174Y25913514D01*
X20851584Y25830182D01*
X20913305Y25773916D01*
X20913314Y25773910D01*
X20946158Y25753574D01*
X21089485Y25664830D01*
X21282707Y25589976D01*
X21282711Y25589976D01*
X21282715Y25589974D01*
X21391601Y25569620D01*
X21486393Y25551900D01*
X21486394Y25551900D01*
X21693606Y25551900D01*
X21693607Y25551900D01*
X21828741Y25577162D01*
X21897284Y25589974D01*
X21897286Y25589975D01*
X21897293Y25589976D01*
X22090515Y25664830D01*
X22266692Y25773914D01*
X22419826Y25913514D01*
X22544700Y26078875D01*
X22637064Y26264365D01*
X22667951Y26372926D01*
X22687056Y26440067D01*
X22722298Y26488783D01*
X22780609Y26503449D01*
X22834705Y26477202D01*
X22859273Y26422324D01*
X22859500Y26416012D01*
X22859500Y24383989D01*
X22838935Y24327488D01*
X22786864Y24297424D01*
X22727650Y24307865D01*
X22689001Y24353925D01*
X22687056Y24359934D01*
X22652916Y24479920D01*
X22637064Y24535635D01*
X22544700Y24721125D01*
X22419826Y24886486D01*
X22302876Y24993100D01*
X22266694Y25026085D01*
X22266685Y25026091D01*
X22090517Y25135169D01*
X22090511Y25135172D01*
X21897296Y25210023D01*
X21897284Y25210027D01*
X21693609Y25248100D01*
X21693607Y25248100D01*
X21486393Y25248100D01*
X21486390Y25248100D01*
X21282715Y25210027D01*
X21282703Y25210023D01*
X21089488Y25135172D01*
X21089482Y25135169D01*
X20913314Y25026091D01*
X20913305Y25026085D01*
X20760173Y24886485D01*
X20635302Y24721129D01*
X20635300Y24721126D01*
X20635300Y24721125D01*
X20550673Y24551171D01*
X20542936Y24535634D01*
X20542934Y24535629D01*
X20486229Y24336335D01*
X20486229Y24336334D01*
X20467110Y24130001D01*
X20467110Y24130000D01*
X20486229Y23923667D01*
X20486229Y23923666D01*
X20527083Y23780081D01*
X20542936Y23724365D01*
X20635300Y23538875D01*
X20635301Y23538874D01*
X20635302Y23538872D01*
X20655387Y23512275D01*
X20760174Y23373514D01*
X20814936Y23323592D01*
X20913305Y23233916D01*
X20913314Y23233910D01*
X20952683Y23209534D01*
X21089485Y23124830D01*
X21282707Y23049976D01*
X21282711Y23049976D01*
X21282715Y23049974D01*
X21391601Y23029620D01*
X21486393Y23011900D01*
X21486394Y23011900D01*
X21693606Y23011900D01*
X21693607Y23011900D01*
X21828741Y23037162D01*
X21897284Y23049974D01*
X21897286Y23049975D01*
X21897293Y23049976D01*
X22090515Y23124830D01*
X22266692Y23233914D01*
X22419826Y23373514D01*
X22544700Y23538875D01*
X22637064Y23724365D01*
X22670194Y23840804D01*
X22687056Y23900067D01*
X22722298Y23948783D01*
X22780609Y23963449D01*
X22834705Y23937202D01*
X22859273Y23882324D01*
X22859500Y23876012D01*
X22859500Y21842161D01*
X22838935Y21785660D01*
X22786864Y21755596D01*
X22727650Y21766037D01*
X22689001Y21812097D01*
X22687056Y21818106D01*
X22636597Y21995450D01*
X22544270Y22180867D01*
X22442007Y22316284D01*
X22006798Y21881076D01*
X21977869Y21926090D01*
X21882768Y22008496D01*
X22315337Y22441064D01*
X22266392Y22485684D01*
X22266383Y22485690D01*
X22090295Y22594719D01*
X22090282Y22594725D01*
X21897159Y22669541D01*
X21897145Y22669545D01*
X21693565Y22707600D01*
X21486434Y22707600D01*
X21282854Y22669545D01*
X21282840Y22669541D01*
X21089717Y22594725D01*
X21089704Y22594719D01*
X20913617Y22485690D01*
X20913608Y22485684D01*
X20864661Y22441064D01*
X21297230Y22008495D01*
X21202131Y21926090D01*
X21173200Y21881075D01*
X20737991Y22316284D01*
X20635727Y22180864D01*
X20543402Y21995450D01*
X20486723Y21796243D01*
X20467612Y21590001D01*
X20486723Y21383758D01*
X20543402Y21184551D01*
X20635727Y20999138D01*
X20737991Y20863718D01*
X21173200Y21298928D01*
X21202131Y21253910D01*
X21297229Y21171507D01*
X20864661Y20738938D01*
X20913607Y20694317D01*
X20913616Y20694311D01*
X21089704Y20585282D01*
X21089717Y20585276D01*
X21282840Y20510460D01*
X21282854Y20510456D01*
X21486434Y20472401D01*
X21486440Y20472400D01*
X21693560Y20472400D01*
X21693565Y20472401D01*
X21897145Y20510456D01*
X21897159Y20510460D01*
X22090282Y20585276D01*
X22090295Y20585282D01*
X22266383Y20694311D01*
X22266386Y20694313D01*
X22315337Y20738938D01*
X21882769Y21171506D01*
X21977869Y21253910D01*
X22006798Y21298926D01*
X22442006Y20863718D01*
X22442007Y20863718D01*
X22544270Y20999134D01*
X22636597Y21184551D01*
X22687056Y21361895D01*
X22722297Y21410611D01*
X22780609Y21425277D01*
X22834704Y21399030D01*
X22859273Y21344152D01*
X22859500Y21337840D01*
X22859500Y19303989D01*
X22838935Y19247488D01*
X22786864Y19217424D01*
X22727650Y19227865D01*
X22689001Y19273925D01*
X22687056Y19279934D01*
X22656226Y19388288D01*
X22637064Y19455635D01*
X22544700Y19641125D01*
X22419826Y19806486D01*
X22330235Y19888159D01*
X22266694Y19946085D01*
X22266685Y19946091D01*
X22090517Y20055169D01*
X22090511Y20055172D01*
X21897296Y20130023D01*
X21897284Y20130027D01*
X21693609Y20168100D01*
X21693607Y20168100D01*
X21486393Y20168100D01*
X21486390Y20168100D01*
X21282715Y20130027D01*
X21282703Y20130023D01*
X21089488Y20055172D01*
X21089482Y20055169D01*
X20913314Y19946091D01*
X20913305Y19946085D01*
X20760173Y19806485D01*
X20635302Y19641129D01*
X20635300Y19641126D01*
X20635300Y19641125D01*
X20551334Y19472499D01*
X20542936Y19455634D01*
X20542934Y19455629D01*
X20486229Y19256335D01*
X20486229Y19256334D01*
X20467110Y19050001D01*
X20467110Y19050000D01*
X20486229Y18843667D01*
X20486229Y18843666D01*
X20542934Y18644372D01*
X20542936Y18644365D01*
X20635300Y18458875D01*
X20760174Y18293514D01*
X20837213Y18223284D01*
X20913305Y18153916D01*
X20913314Y18153910D01*
X21004087Y18097706D01*
X21089485Y18044830D01*
X21282707Y17969976D01*
X21282711Y17969976D01*
X21282715Y17969974D01*
X21391601Y17949620D01*
X21486393Y17931900D01*
X21486394Y17931900D01*
X21693606Y17931900D01*
X21693607Y17931900D01*
X21828741Y17957162D01*
X21897284Y17969974D01*
X21897286Y17969975D01*
X21897293Y17969976D01*
X22090515Y18044830D01*
X22266692Y18153914D01*
X22419826Y18293514D01*
X22544700Y18458875D01*
X22637064Y18644365D01*
X22680161Y18795835D01*
X22687056Y18820067D01*
X22722298Y18868783D01*
X22780609Y18883449D01*
X22834705Y18857202D01*
X22859273Y18802324D01*
X22859500Y18796012D01*
X22859500Y16763989D01*
X22838935Y16707488D01*
X22786864Y16677424D01*
X22727650Y16687865D01*
X22689001Y16733925D01*
X22687056Y16739934D01*
X22651552Y16864715D01*
X22637064Y16915635D01*
X22544700Y17101125D01*
X22419826Y17266486D01*
X22313112Y17363769D01*
X22266694Y17406085D01*
X22266685Y17406091D01*
X22090517Y17515169D01*
X22090511Y17515172D01*
X21897296Y17590023D01*
X21897284Y17590027D01*
X21693609Y17628100D01*
X21693607Y17628100D01*
X21486393Y17628100D01*
X21486390Y17628100D01*
X21282715Y17590027D01*
X21282703Y17590023D01*
X21089488Y17515172D01*
X21089482Y17515169D01*
X20913314Y17406091D01*
X20913305Y17406085D01*
X20760173Y17266485D01*
X20635302Y17101129D01*
X20635300Y17101126D01*
X20635300Y17101125D01*
X20553739Y16937329D01*
X20542936Y16915634D01*
X20542934Y16915629D01*
X20486229Y16716335D01*
X20486229Y16716334D01*
X20467110Y16510001D01*
X20467110Y16510000D01*
X20486229Y16303667D01*
X20486229Y16303666D01*
X20536012Y16128700D01*
X20542936Y16104365D01*
X20635300Y15918875D01*
X20760174Y15753514D01*
X20827902Y15691772D01*
X20913305Y15613916D01*
X20913314Y15613910D01*
X20993092Y15564514D01*
X21089485Y15504830D01*
X21282707Y15429976D01*
X21282711Y15429976D01*
X21282715Y15429974D01*
X21391601Y15409620D01*
X21486393Y15391900D01*
X21486394Y15391900D01*
X21693606Y15391900D01*
X21693607Y15391900D01*
X21828741Y15417162D01*
X21897284Y15429974D01*
X21897286Y15429975D01*
X21897293Y15429976D01*
X22090515Y15504830D01*
X22266692Y15613914D01*
X22419826Y15753514D01*
X22544700Y15918875D01*
X22637064Y16104365D01*
X22667951Y16212926D01*
X22687056Y16280067D01*
X22722298Y16328783D01*
X22780609Y16343449D01*
X22834705Y16317202D01*
X22859273Y16262324D01*
X22859500Y16256012D01*
X22859500Y14223989D01*
X22838935Y14167488D01*
X22786864Y14137424D01*
X22727650Y14147865D01*
X22689001Y14193925D01*
X22687056Y14199934D01*
X22651760Y14323983D01*
X22637064Y14375635D01*
X22544700Y14561125D01*
X22419826Y14726486D01*
X22335837Y14803052D01*
X22266694Y14866085D01*
X22266685Y14866091D01*
X22090517Y14975169D01*
X22090511Y14975172D01*
X21897296Y15050023D01*
X21897284Y15050027D01*
X21693609Y15088100D01*
X21693607Y15088100D01*
X21486393Y15088100D01*
X21486390Y15088100D01*
X21282715Y15050027D01*
X21282703Y15050023D01*
X21089483Y14975170D01*
X21089481Y14975169D01*
X21059290Y14956475D01*
X21000426Y14944217D01*
X20950863Y14969055D01*
X19965244Y15954674D01*
X19939833Y16009168D01*
X19939499Y16016829D01*
X19939499Y20920363D01*
X19939499Y25868538D01*
X19941188Y25885671D01*
X19944486Y25902250D01*
X19924734Y26001551D01*
X19882684Y26064483D01*
X19881047Y26066933D01*
X19881041Y26066941D01*
X19868484Y26085734D01*
X19868485Y26085734D01*
X19854433Y26095123D01*
X19841114Y26106053D01*
X18922165Y27025003D01*
X18896754Y27079497D01*
X18897315Y27099669D01*
X18900501Y27121826D01*
X18904013Y27146250D01*
X18904012Y27146254D01*
X18885259Y27276690D01*
X18885258Y27276691D01*
X18885258Y27276696D01*
X18830511Y27396574D01*
X18744209Y27496172D01*
X18744208Y27496173D01*
X18735878Y27501526D01*
X18699464Y27549372D01*
X18695500Y27575467D01*
X18695499Y41215283D01*
X18697189Y41232431D01*
X18700485Y41249000D01*
X18695500Y41274063D01*
X18695500Y41274067D01*
X18680734Y41348301D01*
X18655583Y41385942D01*
X18638684Y41411234D01*
X18638682Y41411236D01*
X18637668Y41412754D01*
X18637656Y41412770D01*
X18624485Y41432484D01*
X18610436Y41441871D01*
X18597117Y41452801D01*
X18137214Y41912704D01*
X18111803Y41967198D01*
X18127366Y42025276D01*
X18176619Y42059764D01*
X18199369Y42062759D01*
X18500913Y42062759D01*
X18557414Y42042194D01*
G37*
%TD.AperFunction*%
%TA.AperFunction,Conductor*%
G36*
X7628737Y27518868D02*
G01*
X7663225Y27469615D01*
X7665326Y27434359D01*
X7664987Y27432001D01*
X7664987Y27431997D01*
X7683740Y27301561D01*
X7683741Y27301556D01*
X7683742Y27301554D01*
X7707435Y27249675D01*
X7738489Y27181675D01*
X7769188Y27146247D01*
X7824791Y27082078D01*
X7824793Y27082077D01*
X7824794Y27082076D01*
X7935653Y27010831D01*
X7935655Y27010831D01*
X7935657Y27010829D01*
X7992893Y26994023D01*
X8025611Y26984416D01*
X8074030Y26948767D01*
X8088205Y26890334D01*
X8063002Y26837922D01*
X5685881Y24460801D01*
X5672566Y24449873D01*
X5658517Y24440485D01*
X5658515Y24440483D01*
X5645008Y24420271D01*
X5645006Y24420267D01*
X5622486Y24386564D01*
X5573997Y24351010D01*
X5513999Y24354942D01*
X5470565Y24396520D01*
X5461500Y24435398D01*
X5461500Y25295939D01*
X5461500Y26158072D01*
X5482064Y26214570D01*
X5487222Y26220201D01*
X6164776Y26897755D01*
X6219271Y26923166D01*
X6226932Y26923500D01*
X6723943Y26923500D01*
X6741980Y26921630D01*
X6756642Y26918555D01*
X6787718Y26922429D01*
X6793602Y26923162D01*
X6799044Y26923500D01*
X6804234Y26923500D01*
X6804236Y26923500D01*
X6827629Y26927404D01*
X6882985Y26934304D01*
X6882988Y26934306D01*
X6889969Y26936383D01*
X6890121Y26935870D01*
X6891491Y26936309D01*
X6891318Y26936815D01*
X6898205Y26939180D01*
X6898207Y26939182D01*
X6898211Y26939182D01*
X6947266Y26965730D01*
X6997371Y26990224D01*
X6997375Y26990229D01*
X7003304Y26994460D01*
X7003616Y26994023D01*
X7004769Y26994884D01*
X7004440Y26995307D01*
X7010185Y26999779D01*
X7010184Y26999779D01*
X7010187Y26999780D01*
X7047966Y27040820D01*
X7516167Y27509022D01*
X7570659Y27534431D01*
X7628737Y27518868D01*
G37*
%TD.AperFunction*%
%TA.AperFunction,Conductor*%
G36*
X16185535Y32413688D02*
G01*
X16220023Y32364435D01*
X16223018Y32341685D01*
X16223018Y31884804D01*
X16202453Y31828303D01*
X16150382Y31798239D01*
X16110354Y31800465D01*
X16034819Y31822644D01*
X16034813Y31822645D01*
X15903025Y31822645D01*
X15903020Y31822645D01*
X15776576Y31785516D01*
X15776572Y31785515D01*
X15665713Y31714270D01*
X15665708Y31714265D01*
X15579408Y31614671D01*
X15524661Y31494791D01*
X15524659Y31494785D01*
X15505906Y31364349D01*
X15505906Y31364343D01*
X15512603Y31317762D01*
X15500289Y31258909D01*
X15487753Y31243098D01*
X14779082Y30534427D01*
X14765765Y30523498D01*
X14751718Y30514112D01*
X14751715Y30514109D01*
X14738208Y30493897D01*
X14738206Y30493893D01*
X14695465Y30429927D01*
X14679480Y30349561D01*
X14675714Y30330626D01*
X14679011Y30314052D01*
X14680700Y30296903D01*
X14680699Y29618452D01*
X14660134Y29561951D01*
X14608063Y29531887D01*
X14548849Y29542328D01*
X14532195Y29556081D01*
X14531958Y29555806D01*
X14527210Y29559921D01*
X14527209Y29559922D01*
X14527206Y29559924D01*
X14527205Y29559925D01*
X14416346Y29631170D01*
X14416343Y29631171D01*
X14373282Y29643815D01*
X14289898Y29668300D01*
X14289894Y29668300D01*
X14158106Y29668300D01*
X14158101Y29668300D01*
X14031657Y29631171D01*
X14031653Y29631170D01*
X13920794Y29559925D01*
X13920789Y29559920D01*
X13834489Y29460326D01*
X13779742Y29340446D01*
X13779740Y29340440D01*
X13760987Y29210004D01*
X13760987Y29209997D01*
X13779740Y29079561D01*
X13779741Y29079556D01*
X13779742Y29079554D01*
X13834489Y28959676D01*
X13920791Y28860078D01*
X13929121Y28854725D01*
X13965534Y28806880D01*
X13969499Y28780779D01*
X13969499Y25541829D01*
X13948934Y25485328D01*
X13943754Y25479674D01*
X13395027Y24930945D01*
X13340533Y24905534D01*
X13332872Y24905200D01*
X12331199Y24905200D01*
X12274698Y24925765D01*
X12244634Y24977836D01*
X12243299Y24993100D01*
X12243299Y24998464D01*
X12243298Y24998466D01*
X12232956Y25050466D01*
X12232956Y25050467D01*
X12232955Y25050469D01*
X12193547Y25109447D01*
X12134569Y25148855D01*
X12082561Y25159200D01*
X12082559Y25159200D01*
X10777436Y25159200D01*
X10773538Y25158424D01*
X10714111Y25167578D01*
X10674472Y25212788D01*
X10668499Y25244633D01*
X10668499Y25753575D01*
X10689064Y25810075D01*
X10694233Y25815718D01*
X12080470Y27201955D01*
X12134965Y27227366D01*
X12142626Y27227700D01*
X12270493Y27227700D01*
X12270494Y27227700D01*
X12270496Y27227701D01*
X12270498Y27227701D01*
X12285527Y27232115D01*
X12396943Y27264829D01*
X12507809Y27336078D01*
X12594111Y27435676D01*
X12648858Y27555554D01*
X12657271Y27614066D01*
X12667613Y27685997D01*
X12667613Y27686004D01*
X12648859Y27816440D01*
X12648858Y27816441D01*
X12648858Y27816446D01*
X12594111Y27936324D01*
X12594110Y27936325D01*
X12594110Y27936326D01*
X12549746Y27987524D01*
X12507809Y28035922D01*
X12507806Y28035924D01*
X12507805Y28035925D01*
X12396946Y28107170D01*
X12396943Y28107171D01*
X12371653Y28114597D01*
X12270498Y28144300D01*
X12270494Y28144300D01*
X12138706Y28144300D01*
X12138701Y28144300D01*
X12008650Y28106112D01*
X11948644Y28109925D01*
X11905127Y28151417D01*
X11898463Y28211174D01*
X11921729Y28252605D01*
X16072964Y32403841D01*
X16127457Y32429251D01*
X16185535Y32413688D01*
G37*
%TD.AperFunction*%
%TA.AperFunction,Conductor*%
G36*
X3524601Y58398935D02*
G01*
X3554665Y58346864D01*
X3556000Y58331600D01*
X3556000Y53594000D01*
X3710850Y53594000D01*
X3767351Y53573435D01*
X3797415Y53521364D01*
X3798750Y53506101D01*
X3798750Y53351250D01*
X3798751Y53351250D01*
X19061249Y53351250D01*
X19061250Y53351250D01*
X19061249Y53506101D01*
X19081815Y53562601D01*
X19133886Y53592665D01*
X19149150Y53594000D01*
X19303999Y53594000D01*
X19304000Y53594000D01*
X19304000Y54609997D01*
X21041987Y54609997D01*
X21060740Y54479561D01*
X21060742Y54479555D01*
X21115489Y54359675D01*
X21166497Y54300809D01*
X21201791Y54260078D01*
X21201793Y54260077D01*
X21201794Y54260076D01*
X21312653Y54188831D01*
X21312654Y54188831D01*
X21312657Y54188829D01*
X21398782Y54163541D01*
X21439101Y54151701D01*
X21439104Y54151701D01*
X21439106Y54151700D01*
X21439107Y54151700D01*
X21570893Y54151700D01*
X21570894Y54151700D01*
X21570896Y54151701D01*
X21570898Y54151701D01*
X21585927Y54156115D01*
X21697343Y54188829D01*
X21808209Y54260078D01*
X21894511Y54359676D01*
X21949258Y54479554D01*
X21968013Y54610000D01*
X21968013Y54610004D01*
X21949259Y54740440D01*
X21949258Y54740441D01*
X21949258Y54740446D01*
X21894511Y54860324D01*
X21894510Y54860325D01*
X21894510Y54860326D01*
X21851360Y54910123D01*
X21808209Y54959922D01*
X21808206Y54959924D01*
X21808205Y54959925D01*
X21697346Y55031170D01*
X21697343Y55031171D01*
X21672053Y55038597D01*
X21570898Y55068300D01*
X21570894Y55068300D01*
X21439106Y55068300D01*
X21439101Y55068300D01*
X21312657Y55031171D01*
X21312653Y55031170D01*
X21201794Y54959925D01*
X21201789Y54959920D01*
X21115489Y54860326D01*
X21060742Y54740446D01*
X21060740Y54740440D01*
X21041987Y54610004D01*
X21041987Y54609997D01*
X19304000Y54609997D01*
X19304000Y57324095D01*
X19324565Y57380596D01*
X19376636Y57410660D01*
X19435850Y57400219D01*
X19439401Y57398055D01*
X19492657Y57363829D01*
X19531475Y57352431D01*
X19574737Y57339728D01*
X19623156Y57304079D01*
X19637512Y57247435D01*
X19633700Y57205485D01*
X19633700Y57094519D01*
X19633701Y57094516D01*
X19639981Y57025390D01*
X19639982Y57025382D01*
X19689566Y56866263D01*
X19749055Y56767859D01*
X19775788Y56723637D01*
X19893637Y56605788D01*
X19929002Y56584409D01*
X20036262Y56519567D01*
X20036264Y56519567D01*
X20036265Y56519566D01*
X20195382Y56469983D01*
X20264525Y56463700D01*
X20375474Y56463701D01*
X20375481Y56463701D01*
X20375483Y56463702D01*
X20392823Y56465278D01*
X20444610Y56469982D01*
X20444618Y56469983D01*
X20444618Y56469984D01*
X20603735Y56519566D01*
X20746363Y56605788D01*
X20864212Y56723637D01*
X20950434Y56866265D01*
X21000017Y57025382D01*
X21006300Y57094525D01*
X21006299Y57205474D01*
X21006299Y57205475D01*
X21006299Y57205482D01*
X21006298Y57205485D01*
X21000018Y57274611D01*
X21000017Y57274619D01*
X20950433Y57433738D01*
X20895350Y57524854D01*
X20864212Y57576363D01*
X20746363Y57694212D01*
X20697093Y57723997D01*
X20603737Y57780434D01*
X20444619Y57830017D01*
X20375481Y57836300D01*
X20264518Y57836300D01*
X20264515Y57836299D01*
X20225320Y57832738D01*
X20167190Y57848106D01*
X20132538Y57897244D01*
X20130361Y57907772D01*
X20129446Y57914134D01*
X20129258Y57915446D01*
X20074511Y58035324D01*
X20074510Y58035325D01*
X20074510Y58035326D01*
X20031360Y58085123D01*
X19988209Y58134922D01*
X19988206Y58134924D01*
X19988205Y58134925D01*
X19877346Y58206170D01*
X19877343Y58206171D01*
X19852053Y58213597D01*
X19750898Y58243300D01*
X19750894Y58243300D01*
X19619106Y58243300D01*
X19619101Y58243300D01*
X19492657Y58206171D01*
X19492652Y58206169D01*
X19439422Y58171960D01*
X19380772Y58158713D01*
X19327329Y58186265D01*
X19304100Y58241724D01*
X19304000Y58245906D01*
X19304000Y58331600D01*
X19324565Y58388101D01*
X19376636Y58418165D01*
X19391900Y58419500D01*
X20318763Y58419500D01*
X20321227Y58419431D01*
X20330170Y58418929D01*
X20435603Y58413008D01*
X20608647Y58402541D01*
X20613339Y58402002D01*
X20750416Y58378712D01*
X20900132Y58351274D01*
X20904318Y58350290D01*
X21041976Y58310632D01*
X21041990Y58310628D01*
X21183609Y58266498D01*
X21187336Y58265149D01*
X21321424Y58209607D01*
X21455288Y58149359D01*
X21458510Y58147747D01*
X21481711Y58134925D01*
X21586453Y58077036D01*
X21711518Y58001431D01*
X21714188Y57999680D01*
X21833084Y57915319D01*
X21834715Y57914103D01*
X21934024Y57836300D01*
X21948794Y57824728D01*
X21950975Y57822902D01*
X22059795Y57725656D01*
X22061587Y57723962D01*
X22163960Y57621589D01*
X22165654Y57619797D01*
X22262900Y57510977D01*
X22264726Y57508796D01*
X22304517Y57458007D01*
X22354092Y57394730D01*
X22355325Y57393075D01*
X22439672Y57274199D01*
X22441438Y57271505D01*
X22517052Y57146424D01*
X22587745Y57018512D01*
X22589357Y57015290D01*
X22649609Y56881419D01*
X22705142Y56747351D01*
X22706498Y56743605D01*
X22750624Y56602002D01*
X22790282Y56464346D01*
X22791280Y56460099D01*
X22818723Y56310344D01*
X22841998Y56173357D01*
X22842539Y56168646D01*
X22853012Y55995525D01*
X22859430Y55881226D01*
X22859499Y55878762D01*
X22859500Y52323989D01*
X22838935Y52267488D01*
X22786864Y52237424D01*
X22727650Y52247865D01*
X22689001Y52293925D01*
X22687056Y52299934D01*
X22659090Y52398222D01*
X22637064Y52475635D01*
X22544700Y52661125D01*
X22419826Y52826486D01*
X22335837Y52903052D01*
X22266694Y52966085D01*
X22266685Y52966091D01*
X22090517Y53075169D01*
X22090511Y53075172D01*
X21897296Y53150023D01*
X21897284Y53150027D01*
X21693609Y53188100D01*
X21693607Y53188100D01*
X21486393Y53188100D01*
X21486390Y53188100D01*
X21282715Y53150027D01*
X21282703Y53150023D01*
X21089488Y53075172D01*
X21089482Y53075169D01*
X20913314Y52966091D01*
X20913305Y52966085D01*
X20760173Y52826485D01*
X20635302Y52661129D01*
X20542936Y52475634D01*
X20542934Y52475629D01*
X20486229Y52276335D01*
X20486229Y52276334D01*
X20467110Y52070001D01*
X20467110Y52070000D01*
X20486229Y51863667D01*
X20486229Y51863666D01*
X20536972Y51685326D01*
X20542936Y51664365D01*
X20608324Y51533050D01*
X20615100Y51473305D01*
X20591794Y51431714D01*
X16353881Y47193801D01*
X16340566Y47182873D01*
X16326517Y47173485D01*
X16326515Y47173483D01*
X16313008Y47153271D01*
X16313006Y47153267D01*
X16270265Y47089301D01*
X16250514Y46990002D01*
X16250514Y46990000D01*
X16253811Y46973423D01*
X16255499Y46956278D01*
X16255499Y46200723D01*
X16234934Y46144222D01*
X16215125Y46126779D01*
X16206792Y46121424D01*
X16206788Y46121420D01*
X16156830Y46063765D01*
X16104288Y46034531D01*
X16045248Y46045910D01*
X16007334Y46092578D01*
X16002500Y46121327D01*
X16002500Y50848674D01*
X16023065Y50905175D01*
X16028225Y50910809D01*
X16068373Y50950957D01*
X16122865Y50976366D01*
X16130526Y50976700D01*
X16258393Y50976700D01*
X16258394Y50976700D01*
X16258396Y50976701D01*
X16258398Y50976701D01*
X16273427Y50981115D01*
X16384843Y51013829D01*
X16495709Y51085078D01*
X16582011Y51184676D01*
X16636758Y51304554D01*
X16655513Y51435000D01*
X16655513Y51435004D01*
X16636759Y51565440D01*
X16636758Y51565441D01*
X16636758Y51565446D01*
X16582011Y51685324D01*
X16582010Y51685325D01*
X16582010Y51685326D01*
X16524535Y51751655D01*
X16495709Y51784922D01*
X16495706Y51784924D01*
X16495705Y51784925D01*
X16384846Y51856170D01*
X16384843Y51856171D01*
X16359304Y51863670D01*
X16258398Y51893300D01*
X16258394Y51893300D01*
X16126606Y51893300D01*
X16126601Y51893300D01*
X16000157Y51856171D01*
X16000153Y51856170D01*
X15889294Y51784925D01*
X15889289Y51784920D01*
X15802989Y51685326D01*
X15748242Y51565446D01*
X15748240Y51565440D01*
X15729487Y51435004D01*
X15729487Y51434998D01*
X15736184Y51388418D01*
X15723870Y51329566D01*
X15711334Y51313754D01*
X15591881Y51194301D01*
X15578566Y51183373D01*
X15564517Y51173985D01*
X15564515Y51173983D01*
X15551008Y51153771D01*
X15551006Y51153767D01*
X15508265Y51089801D01*
X15493154Y51013829D01*
X15488514Y50990500D01*
X15491811Y50973926D01*
X15493500Y50956777D01*
X15493500Y44083829D01*
X15472935Y44027328D01*
X15467755Y44021674D01*
X14365588Y42919507D01*
X14352271Y42908578D01*
X14338224Y42899192D01*
X14338221Y42899189D01*
X14324714Y42878977D01*
X14324712Y42878973D01*
X14281971Y42815007D01*
X14262220Y42715707D01*
X14265517Y42699132D01*
X14267206Y42681983D01*
X14267206Y41392018D01*
X14265516Y41374870D01*
X14262220Y41358294D01*
X14267206Y41333228D01*
X14267206Y41333227D01*
X14270798Y41315171D01*
X14277373Y41282116D01*
X14281972Y41258993D01*
X14281973Y41258991D01*
X14325362Y41194054D01*
X14325378Y41194032D01*
X14338222Y41174810D01*
X14352270Y41165423D01*
X14365587Y41154494D01*
X14528196Y40991886D01*
X14539127Y40978567D01*
X14548516Y40964515D01*
X14567309Y40951959D01*
X14567317Y40951953D01*
X14622948Y40914781D01*
X14629463Y40910429D01*
X14632699Y40908266D01*
X14704418Y40894000D01*
X14704419Y40894000D01*
X14732000Y40888514D01*
X14748576Y40891811D01*
X14765724Y40893500D01*
X15206276Y40893500D01*
X15223424Y40891811D01*
X15239999Y40888514D01*
X15239999Y40888515D01*
X15240000Y40888514D01*
X15267581Y40894000D01*
X15339301Y40908266D01*
X15349051Y40914781D01*
X15402234Y40950316D01*
X15402236Y40950320D01*
X15403625Y40951247D01*
X15462028Y40965539D01*
X15515955Y40938946D01*
X15539465Y40890670D01*
X15557740Y40763561D01*
X15557741Y40763556D01*
X15557742Y40763554D01*
X15580290Y40714181D01*
X15612489Y40643675D01*
X15622769Y40631812D01*
X15698791Y40544078D01*
X15698793Y40544077D01*
X15698794Y40544076D01*
X15809653Y40472831D01*
X15809654Y40472831D01*
X15809657Y40472829D01*
X15895782Y40447541D01*
X15936101Y40435701D01*
X15936104Y40435701D01*
X15936106Y40435700D01*
X15936107Y40435700D01*
X16067893Y40435700D01*
X16067894Y40435700D01*
X16067896Y40435701D01*
X16067898Y40435701D01*
X16082927Y40440115D01*
X16194343Y40472829D01*
X16305209Y40544078D01*
X16391511Y40643676D01*
X16401528Y40665612D01*
X16443703Y40708464D01*
X16503558Y40714181D01*
X16529004Y40703047D01*
X16565398Y40679658D01*
X16601811Y40631812D01*
X16598950Y40571753D01*
X16597832Y40569198D01*
X16573743Y40516449D01*
X16573740Y40516440D01*
X16554987Y40386004D01*
X16554987Y40385997D01*
X16573740Y40255561D01*
X16573741Y40255556D01*
X16573742Y40255554D01*
X16628489Y40135676D01*
X16631493Y40132209D01*
X16652952Y40076042D01*
X16633287Y40019222D01*
X16581699Y39988336D01*
X16522327Y39997835D01*
X16517541Y40000701D01*
X16448347Y40045170D01*
X16448343Y40045171D01*
X16423053Y40052597D01*
X16321898Y40082300D01*
X16321894Y40082300D01*
X16190106Y40082300D01*
X16190101Y40082300D01*
X16063657Y40045171D01*
X16063653Y40045170D01*
X15952790Y39973922D01*
X15952788Y39973920D01*
X15941429Y39960811D01*
X15888887Y39931578D01*
X15829847Y39942958D01*
X15808571Y39960811D01*
X15797211Y39973920D01*
X15797209Y39973922D01*
X15686346Y40045170D01*
X15686343Y40045171D01*
X15661053Y40052597D01*
X15559898Y40082300D01*
X15559894Y40082300D01*
X15428106Y40082300D01*
X15428101Y40082300D01*
X15301657Y40045171D01*
X15301653Y40045170D01*
X15190790Y39973922D01*
X15190788Y39973920D01*
X15179429Y39960811D01*
X15126887Y39931578D01*
X15067847Y39942958D01*
X15046571Y39960811D01*
X15035211Y39973920D01*
X15035209Y39973922D01*
X14924346Y40045170D01*
X14924343Y40045171D01*
X14899053Y40052597D01*
X14797898Y40082300D01*
X14797894Y40082300D01*
X14666106Y40082300D01*
X14666101Y40082300D01*
X14539657Y40045171D01*
X14539653Y40045170D01*
X14428794Y39973925D01*
X14428789Y39973920D01*
X14342489Y39874326D01*
X14287742Y39754446D01*
X14287740Y39754440D01*
X14268987Y39624004D01*
X14268987Y39623997D01*
X14287740Y39493561D01*
X14287741Y39493556D01*
X14287742Y39493554D01*
X14342489Y39373676D01*
X14428791Y39274078D01*
X14428792Y39274077D01*
X14437120Y39268725D01*
X14473534Y39220879D01*
X14477499Y39194778D01*
X14477500Y33288829D01*
X14456935Y33232328D01*
X14451755Y33226674D01*
X12393353Y31168273D01*
X12338859Y31142862D01*
X12280781Y31158425D01*
X12246293Y31207678D01*
X12243299Y31230421D01*
X12243299Y31691360D01*
X12241521Y31700300D01*
X12232956Y31743366D01*
X12232956Y31743367D01*
X12228524Y31750000D01*
X12193547Y31802347D01*
X12193546Y31802348D01*
X12188737Y31809545D01*
X12189926Y31810340D01*
X12168337Y31856639D01*
X12183900Y31914717D01*
X12193421Y31926067D01*
X12193543Y31926251D01*
X12193547Y31926253D01*
X12232955Y31985231D01*
X12243300Y32037239D01*
X12243299Y32732760D01*
X12243299Y32732761D01*
X12243299Y32732764D01*
X12243298Y32732766D01*
X12232956Y32784766D01*
X12232956Y32784767D01*
X12202714Y32830027D01*
X12193547Y32843747D01*
X12134569Y32883155D01*
X12082561Y32893500D01*
X12082559Y32893500D01*
X11772400Y32893500D01*
X11715899Y32914065D01*
X11685835Y32966136D01*
X11684500Y32981400D01*
X11684500Y33098778D01*
X11705065Y33155279D01*
X11724880Y33172726D01*
X11733209Y33178078D01*
X11819511Y33277676D01*
X11874258Y33397554D01*
X11893013Y33528000D01*
X11893013Y33528004D01*
X11874259Y33658440D01*
X11874258Y33658441D01*
X11874258Y33658446D01*
X11819511Y33778324D01*
X11819510Y33778325D01*
X11819510Y33778326D01*
X11776360Y33828124D01*
X11733209Y33877922D01*
X11733206Y33877924D01*
X11733205Y33877925D01*
X11622346Y33949170D01*
X11622343Y33949171D01*
X11597053Y33956597D01*
X11495898Y33986300D01*
X11495894Y33986300D01*
X11364106Y33986300D01*
X11364101Y33986300D01*
X11237657Y33949171D01*
X11237653Y33949170D01*
X11126794Y33877925D01*
X11126789Y33877920D01*
X11040489Y33778326D01*
X10985742Y33658446D01*
X10985740Y33658440D01*
X10966987Y33528004D01*
X10966987Y33527997D01*
X10985740Y33397561D01*
X10985741Y33397556D01*
X10985742Y33397554D01*
X11040489Y33277676D01*
X11126791Y33178078D01*
X11126792Y33178077D01*
X11130859Y33175464D01*
X11135118Y33172727D01*
X11171534Y33124882D01*
X11175500Y33098778D01*
X11175500Y32981400D01*
X11154935Y32924899D01*
X11102864Y32894835D01*
X11087600Y32893500D01*
X10777436Y32893500D01*
X10777434Y32893499D01*
X10725434Y32883157D01*
X10725433Y32883157D01*
X10666454Y32843748D01*
X10666452Y32843746D01*
X10657283Y32830023D01*
X10627045Y32784769D01*
X10621158Y32755170D01*
X10616700Y32732760D01*
X10616700Y32037237D01*
X10616701Y32037235D01*
X10627043Y31985235D01*
X10627043Y31985234D01*
X10627044Y31985232D01*
X10627045Y31985231D01*
X10663135Y31931218D01*
X10671263Y31919055D01*
X10670073Y31918261D01*
X10691663Y31871961D01*
X10676100Y31813883D01*
X10666578Y31802534D01*
X10666453Y31802348D01*
X10666453Y31802347D01*
X10663708Y31798239D01*
X10627045Y31743369D01*
X10616700Y31691360D01*
X10616700Y30995837D01*
X10616701Y30995835D01*
X10627043Y30943835D01*
X10627043Y30943834D01*
X10627044Y30943832D01*
X10627045Y30943831D01*
X10666453Y30884853D01*
X10725431Y30845445D01*
X10777439Y30835100D01*
X11054221Y30835101D01*
X11110722Y30814537D01*
X11140786Y30762465D01*
X11130345Y30703251D01*
X11116376Y30685046D01*
X10080327Y29648995D01*
X10025833Y29623584D01*
X10018172Y29623250D01*
X9474785Y29623250D01*
X9418284Y29643815D01*
X9408354Y29653588D01*
X9351960Y29718671D01*
X9351955Y29718675D01*
X9241096Y29789920D01*
X9241093Y29789921D01*
X9202936Y29801125D01*
X9114648Y29827050D01*
X9114644Y29827050D01*
X8982856Y29827050D01*
X8982851Y29827050D01*
X8856407Y29789921D01*
X8856403Y29789920D01*
X8745544Y29718675D01*
X8745539Y29718670D01*
X8659239Y29619076D01*
X8604492Y29499196D01*
X8604490Y29499190D01*
X8585737Y29368754D01*
X8585737Y29368747D01*
X8604490Y29238311D01*
X8604491Y29238306D01*
X8604492Y29238304D01*
X8617418Y29210001D01*
X8659239Y29118425D01*
X8695502Y29076576D01*
X8745541Y29018828D01*
X8745543Y29018827D01*
X8745544Y29018826D01*
X8856403Y28947581D01*
X8856404Y28947581D01*
X8856407Y28947579D01*
X8942532Y28922291D01*
X8982851Y28910451D01*
X8982854Y28910451D01*
X8982856Y28910450D01*
X8982857Y28910450D01*
X9114643Y28910450D01*
X9114644Y28910450D01*
X9114646Y28910451D01*
X9114648Y28910451D01*
X9146204Y28919717D01*
X9241093Y28947579D01*
X9351959Y29018828D01*
X9408354Y29083913D01*
X9460896Y29113146D01*
X9474785Y29114250D01*
X10126276Y29114250D01*
X10143397Y29112566D01*
X10144102Y29112426D01*
X10195515Y29081250D01*
X10214861Y29024320D01*
X10193086Y28968275D01*
X10189136Y28964055D01*
X8723488Y27498407D01*
X8668994Y27472996D01*
X8610916Y27488559D01*
X8576428Y27537812D01*
X8574328Y27548053D01*
X8572259Y27562440D01*
X8572258Y27562441D01*
X8572258Y27562446D01*
X8517511Y27682324D01*
X8517510Y27682325D01*
X8517510Y27682326D01*
X8474360Y27732123D01*
X8431209Y27781922D01*
X8431206Y27781924D01*
X8431205Y27781925D01*
X8320346Y27853170D01*
X8320343Y27853171D01*
X8295053Y27860597D01*
X8193898Y27890300D01*
X8193894Y27890300D01*
X8109657Y27890300D01*
X8053156Y27910865D01*
X8023092Y27962936D01*
X8033533Y28022150D01*
X8047502Y28040354D01*
X8172837Y28165690D01*
X8186912Y28177121D01*
X8199456Y28185315D01*
X8222333Y28214711D01*
X8225939Y28218793D01*
X8229614Y28222466D01*
X8243400Y28241776D01*
X8277658Y28285790D01*
X8277659Y28285796D01*
X8281125Y28292197D01*
X8281595Y28291943D01*
X8282257Y28293229D01*
X8281777Y28293464D01*
X8284971Y28300001D01*
X8284975Y28300005D01*
X8300889Y28353462D01*
X8319000Y28406214D01*
X8319000Y28406216D01*
X8320199Y28413399D01*
X8320723Y28413312D01*
X8320931Y28414741D01*
X8320404Y28414806D01*
X8321303Y28422029D01*
X8321305Y28422034D01*
X8319000Y28477760D01*
X8319000Y30193014D01*
X8326944Y30229528D01*
X8381756Y30349549D01*
X8381756Y30349551D01*
X8381758Y30349554D01*
X8400012Y30476513D01*
X8400513Y30479997D01*
X8400513Y30480004D01*
X8381759Y30610440D01*
X8381758Y30610441D01*
X8381758Y30610446D01*
X8327011Y30730324D01*
X8327010Y30730325D01*
X8327010Y30730326D01*
X8283860Y30780124D01*
X8240709Y30829922D01*
X8240706Y30829924D01*
X8240705Y30829925D01*
X8129846Y30901170D01*
X8129843Y30901171D01*
X8104553Y30908597D01*
X8003398Y30938300D01*
X8003394Y30938300D01*
X7871606Y30938300D01*
X7871601Y30938300D01*
X7745157Y30901171D01*
X7745153Y30901170D01*
X7634294Y30829925D01*
X7634289Y30829920D01*
X7547988Y30730324D01*
X7547987Y30730322D01*
X7534356Y30700474D01*
X7492179Y30657622D01*
X7432324Y30651906D01*
X7382799Y30686002D01*
X7366500Y30736989D01*
X7366500Y30954282D01*
X7368189Y30971431D01*
X7371485Y30988000D01*
X7366500Y31013063D01*
X7366500Y31013067D01*
X7351734Y31087301D01*
X7351008Y31090950D01*
X7344491Y31098139D01*
X7309684Y31150234D01*
X7309681Y31150237D01*
X7308665Y31151758D01*
X7308656Y31151770D01*
X7295485Y31171484D01*
X7281436Y31180871D01*
X7268117Y31191801D01*
X7061799Y31398119D01*
X7050866Y31411442D01*
X7041484Y31425484D01*
X7022262Y31438328D01*
X7022240Y31438344D01*
X6957302Y31481734D01*
X6904061Y31492324D01*
X6883067Y31496500D01*
X6858000Y31501486D01*
X6841424Y31498189D01*
X6824276Y31496500D01*
X6368435Y31496500D01*
X6311934Y31517065D01*
X6302004Y31526838D01*
X6245610Y31591921D01*
X6245605Y31591925D01*
X6134746Y31663170D01*
X6134743Y31663171D01*
X6109453Y31670597D01*
X6008298Y31700300D01*
X6008294Y31700300D01*
X5876506Y31700300D01*
X5876501Y31700300D01*
X5801465Y31678266D01*
X5741459Y31682079D01*
X5697942Y31723571D01*
X5688800Y31762605D01*
X5688800Y33337497D01*
X8585737Y33337497D01*
X8604490Y33207061D01*
X8604491Y33207056D01*
X8604492Y33207054D01*
X8628137Y33155279D01*
X8659239Y33087175D01*
X8710247Y33028309D01*
X8745541Y32987578D01*
X8745543Y32987577D01*
X8745544Y32987576D01*
X8856403Y32916331D01*
X8856404Y32916331D01*
X8856407Y32916329D01*
X8942532Y32891041D01*
X8982851Y32879201D01*
X8982854Y32879201D01*
X8982856Y32879200D01*
X8982857Y32879200D01*
X9114643Y32879200D01*
X9114644Y32879200D01*
X9114646Y32879201D01*
X9114648Y32879201D01*
X9129677Y32883615D01*
X9241093Y32916329D01*
X9351959Y32987578D01*
X9438261Y33087176D01*
X9493008Y33207054D01*
X9504190Y33284829D01*
X9511763Y33337497D01*
X9511763Y33337504D01*
X9493009Y33467940D01*
X9493008Y33467941D01*
X9493008Y33467946D01*
X9438261Y33587824D01*
X9351959Y33687422D01*
X9351958Y33687423D01*
X9351957Y33687424D01*
X9343626Y33692778D01*
X9307214Y33740625D01*
X9303250Y33766723D01*
X9303250Y34773097D01*
X13062332Y34773097D01*
X13082100Y34635602D01*
X13082101Y34635597D01*
X13082102Y34635595D01*
X13139811Y34509231D01*
X13230783Y34404243D01*
X13230785Y34404242D01*
X13230786Y34404241D01*
X13347645Y34329140D01*
X13347646Y34329140D01*
X13347649Y34329138D01*
X13438435Y34302481D01*
X13480936Y34290001D01*
X13480939Y34290001D01*
X13480941Y34290000D01*
X13480942Y34290000D01*
X13619858Y34290000D01*
X13619859Y34290000D01*
X13619861Y34290001D01*
X13619863Y34290001D01*
X13635705Y34294653D01*
X13753151Y34329138D01*
X13870017Y34404243D01*
X13960989Y34509231D01*
X14018698Y34635595D01*
X14018989Y34637624D01*
X14038468Y34773097D01*
X14038468Y34773104D01*
X14018699Y34910599D01*
X14018698Y34910600D01*
X14018698Y34910605D01*
X13960989Y35036969D01*
X13870017Y35141957D01*
X13870016Y35141958D01*
X13845277Y35157857D01*
X13808864Y35205705D01*
X13804900Y35231803D01*
X13804900Y37351829D01*
X13804900Y39519131D01*
X13825464Y39575629D01*
X13845279Y39593076D01*
X13853609Y39598428D01*
X13939911Y39698026D01*
X13994658Y39817904D01*
X14013413Y39948350D01*
X14013413Y39948354D01*
X13994659Y40078790D01*
X13994658Y40078791D01*
X13994658Y40078796D01*
X13939911Y40198674D01*
X13939910Y40198675D01*
X13939910Y40198676D01*
X13881494Y40266091D01*
X13853609Y40298272D01*
X13853606Y40298274D01*
X13853605Y40298275D01*
X13742746Y40369520D01*
X13742743Y40369521D01*
X13717453Y40376947D01*
X13616298Y40406650D01*
X13616294Y40406650D01*
X13484506Y40406650D01*
X13484501Y40406650D01*
X13358057Y40369521D01*
X13358053Y40369520D01*
X13247194Y40298275D01*
X13247189Y40298270D01*
X13160889Y40198676D01*
X13106142Y40078796D01*
X13106140Y40078790D01*
X13087387Y39948354D01*
X13087387Y39948347D01*
X13106140Y39817911D01*
X13106141Y39817906D01*
X13106142Y39817904D01*
X13160889Y39698026D01*
X13230511Y39617678D01*
X13247192Y39598427D01*
X13251259Y39595814D01*
X13255518Y39593077D01*
X13291934Y39545232D01*
X13295900Y39519128D01*
X13295900Y35231803D01*
X13275335Y35175302D01*
X13255523Y35157857D01*
X13230783Y35141958D01*
X13139810Y35036968D01*
X13082102Y34910605D01*
X13082100Y34910599D01*
X13062332Y34773104D01*
X13062332Y34773097D01*
X9303250Y34773097D01*
X9303250Y40004997D01*
X10941932Y40004997D01*
X10961700Y39867502D01*
X10961701Y39867497D01*
X10961702Y39867495D01*
X11019411Y39741131D01*
X11110383Y39636143D01*
X11110385Y39636142D01*
X11110386Y39636141D01*
X11227245Y39561040D01*
X11227246Y39561040D01*
X11227249Y39561038D01*
X11307671Y39537424D01*
X11360536Y39521901D01*
X11360539Y39521901D01*
X11360541Y39521900D01*
X11360542Y39521900D01*
X11499458Y39521900D01*
X11499459Y39521900D01*
X11499461Y39521901D01*
X11499463Y39521901D01*
X11515305Y39526554D01*
X11632751Y39561038D01*
X11749617Y39636143D01*
X11839821Y39740246D01*
X11892361Y39769478D01*
X11951402Y39758099D01*
X11972675Y39740249D01*
X12062883Y39636143D01*
X12062885Y39636142D01*
X12062886Y39636141D01*
X12179745Y39561040D01*
X12179746Y39561040D01*
X12179749Y39561038D01*
X12260171Y39537424D01*
X12313036Y39521901D01*
X12313039Y39521901D01*
X12313041Y39521900D01*
X12313042Y39521900D01*
X12451958Y39521900D01*
X12451959Y39521900D01*
X12451961Y39521901D01*
X12451963Y39521901D01*
X12467805Y39526554D01*
X12585251Y39561038D01*
X12702117Y39636143D01*
X12793089Y39741131D01*
X12850798Y39867495D01*
X12864260Y39961125D01*
X12870568Y40004997D01*
X12870568Y40005004D01*
X12850799Y40142499D01*
X12850798Y40142500D01*
X12850798Y40142505D01*
X12793089Y40268869D01*
X12702117Y40373857D01*
X12702115Y40373858D01*
X12702113Y40373860D01*
X12585254Y40448961D01*
X12585251Y40448962D01*
X12558592Y40456790D01*
X12451963Y40488100D01*
X12451959Y40488100D01*
X12313041Y40488100D01*
X12313036Y40488100D01*
X12179749Y40448962D01*
X12179745Y40448961D01*
X12062886Y40373860D01*
X12062881Y40373856D01*
X12002108Y40303719D01*
X11972679Y40269757D01*
X11920139Y40240523D01*
X11861098Y40251902D01*
X11839821Y40269756D01*
X11767265Y40353490D01*
X11749618Y40373856D01*
X11749613Y40373860D01*
X11632754Y40448961D01*
X11632751Y40448962D01*
X11606092Y40456790D01*
X11499463Y40488100D01*
X11499459Y40488100D01*
X11360541Y40488100D01*
X11360536Y40488100D01*
X11227249Y40448962D01*
X11227245Y40448961D01*
X11110386Y40373860D01*
X11110381Y40373856D01*
X11019410Y40268868D01*
X10961702Y40142505D01*
X10961700Y40142499D01*
X10941932Y40005004D01*
X10941932Y40004997D01*
X9303250Y40004997D01*
X9303250Y48624528D01*
X9323815Y48681029D01*
X9343630Y48698476D01*
X9351959Y48703828D01*
X9438261Y48803426D01*
X9493008Y48923304D01*
X9511763Y49053750D01*
X9511763Y49053754D01*
X9493009Y49184190D01*
X9493008Y49184191D01*
X9493008Y49184196D01*
X9438261Y49304074D01*
X9438260Y49304075D01*
X9438260Y49304076D01*
X9386812Y49363449D01*
X9351959Y49403672D01*
X9351956Y49403674D01*
X9351955Y49403675D01*
X9241096Y49474920D01*
X9241093Y49474921D01*
X9215803Y49482347D01*
X9114648Y49512050D01*
X9114644Y49512050D01*
X8982856Y49512050D01*
X8982851Y49512050D01*
X8856407Y49474921D01*
X8856403Y49474920D01*
X8745544Y49403675D01*
X8745539Y49403670D01*
X8659239Y49304076D01*
X8604492Y49184196D01*
X8604490Y49184190D01*
X8585737Y49053754D01*
X8585737Y49053747D01*
X8604490Y48923311D01*
X8604491Y48923306D01*
X8604492Y48923304D01*
X8659239Y48803426D01*
X8685158Y48773514D01*
X8745542Y48703827D01*
X8749609Y48701214D01*
X8753868Y48698477D01*
X8790284Y48650632D01*
X8794250Y48624528D01*
X8794250Y33766723D01*
X8773685Y33710222D01*
X8753874Y33692778D01*
X8745542Y33687424D01*
X8659238Y33587823D01*
X8604492Y33467946D01*
X8604490Y33467940D01*
X8585737Y33337504D01*
X8585737Y33337497D01*
X5688800Y33337497D01*
X5688800Y40673653D01*
X5709365Y40730154D01*
X5714534Y40735797D01*
X6002095Y41023359D01*
X6056589Y41048769D01*
X6114667Y41033206D01*
X6149155Y40983953D01*
X6152150Y40961203D01*
X6152149Y37930629D01*
X6131584Y37874128D01*
X6111772Y37856683D01*
X6046791Y37814922D01*
X6046789Y37814920D01*
X5960489Y37715326D01*
X5905742Y37595446D01*
X5905740Y37595440D01*
X5886987Y37465004D01*
X5886987Y37464997D01*
X5905740Y37334561D01*
X5905741Y37334556D01*
X5905742Y37334554D01*
X5926238Y37289674D01*
X5960489Y37214675D01*
X6011497Y37155809D01*
X6046791Y37115078D01*
X6046793Y37115077D01*
X6046794Y37115076D01*
X6157653Y37043831D01*
X6157654Y37043831D01*
X6157657Y37043829D01*
X6243782Y37018541D01*
X6284101Y37006701D01*
X6284104Y37006701D01*
X6284106Y37006700D01*
X6284107Y37006700D01*
X6415893Y37006700D01*
X6415894Y37006700D01*
X6415896Y37006701D01*
X6415898Y37006701D01*
X6431281Y37011218D01*
X6542343Y37043829D01*
X6653209Y37115078D01*
X6739511Y37214676D01*
X6794258Y37334554D01*
X6806705Y37421125D01*
X6813013Y37464997D01*
X6813013Y37465004D01*
X6794259Y37595440D01*
X6794258Y37595441D01*
X6794258Y37595446D01*
X6739511Y37715324D01*
X6739510Y37715325D01*
X6739510Y37715326D01*
X6682619Y37780983D01*
X6661161Y37837151D01*
X6661150Y37838544D01*
X6661150Y41004528D01*
X6681715Y41061029D01*
X6701530Y41078476D01*
X6709859Y41083828D01*
X6796161Y41183426D01*
X6850908Y41303304D01*
X6857209Y41347130D01*
X6869663Y41433747D01*
X6869663Y41433754D01*
X6850909Y41564190D01*
X6850908Y41564191D01*
X6850908Y41564196D01*
X6796161Y41684074D01*
X6796160Y41684075D01*
X6796160Y41684076D01*
X6745468Y41742577D01*
X6709859Y41783672D01*
X6709856Y41783674D01*
X6709855Y41783675D01*
X6598996Y41854920D01*
X6598993Y41854921D01*
X6573703Y41862347D01*
X6472548Y41892050D01*
X6472544Y41892050D01*
X6361161Y41892050D01*
X6304660Y41912615D01*
X6274596Y41964686D01*
X6281204Y42016465D01*
X6292954Y42042194D01*
X6318008Y42097054D01*
X6336763Y42227500D01*
X6330065Y42274085D01*
X6342379Y42332936D01*
X6354911Y42348745D01*
X6823621Y42817455D01*
X6836937Y42828381D01*
X6850984Y42837766D01*
X6861041Y42852820D01*
X6861048Y42852827D01*
X6865182Y42859016D01*
X6865184Y42859016D01*
X6907234Y42921949D01*
X6926986Y43021250D01*
X6925623Y43028100D01*
X6923689Y43037826D01*
X6922000Y43054974D01*
X6922000Y48861277D01*
X6923689Y48878426D01*
X6926986Y48895001D01*
X6918259Y48938875D01*
X6907234Y48994301D01*
X6907233Y48994303D01*
X6863982Y49059034D01*
X6863963Y49059059D01*
X6850984Y49078484D01*
X6836936Y49087871D01*
X6823617Y49098801D01*
X3696299Y52226119D01*
X3685366Y52239442D01*
X3675984Y52253484D01*
X3656762Y52266328D01*
X3656740Y52266344D01*
X3591802Y52309734D01*
X3492500Y52329486D01*
X3475924Y52326189D01*
X3458776Y52324500D01*
X2426444Y52324500D01*
X2369943Y52345065D01*
X2341900Y52388343D01*
X2317064Y52475635D01*
X2224700Y52661125D01*
X2099826Y52826486D01*
X2015837Y52903052D01*
X1946694Y52966085D01*
X1946685Y52966091D01*
X1770517Y53075169D01*
X1770511Y53075172D01*
X1577296Y53150023D01*
X1577284Y53150027D01*
X1373609Y53188100D01*
X1373607Y53188100D01*
X1166393Y53188100D01*
X1166390Y53188100D01*
X962715Y53150027D01*
X962703Y53150023D01*
X769488Y53075172D01*
X769482Y53075169D01*
X593314Y52966091D01*
X593305Y52966085D01*
X440173Y52826485D01*
X315302Y52661129D01*
X222936Y52475634D01*
X222934Y52475629D01*
X172944Y52299934D01*
X137702Y52251218D01*
X79391Y52236552D01*
X25295Y52262799D01*
X727Y52317678D01*
X500Y52323989D01*
X500Y55878764D01*
X569Y55881228D01*
X6987Y55995517D01*
X6988Y55995525D01*
X6991Y55995592D01*
X17459Y56168653D01*
X17997Y56173336D01*
X41279Y56310363D01*
X68727Y56460142D01*
X69706Y56464306D01*
X109380Y56602018D01*
X153506Y56743624D01*
X154845Y56747323D01*
X210397Y56881435D01*
X270641Y57015291D01*
X272243Y57018494D01*
X342963Y57146453D01*
X345105Y57149997D01*
X764353Y57149997D01*
X784833Y57007550D01*
X784835Y57007544D01*
X842434Y56881419D01*
X844623Y56876627D01*
X938872Y56767857D01*
X938874Y56767856D01*
X938875Y56767855D01*
X1007676Y56723639D01*
X1059947Y56690047D01*
X1198039Y56649500D01*
X1198040Y56649500D01*
X1341960Y56649500D01*
X1341961Y56649500D01*
X1480053Y56690047D01*
X1601128Y56767857D01*
X1695377Y56876627D01*
X1755165Y57007543D01*
X1767671Y57094526D01*
X1775647Y57149997D01*
X1775647Y57150004D01*
X1755166Y57292451D01*
X1755165Y57292452D01*
X1755165Y57292457D01*
X1695377Y57423373D01*
X1601128Y57532143D01*
X1601126Y57532144D01*
X1601124Y57532146D01*
X1480054Y57609953D01*
X1480050Y57609954D01*
X1341967Y57650499D01*
X1341961Y57650500D01*
X1198039Y57650500D01*
X1198038Y57650500D01*
X1198032Y57650499D01*
X1059949Y57609954D01*
X1059945Y57609953D01*
X938875Y57532146D01*
X938870Y57532142D01*
X844622Y57423372D01*
X784835Y57292457D01*
X784833Y57292451D01*
X764353Y57150004D01*
X764353Y57149997D01*
X345105Y57149997D01*
X418577Y57271532D01*
X420302Y57274164D01*
X504712Y57393128D01*
X505866Y57394677D01*
X595294Y57508823D01*
X597081Y57510958D01*
X694382Y57619838D01*
X696003Y57621553D01*
X798447Y57723997D01*
X800162Y57725618D01*
X909042Y57822919D01*
X911177Y57824706D01*
X1025323Y57914134D01*
X1026872Y57915288D01*
X1145836Y57999698D01*
X1148468Y58001423D01*
X1273547Y58077037D01*
X1401506Y58147757D01*
X1404710Y58149359D01*
X1454927Y58171960D01*
X1538565Y58209603D01*
X1672677Y58265155D01*
X1676376Y58266494D01*
X1817982Y58310620D01*
X1955694Y58350294D01*
X1959858Y58351273D01*
X2109598Y58378714D01*
X2246664Y58402003D01*
X2251347Y58402541D01*
X2424382Y58413007D01*
X2530235Y58418952D01*
X2538773Y58419431D01*
X2541237Y58419500D01*
X3468100Y58419500D01*
X3524601Y58398935D01*
G37*
%TD.AperFunction*%
%TD*%
M02*
