%TF.GenerationSoftware,KiCad,Pcbnew,7.0.6*%
%TF.CreationDate,2023-12-06T13:06:40-07:00*%
%TF.ProjectId,SparkFun_Thing_Plus_ESP32-S3,53706172-6b46-4756-9e5f-5468696e675f,rev?*%
%TF.SameCoordinates,Original*%
%TF.FileFunction,Soldermask,Top*%
%TF.FilePolarity,Negative*%
%FSLAX46Y46*%
G04 Gerber Fmt 4.6, Leading zero omitted, Abs format (unit mm)*
G04 Created by KiCad (PCBNEW 7.0.6) date 2023-12-06 13:06:40*
%MOMM*%
%LPD*%
G01*
G04 APERTURE LIST*
G04 Aperture macros list*
%AMRoundRect*
0 Rectangle with rounded corners*
0 $1 Rounding radius*
0 $2 $3 $4 $5 $6 $7 $8 $9 X,Y pos of 4 corners*
0 Add a 4 corners polygon primitive as box body*
4,1,4,$2,$3,$4,$5,$6,$7,$8,$9,$2,$3,0*
0 Add four circle primitives for the rounded corners*
1,1,$1+$1,$2,$3*
1,1,$1+$1,$4,$5*
1,1,$1+$1,$6,$7*
1,1,$1+$1,$8,$9*
0 Add four rect primitives between the rounded corners*
20,1,$1+$1,$2,$3,$4,$5,0*
20,1,$1+$1,$4,$5,$6,$7,0*
20,1,$1+$1,$6,$7,$8,$9,0*
20,1,$1+$1,$8,$9,$2,$3,0*%
%AMOutline5P*
0 Free polygon, 5 corners , with rotation*
0 The origin of the aperture is its center*
0 number of corners: always 5*
0 $1 to $10 corner X, Y*
0 $11 Rotation angle, in degrees counterclockwise*
0 create outline with 5 corners*
4,1,5,$1,$2,$3,$4,$5,$6,$7,$8,$9,$10,$1,$2,$11*%
%AMOutline6P*
0 Free polygon, 6 corners , with rotation*
0 The origin of the aperture is its center*
0 number of corners: always 6*
0 $1 to $12 corner X, Y*
0 $13 Rotation angle, in degrees counterclockwise*
0 create outline with 6 corners*
4,1,6,$1,$2,$3,$4,$5,$6,$7,$8,$9,$10,$11,$12,$1,$2,$13*%
%AMOutline7P*
0 Free polygon, 7 corners , with rotation*
0 The origin of the aperture is its center*
0 number of corners: always 7*
0 $1 to $14 corner X, Y*
0 $15 Rotation angle, in degrees counterclockwise*
0 create outline with 7 corners*
4,1,7,$1,$2,$3,$4,$5,$6,$7,$8,$9,$10,$11,$12,$13,$14,$1,$2,$15*%
%AMOutline8P*
0 Free polygon, 8 corners , with rotation*
0 The origin of the aperture is its center*
0 number of corners: always 8*
0 $1 to $16 corner X, Y*
0 $17 Rotation angle, in degrees counterclockwise*
0 create outline with 8 corners*
4,1,8,$1,$2,$3,$4,$5,$6,$7,$8,$9,$10,$11,$12,$13,$14,$15,$16,$1,$2,$17*%
G04 Aperture macros list end*
%ADD10RoundRect,0.101600X0.350000X-0.350000X0.350000X0.350000X-0.350000X0.350000X-0.350000X-0.350000X0*%
%ADD11RoundRect,0.135000X-0.135000X-0.185000X0.135000X-0.185000X0.135000X0.185000X-0.135000X0.185000X0*%
%ADD12RoundRect,0.218750X0.218750X0.256250X-0.218750X0.256250X-0.218750X-0.256250X0.218750X-0.256250X0*%
%ADD13C,1.000000*%
%ADD14RoundRect,0.140000X0.140000X0.170000X-0.140000X0.170000X-0.140000X-0.170000X0.140000X-0.170000X0*%
%ADD15RoundRect,0.135000X0.185000X-0.135000X0.185000X0.135000X-0.185000X0.135000X-0.185000X-0.135000X0*%
%ADD16C,0.650000*%
%ADD17RoundRect,0.070000X0.150000X0.500000X-0.150000X0.500000X-0.150000X-0.500000X0.150000X-0.500000X0*%
%ADD18RoundRect,0.070000X-0.150000X-0.500000X0.150000X-0.500000X0.150000X0.500000X-0.150000X0.500000X0*%
%ADD19RoundRect,0.070000X0.300000X0.500000X-0.300000X0.500000X-0.300000X-0.500000X0.300000X-0.500000X0*%
%ADD20RoundRect,0.070000X-0.300000X-0.500000X0.300000X-0.500000X0.300000X0.500000X-0.300000X0.500000X0*%
%ADD21O,1.000000X1.600000*%
%ADD22O,1.000000X2.100000*%
%ADD23RoundRect,0.135000X0.135000X0.185000X-0.135000X0.185000X-0.135000X-0.185000X0.135000X-0.185000X0*%
%ADD24RoundRect,0.225000X0.250000X-0.225000X0.250000X0.225000X-0.250000X0.225000X-0.250000X-0.225000X0*%
%ADD25RoundRect,0.140000X-0.170000X0.140000X-0.170000X-0.140000X0.170000X-0.140000X0.170000X0.140000X0*%
%ADD26RoundRect,0.101600X0.315000X0.415000X-0.315000X0.415000X-0.315000X-0.415000X0.315000X-0.415000X0*%
%ADD27RoundRect,0.135000X-0.185000X0.135000X-0.185000X-0.135000X0.185000X-0.135000X0.185000X0.135000X0*%
%ADD28RoundRect,0.101600X-0.450000X-0.500000X0.450000X-0.500000X0.450000X0.500000X-0.450000X0.500000X0*%
%ADD29C,3.302000*%
%ADD30RoundRect,0.101600X0.600000X-0.275000X0.600000X0.275000X-0.600000X0.275000X-0.600000X-0.275000X0*%
%ADD31RoundRect,0.101600X-0.675000X0.300000X-0.675000X-0.300000X0.675000X-0.300000X0.675000X0.300000X0*%
%ADD32RoundRect,0.101600X-1.000000X0.600000X-1.000000X-0.600000X1.000000X-0.600000X1.000000X0.600000X0*%
%ADD33RoundRect,0.101600X-0.600000X0.275000X-0.600000X-0.275000X0.600000X-0.275000X0.600000X0.275000X0*%
%ADD34C,2.082800*%
%ADD35RoundRect,0.140000X-0.140000X-0.170000X0.140000X-0.170000X0.140000X0.170000X-0.140000X0.170000X0*%
%ADD36R,0.800000X0.400000*%
%ADD37R,0.400000X0.800000*%
%ADD38Outline5P,-0.600000X0.120000X-0.120000X0.600000X0.600000X0.600000X0.600000X-0.600000X-0.600000X-0.600000X0.000000*%
%ADD39R,1.200000X1.200000*%
%ADD40R,0.800000X0.800000*%
%ADD41RoundRect,0.225000X-0.225000X-0.250000X0.225000X-0.250000X0.225000X0.250000X-0.225000X0.250000X0*%
%ADD42RoundRect,0.140000X0.170000X-0.140000X0.170000X0.140000X-0.170000X0.140000X-0.170000X-0.140000X0*%
%ADD43RoundRect,0.101600X2.300000X-0.500000X2.300000X0.500000X-2.300000X0.500000X-2.300000X-0.500000X0*%
%ADD44RoundRect,0.101600X1.700000X0.800000X-1.700000X0.800000X-1.700000X-0.800000X1.700000X-0.800000X0*%
G04 APERTURE END LIST*
%TO.C,U4*%
G36*
X18797500Y8555000D02*
G01*
X17957500Y8555000D01*
X17957500Y8995000D01*
X18797500Y8995000D01*
X18797500Y8555000D01*
G37*
G36*
X20797500Y8555000D02*
G01*
X19957500Y8555000D01*
X19957500Y8995000D01*
X20797500Y8995000D01*
X20797500Y8555000D01*
G37*
G36*
X19837500Y8765000D02*
G01*
X18897500Y8765000D01*
X18897500Y10285000D01*
X19837500Y10285000D01*
X19837500Y8765000D01*
G37*
G36*
X18797500Y9055000D02*
G01*
X17957500Y9055000D01*
X17957500Y9495000D01*
X18797500Y9495000D01*
X18797500Y9055000D01*
G37*
G36*
X20797500Y9055000D02*
G01*
X19957500Y9055000D01*
X19957500Y9495000D01*
X20797500Y9495000D01*
X20797500Y9055000D01*
G37*
G36*
X18797500Y9555000D02*
G01*
X17957500Y9555000D01*
X17957500Y9995000D01*
X18797500Y9995000D01*
X18797500Y9555000D01*
G37*
G36*
X20797500Y9555000D02*
G01*
X19957500Y9555000D01*
X19957500Y9995000D01*
X20797500Y9995000D01*
X20797500Y9555000D01*
G37*
G36*
X18797500Y10055000D02*
G01*
X17957500Y10055000D01*
X17957500Y10495000D01*
X18797500Y10495000D01*
X18797500Y10055000D01*
G37*
G36*
X20797500Y10055000D02*
G01*
X19957500Y10055000D01*
X19957500Y10495000D01*
X20797500Y10495000D01*
X20797500Y10055000D01*
G37*
%TD*%
D10*
%TO.C,D6*%
X21505000Y55282500D03*
X21505000Y57112500D03*
X20405000Y57112500D03*
X20405000Y55282500D03*
%TD*%
D11*
%TO.C,R15*%
X9015000Y12065000D03*
X10035000Y12065000D03*
%TD*%
D12*
%TO.C,D4*%
X17932500Y30480000D03*
X16357500Y30480000D03*
%TD*%
D13*
%TO.C,FID3*%
X1270000Y57150000D03*
%TD*%
D14*
%TO.C,C8*%
X21435000Y53975000D03*
X20475000Y53975000D03*
%TD*%
D15*
%TO.C,R8*%
X18415000Y25207500D03*
X18415000Y26227500D03*
%TD*%
D16*
%TO.C,J1*%
X8540000Y4901250D03*
X14320000Y4901250D03*
D17*
X10180000Y6006250D03*
X11180000Y6006250D03*
D18*
X11680000Y6006250D03*
X12680000Y6006250D03*
X13180000Y6006250D03*
X12180000Y6006250D03*
D17*
X10680000Y6006250D03*
X9680000Y6006250D03*
D19*
X8205000Y6006250D03*
D20*
X14655000Y6006250D03*
D21*
X7112000Y1251250D03*
D22*
X7112000Y5431250D03*
X15748000Y5431250D03*
D21*
X15748000Y1251250D03*
D19*
X8980000Y6006250D03*
D20*
X13880000Y6006250D03*
%TD*%
D23*
%TO.C,R12*%
X10035000Y7302500D03*
X9015000Y7302500D03*
%TD*%
D24*
%TO.C,C9*%
X11430000Y13830000D03*
X11430000Y15380000D03*
%TD*%
D12*
%TO.C,D5*%
X17932500Y28575000D03*
X16357500Y28575000D03*
%TD*%
D11*
%TO.C,R13*%
X5205000Y28575000D03*
X6225000Y28575000D03*
%TD*%
D25*
%TO.C,C2*%
X21590000Y10005000D03*
X21590000Y9045000D03*
%TD*%
D12*
%TO.C,D1*%
X17932500Y32385000D03*
X16357500Y32385000D03*
%TD*%
D26*
%TO.C,D2*%
X4565000Y32385000D03*
X6865000Y32385000D03*
%TD*%
D11*
%TO.C,R9*%
X9015000Y28575000D03*
X10035000Y28575000D03*
%TD*%
%TO.C,R16*%
X14412500Y12065000D03*
X15432500Y12065000D03*
%TD*%
D13*
%TO.C,FID4*%
X17145000Y635000D03*
%TD*%
D27*
%TO.C,R11*%
X5842000Y3558000D03*
X5842000Y2538000D03*
%TD*%
D28*
%TO.C,SW2*%
X11285000Y26517500D03*
X15385000Y26517500D03*
X11285000Y24917500D03*
X15385000Y24917500D03*
%TD*%
D29*
%TO.C,ST1*%
X2540000Y2540000D03*
%TD*%
D30*
%TO.C,U2*%
X16222600Y8575000D03*
X16222600Y9525000D03*
X16222600Y10475000D03*
X13622400Y10475000D03*
X13622400Y9575000D03*
X13622400Y8575000D03*
%TD*%
%TO.C,U5*%
X16222600Y13655000D03*
X16222600Y14605000D03*
X16222600Y15555000D03*
X13622400Y15555000D03*
X13622400Y13655000D03*
%TD*%
D26*
%TO.C,D3*%
X4565000Y30480000D03*
X6865000Y30480000D03*
%TD*%
D14*
%TO.C,C7*%
X2385000Y53975000D03*
X1425000Y53975000D03*
%TD*%
D25*
%TO.C,C12*%
X18415000Y15085000D03*
X18415000Y14125000D03*
%TD*%
D23*
%TO.C,R14*%
X10035000Y30480000D03*
X9015000Y30480000D03*
%TD*%
D25*
%TO.C,C6*%
X17145000Y26197500D03*
X17145000Y25237500D03*
%TD*%
D28*
%TO.C,SW1*%
X11285000Y21437500D03*
X15385000Y21437500D03*
X11285000Y19837500D03*
X15385000Y19837500D03*
%TD*%
D31*
%TO.C,J4*%
X5080000Y11025000D03*
X5080000Y10025000D03*
X5080000Y9025000D03*
X5080000Y8025000D03*
D32*
X1405000Y6725000D03*
X1405000Y12325000D03*
%TD*%
D33*
%TO.C,U6*%
X4414900Y26667500D03*
X4414900Y25717500D03*
X4414900Y24767500D03*
X7015100Y24767500D03*
X7015100Y26667500D03*
%TD*%
D15*
%TO.C,R10*%
X17018000Y2538000D03*
X17018000Y3558000D03*
%TD*%
D34*
%TO.C,U10*%
X1270000Y52070000D03*
X1270000Y49530000D03*
X1270000Y46990000D03*
X1270000Y44450000D03*
X1270000Y41910000D03*
X1270000Y39370000D03*
X1270000Y36830000D03*
X1270000Y34290000D03*
X1270000Y31750000D03*
X1270000Y29210000D03*
X1270000Y26670000D03*
X1270000Y24130000D03*
X21590000Y52070000D03*
X21590000Y49530000D03*
X21590000Y46990000D03*
X21590000Y44450000D03*
X21590000Y41910000D03*
X21590000Y39370000D03*
X21590000Y36830000D03*
X21590000Y34290000D03*
X21590000Y31750000D03*
X21590000Y29210000D03*
X21590000Y26670000D03*
X21590000Y24130000D03*
X21590000Y21590000D03*
X21590000Y19050000D03*
X21590000Y16510000D03*
X21590000Y13970000D03*
%TD*%
D35*
%TO.C,C10*%
X9045000Y24765000D03*
X10005000Y24765000D03*
%TD*%
D36*
%TO.C,U3*%
X4430000Y51670000D03*
X4430000Y50820000D03*
X4430000Y49970000D03*
X4430000Y49120000D03*
X4430000Y48270000D03*
X4430000Y47420000D03*
X4430000Y46570000D03*
X4430000Y45720000D03*
X4430000Y44870000D03*
X4430000Y44020000D03*
X4430000Y43170000D03*
X4430000Y42320000D03*
X4430000Y41470000D03*
X4430000Y40620000D03*
X4430000Y39770000D03*
D37*
X5480000Y38720000D03*
X6330000Y38720000D03*
X7180000Y38720000D03*
X8030000Y38720000D03*
X8880000Y38720000D03*
X9730000Y38720000D03*
X10580000Y38720000D03*
X11430000Y38720000D03*
X12280000Y38720000D03*
X13130000Y38720000D03*
X13980000Y38720000D03*
X14830000Y38720000D03*
X15680000Y38720000D03*
X16530000Y38720000D03*
X17380000Y38720000D03*
D36*
X18430000Y39770000D03*
X18430000Y40620000D03*
X18430000Y41470000D03*
X18430000Y42320000D03*
X18430000Y43170000D03*
X18430000Y44020000D03*
X18430000Y44870000D03*
X18430000Y45720000D03*
X18430000Y46570000D03*
X18430000Y47420000D03*
X18430000Y48270000D03*
X18430000Y49120000D03*
X18430000Y49970000D03*
X18430000Y50820000D03*
X18430000Y51670000D03*
D37*
X17380000Y52720000D03*
X16530000Y52720000D03*
X15680000Y52720000D03*
X14830000Y52720000D03*
X13980000Y52720000D03*
X13130000Y52720000D03*
X12280000Y52720000D03*
X11430000Y52720000D03*
X10580000Y52720000D03*
X9730000Y52720000D03*
X8880000Y52720000D03*
X8030000Y52720000D03*
X7180000Y52720000D03*
X6330000Y52720000D03*
X5480000Y52720000D03*
D38*
X9780000Y47370000D03*
D39*
X9780000Y45720000D03*
X9780000Y44070000D03*
X11430000Y47370000D03*
X11430000Y45720000D03*
X11430000Y44070000D03*
X13080000Y47370000D03*
X13080000Y45720000D03*
X13080000Y44070000D03*
D40*
X4430000Y52720000D03*
X4430000Y38720000D03*
X18430000Y38720000D03*
X18430000Y52720000D03*
%TD*%
D41*
%TO.C,C1*%
X1130000Y55562500D03*
X2680000Y55562500D03*
%TD*%
D30*
%TO.C,U1*%
X10825100Y8575000D03*
X10825100Y9525000D03*
X10825100Y10475000D03*
X8224900Y10475000D03*
X8224900Y8575000D03*
%TD*%
D35*
%TO.C,C13*%
X9045000Y26670000D03*
X10005000Y26670000D03*
%TD*%
D25*
%TO.C,C3*%
X6667500Y10005000D03*
X6667500Y9045000D03*
%TD*%
D29*
%TO.C,ST3*%
X20320000Y2540000D03*
%TD*%
D42*
%TO.C,C11*%
X17145000Y20157500D03*
X17145000Y21117500D03*
%TD*%
D43*
%TO.C,J3*%
X7510000Y17415000D03*
X7510000Y19415000D03*
D44*
X2310000Y15015000D03*
X2310000Y21815000D03*
%TD*%
D11*
%TO.C,R7*%
X9015000Y32385000D03*
X10035000Y32385000D03*
%TD*%
M02*
