%TF.GenerationSoftware,KiCad,Pcbnew,7.0.10*%
%TF.CreationDate,2024-01-23T14:15:22-07:00*%
%TF.ProjectId,SparkFun_Thing_Plus_ESP32-S3_panelized,53706172-6b46-4756-9e5f-5468696e675f,rev?*%
%TF.SameCoordinates,Original*%
%TF.FileFunction,Soldermask,Bot*%
%TF.FilePolarity,Negative*%
%FSLAX46Y46*%
G04 Gerber Fmt 4.6, Leading zero omitted, Abs format (unit mm)*
G04 Created by KiCad (PCBNEW 7.0.10) date 2024-01-23 14:15:22*
%MOMM*%
%LPD*%
G01*
G04 APERTURE LIST*
%TA.AperFunction,Profile*%
%ADD10C,0.100000*%
%TD*%
%ADD11C,0.250000*%
%ADD12C,0.500000*%
G04 APERTURE END LIST*
D10*
X-500000Y-4310000D02*
X-500000Y188190000D01*
X93440000Y-4310000D02*
X-500000Y-4310000D01*
X93440000Y188190000D02*
X93440000Y-4310000D01*
X-500000Y188190000D02*
X93440000Y188190000D01*
X-6850000Y-10660000D02*
X-6850000Y194540000D01*
X99790000Y-10660000D02*
X-6850000Y-10660000D01*
X99790000Y194540000D02*
X99790000Y-10660000D01*
X-6850000Y194540000D02*
X99790000Y194540000D01*
X72620000Y183880000D02*
G75*
G03*
X70080000Y181340000I0J-2540000D01*
G01*
X72620000Y121150000D02*
G75*
G03*
X70080000Y118610000I0J-2540000D01*
G01*
X72620000Y58420000D02*
G75*
G03*
X70080000Y55880000I0J-2540000D01*
G01*
X49260000Y183880000D02*
G75*
G03*
X46720000Y181340000I0J-2540000D01*
G01*
X49260000Y121150000D02*
G75*
G03*
X46720000Y118610000I0J-2540000D01*
G01*
X49260000Y58420000D02*
G75*
G03*
X46720000Y55880000I0J-2540000D01*
G01*
X25900000Y183880000D02*
G75*
G03*
X23360000Y181340000I0J-2540000D01*
G01*
X25900000Y121150000D02*
G75*
G03*
X23360000Y118610000I0J-2540000D01*
G01*
X25900000Y58420000D02*
G75*
G03*
X23360000Y55880000I0J-2540000D01*
G01*
X2540000Y183880000D02*
G75*
G03*
X0Y181340000I0J-2540000D01*
G01*
X2540000Y121150000D02*
G75*
G03*
X0Y118610000I0J-2540000D01*
G01*
X70080000Y128000000D02*
G75*
G03*
X72620000Y125460000I2540000J0D01*
G01*
X70080000Y65270000D02*
G75*
G03*
X72620000Y62730000I2540000J0D01*
G01*
X70080000Y2540000D02*
G75*
G03*
X72620000Y0I2540000J0D01*
G01*
X46720000Y128000000D02*
G75*
G03*
X49260000Y125460000I2540000J0D01*
G01*
X46720000Y65270000D02*
G75*
G03*
X49260000Y62730000I2540000J0D01*
G01*
X46720000Y2540000D02*
G75*
G03*
X49260000Y0I2540000J0D01*
G01*
X23360000Y128000000D02*
G75*
G03*
X25900000Y125460000I2540000J0D01*
G01*
X23360000Y65270000D02*
G75*
G03*
X25900000Y62730000I2540000J0D01*
G01*
X23360000Y2540000D02*
G75*
G03*
X25900000Y0I2540000J0D01*
G01*
X0Y128000000D02*
G75*
G03*
X2540000Y125460000I2540000J0D01*
G01*
X0Y65270000D02*
G75*
G03*
X2540000Y62730000I2540000J0D01*
G01*
X92940000Y181340000D02*
G75*
G03*
X90400000Y183880000I-2540000J0D01*
G01*
X92940000Y118610000D02*
G75*
G03*
X90400000Y121150000I-2540000J0D01*
G01*
X92940000Y55880000D02*
G75*
G03*
X90400000Y58420000I-2540000J0D01*
G01*
X69580000Y181340000D02*
G75*
G03*
X67040000Y183880000I-2540000J0D01*
G01*
X69580000Y118610000D02*
G75*
G03*
X67040000Y121150000I-2540000J0D01*
G01*
X69580000Y55880000D02*
G75*
G03*
X67040000Y58420000I-2540000J0D01*
G01*
X46220000Y181340000D02*
G75*
G03*
X43680000Y183880000I-2540000J0D01*
G01*
X46220000Y118610000D02*
G75*
G03*
X43680000Y121150000I-2540000J0D01*
G01*
X46220000Y55880000D02*
G75*
G03*
X43680000Y58420000I-2540000J0D01*
G01*
X22860000Y181340000D02*
G75*
G03*
X20320000Y183880000I-2540000J0D01*
G01*
X22860000Y118610000D02*
G75*
G03*
X20320000Y121150000I-2540000J0D01*
G01*
X90400000Y125460000D02*
X72620000Y125460000D01*
X90400000Y62730000D02*
X72620000Y62730000D01*
X90400000Y0D02*
X72620000Y0D01*
X67040000Y125460000D02*
X49260000Y125460000D01*
X67040000Y62730000D02*
X49260000Y62730000D01*
X67040000Y0D02*
X49260000Y0D01*
X43680000Y125460000D02*
X25900000Y125460000D01*
X43680000Y62730000D02*
X25900000Y62730000D01*
X43680000Y0D02*
X25900000Y0D01*
X20320000Y125460000D02*
X2540000Y125460000D01*
X20320000Y62730000D02*
X2540000Y62730000D01*
X72620000Y183880000D02*
X90400000Y183880000D01*
X72620000Y121150000D02*
X90400000Y121150000D01*
X72620000Y58420000D02*
X90400000Y58420000D01*
X49260000Y183880000D02*
X67040000Y183880000D01*
X49260000Y121150000D02*
X67040000Y121150000D01*
X49260000Y58420000D02*
X67040000Y58420000D01*
X25900000Y183880000D02*
X43680000Y183880000D01*
X25900000Y121150000D02*
X43680000Y121150000D01*
X25900000Y58420000D02*
X43680000Y58420000D01*
X2540000Y183880000D02*
X20320000Y183880000D01*
X2540000Y121150000D02*
X20320000Y121150000D01*
X92940000Y181340000D02*
X92940000Y128000000D01*
X92940000Y118610000D02*
X92940000Y65270000D01*
X92940000Y55880000D02*
X92940000Y2540000D01*
X69580000Y181340000D02*
X69580000Y128000000D01*
X69580000Y118610000D02*
X69580000Y65270000D01*
X69580000Y55880000D02*
X69580000Y2540000D01*
X46220000Y181340000D02*
X46220000Y128000000D01*
X46220000Y118610000D02*
X46220000Y65270000D01*
X46220000Y55880000D02*
X46220000Y2540000D01*
X22860000Y181340000D02*
X22860000Y128000000D01*
X22860000Y118610000D02*
X22860000Y65270000D01*
X70080000Y128000000D02*
X70080000Y181340000D01*
X70080000Y65270000D02*
X70080000Y118610000D01*
X70080000Y2540000D02*
X70080000Y55880000D01*
X46720000Y128000000D02*
X46720000Y181340000D01*
X46720000Y65270000D02*
X46720000Y118610000D01*
X46720000Y2540000D02*
X46720000Y55880000D01*
X23360000Y128000000D02*
X23360000Y181340000D01*
X23360000Y65270000D02*
X23360000Y118610000D01*
X23360000Y2540000D02*
X23360000Y55880000D01*
X0Y128000000D02*
X0Y181340000D01*
X0Y65270000D02*
X0Y118610000D01*
X90400000Y125460000D02*
G75*
G03*
X92940000Y128000000I0J2540000D01*
G01*
X90400000Y62730000D02*
G75*
G03*
X92940000Y65270000I0J2540000D01*
G01*
X90400000Y0D02*
G75*
G03*
X92940000Y2540000I0J2540000D01*
G01*
X67040000Y125460000D02*
G75*
G03*
X69580000Y128000000I0J2540000D01*
G01*
X67040000Y62730000D02*
G75*
G03*
X69580000Y65270000I0J2540000D01*
G01*
X67040000Y0D02*
G75*
G03*
X69580000Y2540000I0J2540000D01*
G01*
X43680000Y125460000D02*
G75*
G03*
X46220000Y128000000I0J2540000D01*
G01*
X43680000Y62730000D02*
G75*
G03*
X46220000Y65270000I0J2540000D01*
G01*
X43680000Y0D02*
G75*
G03*
X46220000Y2540000I0J2540000D01*
G01*
X20320000Y125460000D02*
G75*
G03*
X22860000Y128000000I0J2540000D01*
G01*
X20320000Y62730000D02*
G75*
G03*
X22860000Y65270000I0J2540000D01*
G01*
X20320000Y0D02*
G75*
G03*
X22860000Y2540000I0J2540000D01*
G01*
X0Y2540000D02*
X0Y55880000D01*
X22860000Y55880000D02*
X22860000Y2540000D01*
X2540000Y58420000D02*
X20320000Y58420000D01*
X20320000Y0D02*
X2540000Y0D01*
X22860000Y55880000D02*
G75*
G03*
X20320000Y58420000I-2540000J0D01*
G01*
X0Y2540000D02*
G75*
G03*
X2540000Y0I2540000J0D01*
G01*
X2540000Y58420000D02*
G75*
G03*
X0Y55880000I0J-2540000D01*
G01*
D11*
X39708094Y-3067238D02*
X39041427Y-2114857D01*
X38565237Y-3067238D02*
X38565237Y-1067238D01*
X38565237Y-1067238D02*
X39327142Y-1067238D01*
X39327142Y-1067238D02*
X39517618Y-1162476D01*
X39517618Y-1162476D02*
X39612856Y-1257714D01*
X39612856Y-1257714D02*
X39708094Y-1448190D01*
X39708094Y-1448190D02*
X39708094Y-1733904D01*
X39708094Y-1733904D02*
X39612856Y-1924380D01*
X39612856Y-1924380D02*
X39517618Y-2019619D01*
X39517618Y-2019619D02*
X39327142Y-2114857D01*
X39327142Y-2114857D02*
X38565237Y-2114857D01*
X40946189Y-1067238D02*
X41327142Y-1067238D01*
X41327142Y-1067238D02*
X41517618Y-1162476D01*
X41517618Y-1162476D02*
X41708094Y-1352952D01*
X41708094Y-1352952D02*
X41803332Y-1733904D01*
X41803332Y-1733904D02*
X41803332Y-2400571D01*
X41803332Y-2400571D02*
X41708094Y-2781523D01*
X41708094Y-2781523D02*
X41517618Y-2972000D01*
X41517618Y-2972000D02*
X41327142Y-3067238D01*
X41327142Y-3067238D02*
X40946189Y-3067238D01*
X40946189Y-3067238D02*
X40755713Y-2972000D01*
X40755713Y-2972000D02*
X40565237Y-2781523D01*
X40565237Y-2781523D02*
X40469999Y-2400571D01*
X40469999Y-2400571D02*
X40469999Y-1733904D01*
X40469999Y-1733904D02*
X40565237Y-1352952D01*
X40565237Y-1352952D02*
X40755713Y-1162476D01*
X40755713Y-1162476D02*
X40946189Y-1067238D01*
X42660475Y-1067238D02*
X42660475Y-2686285D01*
X42660475Y-2686285D02*
X42755713Y-2876761D01*
X42755713Y-2876761D02*
X42850951Y-2972000D01*
X42850951Y-2972000D02*
X43041427Y-3067238D01*
X43041427Y-3067238D02*
X43422380Y-3067238D01*
X43422380Y-3067238D02*
X43612856Y-2972000D01*
X43612856Y-2972000D02*
X43708094Y-2876761D01*
X43708094Y-2876761D02*
X43803332Y-2686285D01*
X43803332Y-2686285D02*
X43803332Y-1067238D01*
X44469999Y-1067238D02*
X45612856Y-1067238D01*
X45041427Y-3067238D02*
X45041427Y-1067238D01*
X46279523Y-2019619D02*
X46946190Y-2019619D01*
X47231904Y-3067238D02*
X46279523Y-3067238D01*
X46279523Y-3067238D02*
X46279523Y-1067238D01*
X46279523Y-1067238D02*
X47231904Y-1067238D01*
X49993809Y-1067238D02*
X50374762Y-1067238D01*
X50374762Y-1067238D02*
X50565238Y-1162476D01*
X50565238Y-1162476D02*
X50755714Y-1352952D01*
X50755714Y-1352952D02*
X50850952Y-1733904D01*
X50850952Y-1733904D02*
X50850952Y-2400571D01*
X50850952Y-2400571D02*
X50755714Y-2781523D01*
X50755714Y-2781523D02*
X50565238Y-2972000D01*
X50565238Y-2972000D02*
X50374762Y-3067238D01*
X50374762Y-3067238D02*
X49993809Y-3067238D01*
X49993809Y-3067238D02*
X49803333Y-2972000D01*
X49803333Y-2972000D02*
X49612857Y-2781523D01*
X49612857Y-2781523D02*
X49517619Y-2400571D01*
X49517619Y-2400571D02*
X49517619Y-1733904D01*
X49517619Y-1733904D02*
X49612857Y-1352952D01*
X49612857Y-1352952D02*
X49803333Y-1162476D01*
X49803333Y-1162476D02*
X49993809Y-1067238D01*
X51708095Y-1067238D02*
X51708095Y-2686285D01*
X51708095Y-2686285D02*
X51803333Y-2876761D01*
X51803333Y-2876761D02*
X51898571Y-2972000D01*
X51898571Y-2972000D02*
X52089047Y-3067238D01*
X52089047Y-3067238D02*
X52470000Y-3067238D01*
X52470000Y-3067238D02*
X52660476Y-2972000D01*
X52660476Y-2972000D02*
X52755714Y-2876761D01*
X52755714Y-2876761D02*
X52850952Y-2686285D01*
X52850952Y-2686285D02*
X52850952Y-1067238D01*
X53517619Y-1067238D02*
X54660476Y-1067238D01*
X54089047Y-3067238D02*
X54089047Y-1067238D01*
X39708094Y59662762D02*
X39041427Y60615143D01*
X38565237Y59662762D02*
X38565237Y61662762D01*
X38565237Y61662762D02*
X39327142Y61662762D01*
X39327142Y61662762D02*
X39517618Y61567524D01*
X39517618Y61567524D02*
X39612856Y61472286D01*
X39612856Y61472286D02*
X39708094Y61281810D01*
X39708094Y61281810D02*
X39708094Y60996096D01*
X39708094Y60996096D02*
X39612856Y60805620D01*
X39612856Y60805620D02*
X39517618Y60710381D01*
X39517618Y60710381D02*
X39327142Y60615143D01*
X39327142Y60615143D02*
X38565237Y60615143D01*
X40946189Y61662762D02*
X41327142Y61662762D01*
X41327142Y61662762D02*
X41517618Y61567524D01*
X41517618Y61567524D02*
X41708094Y61377048D01*
X41708094Y61377048D02*
X41803332Y60996096D01*
X41803332Y60996096D02*
X41803332Y60329429D01*
X41803332Y60329429D02*
X41708094Y59948477D01*
X41708094Y59948477D02*
X41517618Y59758000D01*
X41517618Y59758000D02*
X41327142Y59662762D01*
X41327142Y59662762D02*
X40946189Y59662762D01*
X40946189Y59662762D02*
X40755713Y59758000D01*
X40755713Y59758000D02*
X40565237Y59948477D01*
X40565237Y59948477D02*
X40469999Y60329429D01*
X40469999Y60329429D02*
X40469999Y60996096D01*
X40469999Y60996096D02*
X40565237Y61377048D01*
X40565237Y61377048D02*
X40755713Y61567524D01*
X40755713Y61567524D02*
X40946189Y61662762D01*
X42660475Y61662762D02*
X42660475Y60043715D01*
X42660475Y60043715D02*
X42755713Y59853239D01*
X42755713Y59853239D02*
X42850951Y59758000D01*
X42850951Y59758000D02*
X43041427Y59662762D01*
X43041427Y59662762D02*
X43422380Y59662762D01*
X43422380Y59662762D02*
X43612856Y59758000D01*
X43612856Y59758000D02*
X43708094Y59853239D01*
X43708094Y59853239D02*
X43803332Y60043715D01*
X43803332Y60043715D02*
X43803332Y61662762D01*
X44469999Y61662762D02*
X45612856Y61662762D01*
X45041427Y59662762D02*
X45041427Y61662762D01*
X46279523Y60710381D02*
X46946190Y60710381D01*
X47231904Y59662762D02*
X46279523Y59662762D01*
X46279523Y59662762D02*
X46279523Y61662762D01*
X46279523Y61662762D02*
X47231904Y61662762D01*
X49993809Y61662762D02*
X50374762Y61662762D01*
X50374762Y61662762D02*
X50565238Y61567524D01*
X50565238Y61567524D02*
X50755714Y61377048D01*
X50755714Y61377048D02*
X50850952Y60996096D01*
X50850952Y60996096D02*
X50850952Y60329429D01*
X50850952Y60329429D02*
X50755714Y59948477D01*
X50755714Y59948477D02*
X50565238Y59758000D01*
X50565238Y59758000D02*
X50374762Y59662762D01*
X50374762Y59662762D02*
X49993809Y59662762D01*
X49993809Y59662762D02*
X49803333Y59758000D01*
X49803333Y59758000D02*
X49612857Y59948477D01*
X49612857Y59948477D02*
X49517619Y60329429D01*
X49517619Y60329429D02*
X49517619Y60996096D01*
X49517619Y60996096D02*
X49612857Y61377048D01*
X49612857Y61377048D02*
X49803333Y61567524D01*
X49803333Y61567524D02*
X49993809Y61662762D01*
X51708095Y61662762D02*
X51708095Y60043715D01*
X51708095Y60043715D02*
X51803333Y59853239D01*
X51803333Y59853239D02*
X51898571Y59758000D01*
X51898571Y59758000D02*
X52089047Y59662762D01*
X52089047Y59662762D02*
X52470000Y59662762D01*
X52470000Y59662762D02*
X52660476Y59758000D01*
X52660476Y59758000D02*
X52755714Y59853239D01*
X52755714Y59853239D02*
X52850952Y60043715D01*
X52850952Y60043715D02*
X52850952Y61662762D01*
X53517619Y61662762D02*
X54660476Y61662762D01*
X54089047Y59662762D02*
X54089047Y61662762D01*
X39708094Y122392762D02*
X39041427Y123345143D01*
X38565237Y122392762D02*
X38565237Y124392762D01*
X38565237Y124392762D02*
X39327142Y124392762D01*
X39327142Y124392762D02*
X39517618Y124297524D01*
X39517618Y124297524D02*
X39612856Y124202286D01*
X39612856Y124202286D02*
X39708094Y124011810D01*
X39708094Y124011810D02*
X39708094Y123726096D01*
X39708094Y123726096D02*
X39612856Y123535620D01*
X39612856Y123535620D02*
X39517618Y123440381D01*
X39517618Y123440381D02*
X39327142Y123345143D01*
X39327142Y123345143D02*
X38565237Y123345143D01*
X40946189Y124392762D02*
X41327142Y124392762D01*
X41327142Y124392762D02*
X41517618Y124297524D01*
X41517618Y124297524D02*
X41708094Y124107048D01*
X41708094Y124107048D02*
X41803332Y123726096D01*
X41803332Y123726096D02*
X41803332Y123059429D01*
X41803332Y123059429D02*
X41708094Y122678477D01*
X41708094Y122678477D02*
X41517618Y122488000D01*
X41517618Y122488000D02*
X41327142Y122392762D01*
X41327142Y122392762D02*
X40946189Y122392762D01*
X40946189Y122392762D02*
X40755713Y122488000D01*
X40755713Y122488000D02*
X40565237Y122678477D01*
X40565237Y122678477D02*
X40469999Y123059429D01*
X40469999Y123059429D02*
X40469999Y123726096D01*
X40469999Y123726096D02*
X40565237Y124107048D01*
X40565237Y124107048D02*
X40755713Y124297524D01*
X40755713Y124297524D02*
X40946189Y124392762D01*
X42660475Y124392762D02*
X42660475Y122773715D01*
X42660475Y122773715D02*
X42755713Y122583239D01*
X42755713Y122583239D02*
X42850951Y122488000D01*
X42850951Y122488000D02*
X43041427Y122392762D01*
X43041427Y122392762D02*
X43422380Y122392762D01*
X43422380Y122392762D02*
X43612856Y122488000D01*
X43612856Y122488000D02*
X43708094Y122583239D01*
X43708094Y122583239D02*
X43803332Y122773715D01*
X43803332Y122773715D02*
X43803332Y124392762D01*
X44469999Y124392762D02*
X45612856Y124392762D01*
X45041427Y122392762D02*
X45041427Y124392762D01*
X46279523Y123440381D02*
X46946190Y123440381D01*
X47231904Y122392762D02*
X46279523Y122392762D01*
X46279523Y122392762D02*
X46279523Y124392762D01*
X46279523Y124392762D02*
X47231904Y124392762D01*
X49993809Y124392762D02*
X50374762Y124392762D01*
X50374762Y124392762D02*
X50565238Y124297524D01*
X50565238Y124297524D02*
X50755714Y124107048D01*
X50755714Y124107048D02*
X50850952Y123726096D01*
X50850952Y123726096D02*
X50850952Y123059429D01*
X50850952Y123059429D02*
X50755714Y122678477D01*
X50755714Y122678477D02*
X50565238Y122488000D01*
X50565238Y122488000D02*
X50374762Y122392762D01*
X50374762Y122392762D02*
X49993809Y122392762D01*
X49993809Y122392762D02*
X49803333Y122488000D01*
X49803333Y122488000D02*
X49612857Y122678477D01*
X49612857Y122678477D02*
X49517619Y123059429D01*
X49517619Y123059429D02*
X49517619Y123726096D01*
X49517619Y123726096D02*
X49612857Y124107048D01*
X49612857Y124107048D02*
X49803333Y124297524D01*
X49803333Y124297524D02*
X49993809Y124392762D01*
X51708095Y124392762D02*
X51708095Y122773715D01*
X51708095Y122773715D02*
X51803333Y122583239D01*
X51803333Y122583239D02*
X51898571Y122488000D01*
X51898571Y122488000D02*
X52089047Y122392762D01*
X52089047Y122392762D02*
X52470000Y122392762D01*
X52470000Y122392762D02*
X52660476Y122488000D01*
X52660476Y122488000D02*
X52755714Y122583239D01*
X52755714Y122583239D02*
X52850952Y122773715D01*
X52850952Y122773715D02*
X52850952Y124392762D01*
X53517619Y124392762D02*
X54660476Y124392762D01*
X54089047Y122392762D02*
X54089047Y124392762D01*
X39708094Y185122761D02*
X39041427Y186075142D01*
X38565237Y185122761D02*
X38565237Y187122761D01*
X38565237Y187122761D02*
X39327142Y187122761D01*
X39327142Y187122761D02*
X39517618Y187027523D01*
X39517618Y187027523D02*
X39612856Y186932285D01*
X39612856Y186932285D02*
X39708094Y186741809D01*
X39708094Y186741809D02*
X39708094Y186456095D01*
X39708094Y186456095D02*
X39612856Y186265619D01*
X39612856Y186265619D02*
X39517618Y186170380D01*
X39517618Y186170380D02*
X39327142Y186075142D01*
X39327142Y186075142D02*
X38565237Y186075142D01*
X40946189Y187122761D02*
X41327142Y187122761D01*
X41327142Y187122761D02*
X41517618Y187027523D01*
X41517618Y187027523D02*
X41708094Y186837047D01*
X41708094Y186837047D02*
X41803332Y186456095D01*
X41803332Y186456095D02*
X41803332Y185789428D01*
X41803332Y185789428D02*
X41708094Y185408476D01*
X41708094Y185408476D02*
X41517618Y185218000D01*
X41517618Y185218000D02*
X41327142Y185122761D01*
X41327142Y185122761D02*
X40946189Y185122761D01*
X40946189Y185122761D02*
X40755713Y185218000D01*
X40755713Y185218000D02*
X40565237Y185408476D01*
X40565237Y185408476D02*
X40469999Y185789428D01*
X40469999Y185789428D02*
X40469999Y186456095D01*
X40469999Y186456095D02*
X40565237Y186837047D01*
X40565237Y186837047D02*
X40755713Y187027523D01*
X40755713Y187027523D02*
X40946189Y187122761D01*
X42660475Y187122761D02*
X42660475Y185503714D01*
X42660475Y185503714D02*
X42755713Y185313238D01*
X42755713Y185313238D02*
X42850951Y185218000D01*
X42850951Y185218000D02*
X43041427Y185122761D01*
X43041427Y185122761D02*
X43422380Y185122761D01*
X43422380Y185122761D02*
X43612856Y185218000D01*
X43612856Y185218000D02*
X43708094Y185313238D01*
X43708094Y185313238D02*
X43803332Y185503714D01*
X43803332Y185503714D02*
X43803332Y187122761D01*
X44469999Y187122761D02*
X45612856Y187122761D01*
X45041427Y185122761D02*
X45041427Y187122761D01*
X46279523Y186170380D02*
X46946190Y186170380D01*
X47231904Y185122761D02*
X46279523Y185122761D01*
X46279523Y185122761D02*
X46279523Y187122761D01*
X46279523Y187122761D02*
X47231904Y187122761D01*
X49993809Y187122761D02*
X50374762Y187122761D01*
X50374762Y187122761D02*
X50565238Y187027523D01*
X50565238Y187027523D02*
X50755714Y186837047D01*
X50755714Y186837047D02*
X50850952Y186456095D01*
X50850952Y186456095D02*
X50850952Y185789428D01*
X50850952Y185789428D02*
X50755714Y185408476D01*
X50755714Y185408476D02*
X50565238Y185218000D01*
X50565238Y185218000D02*
X50374762Y185122761D01*
X50374762Y185122761D02*
X49993809Y185122761D01*
X49993809Y185122761D02*
X49803333Y185218000D01*
X49803333Y185218000D02*
X49612857Y185408476D01*
X49612857Y185408476D02*
X49517619Y185789428D01*
X49517619Y185789428D02*
X49517619Y186456095D01*
X49517619Y186456095D02*
X49612857Y186837047D01*
X49612857Y186837047D02*
X49803333Y187027523D01*
X49803333Y187027523D02*
X49993809Y187122761D01*
X51708095Y187122761D02*
X51708095Y185503714D01*
X51708095Y185503714D02*
X51803333Y185313238D01*
X51803333Y185313238D02*
X51898571Y185218000D01*
X51898571Y185218000D02*
X52089047Y185122761D01*
X52089047Y185122761D02*
X52470000Y185122761D01*
X52470000Y185122761D02*
X52660476Y185218000D01*
X52660476Y185218000D02*
X52755714Y185313238D01*
X52755714Y185313238D02*
X52850952Y185503714D01*
X52850952Y185503714D02*
X52850952Y187122761D01*
X53517619Y187122761D02*
X54660476Y187122761D01*
X54089047Y185122761D02*
X54089047Y187122761D01*
X92102238Y197144949D02*
X94102238Y197811615D01*
X94102238Y197811615D02*
X92102238Y198478282D01*
X93340333Y199144949D02*
X93340333Y200668759D01*
X94007000Y201525901D02*
X94102238Y201811615D01*
X94102238Y201811615D02*
X94102238Y202287806D01*
X94102238Y202287806D02*
X94007000Y202478282D01*
X94007000Y202478282D02*
X93911761Y202573520D01*
X93911761Y202573520D02*
X93721285Y202668758D01*
X93721285Y202668758D02*
X93530809Y202668758D01*
X93530809Y202668758D02*
X93340333Y202573520D01*
X93340333Y202573520D02*
X93245095Y202478282D01*
X93245095Y202478282D02*
X93149857Y202287806D01*
X93149857Y202287806D02*
X93054619Y201906853D01*
X93054619Y201906853D02*
X92959380Y201716377D01*
X92959380Y201716377D02*
X92864142Y201621139D01*
X92864142Y201621139D02*
X92673666Y201525901D01*
X92673666Y201525901D02*
X92483190Y201525901D01*
X92483190Y201525901D02*
X92292714Y201621139D01*
X92292714Y201621139D02*
X92197476Y201716377D01*
X92197476Y201716377D02*
X92102238Y201906853D01*
X92102238Y201906853D02*
X92102238Y202383044D01*
X92102238Y202383044D02*
X92197476Y202668758D01*
X93911761Y204668758D02*
X94007000Y204573520D01*
X94007000Y204573520D02*
X94102238Y204287806D01*
X94102238Y204287806D02*
X94102238Y204097330D01*
X94102238Y204097330D02*
X94007000Y203811615D01*
X94007000Y203811615D02*
X93816523Y203621139D01*
X93816523Y203621139D02*
X93626047Y203525901D01*
X93626047Y203525901D02*
X93245095Y203430663D01*
X93245095Y203430663D02*
X92959380Y203430663D01*
X92959380Y203430663D02*
X92578428Y203525901D01*
X92578428Y203525901D02*
X92387952Y203621139D01*
X92387952Y203621139D02*
X92197476Y203811615D01*
X92197476Y203811615D02*
X92102238Y204097330D01*
X92102238Y204097330D02*
X92102238Y204287806D01*
X92102238Y204287806D02*
X92197476Y204573520D01*
X92197476Y204573520D02*
X92292714Y204668758D01*
X92102238Y205906853D02*
X92102238Y206287806D01*
X92102238Y206287806D02*
X92197476Y206478282D01*
X92197476Y206478282D02*
X92387952Y206668758D01*
X92387952Y206668758D02*
X92768904Y206763996D01*
X92768904Y206763996D02*
X93435571Y206763996D01*
X93435571Y206763996D02*
X93816523Y206668758D01*
X93816523Y206668758D02*
X94007000Y206478282D01*
X94007000Y206478282D02*
X94102238Y206287806D01*
X94102238Y206287806D02*
X94102238Y205906853D01*
X94102238Y205906853D02*
X94007000Y205716377D01*
X94007000Y205716377D02*
X93816523Y205525901D01*
X93816523Y205525901D02*
X93435571Y205430663D01*
X93435571Y205430663D02*
X92768904Y205430663D01*
X92768904Y205430663D02*
X92387952Y205525901D01*
X92387952Y205525901D02*
X92197476Y205716377D01*
X92197476Y205716377D02*
X92102238Y205906853D01*
X94102238Y208763996D02*
X93149857Y208097329D01*
X94102238Y207621139D02*
X92102238Y207621139D01*
X92102238Y207621139D02*
X92102238Y208383044D01*
X92102238Y208383044D02*
X92197476Y208573520D01*
X92197476Y208573520D02*
X92292714Y208668758D01*
X92292714Y208668758D02*
X92483190Y208763996D01*
X92483190Y208763996D02*
X92768904Y208763996D01*
X92768904Y208763996D02*
X92959380Y208668758D01*
X92959380Y208668758D02*
X93054619Y208573520D01*
X93054619Y208573520D02*
X93149857Y208383044D01*
X93149857Y208383044D02*
X93149857Y207621139D01*
X93054619Y209621139D02*
X93054619Y210287806D01*
X94102238Y210573520D02*
X94102238Y209621139D01*
X94102238Y209621139D02*
X92102238Y209621139D01*
X92102238Y209621139D02*
X92102238Y210573520D01*
D12*
X93190000Y194790000D02*
X93190000Y-10910000D01*
D11*
X68742238Y197144949D02*
X70742238Y197811615D01*
X70742238Y197811615D02*
X68742238Y198478282D01*
X69980333Y199144949D02*
X69980333Y200668759D01*
X70647000Y201525901D02*
X70742238Y201811615D01*
X70742238Y201811615D02*
X70742238Y202287806D01*
X70742238Y202287806D02*
X70647000Y202478282D01*
X70647000Y202478282D02*
X70551761Y202573520D01*
X70551761Y202573520D02*
X70361285Y202668758D01*
X70361285Y202668758D02*
X70170809Y202668758D01*
X70170809Y202668758D02*
X69980333Y202573520D01*
X69980333Y202573520D02*
X69885095Y202478282D01*
X69885095Y202478282D02*
X69789857Y202287806D01*
X69789857Y202287806D02*
X69694619Y201906853D01*
X69694619Y201906853D02*
X69599380Y201716377D01*
X69599380Y201716377D02*
X69504142Y201621139D01*
X69504142Y201621139D02*
X69313666Y201525901D01*
X69313666Y201525901D02*
X69123190Y201525901D01*
X69123190Y201525901D02*
X68932714Y201621139D01*
X68932714Y201621139D02*
X68837476Y201716377D01*
X68837476Y201716377D02*
X68742238Y201906853D01*
X68742238Y201906853D02*
X68742238Y202383044D01*
X68742238Y202383044D02*
X68837476Y202668758D01*
X70551761Y204668758D02*
X70647000Y204573520D01*
X70647000Y204573520D02*
X70742238Y204287806D01*
X70742238Y204287806D02*
X70742238Y204097330D01*
X70742238Y204097330D02*
X70647000Y203811615D01*
X70647000Y203811615D02*
X70456523Y203621139D01*
X70456523Y203621139D02*
X70266047Y203525901D01*
X70266047Y203525901D02*
X69885095Y203430663D01*
X69885095Y203430663D02*
X69599380Y203430663D01*
X69599380Y203430663D02*
X69218428Y203525901D01*
X69218428Y203525901D02*
X69027952Y203621139D01*
X69027952Y203621139D02*
X68837476Y203811615D01*
X68837476Y203811615D02*
X68742238Y204097330D01*
X68742238Y204097330D02*
X68742238Y204287806D01*
X68742238Y204287806D02*
X68837476Y204573520D01*
X68837476Y204573520D02*
X68932714Y204668758D01*
X68742238Y205906853D02*
X68742238Y206287806D01*
X68742238Y206287806D02*
X68837476Y206478282D01*
X68837476Y206478282D02*
X69027952Y206668758D01*
X69027952Y206668758D02*
X69408904Y206763996D01*
X69408904Y206763996D02*
X70075571Y206763996D01*
X70075571Y206763996D02*
X70456523Y206668758D01*
X70456523Y206668758D02*
X70647000Y206478282D01*
X70647000Y206478282D02*
X70742238Y206287806D01*
X70742238Y206287806D02*
X70742238Y205906853D01*
X70742238Y205906853D02*
X70647000Y205716377D01*
X70647000Y205716377D02*
X70456523Y205525901D01*
X70456523Y205525901D02*
X70075571Y205430663D01*
X70075571Y205430663D02*
X69408904Y205430663D01*
X69408904Y205430663D02*
X69027952Y205525901D01*
X69027952Y205525901D02*
X68837476Y205716377D01*
X68837476Y205716377D02*
X68742238Y205906853D01*
X70742238Y208763996D02*
X69789857Y208097329D01*
X70742238Y207621139D02*
X68742238Y207621139D01*
X68742238Y207621139D02*
X68742238Y208383044D01*
X68742238Y208383044D02*
X68837476Y208573520D01*
X68837476Y208573520D02*
X68932714Y208668758D01*
X68932714Y208668758D02*
X69123190Y208763996D01*
X69123190Y208763996D02*
X69408904Y208763996D01*
X69408904Y208763996D02*
X69599380Y208668758D01*
X69599380Y208668758D02*
X69694619Y208573520D01*
X69694619Y208573520D02*
X69789857Y208383044D01*
X69789857Y208383044D02*
X69789857Y207621139D01*
X69694619Y209621139D02*
X69694619Y210287806D01*
X70742238Y210573520D02*
X70742238Y209621139D01*
X70742238Y209621139D02*
X68742238Y209621139D01*
X68742238Y209621139D02*
X68742238Y210573520D01*
D12*
X69830000Y194790000D02*
X69830000Y-10910000D01*
D11*
X45382238Y197144949D02*
X47382238Y197811615D01*
X47382238Y197811615D02*
X45382238Y198478282D01*
X46620333Y199144949D02*
X46620333Y200668759D01*
X47287000Y201525901D02*
X47382238Y201811615D01*
X47382238Y201811615D02*
X47382238Y202287806D01*
X47382238Y202287806D02*
X47287000Y202478282D01*
X47287000Y202478282D02*
X47191761Y202573520D01*
X47191761Y202573520D02*
X47001285Y202668758D01*
X47001285Y202668758D02*
X46810809Y202668758D01*
X46810809Y202668758D02*
X46620333Y202573520D01*
X46620333Y202573520D02*
X46525095Y202478282D01*
X46525095Y202478282D02*
X46429857Y202287806D01*
X46429857Y202287806D02*
X46334619Y201906853D01*
X46334619Y201906853D02*
X46239380Y201716377D01*
X46239380Y201716377D02*
X46144142Y201621139D01*
X46144142Y201621139D02*
X45953666Y201525901D01*
X45953666Y201525901D02*
X45763190Y201525901D01*
X45763190Y201525901D02*
X45572714Y201621139D01*
X45572714Y201621139D02*
X45477476Y201716377D01*
X45477476Y201716377D02*
X45382238Y201906853D01*
X45382238Y201906853D02*
X45382238Y202383044D01*
X45382238Y202383044D02*
X45477476Y202668758D01*
X47191761Y204668758D02*
X47287000Y204573520D01*
X47287000Y204573520D02*
X47382238Y204287806D01*
X47382238Y204287806D02*
X47382238Y204097330D01*
X47382238Y204097330D02*
X47287000Y203811615D01*
X47287000Y203811615D02*
X47096523Y203621139D01*
X47096523Y203621139D02*
X46906047Y203525901D01*
X46906047Y203525901D02*
X46525095Y203430663D01*
X46525095Y203430663D02*
X46239380Y203430663D01*
X46239380Y203430663D02*
X45858428Y203525901D01*
X45858428Y203525901D02*
X45667952Y203621139D01*
X45667952Y203621139D02*
X45477476Y203811615D01*
X45477476Y203811615D02*
X45382238Y204097330D01*
X45382238Y204097330D02*
X45382238Y204287806D01*
X45382238Y204287806D02*
X45477476Y204573520D01*
X45477476Y204573520D02*
X45572714Y204668758D01*
X45382238Y205906853D02*
X45382238Y206287806D01*
X45382238Y206287806D02*
X45477476Y206478282D01*
X45477476Y206478282D02*
X45667952Y206668758D01*
X45667952Y206668758D02*
X46048904Y206763996D01*
X46048904Y206763996D02*
X46715571Y206763996D01*
X46715571Y206763996D02*
X47096523Y206668758D01*
X47096523Y206668758D02*
X47287000Y206478282D01*
X47287000Y206478282D02*
X47382238Y206287806D01*
X47382238Y206287806D02*
X47382238Y205906853D01*
X47382238Y205906853D02*
X47287000Y205716377D01*
X47287000Y205716377D02*
X47096523Y205525901D01*
X47096523Y205525901D02*
X46715571Y205430663D01*
X46715571Y205430663D02*
X46048904Y205430663D01*
X46048904Y205430663D02*
X45667952Y205525901D01*
X45667952Y205525901D02*
X45477476Y205716377D01*
X45477476Y205716377D02*
X45382238Y205906853D01*
X47382238Y208763996D02*
X46429857Y208097329D01*
X47382238Y207621139D02*
X45382238Y207621139D01*
X45382238Y207621139D02*
X45382238Y208383044D01*
X45382238Y208383044D02*
X45477476Y208573520D01*
X45477476Y208573520D02*
X45572714Y208668758D01*
X45572714Y208668758D02*
X45763190Y208763996D01*
X45763190Y208763996D02*
X46048904Y208763996D01*
X46048904Y208763996D02*
X46239380Y208668758D01*
X46239380Y208668758D02*
X46334619Y208573520D01*
X46334619Y208573520D02*
X46429857Y208383044D01*
X46429857Y208383044D02*
X46429857Y207621139D01*
X46334619Y209621139D02*
X46334619Y210287806D01*
X47382238Y210573520D02*
X47382238Y209621139D01*
X47382238Y209621139D02*
X45382238Y209621139D01*
X45382238Y209621139D02*
X45382238Y210573520D01*
D12*
X46470000Y194790000D02*
X46470000Y-10910000D01*
D11*
X22022238Y197144949D02*
X24022238Y197811615D01*
X24022238Y197811615D02*
X22022238Y198478282D01*
X23260333Y199144949D02*
X23260333Y200668759D01*
X23927000Y201525901D02*
X24022238Y201811615D01*
X24022238Y201811615D02*
X24022238Y202287806D01*
X24022238Y202287806D02*
X23927000Y202478282D01*
X23927000Y202478282D02*
X23831761Y202573520D01*
X23831761Y202573520D02*
X23641285Y202668758D01*
X23641285Y202668758D02*
X23450809Y202668758D01*
X23450809Y202668758D02*
X23260333Y202573520D01*
X23260333Y202573520D02*
X23165095Y202478282D01*
X23165095Y202478282D02*
X23069857Y202287806D01*
X23069857Y202287806D02*
X22974619Y201906853D01*
X22974619Y201906853D02*
X22879380Y201716377D01*
X22879380Y201716377D02*
X22784142Y201621139D01*
X22784142Y201621139D02*
X22593666Y201525901D01*
X22593666Y201525901D02*
X22403190Y201525901D01*
X22403190Y201525901D02*
X22212714Y201621139D01*
X22212714Y201621139D02*
X22117476Y201716377D01*
X22117476Y201716377D02*
X22022238Y201906853D01*
X22022238Y201906853D02*
X22022238Y202383044D01*
X22022238Y202383044D02*
X22117476Y202668758D01*
X23831761Y204668758D02*
X23927000Y204573520D01*
X23927000Y204573520D02*
X24022238Y204287806D01*
X24022238Y204287806D02*
X24022238Y204097330D01*
X24022238Y204097330D02*
X23927000Y203811615D01*
X23927000Y203811615D02*
X23736523Y203621139D01*
X23736523Y203621139D02*
X23546047Y203525901D01*
X23546047Y203525901D02*
X23165095Y203430663D01*
X23165095Y203430663D02*
X22879380Y203430663D01*
X22879380Y203430663D02*
X22498428Y203525901D01*
X22498428Y203525901D02*
X22307952Y203621139D01*
X22307952Y203621139D02*
X22117476Y203811615D01*
X22117476Y203811615D02*
X22022238Y204097330D01*
X22022238Y204097330D02*
X22022238Y204287806D01*
X22022238Y204287806D02*
X22117476Y204573520D01*
X22117476Y204573520D02*
X22212714Y204668758D01*
X22022238Y205906853D02*
X22022238Y206287806D01*
X22022238Y206287806D02*
X22117476Y206478282D01*
X22117476Y206478282D02*
X22307952Y206668758D01*
X22307952Y206668758D02*
X22688904Y206763996D01*
X22688904Y206763996D02*
X23355571Y206763996D01*
X23355571Y206763996D02*
X23736523Y206668758D01*
X23736523Y206668758D02*
X23927000Y206478282D01*
X23927000Y206478282D02*
X24022238Y206287806D01*
X24022238Y206287806D02*
X24022238Y205906853D01*
X24022238Y205906853D02*
X23927000Y205716377D01*
X23927000Y205716377D02*
X23736523Y205525901D01*
X23736523Y205525901D02*
X23355571Y205430663D01*
X23355571Y205430663D02*
X22688904Y205430663D01*
X22688904Y205430663D02*
X22307952Y205525901D01*
X22307952Y205525901D02*
X22117476Y205716377D01*
X22117476Y205716377D02*
X22022238Y205906853D01*
X24022238Y208763996D02*
X23069857Y208097329D01*
X24022238Y207621139D02*
X22022238Y207621139D01*
X22022238Y207621139D02*
X22022238Y208383044D01*
X22022238Y208383044D02*
X22117476Y208573520D01*
X22117476Y208573520D02*
X22212714Y208668758D01*
X22212714Y208668758D02*
X22403190Y208763996D01*
X22403190Y208763996D02*
X22688904Y208763996D01*
X22688904Y208763996D02*
X22879380Y208668758D01*
X22879380Y208668758D02*
X22974619Y208573520D01*
X22974619Y208573520D02*
X23069857Y208383044D01*
X23069857Y208383044D02*
X23069857Y207621139D01*
X22974619Y209621139D02*
X22974619Y210287806D01*
X24022238Y210573520D02*
X24022238Y209621139D01*
X24022238Y209621139D02*
X22022238Y209621139D01*
X22022238Y209621139D02*
X22022238Y210573520D01*
D12*
X23110000Y194790000D02*
X23110000Y-10910000D01*
D11*
X-1337762Y197144949D02*
X662238Y197811615D01*
X662238Y197811615D02*
X-1337762Y198478282D01*
X-99667Y199144949D02*
X-99667Y200668759D01*
X567000Y201525901D02*
X662238Y201811615D01*
X662238Y201811615D02*
X662238Y202287806D01*
X662238Y202287806D02*
X567000Y202478282D01*
X567000Y202478282D02*
X471761Y202573520D01*
X471761Y202573520D02*
X281285Y202668758D01*
X281285Y202668758D02*
X90809Y202668758D01*
X90809Y202668758D02*
X-99667Y202573520D01*
X-99667Y202573520D02*
X-194905Y202478282D01*
X-194905Y202478282D02*
X-290143Y202287806D01*
X-290143Y202287806D02*
X-385381Y201906853D01*
X-385381Y201906853D02*
X-480620Y201716377D01*
X-480620Y201716377D02*
X-575858Y201621139D01*
X-575858Y201621139D02*
X-766334Y201525901D01*
X-766334Y201525901D02*
X-956810Y201525901D01*
X-956810Y201525901D02*
X-1147286Y201621139D01*
X-1147286Y201621139D02*
X-1242524Y201716377D01*
X-1242524Y201716377D02*
X-1337762Y201906853D01*
X-1337762Y201906853D02*
X-1337762Y202383044D01*
X-1337762Y202383044D02*
X-1242524Y202668758D01*
X471761Y204668758D02*
X567000Y204573520D01*
X567000Y204573520D02*
X662238Y204287806D01*
X662238Y204287806D02*
X662238Y204097330D01*
X662238Y204097330D02*
X567000Y203811615D01*
X567000Y203811615D02*
X376523Y203621139D01*
X376523Y203621139D02*
X186047Y203525901D01*
X186047Y203525901D02*
X-194905Y203430663D01*
X-194905Y203430663D02*
X-480620Y203430663D01*
X-480620Y203430663D02*
X-861572Y203525901D01*
X-861572Y203525901D02*
X-1052048Y203621139D01*
X-1052048Y203621139D02*
X-1242524Y203811615D01*
X-1242524Y203811615D02*
X-1337762Y204097330D01*
X-1337762Y204097330D02*
X-1337762Y204287806D01*
X-1337762Y204287806D02*
X-1242524Y204573520D01*
X-1242524Y204573520D02*
X-1147286Y204668758D01*
X-1337762Y205906853D02*
X-1337762Y206287806D01*
X-1337762Y206287806D02*
X-1242524Y206478282D01*
X-1242524Y206478282D02*
X-1052048Y206668758D01*
X-1052048Y206668758D02*
X-671096Y206763996D01*
X-671096Y206763996D02*
X-4429Y206763996D01*
X-4429Y206763996D02*
X376523Y206668758D01*
X376523Y206668758D02*
X567000Y206478282D01*
X567000Y206478282D02*
X662238Y206287806D01*
X662238Y206287806D02*
X662238Y205906853D01*
X662238Y205906853D02*
X567000Y205716377D01*
X567000Y205716377D02*
X376523Y205525901D01*
X376523Y205525901D02*
X-4429Y205430663D01*
X-4429Y205430663D02*
X-671096Y205430663D01*
X-671096Y205430663D02*
X-1052048Y205525901D01*
X-1052048Y205525901D02*
X-1242524Y205716377D01*
X-1242524Y205716377D02*
X-1337762Y205906853D01*
X662238Y208763996D02*
X-290143Y208097329D01*
X662238Y207621139D02*
X-1337762Y207621139D01*
X-1337762Y207621139D02*
X-1337762Y208383044D01*
X-1337762Y208383044D02*
X-1242524Y208573520D01*
X-1242524Y208573520D02*
X-1147286Y208668758D01*
X-1147286Y208668758D02*
X-956810Y208763996D01*
X-956810Y208763996D02*
X-671096Y208763996D01*
X-671096Y208763996D02*
X-480620Y208668758D01*
X-480620Y208668758D02*
X-385381Y208573520D01*
X-385381Y208573520D02*
X-290143Y208383044D01*
X-290143Y208383044D02*
X-290143Y207621139D01*
X-385381Y209621139D02*
X-385381Y210287806D01*
X662238Y210573520D02*
X662238Y209621139D01*
X662238Y209621139D02*
X-1337762Y209621139D01*
X-1337762Y209621139D02*
X-1337762Y210573520D01*
D12*
X-250000Y194790000D02*
X-250000Y-10910000D01*
M02*
