M48
; DRILL file {KiCad 7.0.10} date Tue Jan 23 14:15:22 2024
; FORMAT={-:-/ absolute / metric / decimal}
; #@! TF.CreationDate,2024-01-23T14:15:22-07:00
; #@! TF.GenerationSoftware,Kicad,Pcbnew,7.0.10
; #@! TF.FileFunction,MixedPlating,1,4
FMAT,2
METRIC
; #@! TA.AperFunction,Plated,PTH,ViaDrill
T1C0.300
; #@! TA.AperFunction,Plated,PTH,ViaDrill
T2C0.305
; #@! TA.AperFunction,Plated,PTH,ComponentDrill
T3C0.600
; #@! TA.AperFunction,Plated,PTH,ComponentDrill
T4C1.016
; #@! TA.AperFunction,NonPlated,NPTH,ComponentDrill
T5C0.650
; #@! TA.AperFunction,NonPlated,NPTH,ComponentDrill
T6C3.302
%
G90
G05
T1
X0.635Y179.435
X0.635Y116.705
X0.635Y53.975
X2.032Y142.732
X2.032Y80.002
X2.032Y17.272
X2.794Y138.922
X2.794Y76.192
X2.794Y13.462
X3.175Y175.625
X3.175Y112.895
X3.175Y50.165
X3.556Y163.814
X3.556Y101.084
X3.556Y38.354
X3.81Y134.509
X3.81Y71.779
X3.81Y9.049
X4.064Y163.052
X4.064Y100.322
X4.064Y37.592
X4.318Y138.16
X4.318Y75.43
X4.318Y12.7
X4.445Y149.377
X4.445Y86.647
X4.445Y23.917
X4.763Y145.939
X4.763Y83.209
X4.763Y20.479
X5.08Y140.7
X5.08Y137.398
X5.08Y77.97
X5.08Y74.668
X5.08Y15.24
X5.08Y11.938
X5.333Y166.894
X5.333Y104.164
X5.333Y41.434
X5.514Y173.678
X5.514Y110.948
X5.514Y48.218
X5.588Y177.022
X5.588Y114.292
X5.588Y51.562
X5.702Y132.509
X5.702Y69.779
X5.702Y7.049
X5.842Y176.006
X5.842Y151.177
X5.842Y131.81
X5.842Y113.276
X5.842Y88.447
X5.842Y69.08
X5.842Y50.546
X5.842Y25.717
X5.842Y6.35
X5.874Y167.688
X5.874Y104.957
X5.874Y42.227
X5.942Y156.702
X5.942Y93.972
X5.942Y31.242
X6.35Y162.925
X6.35Y100.195
X6.35Y37.465
X6.407Y166.894
X6.407Y104.164
X6.407Y41.434
X6.667Y154.352
X6.667Y145.939
X6.667Y136.89
X6.667Y133.08
X6.667Y91.623
X6.667Y83.209
X6.667Y74.16
X6.667Y70.35
X6.667Y28.892
X6.667Y20.479
X6.667Y11.43
X6.667Y7.62
X6.985Y149.272
X6.985Y86.542
X6.985Y23.812
X7.112Y177.022
X7.112Y114.292
X7.112Y51.562
X7.366Y141.97
X7.366Y79.24
X7.366Y16.51
X7.874Y129.651
X7.874Y66.921
X7.874Y4.191
X7.938Y155.94
X7.938Y93.21
X7.938Y30.48
X8.128Y152.892
X8.128Y136.642
X8.128Y90.162
X8.128Y73.912
X8.128Y27.432
X8.128Y11.182
X8.255Y165.465
X8.255Y148.32
X8.255Y102.735
X8.255Y85.59
X8.255Y40.005
X8.255Y22.86
X8.382Y172.704
X8.382Y171.18
X8.382Y169.402
X8.382Y109.974
X8.382Y108.45
X8.382Y106.672
X8.382Y47.244
X8.382Y45.72
X8.382Y43.942
X8.572Y145.939
X8.572Y83.209
X8.572Y20.479
X8.636Y177.022
X8.636Y114.292
X8.636Y51.562
X9.049Y174.514
X9.049Y158.797
X9.049Y154.829
X9.049Y111.784
X9.049Y96.067
X9.049Y92.099
X9.049Y49.054
X9.049Y33.337
X9.049Y29.369
X9.272Y140.574
X9.272Y134.858
X9.272Y77.844
X9.272Y72.128
X9.272Y15.114
X9.272Y9.398
X9.398Y129.778
X9.398Y67.048
X9.398Y4.318
X9.906Y168.386
X9.906Y105.656
X9.906Y42.926
X9.907Y139.43
X9.907Y136.89
X9.907Y76.7
X9.907Y74.16
X9.907Y13.97
X9.907Y11.43
X10.16Y177.022
X10.16Y174.228
X10.16Y165.782
X10.16Y114.292
X10.16Y111.498
X10.16Y103.052
X10.16Y51.562
X10.16Y48.768
X10.16Y40.322
X10.414Y146.034
X10.414Y83.304
X10.414Y20.574
X10.795Y143.24
X10.795Y80.51
X10.795Y17.78
X11.165Y137.968
X11.165Y75.238
X11.165Y12.508
X11.43Y177.022
X11.43Y174.228
X11.43Y168.386
X11.43Y158.988
X11.43Y114.292
X11.43Y111.498
X11.43Y105.656
X11.43Y96.258
X11.43Y51.562
X11.43Y48.768
X11.43Y42.926
X11.43Y33.528
X12.065Y153.146
X12.065Y147.685
X12.065Y90.416
X12.065Y84.955
X12.065Y27.686
X12.065Y22.225
X12.086Y151.226
X12.086Y88.496
X12.086Y25.766
X12.09Y142.605
X12.09Y79.875
X12.09Y17.145
X12.445Y136.98
X12.445Y74.25
X12.445Y11.52
X12.7Y177.022
X12.7Y134.35
X12.7Y114.292
X12.7Y71.62
X12.7Y51.562
X12.7Y8.89
X12.954Y174.228
X12.954Y168.386
X12.954Y111.498
X12.954Y105.656
X12.954Y48.768
X12.954Y42.926
X13.462Y129.778
X13.462Y67.048
X13.462Y4.318
X13.55Y165.408
X13.55Y102.678
X13.55Y39.948
X13.716Y142.224
X13.716Y79.494
X13.716Y16.764
X13.97Y177.022
X13.97Y166.417
X13.97Y114.292
X13.97Y103.688
X13.97Y51.562
X13.97Y40.957
X14.224Y154.987
X14.224Y92.257
X14.224Y29.527
X14.287Y145.939
X14.287Y83.209
X14.287Y20.479
X14.478Y172.958
X14.478Y171.18
X14.478Y169.91
X14.478Y142.224
X14.478Y110.228
X14.478Y108.45
X14.478Y107.18
X14.478Y79.494
X14.478Y47.498
X14.478Y45.72
X14.478Y44.45
X14.478Y16.764
X14.732Y165.465
X14.732Y102.735
X14.732Y40.005
X14.922Y148.002
X14.922Y85.272
X14.922Y22.543
X14.986Y129.651
X14.986Y66.921
X14.986Y4.191
X15.03Y167.624
X15.03Y104.894
X15.03Y42.164
X15.24Y177.022
X15.24Y114.292
X15.24Y51.562
X15.316Y156.748
X15.316Y94.018
X15.316Y31.288
X15.443Y168.285
X15.443Y105.555
X15.443Y42.825
X15.494Y165.338
X15.494Y102.608
X15.494Y39.878
X16.002Y166.354
X16.002Y103.624
X16.002Y40.894
X16.151Y168.999
X16.151Y106.269
X16.151Y43.539
X16.192Y176.26
X16.192Y146.097
X16.192Y113.53
X16.192Y83.367
X16.192Y50.8
X16.192Y20.637
X16.256Y165.084
X16.256Y137.906
X16.256Y102.354
X16.256Y75.176
X16.256Y39.624
X16.256Y12.446
X16.383Y151.368
X16.383Y88.638
X16.383Y25.908
X16.51Y171.231
X16.51Y149.59
X16.51Y108.501
X16.51Y86.86
X16.51Y45.771
X16.51Y24.13
X16.597Y132.445
X16.597Y69.715
X16.597Y6.985
X16.637Y147.558
X16.637Y84.828
X16.637Y22.098
X16.764Y166.557
X16.764Y103.827
X16.764Y41.097
X16.828Y177.213
X16.828Y114.483
X16.828Y51.752
X17.018Y165.846
X17.018Y165.084
X17.018Y152.892
X17.018Y103.116
X17.018Y102.354
X17.018Y90.162
X17.018Y40.386
X17.018Y39.624
X17.018Y27.432
X17.113Y133.001
X17.113Y70.271
X17.113Y7.541
X17.145Y171.974
X17.145Y109.244
X17.145Y46.514
X17.272Y176.006
X17.272Y113.276
X17.272Y50.546
X18.034Y132.064
X18.034Y69.334
X18.034Y6.604
X18.441Y152.606
X18.441Y89.876
X18.441Y27.146
X18.476Y162.799
X18.476Y100.069
X18.476Y37.339
X18.542Y138.668
X18.542Y75.938
X18.542Y13.208
X18.884Y158.988
X18.884Y96.258
X18.884Y33.528
X19.05Y150.86
X19.05Y144.827
X19.05Y142.764
X19.05Y137.906
X19.05Y88.13
X19.05Y82.097
X19.05Y80.034
X19.05Y75.176
X19.05Y25.4
X19.05Y19.367
X19.05Y17.304
X19.05Y12.446
X19.304Y133.334
X19.304Y70.604
X19.304Y7.874
X19.558Y164.322
X19.558Y101.592
X19.558Y38.862
X19.685Y183.245
X19.685Y120.515
X19.685Y57.785
X19.812Y178.8
X19.812Y173.72
X19.812Y171.18
X19.812Y116.07
X19.812Y110.99
X19.812Y108.45
X19.812Y53.34
X19.812Y48.26
X19.812Y45.72
X20.32Y136.89
X20.32Y74.16
X20.32Y11.43
X21.505Y180.07
X21.505Y117.34
X21.505Y54.61
X21.59Y133.588
X21.59Y70.858
X21.59Y8.128
X23.995Y179.435
X23.995Y116.705
X23.995Y53.975
X25.392Y142.732
X25.392Y80.002
X25.392Y17.272
X26.154Y138.922
X26.154Y76.192
X26.154Y13.462
X26.535Y175.625
X26.535Y112.895
X26.535Y50.165
X26.916Y163.814
X26.916Y101.084
X26.916Y38.354
X27.17Y134.509
X27.17Y71.779
X27.17Y9.049
X27.424Y163.052
X27.424Y100.322
X27.424Y37.592
X27.678Y138.16
X27.678Y75.43
X27.678Y12.7
X27.805Y149.377
X27.805Y86.647
X27.805Y23.917
X28.122Y145.939
X28.122Y83.209
X28.122Y20.479
X28.44Y140.7
X28.44Y137.398
X28.44Y77.97
X28.44Y74.668
X28.44Y15.24
X28.44Y11.938
X28.693Y166.894
X28.693Y104.164
X28.693Y41.434
X28.874Y173.678
X28.874Y110.948
X28.874Y48.218
X28.948Y177.022
X28.948Y114.292
X28.948Y51.562
X29.062Y132.509
X29.062Y69.779
X29.062Y7.049
X29.202Y176.006
X29.202Y151.177
X29.202Y131.81
X29.202Y113.276
X29.202Y88.447
X29.202Y69.08
X29.202Y50.546
X29.202Y25.717
X29.202Y6.35
X29.234Y167.688
X29.234Y104.957
X29.234Y42.227
X29.302Y156.702
X29.302Y93.972
X29.302Y31.242
X29.71Y162.925
X29.71Y100.195
X29.71Y37.465
X29.767Y166.894
X29.767Y104.164
X29.767Y41.434
X30.027Y154.352
X30.027Y145.939
X30.027Y136.89
X30.027Y133.08
X30.027Y91.623
X30.027Y83.209
X30.027Y74.16
X30.027Y70.35
X30.027Y28.892
X30.027Y20.479
X30.027Y11.43
X30.027Y7.62
X30.345Y149.272
X30.345Y86.542
X30.345Y23.812
X30.472Y177.022
X30.472Y114.292
X30.472Y51.562
X30.726Y141.97
X30.726Y79.24
X30.726Y16.51
X31.234Y129.651
X31.234Y66.921
X31.234Y4.191
X31.297Y155.94
X31.297Y93.21
X31.297Y30.48
X31.488Y152.892
X31.488Y136.642
X31.488Y90.162
X31.488Y73.912
X31.488Y27.432
X31.488Y11.182
X31.615Y165.465
X31.615Y148.32
X31.615Y102.735
X31.615Y85.59
X31.615Y40.005
X31.615Y22.86
X31.742Y172.704
X31.742Y171.18
X31.742Y169.402
X31.742Y109.974
X31.742Y108.45
X31.742Y106.672
X31.742Y47.244
X31.742Y45.72
X31.742Y43.942
X31.932Y145.939
X31.932Y83.209
X31.932Y20.479
X31.996Y177.022
X31.996Y114.292
X31.996Y51.562
X32.409Y174.514
X32.409Y158.797
X32.409Y154.829
X32.409Y111.784
X32.409Y96.067
X32.409Y92.099
X32.409Y49.054
X32.409Y33.337
X32.409Y29.369
X32.632Y140.574
X32.632Y134.858
X32.632Y77.844
X32.632Y72.128
X32.632Y15.114
X32.632Y9.398
X32.758Y129.778
X32.758Y67.048
X32.758Y4.318
X33.266Y168.386
X33.266Y105.656
X33.266Y42.926
X33.267Y139.43
X33.267Y136.89
X33.267Y76.7
X33.267Y74.16
X33.267Y13.97
X33.267Y11.43
X33.52Y177.022
X33.52Y174.228
X33.52Y165.782
X33.52Y114.292
X33.52Y111.498
X33.52Y103.052
X33.52Y51.562
X33.52Y48.768
X33.52Y40.322
X33.774Y146.034
X33.774Y83.304
X33.774Y20.574
X34.155Y143.24
X34.155Y80.51
X34.155Y17.78
X34.525Y137.968
X34.525Y75.238
X34.525Y12.508
X34.79Y177.022
X34.79Y174.228
X34.79Y168.386
X34.79Y158.988
X34.79Y114.292
X34.79Y111.498
X34.79Y105.656
X34.79Y96.258
X34.79Y51.562
X34.79Y48.768
X34.79Y42.926
X34.79Y33.528
X35.425Y153.146
X35.425Y147.685
X35.425Y90.416
X35.425Y84.955
X35.425Y27.686
X35.425Y22.225
X35.446Y151.226
X35.446Y88.496
X35.446Y25.766
X35.45Y142.605
X35.45Y79.875
X35.45Y17.145
X35.805Y136.98
X35.805Y74.25
X35.805Y11.52
X36.06Y177.022
X36.06Y134.35
X36.06Y114.292
X36.06Y71.62
X36.06Y51.562
X36.06Y8.89
X36.314Y174.228
X36.314Y168.386
X36.314Y111.498
X36.314Y105.656
X36.314Y48.768
X36.314Y42.926
X36.822Y129.778
X36.822Y67.048
X36.822Y4.318
X36.91Y165.408
X36.91Y102.678
X36.91Y39.948
X37.076Y142.224
X37.076Y79.494
X37.076Y16.764
X37.33Y177.022
X37.33Y166.417
X37.33Y114.292
X37.33Y103.688
X37.33Y51.562
X37.33Y40.957
X37.584Y154.987
X37.584Y92.257
X37.584Y29.527
X37.648Y145.939
X37.648Y83.209
X37.648Y20.479
X37.838Y172.958
X37.838Y171.18
X37.838Y169.91
X37.838Y142.224
X37.838Y110.228
X37.838Y108.45
X37.838Y107.18
X37.838Y79.494
X37.838Y47.498
X37.838Y45.72
X37.838Y44.45
X37.838Y16.764
X38.092Y165.465
X38.092Y102.735
X38.092Y40.005
X38.282Y148.002
X38.282Y85.272
X38.282Y22.543
X38.346Y129.651
X38.346Y66.921
X38.346Y4.191
X38.39Y167.624
X38.39Y104.894
X38.39Y42.164
X38.6Y177.022
X38.6Y114.292
X38.6Y51.562
X38.676Y156.748
X38.676Y94.018
X38.676Y31.288
X38.803Y168.285
X38.803Y105.555
X38.803Y42.825
X38.854Y165.338
X38.854Y102.608
X38.854Y39.878
X39.362Y166.354
X39.362Y103.624
X39.362Y40.894
X39.511Y168.999
X39.511Y106.269
X39.511Y43.539
X39.552Y176.26
X39.552Y146.097
X39.552Y113.53
X39.552Y83.367
X39.552Y50.8
X39.552Y20.637
X39.616Y165.084
X39.616Y137.906
X39.616Y102.354
X39.616Y75.176
X39.616Y39.624
X39.616Y12.446
X39.743Y151.368
X39.743Y88.638
X39.743Y25.908
X39.87Y171.231
X39.87Y149.59
X39.87Y108.501
X39.87Y86.86
X39.87Y45.771
X39.87Y24.13
X39.957Y132.445
X39.957Y69.715
X39.957Y6.985
X39.997Y147.558
X39.997Y84.828
X39.997Y22.098
X40.124Y166.557
X40.124Y103.827
X40.124Y41.097
X40.188Y177.213
X40.188Y114.483
X40.188Y51.752
X40.378Y165.846
X40.378Y165.084
X40.378Y152.892
X40.378Y103.116
X40.378Y102.354
X40.378Y90.162
X40.378Y40.386
X40.378Y39.624
X40.378Y27.432
X40.473Y133.001
X40.473Y70.271
X40.473Y7.541
X40.505Y171.974
X40.505Y109.244
X40.505Y46.514
X40.632Y176.006
X40.632Y113.276
X40.632Y50.546
X41.394Y132.064
X41.394Y69.334
X41.394Y6.604
X41.801Y152.606
X41.801Y89.876
X41.801Y27.146
X41.836Y162.799
X41.836Y100.069
X41.836Y37.339
X41.902Y138.668
X41.902Y75.938
X41.902Y13.208
X42.244Y158.988
X42.244Y96.258
X42.244Y33.528
X42.41Y150.86
X42.41Y144.827
X42.41Y142.764
X42.41Y137.906
X42.41Y88.13
X42.41Y82.097
X42.41Y80.034
X42.41Y75.176
X42.41Y25.4
X42.41Y19.367
X42.41Y17.304
X42.41Y12.446
X42.664Y133.334
X42.664Y70.604
X42.664Y7.874
X42.918Y164.322
X42.918Y101.592
X42.918Y38.862
X43.045Y183.245
X43.045Y120.515
X43.045Y57.785
X43.172Y178.8
X43.172Y173.72
X43.172Y171.18
X43.172Y116.07
X43.172Y110.99
X43.172Y108.45
X43.172Y53.34
X43.172Y48.26
X43.172Y45.72
X43.68Y136.89
X43.68Y74.16
X43.68Y11.43
X44.865Y180.07
X44.865Y117.34
X44.865Y54.61
X44.95Y133.588
X44.95Y70.858
X44.95Y8.128
X47.355Y179.435
X47.355Y116.705
X47.355Y53.975
X48.752Y142.732
X48.752Y80.002
X48.752Y17.272
X49.514Y138.922
X49.514Y76.192
X49.514Y13.462
X49.895Y175.625
X49.895Y112.895
X49.895Y50.165
X50.276Y163.814
X50.276Y101.084
X50.276Y38.354
X50.53Y134.509
X50.53Y71.779
X50.53Y9.049
X50.784Y163.052
X50.784Y100.322
X50.784Y37.592
X51.038Y138.16
X51.038Y75.43
X51.038Y12.7
X51.165Y149.377
X51.165Y86.647
X51.165Y23.917
X51.482Y145.939
X51.482Y83.209
X51.482Y20.479
X51.8Y140.7
X51.8Y137.398
X51.8Y77.97
X51.8Y74.668
X51.8Y15.24
X51.8Y11.938
X52.053Y166.894
X52.053Y104.164
X52.053Y41.434
X52.234Y173.678
X52.234Y110.948
X52.234Y48.218
X52.308Y177.022
X52.308Y114.292
X52.308Y51.562
X52.422Y132.509
X52.422Y69.779
X52.422Y7.049
X52.562Y176.006
X52.562Y151.177
X52.562Y131.81
X52.562Y113.276
X52.562Y88.447
X52.562Y69.08
X52.562Y50.546
X52.562Y25.717
X52.562Y6.35
X52.594Y167.688
X52.594Y104.957
X52.594Y42.227
X52.662Y156.702
X52.662Y93.972
X52.662Y31.242
X53.07Y162.925
X53.07Y100.195
X53.07Y37.465
X53.127Y166.894
X53.127Y104.164
X53.127Y41.434
X53.387Y154.352
X53.387Y145.939
X53.387Y136.89
X53.387Y133.08
X53.387Y91.623
X53.387Y83.209
X53.387Y74.16
X53.387Y70.35
X53.387Y28.892
X53.387Y20.479
X53.387Y11.43
X53.387Y7.62
X53.705Y149.272
X53.705Y86.542
X53.705Y23.812
X53.832Y177.022
X53.832Y114.292
X53.832Y51.562
X54.086Y141.97
X54.086Y79.24
X54.086Y16.51
X54.594Y129.651
X54.594Y66.921
X54.594Y4.191
X54.657Y155.94
X54.657Y93.21
X54.657Y30.48
X54.848Y152.892
X54.848Y136.642
X54.848Y90.162
X54.848Y73.912
X54.848Y27.432
X54.848Y11.182
X54.975Y165.465
X54.975Y148.32
X54.975Y102.735
X54.975Y85.59
X54.975Y40.005
X54.975Y22.86
X55.102Y172.704
X55.102Y171.18
X55.102Y169.402
X55.102Y109.974
X55.102Y108.45
X55.102Y106.672
X55.102Y47.244
X55.102Y45.72
X55.102Y43.942
X55.292Y145.939
X55.292Y83.209
X55.292Y20.479
X55.356Y177.022
X55.356Y114.292
X55.356Y51.562
X55.769Y174.514
X55.769Y158.797
X55.769Y154.829
X55.769Y111.784
X55.769Y96.067
X55.769Y92.099
X55.769Y49.054
X55.769Y33.337
X55.769Y29.369
X55.992Y140.574
X55.992Y134.858
X55.992Y77.844
X55.992Y72.128
X55.992Y15.114
X55.992Y9.398
X56.118Y129.778
X56.118Y67.048
X56.118Y4.318
X56.626Y168.386
X56.626Y105.656
X56.626Y42.926
X56.627Y139.43
X56.627Y136.89
X56.627Y76.7
X56.627Y74.16
X56.627Y13.97
X56.627Y11.43
X56.88Y177.022
X56.88Y174.228
X56.88Y165.782
X56.88Y114.292
X56.88Y111.498
X56.88Y103.052
X56.88Y51.562
X56.88Y48.768
X56.88Y40.322
X57.134Y146.034
X57.134Y83.304
X57.134Y20.574
X57.515Y143.24
X57.515Y80.51
X57.515Y17.78
X57.885Y137.968
X57.885Y75.238
X57.885Y12.508
X58.15Y177.022
X58.15Y174.228
X58.15Y168.386
X58.15Y158.988
X58.15Y114.292
X58.15Y111.498
X58.15Y105.656
X58.15Y96.258
X58.15Y51.562
X58.15Y48.768
X58.15Y42.926
X58.15Y33.528
X58.785Y153.146
X58.785Y147.685
X58.785Y90.416
X58.785Y84.955
X58.785Y27.686
X58.785Y22.225
X58.806Y151.226
X58.806Y88.496
X58.806Y25.766
X58.81Y142.605
X58.81Y79.875
X58.81Y17.145
X59.165Y136.98
X59.165Y74.25
X59.165Y11.52
X59.42Y177.022
X59.42Y134.35
X59.42Y114.292
X59.42Y71.62
X59.42Y51.562
X59.42Y8.89
X59.674Y174.228
X59.674Y168.386
X59.674Y111.498
X59.674Y105.656
X59.674Y48.768
X59.674Y42.926
X60.182Y129.778
X60.182Y67.048
X60.182Y4.318
X60.27Y165.408
X60.27Y102.678
X60.27Y39.948
X60.436Y142.224
X60.436Y79.494
X60.436Y16.764
X60.69Y177.022
X60.69Y166.417
X60.69Y114.292
X60.69Y103.688
X60.69Y51.562
X60.69Y40.957
X60.944Y154.987
X60.944Y92.257
X60.944Y29.527
X61.008Y145.939
X61.008Y83.209
X61.008Y20.479
X61.198Y172.958
X61.198Y171.18
X61.198Y169.91
X61.198Y142.224
X61.198Y110.228
X61.198Y108.45
X61.198Y107.18
X61.198Y79.494
X61.198Y47.498
X61.198Y45.72
X61.198Y44.45
X61.198Y16.764
X61.452Y165.465
X61.452Y102.735
X61.452Y40.005
X61.642Y148.002
X61.642Y85.272
X61.642Y22.543
X61.706Y129.651
X61.706Y66.921
X61.706Y4.191
X61.75Y167.624
X61.75Y104.894
X61.75Y42.164
X61.96Y177.022
X61.96Y114.292
X61.96Y51.562
X62.036Y156.748
X62.036Y94.018
X62.036Y31.288
X62.163Y168.285
X62.163Y105.555
X62.163Y42.825
X62.214Y165.338
X62.214Y102.608
X62.214Y39.878
X62.722Y166.354
X62.722Y103.624
X62.722Y40.894
X62.871Y168.999
X62.871Y106.269
X62.871Y43.539
X62.912Y176.26
X62.912Y146.097
X62.912Y113.53
X62.912Y83.367
X62.912Y50.8
X62.912Y20.637
X62.976Y165.084
X62.976Y137.906
X62.976Y102.354
X62.976Y75.176
X62.976Y39.624
X62.976Y12.446
X63.103Y151.368
X63.103Y88.638
X63.103Y25.908
X63.23Y171.231
X63.23Y149.59
X63.23Y108.501
X63.23Y86.86
X63.23Y45.771
X63.23Y24.13
X63.317Y132.445
X63.317Y69.715
X63.317Y6.985
X63.357Y147.558
X63.357Y84.828
X63.357Y22.098
X63.484Y166.557
X63.484Y103.827
X63.484Y41.097
X63.547Y177.213
X63.547Y114.483
X63.547Y51.752
X63.738Y165.846
X63.738Y165.084
X63.738Y152.892
X63.738Y103.116
X63.738Y102.354
X63.738Y90.162
X63.738Y40.386
X63.738Y39.624
X63.738Y27.432
X63.833Y133.001
X63.833Y70.271
X63.833Y7.541
X63.865Y171.974
X63.865Y109.244
X63.865Y46.514
X63.992Y176.006
X63.992Y113.276
X63.992Y50.546
X64.754Y132.064
X64.754Y69.334
X64.754Y6.604
X65.161Y152.606
X65.161Y89.876
X65.161Y27.146
X65.196Y162.799
X65.196Y100.069
X65.196Y37.339
X65.262Y138.668
X65.262Y75.938
X65.262Y13.208
X65.604Y158.988
X65.604Y96.258
X65.604Y33.528
X65.77Y150.86
X65.77Y144.827
X65.77Y142.764
X65.77Y137.906
X65.77Y88.13
X65.77Y82.097
X65.77Y80.034
X65.77Y75.176
X65.77Y25.4
X65.77Y19.367
X65.77Y17.304
X65.77Y12.446
X66.024Y133.334
X66.024Y70.604
X66.024Y7.874
X66.278Y164.322
X66.278Y101.592
X66.278Y38.862
X66.405Y183.245
X66.405Y120.515
X66.405Y57.785
X66.532Y178.8
X66.532Y173.72
X66.532Y171.18
X66.532Y116.07
X66.532Y110.99
X66.532Y108.45
X66.532Y53.34
X66.532Y48.26
X66.532Y45.72
X67.04Y136.89
X67.04Y74.16
X67.04Y11.43
X68.225Y180.07
X68.225Y117.34
X68.225Y54.61
X68.31Y133.588
X68.31Y70.858
X68.31Y8.128
X70.715Y179.435
X70.715Y116.705
X70.715Y53.975
X72.112Y142.732
X72.112Y80.002
X72.112Y17.272
X72.874Y138.922
X72.874Y76.192
X72.874Y13.462
X73.255Y175.625
X73.255Y112.895
X73.255Y50.165
X73.636Y163.814
X73.636Y101.084
X73.636Y38.354
X73.89Y134.509
X73.89Y71.779
X73.89Y9.049
X74.144Y163.052
X74.144Y100.322
X74.144Y37.592
X74.398Y138.16
X74.398Y75.43
X74.398Y12.7
X74.525Y149.377
X74.525Y86.647
X74.525Y23.917
X74.843Y145.939
X74.843Y83.209
X74.843Y20.479
X75.16Y140.7
X75.16Y137.398
X75.16Y77.97
X75.16Y74.668
X75.16Y15.24
X75.16Y11.938
X75.413Y166.894
X75.413Y104.164
X75.413Y41.434
X75.594Y173.678
X75.594Y110.948
X75.594Y48.218
X75.668Y177.022
X75.668Y114.292
X75.668Y51.562
X75.782Y132.509
X75.782Y69.779
X75.782Y7.049
X75.922Y176.006
X75.922Y151.177
X75.922Y131.81
X75.922Y113.276
X75.922Y88.447
X75.922Y69.08
X75.922Y50.546
X75.922Y25.717
X75.922Y6.35
X75.954Y167.688
X75.954Y104.957
X75.954Y42.227
X76.022Y156.702
X76.022Y93.972
X76.022Y31.242
X76.43Y162.925
X76.43Y100.195
X76.43Y37.465
X76.487Y166.894
X76.487Y104.164
X76.487Y41.434
X76.748Y154.352
X76.748Y145.939
X76.748Y136.89
X76.748Y133.08
X76.748Y91.623
X76.748Y83.209
X76.748Y74.16
X76.748Y70.35
X76.748Y28.892
X76.748Y20.479
X76.748Y11.43
X76.748Y7.62
X77.065Y149.272
X77.065Y86.542
X77.065Y23.812
X77.192Y177.022
X77.192Y114.292
X77.192Y51.562
X77.446Y141.97
X77.446Y79.24
X77.446Y16.51
X77.954Y129.651
X77.954Y66.921
X77.954Y4.191
X78.017Y155.94
X78.017Y93.21
X78.017Y30.48
X78.208Y152.892
X78.208Y136.642
X78.208Y90.162
X78.208Y73.912
X78.208Y27.432
X78.208Y11.182
X78.335Y165.465
X78.335Y148.32
X78.335Y102.735
X78.335Y85.59
X78.335Y40.005
X78.335Y22.86
X78.462Y172.704
X78.462Y171.18
X78.462Y169.402
X78.462Y109.974
X78.462Y108.45
X78.462Y106.672
X78.462Y47.244
X78.462Y45.72
X78.462Y43.942
X78.653Y145.939
X78.653Y83.209
X78.653Y20.479
X78.716Y177.022
X78.716Y114.292
X78.716Y51.562
X79.129Y174.514
X79.129Y158.797
X79.129Y154.829
X79.129Y111.784
X79.129Y96.067
X79.129Y92.099
X79.129Y49.054
X79.129Y33.337
X79.129Y29.369
X79.352Y140.574
X79.352Y134.858
X79.352Y77.844
X79.352Y72.128
X79.352Y15.114
X79.352Y9.398
X79.478Y129.778
X79.478Y67.048
X79.478Y4.318
X79.986Y168.386
X79.986Y105.656
X79.986Y42.926
X79.987Y139.43
X79.987Y136.89
X79.987Y76.7
X79.987Y74.16
X79.987Y13.97
X79.987Y11.43
X80.24Y177.022
X80.24Y174.228
X80.24Y165.782
X80.24Y114.292
X80.24Y111.498
X80.24Y103.052
X80.24Y51.562
X80.24Y48.768
X80.24Y40.322
X80.494Y146.034
X80.494Y83.304
X80.494Y20.574
X80.875Y143.24
X80.875Y80.51
X80.875Y17.78
X81.245Y137.968
X81.245Y75.238
X81.245Y12.508
X81.51Y177.022
X81.51Y174.228
X81.51Y168.386
X81.51Y158.988
X81.51Y114.292
X81.51Y111.498
X81.51Y105.656
X81.51Y96.258
X81.51Y51.562
X81.51Y48.768
X81.51Y42.926
X81.51Y33.528
X82.145Y153.146
X82.145Y147.685
X82.145Y90.416
X82.145Y84.955
X82.145Y27.686
X82.145Y22.225
X82.166Y151.226
X82.166Y88.496
X82.166Y25.766
X82.17Y142.605
X82.17Y79.875
X82.17Y17.145
X82.525Y136.98
X82.525Y74.25
X82.525Y11.52
X82.78Y177.022
X82.78Y134.35
X82.78Y114.292
X82.78Y71.62
X82.78Y51.562
X82.78Y8.89
X83.034Y174.228
X83.034Y168.386
X83.034Y111.498
X83.034Y105.656
X83.034Y48.768
X83.034Y42.926
X83.542Y129.778
X83.542Y67.048
X83.542Y4.318
X83.63Y165.408
X83.63Y102.678
X83.63Y39.948
X83.796Y142.224
X83.796Y79.494
X83.796Y16.764
X84.05Y177.022
X84.05Y166.417
X84.05Y114.292
X84.05Y103.688
X84.05Y51.562
X84.05Y40.957
X84.304Y154.987
X84.304Y92.257
X84.304Y29.527
X84.367Y145.939
X84.367Y83.209
X84.367Y20.479
X84.558Y172.958
X84.558Y171.18
X84.558Y169.91
X84.558Y142.224
X84.558Y110.228
X84.558Y108.45
X84.558Y107.18
X84.558Y79.494
X84.558Y47.498
X84.558Y45.72
X84.558Y44.45
X84.558Y16.764
X84.812Y165.465
X84.812Y102.735
X84.812Y40.005
X85.002Y148.002
X85.002Y85.272
X85.002Y22.543
X85.066Y129.651
X85.066Y66.921
X85.066Y4.191
X85.11Y167.624
X85.11Y104.894
X85.11Y42.164
X85.32Y177.022
X85.32Y114.292
X85.32Y51.562
X85.396Y156.748
X85.396Y94.018
X85.396Y31.288
X85.523Y168.285
X85.523Y105.555
X85.523Y42.825
X85.574Y165.338
X85.574Y102.608
X85.574Y39.878
X86.082Y166.354
X86.082Y103.624
X86.082Y40.894
X86.231Y168.999
X86.231Y106.269
X86.231Y43.539
X86.272Y176.26
X86.272Y146.097
X86.272Y113.53
X86.272Y83.367
X86.272Y50.8
X86.272Y20.637
X86.336Y165.084
X86.336Y137.906
X86.336Y102.354
X86.336Y75.176
X86.336Y39.624
X86.336Y12.446
X86.463Y151.368
X86.463Y88.638
X86.463Y25.908
X86.59Y171.231
X86.59Y149.59
X86.59Y108.501
X86.59Y86.86
X86.59Y45.771
X86.59Y24.13
X86.677Y132.445
X86.677Y69.715
X86.677Y6.985
X86.717Y147.558
X86.717Y84.828
X86.717Y22.098
X86.844Y166.557
X86.844Y103.827
X86.844Y41.097
X86.907Y177.213
X86.907Y114.483
X86.907Y51.752
X87.098Y165.846
X87.098Y165.084
X87.098Y152.892
X87.098Y103.116
X87.098Y102.354
X87.098Y90.162
X87.098Y40.386
X87.098Y39.624
X87.098Y27.432
X87.193Y133.001
X87.193Y70.271
X87.193Y7.541
X87.225Y171.974
X87.225Y109.244
X87.225Y46.514
X87.352Y176.006
X87.352Y113.276
X87.352Y50.546
X88.114Y132.064
X88.114Y69.334
X88.114Y6.604
X88.521Y152.606
X88.521Y89.876
X88.521Y27.146
X88.556Y162.799
X88.556Y100.069
X88.556Y37.339
X88.622Y138.668
X88.622Y75.938
X88.622Y13.208
X88.964Y158.988
X88.964Y96.258
X88.964Y33.528
X89.13Y150.86
X89.13Y144.827
X89.13Y142.764
X89.13Y137.906
X89.13Y88.13
X89.13Y82.097
X89.13Y80.034
X89.13Y75.176
X89.13Y25.4
X89.13Y19.367
X89.13Y17.304
X89.13Y12.446
X89.384Y133.334
X89.384Y70.604
X89.384Y7.874
X89.638Y164.322
X89.638Y101.592
X89.638Y38.862
X89.765Y183.245
X89.765Y120.515
X89.765Y57.785
X89.892Y178.8
X89.892Y173.72
X89.892Y171.18
X89.892Y116.07
X89.892Y110.99
X89.892Y108.45
X89.892Y53.34
X89.892Y48.26
X89.892Y45.72
X90.4Y136.89
X90.4Y74.16
X90.4Y11.43
X91.585Y180.07
X91.585Y117.34
X91.585Y54.61
X91.67Y133.588
X91.67Y70.858
X91.67Y8.128
T2
X11.43Y165.465
X11.43Y102.735
X11.43Y40.005
X12.383Y165.465
X12.383Y102.735
X12.383Y40.005
X13.716Y160.233
X13.716Y97.503
X13.716Y34.773
X18.377Y136.927
X18.377Y74.197
X18.377Y11.467
X19.533Y165.147
X19.533Y102.417
X19.533Y39.688
X34.79Y165.465
X34.79Y102.735
X34.79Y40.005
X35.742Y165.465
X35.742Y102.735
X35.742Y40.005
X37.076Y160.233
X37.076Y97.503
X37.076Y34.773
X41.737Y136.927
X41.737Y74.197
X41.737Y11.467
X42.893Y165.147
X42.893Y102.417
X42.893Y39.688
X58.15Y165.465
X58.15Y102.735
X58.15Y40.005
X59.102Y165.465
X59.102Y102.735
X59.102Y40.005
X60.436Y160.233
X60.436Y97.503
X60.436Y34.773
X65.097Y136.927
X65.097Y74.197
X65.097Y11.467
X66.253Y165.147
X66.253Y102.417
X66.253Y39.688
X81.51Y165.465
X81.51Y102.735
X81.51Y40.005
X82.462Y165.465
X82.462Y102.735
X82.462Y40.005
X83.796Y160.233
X83.796Y97.503
X83.796Y34.773
X88.457Y136.927
X88.457Y74.197
X88.457Y11.467
X89.613Y165.147
X89.613Y102.417
X89.613Y39.688
T4
X1.27Y177.53
X1.27Y174.99
X1.27Y172.45
X1.27Y169.91
X1.27Y167.37
X1.27Y164.83
X1.27Y162.29
X1.27Y159.75
X1.27Y157.21
X1.27Y154.67
X1.27Y152.13
X1.27Y149.59
X1.27Y114.8
X1.27Y112.26
X1.27Y109.72
X1.27Y107.18
X1.27Y104.64
X1.27Y102.1
X1.27Y99.56
X1.27Y97.02
X1.27Y94.48
X1.27Y91.94
X1.27Y89.4
X1.27Y86.86
X1.27Y52.07
X1.27Y49.53
X1.27Y46.99
X1.27Y44.45
X1.27Y41.91
X1.27Y39.37
X1.27Y36.83
X1.27Y34.29
X1.27Y31.75
X1.27Y29.21
X1.27Y26.67
X1.27Y24.13
X21.59Y177.53
X21.59Y174.99
X21.59Y172.45
X21.59Y169.91
X21.59Y167.37
X21.59Y164.83
X21.59Y162.29
X21.59Y159.75
X21.59Y157.21
X21.59Y154.67
X21.59Y152.13
X21.59Y149.59
X21.59Y147.05
X21.59Y144.51
X21.59Y141.97
X21.59Y139.43
X21.59Y114.8
X21.59Y112.26
X21.59Y109.72
X21.59Y107.18
X21.59Y104.64
X21.59Y102.1
X21.59Y99.56
X21.59Y97.02
X21.59Y94.48
X21.59Y91.94
X21.59Y89.4
X21.59Y86.86
X21.59Y84.32
X21.59Y81.78
X21.59Y79.24
X21.59Y76.7
X21.59Y52.07
X21.59Y49.53
X21.59Y46.99
X21.59Y44.45
X21.59Y41.91
X21.59Y39.37
X21.59Y36.83
X21.59Y34.29
X21.59Y31.75
X21.59Y29.21
X21.59Y26.67
X21.59Y24.13
X21.59Y21.59
X21.59Y19.05
X21.59Y16.51
X21.59Y13.97
X24.63Y177.53
X24.63Y174.99
X24.63Y172.45
X24.63Y169.91
X24.63Y167.37
X24.63Y164.83
X24.63Y162.29
X24.63Y159.75
X24.63Y157.21
X24.63Y154.67
X24.63Y152.13
X24.63Y149.59
X24.63Y114.8
X24.63Y112.26
X24.63Y109.72
X24.63Y107.18
X24.63Y104.64
X24.63Y102.1
X24.63Y99.56
X24.63Y97.02
X24.63Y94.48
X24.63Y91.94
X24.63Y89.4
X24.63Y86.86
X24.63Y52.07
X24.63Y49.53
X24.63Y46.99
X24.63Y44.45
X24.63Y41.91
X24.63Y39.37
X24.63Y36.83
X24.63Y34.29
X24.63Y31.75
X24.63Y29.21
X24.63Y26.67
X24.63Y24.13
X44.95Y177.53
X44.95Y174.99
X44.95Y172.45
X44.95Y169.91
X44.95Y167.37
X44.95Y164.83
X44.95Y162.29
X44.95Y159.75
X44.95Y157.21
X44.95Y154.67
X44.95Y152.13
X44.95Y149.59
X44.95Y147.05
X44.95Y144.51
X44.95Y141.97
X44.95Y139.43
X44.95Y114.8
X44.95Y112.26
X44.95Y109.72
X44.95Y107.18
X44.95Y104.64
X44.95Y102.1
X44.95Y99.56
X44.95Y97.02
X44.95Y94.48
X44.95Y91.94
X44.95Y89.4
X44.95Y86.86
X44.95Y84.32
X44.95Y81.78
X44.95Y79.24
X44.95Y76.7
X44.95Y52.07
X44.95Y49.53
X44.95Y46.99
X44.95Y44.45
X44.95Y41.91
X44.95Y39.37
X44.95Y36.83
X44.95Y34.29
X44.95Y31.75
X44.95Y29.21
X44.95Y26.67
X44.95Y24.13
X44.95Y21.59
X44.95Y19.05
X44.95Y16.51
X44.95Y13.97
X47.99Y177.53
X47.99Y174.99
X47.99Y172.45
X47.99Y169.91
X47.99Y167.37
X47.99Y164.83
X47.99Y162.29
X47.99Y159.75
X47.99Y157.21
X47.99Y154.67
X47.99Y152.13
X47.99Y149.59
X47.99Y114.8
X47.99Y112.26
X47.99Y109.72
X47.99Y107.18
X47.99Y104.64
X47.99Y102.1
X47.99Y99.56
X47.99Y97.02
X47.99Y94.48
X47.99Y91.94
X47.99Y89.4
X47.99Y86.86
X47.99Y52.07
X47.99Y49.53
X47.99Y46.99
X47.99Y44.45
X47.99Y41.91
X47.99Y39.37
X47.99Y36.83
X47.99Y34.29
X47.99Y31.75
X47.99Y29.21
X47.99Y26.67
X47.99Y24.13
X68.31Y177.53
X68.31Y174.99
X68.31Y172.45
X68.31Y169.91
X68.31Y167.37
X68.31Y164.83
X68.31Y162.29
X68.31Y159.75
X68.31Y157.21
X68.31Y154.67
X68.31Y152.13
X68.31Y149.59
X68.31Y147.05
X68.31Y144.51
X68.31Y141.97
X68.31Y139.43
X68.31Y114.8
X68.31Y112.26
X68.31Y109.72
X68.31Y107.18
X68.31Y104.64
X68.31Y102.1
X68.31Y99.56
X68.31Y97.02
X68.31Y94.48
X68.31Y91.94
X68.31Y89.4
X68.31Y86.86
X68.31Y84.32
X68.31Y81.78
X68.31Y79.24
X68.31Y76.7
X68.31Y52.07
X68.31Y49.53
X68.31Y46.99
X68.31Y44.45
X68.31Y41.91
X68.31Y39.37
X68.31Y36.83
X68.31Y34.29
X68.31Y31.75
X68.31Y29.21
X68.31Y26.67
X68.31Y24.13
X68.31Y21.59
X68.31Y19.05
X68.31Y16.51
X68.31Y13.97
X71.35Y177.53
X71.35Y174.99
X71.35Y172.45
X71.35Y169.91
X71.35Y167.37
X71.35Y164.83
X71.35Y162.29
X71.35Y159.75
X71.35Y157.21
X71.35Y154.67
X71.35Y152.13
X71.35Y149.59
X71.35Y114.8
X71.35Y112.26
X71.35Y109.72
X71.35Y107.18
X71.35Y104.64
X71.35Y102.1
X71.35Y99.56
X71.35Y97.02
X71.35Y94.48
X71.35Y91.94
X71.35Y89.4
X71.35Y86.86
X71.35Y52.07
X71.35Y49.53
X71.35Y46.99
X71.35Y44.45
X71.35Y41.91
X71.35Y39.37
X71.35Y36.83
X71.35Y34.29
X71.35Y31.75
X71.35Y29.21
X71.35Y26.67
X71.35Y24.13
X91.67Y177.53
X91.67Y174.99
X91.67Y172.45
X91.67Y169.91
X91.67Y167.37
X91.67Y164.83
X91.67Y162.29
X91.67Y159.75
X91.67Y157.21
X91.67Y154.67
X91.67Y152.13
X91.67Y149.59
X91.67Y147.05
X91.67Y144.51
X91.67Y141.97
X91.67Y139.43
X91.67Y114.8
X91.67Y112.26
X91.67Y109.72
X91.67Y107.18
X91.67Y104.64
X91.67Y102.1
X91.67Y99.56
X91.67Y97.02
X91.67Y94.48
X91.67Y91.94
X91.67Y89.4
X91.67Y86.86
X91.67Y84.32
X91.67Y81.78
X91.67Y79.24
X91.67Y76.7
X91.67Y52.07
X91.67Y49.53
X91.67Y46.99
X91.67Y44.45
X91.67Y41.91
X91.67Y39.37
X91.67Y36.83
X91.67Y34.29
X91.67Y31.75
X91.67Y29.21
X91.67Y26.67
X91.67Y24.13
X91.67Y21.59
X91.67Y19.05
X91.67Y16.51
X91.67Y13.97
T5
X8.54Y130.361
X8.54Y67.631
X8.54Y4.901
X14.32Y130.361
X14.32Y67.631
X14.32Y4.901
X31.9Y130.361
X31.9Y67.631
X31.9Y4.901
X37.68Y130.361
X37.68Y67.631
X37.68Y4.901
X55.26Y130.361
X55.26Y67.631
X55.26Y4.901
X61.04Y130.361
X61.04Y67.631
X61.04Y4.901
X78.62Y130.361
X78.62Y67.631
X78.62Y4.901
X84.4Y130.361
X84.4Y67.631
X84.4Y4.901
T6
X2.54Y128.0
X2.54Y65.27
X2.54Y2.54
X20.32Y128.0
X20.32Y65.27
X20.32Y2.54
X25.9Y128.0
X25.9Y65.27
X25.9Y2.54
X43.68Y128.0
X43.68Y65.27
X43.68Y2.54
X49.26Y128.0
X49.26Y65.27
X49.26Y2.54
X67.04Y128.0
X67.04Y65.27
X67.04Y2.54
X72.62Y128.0
X72.62Y65.27
X72.62Y2.54
X90.4Y128.0
X90.4Y65.27
X90.4Y2.54
T3
G00X7.112Y131.441
M15
G01X7.112Y130.341
M16
G05
G00X7.112Y127.011
M15
G01X7.112Y126.411
M16
G05
G00X7.112Y68.711
M15
G01X7.112Y67.611
M16
G05
G00X7.112Y64.281
M15
G01X7.112Y63.681
M16
G05
G00X7.112Y5.981
M15
G01X7.112Y4.881
M16
G05
G00X7.112Y1.551
M15
G01X7.112Y0.951
M16
G05
G00X15.748Y131.441
M15
G01X15.748Y130.341
M16
G05
G00X15.748Y127.011
M15
G01X15.748Y126.411
M16
G05
G00X15.748Y68.711
M15
G01X15.748Y67.611
M16
G05
G00X15.748Y64.281
M15
G01X15.748Y63.681
M16
G05
G00X15.748Y5.981
M15
G01X15.748Y4.881
M16
G05
G00X15.748Y1.551
M15
G01X15.748Y0.951
M16
G05
G00X30.472Y131.441
M15
G01X30.472Y130.341
M16
G05
G00X30.472Y127.011
M15
G01X30.472Y126.411
M16
G05
G00X30.472Y68.711
M15
G01X30.472Y67.611
M16
G05
G00X30.472Y64.281
M15
G01X30.472Y63.681
M16
G05
G00X30.472Y5.981
M15
G01X30.472Y4.881
M16
G05
G00X30.472Y1.551
M15
G01X30.472Y0.951
M16
G05
G00X39.108Y131.441
M15
G01X39.108Y130.341
M16
G05
G00X39.108Y127.011
M15
G01X39.108Y126.411
M16
G05
G00X39.108Y68.711
M15
G01X39.108Y67.611
M16
G05
G00X39.108Y64.281
M15
G01X39.108Y63.681
M16
G05
G00X39.108Y5.981
M15
G01X39.108Y4.881
M16
G05
G00X39.108Y1.551
M15
G01X39.108Y0.951
M16
G05
G00X53.832Y131.441
M15
G01X53.832Y130.341
M16
G05
G00X53.832Y127.011
M15
G01X53.832Y126.411
M16
G05
G00X53.832Y68.711
M15
G01X53.832Y67.611
M16
G05
G00X53.832Y64.281
M15
G01X53.832Y63.681
M16
G05
G00X53.832Y5.981
M15
G01X53.832Y4.881
M16
G05
G00X53.832Y1.551
M15
G01X53.832Y0.951
M16
G05
G00X62.468Y131.441
M15
G01X62.468Y130.341
M16
G05
G00X62.468Y127.011
M15
G01X62.468Y126.411
M16
G05
G00X62.468Y68.711
M15
G01X62.468Y67.611
M16
G05
G00X62.468Y64.281
M15
G01X62.468Y63.681
M16
G05
G00X62.468Y5.981
M15
G01X62.468Y4.881
M16
G05
G00X62.468Y1.551
M15
G01X62.468Y0.951
M16
G05
G00X77.192Y131.441
M15
G01X77.192Y130.341
M16
G05
G00X77.192Y127.011
M15
G01X77.192Y126.411
M16
G05
G00X77.192Y68.711
M15
G01X77.192Y67.611
M16
G05
G00X77.192Y64.281
M15
G01X77.192Y63.681
M16
G05
G00X77.192Y5.981
M15
G01X77.192Y4.881
M16
G05
G00X77.192Y1.551
M15
G01X77.192Y0.951
M16
G05
G00X85.828Y131.441
M15
G01X85.828Y130.341
M16
G05
G00X85.828Y127.011
M15
G01X85.828Y126.411
M16
G05
G00X85.828Y68.711
M15
G01X85.828Y67.611
M16
G05
G00X85.828Y64.281
M15
G01X85.828Y63.681
M16
G05
G00X85.828Y5.981
M15
G01X85.828Y4.881
M16
G05
G00X85.828Y1.551
M15
G01X85.828Y0.951
M16
G05
M30
