%TF.GenerationSoftware,KiCad,Pcbnew,7.0.10*%
%TF.CreationDate,2024-01-23T14:15:21-07:00*%
%TF.ProjectId,SparkFun_Thing_Plus_ESP32-S3_panelized,53706172-6b46-4756-9e5f-5468696e675f,rev?*%
%TF.SameCoordinates,Original*%
%TF.FileFunction,Soldermask,Top*%
%TF.FilePolarity,Negative*%
%FSLAX46Y46*%
G04 Gerber Fmt 4.6, Leading zero omitted, Abs format (unit mm)*
G04 Created by KiCad (PCBNEW 7.0.10) date 2024-01-23 14:15:21*
%MOMM*%
%LPD*%
G01*
G04 APERTURE LIST*
G04 Aperture macros list*
%AMRoundRect*
0 Rectangle with rounded corners*
0 $1 Rounding radius*
0 $2 $3 $4 $5 $6 $7 $8 $9 X,Y pos of 4 corners*
0 Add a 4 corners polygon primitive as box body*
4,1,4,$2,$3,$4,$5,$6,$7,$8,$9,$2,$3,0*
0 Add four circle primitives for the rounded corners*
1,1,$1+$1,$2,$3*
1,1,$1+$1,$4,$5*
1,1,$1+$1,$6,$7*
1,1,$1+$1,$8,$9*
0 Add four rect primitives between the rounded corners*
20,1,$1+$1,$2,$3,$4,$5,0*
20,1,$1+$1,$4,$5,$6,$7,0*
20,1,$1+$1,$6,$7,$8,$9,0*
20,1,$1+$1,$8,$9,$2,$3,0*%
%AMOutline5P*
0 Free polygon, 5 corners , with rotation*
0 The origin of the aperture is its center*
0 number of corners: always 5*
0 $1 to $10 corner X, Y*
0 $11 Rotation angle, in degrees counterclockwise*
0 create outline with 5 corners*
4,1,5,$1,$2,$3,$4,$5,$6,$7,$8,$9,$10,$1,$2,$11*%
%AMOutline6P*
0 Free polygon, 6 corners , with rotation*
0 The origin of the aperture is its center*
0 number of corners: always 6*
0 $1 to $12 corner X, Y*
0 $13 Rotation angle, in degrees counterclockwise*
0 create outline with 6 corners*
4,1,6,$1,$2,$3,$4,$5,$6,$7,$8,$9,$10,$11,$12,$1,$2,$13*%
%AMOutline7P*
0 Free polygon, 7 corners , with rotation*
0 The origin of the aperture is its center*
0 number of corners: always 7*
0 $1 to $14 corner X, Y*
0 $15 Rotation angle, in degrees counterclockwise*
0 create outline with 7 corners*
4,1,7,$1,$2,$3,$4,$5,$6,$7,$8,$9,$10,$11,$12,$13,$14,$1,$2,$15*%
%AMOutline8P*
0 Free polygon, 8 corners , with rotation*
0 The origin of the aperture is its center*
0 number of corners: always 8*
0 $1 to $16 corner X, Y*
0 $17 Rotation angle, in degrees counterclockwise*
0 create outline with 8 corners*
4,1,8,$1,$2,$3,$4,$5,$6,$7,$8,$9,$10,$11,$12,$13,$14,$15,$16,$1,$2,$17*%
G04 Aperture macros list end*
%ADD10C,3.000000*%
%ADD11RoundRect,0.135000X-0.135000X-0.185000X0.135000X-0.185000X0.135000X0.185000X-0.135000X0.185000X0*%
%ADD12RoundRect,0.101600X2.300000X-0.500000X2.300000X0.500000X-2.300000X0.500000X-2.300000X-0.500000X0*%
%ADD13RoundRect,0.101600X1.700000X0.800000X-1.700000X0.800000X-1.700000X-0.800000X1.700000X-0.800000X0*%
%ADD14RoundRect,0.140000X0.140000X0.170000X-0.140000X0.170000X-0.140000X-0.170000X0.140000X-0.170000X0*%
%ADD15RoundRect,0.140000X0.170000X-0.140000X0.170000X0.140000X-0.170000X0.140000X-0.170000X-0.140000X0*%
%ADD16C,3.302000*%
%ADD17RoundRect,0.140000X-0.170000X0.140000X-0.170000X-0.140000X0.170000X-0.140000X0.170000X0.140000X0*%
%ADD18RoundRect,0.140000X-0.140000X-0.170000X0.140000X-0.170000X0.140000X0.170000X-0.140000X0.170000X0*%
%ADD19RoundRect,0.101600X0.600000X-0.275000X0.600000X0.275000X-0.600000X0.275000X-0.600000X-0.275000X0*%
%ADD20RoundRect,0.225000X-0.225000X-0.250000X0.225000X-0.250000X0.225000X0.250000X-0.225000X0.250000X0*%
%ADD21R,0.800000X0.400000*%
%ADD22R,0.400000X0.800000*%
%ADD23Outline5P,-0.600000X0.120000X-0.120000X0.600000X0.600000X0.600000X0.600000X-0.600000X-0.600000X-0.600000X0.000000*%
%ADD24R,1.200000X1.200000*%
%ADD25R,0.800000X0.800000*%
%ADD26C,2.082800*%
%ADD27RoundRect,0.135000X-0.185000X0.135000X-0.185000X-0.135000X0.185000X-0.135000X0.185000X0.135000X0*%
%ADD28RoundRect,0.101600X-0.600000X0.275000X-0.600000X-0.275000X0.600000X-0.275000X0.600000X0.275000X0*%
%ADD29RoundRect,0.101600X-0.675000X0.300000X-0.675000X-0.300000X0.675000X-0.300000X0.675000X0.300000X0*%
%ADD30RoundRect,0.101600X-1.000000X0.600000X-1.000000X-0.600000X1.000000X-0.600000X1.000000X0.600000X0*%
%ADD31RoundRect,0.101600X-0.450000X-0.500000X0.450000X-0.500000X0.450000X0.500000X-0.450000X0.500000X0*%
%ADD32RoundRect,0.135000X0.135000X0.185000X-0.135000X0.185000X-0.135000X-0.185000X0.135000X-0.185000X0*%
%ADD33RoundRect,0.101600X0.315000X0.415000X-0.315000X0.415000X-0.315000X-0.415000X0.315000X-0.415000X0*%
%ADD34RoundRect,0.135000X0.185000X-0.135000X0.185000X0.135000X-0.185000X0.135000X-0.185000X-0.135000X0*%
%ADD35C,1.000000*%
%ADD36RoundRect,0.218750X0.218750X0.256250X-0.218750X0.256250X-0.218750X-0.256250X0.218750X-0.256250X0*%
%ADD37RoundRect,0.225000X0.250000X-0.225000X0.250000X0.225000X-0.250000X0.225000X-0.250000X-0.225000X0*%
%ADD38C,0.650000*%
%ADD39RoundRect,0.070000X0.150000X0.500000X-0.150000X0.500000X-0.150000X-0.500000X0.150000X-0.500000X0*%
%ADD40RoundRect,0.070000X-0.150000X-0.500000X0.150000X-0.500000X0.150000X0.500000X-0.150000X0.500000X0*%
%ADD41RoundRect,0.070000X0.300000X0.500000X-0.300000X0.500000X-0.300000X-0.500000X0.300000X-0.500000X0*%
%ADD42RoundRect,0.070000X-0.300000X-0.500000X0.300000X-0.500000X0.300000X0.500000X-0.300000X0.500000X0*%
%ADD43O,1.000000X1.600000*%
%ADD44O,1.000000X2.100000*%
%ADD45RoundRect,0.101600X0.350000X-0.350000X0.350000X0.350000X-0.350000X0.350000X-0.350000X-0.350000X0*%
G04 APERTURE END LIST*
%TO.C,U4*%
G36*
X90877500Y134015000D02*
G01*
X90037500Y134015000D01*
X90037500Y134455000D01*
X90877500Y134455000D01*
X90877500Y134015000D01*
G37*
G36*
X90877500Y134515000D02*
G01*
X90037500Y134515000D01*
X90037500Y134955000D01*
X90877500Y134955000D01*
X90877500Y134515000D01*
G37*
G36*
X90877500Y135015000D02*
G01*
X90037500Y135015000D01*
X90037500Y135455000D01*
X90877500Y135455000D01*
X90877500Y135015000D01*
G37*
G36*
X90877500Y135515000D02*
G01*
X90037500Y135515000D01*
X90037500Y135955000D01*
X90877500Y135955000D01*
X90877500Y135515000D01*
G37*
G36*
X89917500Y134225000D02*
G01*
X88977500Y134225000D01*
X88977500Y135745000D01*
X89917500Y135745000D01*
X89917500Y134225000D01*
G37*
G36*
X88877500Y134015000D02*
G01*
X88037500Y134015000D01*
X88037500Y134455000D01*
X88877500Y134455000D01*
X88877500Y134015000D01*
G37*
G36*
X88877500Y134515000D02*
G01*
X88037500Y134515000D01*
X88037500Y134955000D01*
X88877500Y134955000D01*
X88877500Y134515000D01*
G37*
G36*
X88877500Y135015000D02*
G01*
X88037500Y135015000D01*
X88037500Y135455000D01*
X88877500Y135455000D01*
X88877500Y135015000D01*
G37*
G36*
X88877500Y135515000D02*
G01*
X88037500Y135515000D01*
X88037500Y135955000D01*
X88877500Y135955000D01*
X88877500Y135515000D01*
G37*
G36*
X90877500Y71285000D02*
G01*
X90037500Y71285000D01*
X90037500Y71725000D01*
X90877500Y71725000D01*
X90877500Y71285000D01*
G37*
G36*
X90877500Y71785000D02*
G01*
X90037500Y71785000D01*
X90037500Y72225000D01*
X90877500Y72225000D01*
X90877500Y71785000D01*
G37*
G36*
X90877500Y72285000D02*
G01*
X90037500Y72285000D01*
X90037500Y72725000D01*
X90877500Y72725000D01*
X90877500Y72285000D01*
G37*
G36*
X90877500Y72785000D02*
G01*
X90037500Y72785000D01*
X90037500Y73225000D01*
X90877500Y73225000D01*
X90877500Y72785000D01*
G37*
G36*
X89917500Y71495000D02*
G01*
X88977500Y71495000D01*
X88977500Y73015000D01*
X89917500Y73015000D01*
X89917500Y71495000D01*
G37*
G36*
X88877500Y71285000D02*
G01*
X88037500Y71285000D01*
X88037500Y71725000D01*
X88877500Y71725000D01*
X88877500Y71285000D01*
G37*
G36*
X88877500Y71785000D02*
G01*
X88037500Y71785000D01*
X88037500Y72225000D01*
X88877500Y72225000D01*
X88877500Y71785000D01*
G37*
G36*
X88877500Y72285000D02*
G01*
X88037500Y72285000D01*
X88037500Y72725000D01*
X88877500Y72725000D01*
X88877500Y72285000D01*
G37*
G36*
X88877500Y72785000D02*
G01*
X88037500Y72785000D01*
X88037500Y73225000D01*
X88877500Y73225000D01*
X88877500Y72785000D01*
G37*
G36*
X90877500Y8555000D02*
G01*
X90037500Y8555000D01*
X90037500Y8995000D01*
X90877500Y8995000D01*
X90877500Y8555000D01*
G37*
G36*
X90877500Y9055000D02*
G01*
X90037500Y9055000D01*
X90037500Y9495000D01*
X90877500Y9495000D01*
X90877500Y9055000D01*
G37*
G36*
X90877500Y9555000D02*
G01*
X90037500Y9555000D01*
X90037500Y9995000D01*
X90877500Y9995000D01*
X90877500Y9555000D01*
G37*
G36*
X90877500Y10055000D02*
G01*
X90037500Y10055000D01*
X90037500Y10495000D01*
X90877500Y10495000D01*
X90877500Y10055000D01*
G37*
G36*
X89917500Y8765000D02*
G01*
X88977500Y8765000D01*
X88977500Y10285000D01*
X89917500Y10285000D01*
X89917500Y8765000D01*
G37*
G36*
X88877500Y8555000D02*
G01*
X88037500Y8555000D01*
X88037500Y8995000D01*
X88877500Y8995000D01*
X88877500Y8555000D01*
G37*
G36*
X88877500Y9055000D02*
G01*
X88037500Y9055000D01*
X88037500Y9495000D01*
X88877500Y9495000D01*
X88877500Y9055000D01*
G37*
G36*
X88877500Y9555000D02*
G01*
X88037500Y9555000D01*
X88037500Y9995000D01*
X88877500Y9995000D01*
X88877500Y9555000D01*
G37*
G36*
X88877500Y10055000D02*
G01*
X88037500Y10055000D01*
X88037500Y10495000D01*
X88877500Y10495000D01*
X88877500Y10055000D01*
G37*
G36*
X67517500Y134015000D02*
G01*
X66677500Y134015000D01*
X66677500Y134455000D01*
X67517500Y134455000D01*
X67517500Y134015000D01*
G37*
G36*
X67517500Y134515000D02*
G01*
X66677500Y134515000D01*
X66677500Y134955000D01*
X67517500Y134955000D01*
X67517500Y134515000D01*
G37*
G36*
X67517500Y135015000D02*
G01*
X66677500Y135015000D01*
X66677500Y135455000D01*
X67517500Y135455000D01*
X67517500Y135015000D01*
G37*
G36*
X67517500Y135515000D02*
G01*
X66677500Y135515000D01*
X66677500Y135955000D01*
X67517500Y135955000D01*
X67517500Y135515000D01*
G37*
G36*
X66557500Y134225000D02*
G01*
X65617500Y134225000D01*
X65617500Y135745000D01*
X66557500Y135745000D01*
X66557500Y134225000D01*
G37*
G36*
X65517500Y134015000D02*
G01*
X64677500Y134015000D01*
X64677500Y134455000D01*
X65517500Y134455000D01*
X65517500Y134015000D01*
G37*
G36*
X65517500Y134515000D02*
G01*
X64677500Y134515000D01*
X64677500Y134955000D01*
X65517500Y134955000D01*
X65517500Y134515000D01*
G37*
G36*
X65517500Y135015000D02*
G01*
X64677500Y135015000D01*
X64677500Y135455000D01*
X65517500Y135455000D01*
X65517500Y135015000D01*
G37*
G36*
X65517500Y135515000D02*
G01*
X64677500Y135515000D01*
X64677500Y135955000D01*
X65517500Y135955000D01*
X65517500Y135515000D01*
G37*
G36*
X67517500Y71285000D02*
G01*
X66677500Y71285000D01*
X66677500Y71725000D01*
X67517500Y71725000D01*
X67517500Y71285000D01*
G37*
G36*
X67517500Y71785000D02*
G01*
X66677500Y71785000D01*
X66677500Y72225000D01*
X67517500Y72225000D01*
X67517500Y71785000D01*
G37*
G36*
X67517500Y72285000D02*
G01*
X66677500Y72285000D01*
X66677500Y72725000D01*
X67517500Y72725000D01*
X67517500Y72285000D01*
G37*
G36*
X67517500Y72785000D02*
G01*
X66677500Y72785000D01*
X66677500Y73225000D01*
X67517500Y73225000D01*
X67517500Y72785000D01*
G37*
G36*
X66557500Y71495000D02*
G01*
X65617500Y71495000D01*
X65617500Y73015000D01*
X66557500Y73015000D01*
X66557500Y71495000D01*
G37*
G36*
X65517500Y71285000D02*
G01*
X64677500Y71285000D01*
X64677500Y71725000D01*
X65517500Y71725000D01*
X65517500Y71285000D01*
G37*
G36*
X65517500Y71785000D02*
G01*
X64677500Y71785000D01*
X64677500Y72225000D01*
X65517500Y72225000D01*
X65517500Y71785000D01*
G37*
G36*
X65517500Y72285000D02*
G01*
X64677500Y72285000D01*
X64677500Y72725000D01*
X65517500Y72725000D01*
X65517500Y72285000D01*
G37*
G36*
X65517500Y72785000D02*
G01*
X64677500Y72785000D01*
X64677500Y73225000D01*
X65517500Y73225000D01*
X65517500Y72785000D01*
G37*
G36*
X67517500Y8555000D02*
G01*
X66677500Y8555000D01*
X66677500Y8995000D01*
X67517500Y8995000D01*
X67517500Y8555000D01*
G37*
G36*
X67517500Y9055000D02*
G01*
X66677500Y9055000D01*
X66677500Y9495000D01*
X67517500Y9495000D01*
X67517500Y9055000D01*
G37*
G36*
X67517500Y9555000D02*
G01*
X66677500Y9555000D01*
X66677500Y9995000D01*
X67517500Y9995000D01*
X67517500Y9555000D01*
G37*
G36*
X67517500Y10055000D02*
G01*
X66677500Y10055000D01*
X66677500Y10495000D01*
X67517500Y10495000D01*
X67517500Y10055000D01*
G37*
G36*
X66557500Y8765000D02*
G01*
X65617500Y8765000D01*
X65617500Y10285000D01*
X66557500Y10285000D01*
X66557500Y8765000D01*
G37*
G36*
X65517500Y8555000D02*
G01*
X64677500Y8555000D01*
X64677500Y8995000D01*
X65517500Y8995000D01*
X65517500Y8555000D01*
G37*
G36*
X65517500Y9055000D02*
G01*
X64677500Y9055000D01*
X64677500Y9495000D01*
X65517500Y9495000D01*
X65517500Y9055000D01*
G37*
G36*
X65517500Y9555000D02*
G01*
X64677500Y9555000D01*
X64677500Y9995000D01*
X65517500Y9995000D01*
X65517500Y9555000D01*
G37*
G36*
X65517500Y10055000D02*
G01*
X64677500Y10055000D01*
X64677500Y10495000D01*
X65517500Y10495000D01*
X65517500Y10055000D01*
G37*
G36*
X44157500Y134015000D02*
G01*
X43317500Y134015000D01*
X43317500Y134455000D01*
X44157500Y134455000D01*
X44157500Y134015000D01*
G37*
G36*
X44157500Y134515000D02*
G01*
X43317500Y134515000D01*
X43317500Y134955000D01*
X44157500Y134955000D01*
X44157500Y134515000D01*
G37*
G36*
X44157500Y135015000D02*
G01*
X43317500Y135015000D01*
X43317500Y135455000D01*
X44157500Y135455000D01*
X44157500Y135015000D01*
G37*
G36*
X44157500Y135515000D02*
G01*
X43317500Y135515000D01*
X43317500Y135955000D01*
X44157500Y135955000D01*
X44157500Y135515000D01*
G37*
G36*
X43197500Y134225000D02*
G01*
X42257500Y134225000D01*
X42257500Y135745000D01*
X43197500Y135745000D01*
X43197500Y134225000D01*
G37*
G36*
X42157500Y134015000D02*
G01*
X41317500Y134015000D01*
X41317500Y134455000D01*
X42157500Y134455000D01*
X42157500Y134015000D01*
G37*
G36*
X42157500Y134515000D02*
G01*
X41317500Y134515000D01*
X41317500Y134955000D01*
X42157500Y134955000D01*
X42157500Y134515000D01*
G37*
G36*
X42157500Y135015000D02*
G01*
X41317500Y135015000D01*
X41317500Y135455000D01*
X42157500Y135455000D01*
X42157500Y135015000D01*
G37*
G36*
X42157500Y135515000D02*
G01*
X41317500Y135515000D01*
X41317500Y135955000D01*
X42157500Y135955000D01*
X42157500Y135515000D01*
G37*
G36*
X44157500Y71285000D02*
G01*
X43317500Y71285000D01*
X43317500Y71725000D01*
X44157500Y71725000D01*
X44157500Y71285000D01*
G37*
G36*
X44157500Y71785000D02*
G01*
X43317500Y71785000D01*
X43317500Y72225000D01*
X44157500Y72225000D01*
X44157500Y71785000D01*
G37*
G36*
X44157500Y72285000D02*
G01*
X43317500Y72285000D01*
X43317500Y72725000D01*
X44157500Y72725000D01*
X44157500Y72285000D01*
G37*
G36*
X44157500Y72785000D02*
G01*
X43317500Y72785000D01*
X43317500Y73225000D01*
X44157500Y73225000D01*
X44157500Y72785000D01*
G37*
G36*
X43197500Y71495000D02*
G01*
X42257500Y71495000D01*
X42257500Y73015000D01*
X43197500Y73015000D01*
X43197500Y71495000D01*
G37*
G36*
X42157500Y71285000D02*
G01*
X41317500Y71285000D01*
X41317500Y71725000D01*
X42157500Y71725000D01*
X42157500Y71285000D01*
G37*
G36*
X42157500Y71785000D02*
G01*
X41317500Y71785000D01*
X41317500Y72225000D01*
X42157500Y72225000D01*
X42157500Y71785000D01*
G37*
G36*
X42157500Y72285000D02*
G01*
X41317500Y72285000D01*
X41317500Y72725000D01*
X42157500Y72725000D01*
X42157500Y72285000D01*
G37*
G36*
X42157500Y72785000D02*
G01*
X41317500Y72785000D01*
X41317500Y73225000D01*
X42157500Y73225000D01*
X42157500Y72785000D01*
G37*
G36*
X44157500Y8555000D02*
G01*
X43317500Y8555000D01*
X43317500Y8995000D01*
X44157500Y8995000D01*
X44157500Y8555000D01*
G37*
G36*
X44157500Y9055000D02*
G01*
X43317500Y9055000D01*
X43317500Y9495000D01*
X44157500Y9495000D01*
X44157500Y9055000D01*
G37*
G36*
X44157500Y9555000D02*
G01*
X43317500Y9555000D01*
X43317500Y9995000D01*
X44157500Y9995000D01*
X44157500Y9555000D01*
G37*
G36*
X44157500Y10055000D02*
G01*
X43317500Y10055000D01*
X43317500Y10495000D01*
X44157500Y10495000D01*
X44157500Y10055000D01*
G37*
G36*
X43197500Y8765000D02*
G01*
X42257500Y8765000D01*
X42257500Y10285000D01*
X43197500Y10285000D01*
X43197500Y8765000D01*
G37*
G36*
X42157500Y8555000D02*
G01*
X41317500Y8555000D01*
X41317500Y8995000D01*
X42157500Y8995000D01*
X42157500Y8555000D01*
G37*
G36*
X42157500Y9055000D02*
G01*
X41317500Y9055000D01*
X41317500Y9495000D01*
X42157500Y9495000D01*
X42157500Y9055000D01*
G37*
G36*
X42157500Y9555000D02*
G01*
X41317500Y9555000D01*
X41317500Y9995000D01*
X42157500Y9995000D01*
X42157500Y9555000D01*
G37*
G36*
X42157500Y10055000D02*
G01*
X41317500Y10055000D01*
X41317500Y10495000D01*
X42157500Y10495000D01*
X42157500Y10055000D01*
G37*
G36*
X20797500Y134015000D02*
G01*
X19957500Y134015000D01*
X19957500Y134455000D01*
X20797500Y134455000D01*
X20797500Y134015000D01*
G37*
G36*
X20797500Y134515000D02*
G01*
X19957500Y134515000D01*
X19957500Y134955000D01*
X20797500Y134955000D01*
X20797500Y134515000D01*
G37*
G36*
X20797500Y135015000D02*
G01*
X19957500Y135015000D01*
X19957500Y135455000D01*
X20797500Y135455000D01*
X20797500Y135015000D01*
G37*
G36*
X20797500Y135515000D02*
G01*
X19957500Y135515000D01*
X19957500Y135955000D01*
X20797500Y135955000D01*
X20797500Y135515000D01*
G37*
G36*
X19837500Y134225000D02*
G01*
X18897500Y134225000D01*
X18897500Y135745000D01*
X19837500Y135745000D01*
X19837500Y134225000D01*
G37*
G36*
X18797500Y134015000D02*
G01*
X17957500Y134015000D01*
X17957500Y134455000D01*
X18797500Y134455000D01*
X18797500Y134015000D01*
G37*
G36*
X18797500Y134515000D02*
G01*
X17957500Y134515000D01*
X17957500Y134955000D01*
X18797500Y134955000D01*
X18797500Y134515000D01*
G37*
G36*
X18797500Y135015000D02*
G01*
X17957500Y135015000D01*
X17957500Y135455000D01*
X18797500Y135455000D01*
X18797500Y135015000D01*
G37*
G36*
X18797500Y135515000D02*
G01*
X17957500Y135515000D01*
X17957500Y135955000D01*
X18797500Y135955000D01*
X18797500Y135515000D01*
G37*
G36*
X20797500Y71285000D02*
G01*
X19957500Y71285000D01*
X19957500Y71725000D01*
X20797500Y71725000D01*
X20797500Y71285000D01*
G37*
G36*
X20797500Y71785000D02*
G01*
X19957500Y71785000D01*
X19957500Y72225000D01*
X20797500Y72225000D01*
X20797500Y71785000D01*
G37*
G36*
X20797500Y72285000D02*
G01*
X19957500Y72285000D01*
X19957500Y72725000D01*
X20797500Y72725000D01*
X20797500Y72285000D01*
G37*
G36*
X20797500Y72785000D02*
G01*
X19957500Y72785000D01*
X19957500Y73225000D01*
X20797500Y73225000D01*
X20797500Y72785000D01*
G37*
G36*
X19837500Y71495000D02*
G01*
X18897500Y71495000D01*
X18897500Y73015000D01*
X19837500Y73015000D01*
X19837500Y71495000D01*
G37*
G36*
X18797500Y71285000D02*
G01*
X17957500Y71285000D01*
X17957500Y71725000D01*
X18797500Y71725000D01*
X18797500Y71285000D01*
G37*
G36*
X18797500Y71785000D02*
G01*
X17957500Y71785000D01*
X17957500Y72225000D01*
X18797500Y72225000D01*
X18797500Y71785000D01*
G37*
G36*
X18797500Y72285000D02*
G01*
X17957500Y72285000D01*
X17957500Y72725000D01*
X18797500Y72725000D01*
X18797500Y72285000D01*
G37*
G36*
X18797500Y72785000D02*
G01*
X17957500Y72785000D01*
X17957500Y73225000D01*
X18797500Y73225000D01*
X18797500Y72785000D01*
G37*
G36*
X20797500Y8555000D02*
G01*
X19957500Y8555000D01*
X19957500Y8995000D01*
X20797500Y8995000D01*
X20797500Y8555000D01*
G37*
G36*
X20797500Y9055000D02*
G01*
X19957500Y9055000D01*
X19957500Y9495000D01*
X20797500Y9495000D01*
X20797500Y9055000D01*
G37*
G36*
X20797500Y9555000D02*
G01*
X19957500Y9555000D01*
X19957500Y9995000D01*
X20797500Y9995000D01*
X20797500Y9555000D01*
G37*
G36*
X20797500Y10055000D02*
G01*
X19957500Y10055000D01*
X19957500Y10495000D01*
X20797500Y10495000D01*
X20797500Y10055000D01*
G37*
G36*
X19837500Y8765000D02*
G01*
X18897500Y8765000D01*
X18897500Y10285000D01*
X19837500Y10285000D01*
X19837500Y8765000D01*
G37*
G36*
X18797500Y8555000D02*
G01*
X17957500Y8555000D01*
X17957500Y8995000D01*
X18797500Y8995000D01*
X18797500Y8555000D01*
G37*
G36*
X18797500Y9055000D02*
G01*
X17957500Y9055000D01*
X17957500Y9495000D01*
X18797500Y9495000D01*
X18797500Y9055000D01*
G37*
G36*
X18797500Y9555000D02*
G01*
X17957500Y9555000D01*
X17957500Y9995000D01*
X18797500Y9995000D01*
X18797500Y9555000D01*
G37*
G36*
X18797500Y10055000D02*
G01*
X17957500Y10055000D01*
X17957500Y10495000D01*
X18797500Y10495000D01*
X18797500Y10055000D01*
G37*
%TD*%
D10*
%TO.C,*%
X96615000Y185690000D03*
%TD*%
%TO.C,*%
X-3675000Y185690000D03*
%TD*%
%TO.C,*%
X-3675000Y-1810000D03*
%TD*%
D11*
%TO.C,R7*%
X79095000Y157845000D03*
X80115000Y157845000D03*
%TD*%
%TO.C,R7*%
X79095000Y95115000D03*
X80115000Y95115000D03*
%TD*%
%TO.C,R7*%
X79095000Y32385000D03*
X80115000Y32385000D03*
%TD*%
%TO.C,R7*%
X55735000Y157845000D03*
X56755000Y157845000D03*
%TD*%
%TO.C,R7*%
X55735000Y95115000D03*
X56755000Y95115000D03*
%TD*%
%TO.C,R7*%
X55735000Y32385000D03*
X56755000Y32385000D03*
%TD*%
%TO.C,R7*%
X32375000Y157845000D03*
X33395000Y157845000D03*
%TD*%
%TO.C,R7*%
X32375000Y95115000D03*
X33395000Y95115000D03*
%TD*%
%TO.C,R7*%
X32375000Y32385000D03*
X33395000Y32385000D03*
%TD*%
%TO.C,R7*%
X9015000Y157845000D03*
X10035000Y157845000D03*
%TD*%
%TO.C,R7*%
X9015000Y95115000D03*
X10035000Y95115000D03*
%TD*%
D12*
%TO.C,J3*%
X77590000Y142875000D03*
X77590000Y144875000D03*
D13*
X72390000Y140475000D03*
X72390000Y147275000D03*
%TD*%
D12*
%TO.C,J3*%
X77590000Y80145000D03*
X77590000Y82145000D03*
D13*
X72390000Y77745000D03*
X72390000Y84545000D03*
%TD*%
D12*
%TO.C,J3*%
X77590000Y17415000D03*
X77590000Y19415000D03*
D13*
X72390000Y15015000D03*
X72390000Y21815000D03*
%TD*%
D12*
%TO.C,J3*%
X54230000Y142875000D03*
X54230000Y144875000D03*
D13*
X49030000Y140475000D03*
X49030000Y147275000D03*
%TD*%
D12*
%TO.C,J3*%
X54230000Y80145000D03*
X54230000Y82145000D03*
D13*
X49030000Y77745000D03*
X49030000Y84545000D03*
%TD*%
D12*
%TO.C,J3*%
X54230000Y17415000D03*
X54230000Y19415000D03*
D13*
X49030000Y15015000D03*
X49030000Y21815000D03*
%TD*%
D12*
%TO.C,J3*%
X30870000Y142875000D03*
X30870000Y144875000D03*
D13*
X25670000Y140475000D03*
X25670000Y147275000D03*
%TD*%
D12*
%TO.C,J3*%
X30870000Y80145000D03*
X30870000Y82145000D03*
D13*
X25670000Y77745000D03*
X25670000Y84545000D03*
%TD*%
D12*
%TO.C,J3*%
X30870000Y17415000D03*
X30870000Y19415000D03*
D13*
X25670000Y15015000D03*
X25670000Y21815000D03*
%TD*%
D12*
%TO.C,J3*%
X7510000Y142875000D03*
X7510000Y144875000D03*
D13*
X2310000Y140475000D03*
X2310000Y147275000D03*
%TD*%
D12*
%TO.C,J3*%
X7510000Y80145000D03*
X7510000Y82145000D03*
D13*
X2310000Y77745000D03*
X2310000Y84545000D03*
%TD*%
D14*
%TO.C,C14*%
X81037500Y133080000D03*
X80077500Y133080000D03*
%TD*%
%TO.C,C14*%
X81037500Y70350000D03*
X80077500Y70350000D03*
%TD*%
%TO.C,C14*%
X81037500Y7620000D03*
X80077500Y7620000D03*
%TD*%
%TO.C,C14*%
X57677500Y133080000D03*
X56717500Y133080000D03*
%TD*%
%TO.C,C14*%
X57677500Y70350000D03*
X56717500Y70350000D03*
%TD*%
%TO.C,C14*%
X57677500Y7620000D03*
X56717500Y7620000D03*
%TD*%
%TO.C,C14*%
X34317500Y133080000D03*
X33357500Y133080000D03*
%TD*%
%TO.C,C14*%
X34317500Y70350000D03*
X33357500Y70350000D03*
%TD*%
%TO.C,C14*%
X34317500Y7620000D03*
X33357500Y7620000D03*
%TD*%
%TO.C,C14*%
X10957500Y133080000D03*
X9997500Y133080000D03*
%TD*%
%TO.C,C14*%
X10957500Y70350000D03*
X9997500Y70350000D03*
%TD*%
D15*
%TO.C,C11*%
X87225000Y145617500D03*
X87225000Y146577500D03*
%TD*%
%TO.C,C11*%
X87225000Y82887500D03*
X87225000Y83847500D03*
%TD*%
%TO.C,C11*%
X87225000Y20157500D03*
X87225000Y21117500D03*
%TD*%
%TO.C,C11*%
X63865000Y145617500D03*
X63865000Y146577500D03*
%TD*%
%TO.C,C11*%
X63865000Y82887500D03*
X63865000Y83847500D03*
%TD*%
%TO.C,C11*%
X63865000Y20157500D03*
X63865000Y21117500D03*
%TD*%
%TO.C,C11*%
X40505000Y145617500D03*
X40505000Y146577500D03*
%TD*%
%TO.C,C11*%
X40505000Y82887500D03*
X40505000Y83847500D03*
%TD*%
%TO.C,C11*%
X40505000Y20157500D03*
X40505000Y21117500D03*
%TD*%
%TO.C,C11*%
X17145000Y145617500D03*
X17145000Y146577500D03*
%TD*%
%TO.C,C11*%
X17145000Y82887500D03*
X17145000Y83847500D03*
%TD*%
D16*
%TO.C,ST3*%
X90400000Y128000000D03*
%TD*%
%TO.C,ST3*%
X90400000Y65270000D03*
%TD*%
%TO.C,ST3*%
X90400000Y2540000D03*
%TD*%
%TO.C,ST3*%
X67040000Y128000000D03*
%TD*%
%TO.C,ST3*%
X67040000Y65270000D03*
%TD*%
%TO.C,ST3*%
X67040000Y2540000D03*
%TD*%
%TO.C,ST3*%
X43680000Y128000000D03*
%TD*%
%TO.C,ST3*%
X43680000Y65270000D03*
%TD*%
%TO.C,ST3*%
X43680000Y2540000D03*
%TD*%
%TO.C,ST3*%
X20320000Y128000000D03*
%TD*%
%TO.C,ST3*%
X20320000Y65270000D03*
%TD*%
D17*
%TO.C,C3*%
X76747500Y135465000D03*
X76747500Y134505000D03*
%TD*%
%TO.C,C3*%
X76747500Y72735000D03*
X76747500Y71775000D03*
%TD*%
%TO.C,C3*%
X76747500Y10005000D03*
X76747500Y9045000D03*
%TD*%
%TO.C,C3*%
X53387500Y135465000D03*
X53387500Y134505000D03*
%TD*%
%TO.C,C3*%
X53387500Y72735000D03*
X53387500Y71775000D03*
%TD*%
%TO.C,C3*%
X53387500Y10005000D03*
X53387500Y9045000D03*
%TD*%
%TO.C,C3*%
X30027500Y135465000D03*
X30027500Y134505000D03*
%TD*%
%TO.C,C3*%
X30027500Y72735000D03*
X30027500Y71775000D03*
%TD*%
%TO.C,C3*%
X30027500Y10005000D03*
X30027500Y9045000D03*
%TD*%
%TO.C,C3*%
X6667500Y135465000D03*
X6667500Y134505000D03*
%TD*%
%TO.C,C3*%
X6667500Y72735000D03*
X6667500Y71775000D03*
%TD*%
D18*
%TO.C,C13*%
X79125000Y152130000D03*
X80085000Y152130000D03*
%TD*%
%TO.C,C13*%
X79125000Y89400000D03*
X80085000Y89400000D03*
%TD*%
%TO.C,C13*%
X79125000Y26670000D03*
X80085000Y26670000D03*
%TD*%
%TO.C,C13*%
X55765000Y152130000D03*
X56725000Y152130000D03*
%TD*%
%TO.C,C13*%
X55765000Y89400000D03*
X56725000Y89400000D03*
%TD*%
%TO.C,C13*%
X55765000Y26670000D03*
X56725000Y26670000D03*
%TD*%
%TO.C,C13*%
X32405000Y152130000D03*
X33365000Y152130000D03*
%TD*%
%TO.C,C13*%
X32405000Y89400000D03*
X33365000Y89400000D03*
%TD*%
%TO.C,C13*%
X32405000Y26670000D03*
X33365000Y26670000D03*
%TD*%
%TO.C,C13*%
X9045000Y152130000D03*
X10005000Y152130000D03*
%TD*%
%TO.C,C13*%
X9045000Y89400000D03*
X10005000Y89400000D03*
%TD*%
D19*
%TO.C,U1*%
X80905100Y134035000D03*
X80905100Y134985000D03*
X80905100Y135935000D03*
X78304900Y135935000D03*
X78304900Y134035000D03*
%TD*%
%TO.C,U1*%
X80905100Y71305000D03*
X80905100Y72255000D03*
X80905100Y73205000D03*
X78304900Y73205000D03*
X78304900Y71305000D03*
%TD*%
%TO.C,U1*%
X80905100Y8575000D03*
X80905100Y9525000D03*
X80905100Y10475000D03*
X78304900Y10475000D03*
X78304900Y8575000D03*
%TD*%
%TO.C,U1*%
X57545100Y134035000D03*
X57545100Y134985000D03*
X57545100Y135935000D03*
X54944900Y135935000D03*
X54944900Y134035000D03*
%TD*%
%TO.C,U1*%
X57545100Y71305000D03*
X57545100Y72255000D03*
X57545100Y73205000D03*
X54944900Y73205000D03*
X54944900Y71305000D03*
%TD*%
%TO.C,U1*%
X57545100Y8575000D03*
X57545100Y9525000D03*
X57545100Y10475000D03*
X54944900Y10475000D03*
X54944900Y8575000D03*
%TD*%
%TO.C,U1*%
X34185100Y134035000D03*
X34185100Y134985000D03*
X34185100Y135935000D03*
X31584900Y135935000D03*
X31584900Y134035000D03*
%TD*%
%TO.C,U1*%
X34185100Y71305000D03*
X34185100Y72255000D03*
X34185100Y73205000D03*
X31584900Y73205000D03*
X31584900Y71305000D03*
%TD*%
%TO.C,U1*%
X34185100Y8575000D03*
X34185100Y9525000D03*
X34185100Y10475000D03*
X31584900Y10475000D03*
X31584900Y8575000D03*
%TD*%
%TO.C,U1*%
X10825100Y134035000D03*
X10825100Y134985000D03*
X10825100Y135935000D03*
X8224900Y135935000D03*
X8224900Y134035000D03*
%TD*%
%TO.C,U1*%
X10825100Y71305000D03*
X10825100Y72255000D03*
X10825100Y73205000D03*
X8224900Y73205000D03*
X8224900Y71305000D03*
%TD*%
D20*
%TO.C,C1*%
X71210000Y181022500D03*
X72760000Y181022500D03*
%TD*%
%TO.C,C1*%
X71210000Y118292500D03*
X72760000Y118292500D03*
%TD*%
%TO.C,C1*%
X71210000Y55562500D03*
X72760000Y55562500D03*
%TD*%
%TO.C,C1*%
X47850000Y181022500D03*
X49400000Y181022500D03*
%TD*%
%TO.C,C1*%
X47850000Y118292500D03*
X49400000Y118292500D03*
%TD*%
%TO.C,C1*%
X47850000Y55562500D03*
X49400000Y55562500D03*
%TD*%
%TO.C,C1*%
X24490000Y181022500D03*
X26040000Y181022500D03*
%TD*%
%TO.C,C1*%
X24490000Y118292500D03*
X26040000Y118292500D03*
%TD*%
%TO.C,C1*%
X24490000Y55562500D03*
X26040000Y55562500D03*
%TD*%
%TO.C,C1*%
X1130000Y181022500D03*
X2680000Y181022500D03*
%TD*%
%TO.C,C1*%
X1130000Y118292500D03*
X2680000Y118292500D03*
%TD*%
D21*
%TO.C,U3*%
X74510000Y177130000D03*
X74510000Y176280000D03*
X74510000Y175430000D03*
X74510000Y174580000D03*
X74510000Y173730000D03*
X74510000Y172880000D03*
X74510000Y172030000D03*
X74510000Y171180000D03*
X74510000Y170330000D03*
X74510000Y169480000D03*
X74510000Y168630000D03*
X74510000Y167780000D03*
X74510000Y166930000D03*
X74510000Y166080000D03*
X74510000Y165230000D03*
D22*
X75560000Y164180000D03*
X76410000Y164180000D03*
X77260000Y164180000D03*
X78110000Y164180000D03*
X78960000Y164180000D03*
X79810000Y164180000D03*
X80660000Y164180000D03*
X81510000Y164180000D03*
X82360000Y164180000D03*
X83210000Y164180000D03*
X84060000Y164180000D03*
X84910000Y164180000D03*
X85760000Y164180000D03*
X86610000Y164180000D03*
X87460000Y164180000D03*
D21*
X88510000Y165230000D03*
X88510000Y166080000D03*
X88510000Y166930000D03*
X88510000Y167780000D03*
X88510000Y168630000D03*
X88510000Y169480000D03*
X88510000Y170330000D03*
X88510000Y171180000D03*
X88510000Y172030000D03*
X88510000Y172880000D03*
X88510000Y173730000D03*
X88510000Y174580000D03*
X88510000Y175430000D03*
X88510000Y176280000D03*
X88510000Y177130000D03*
D22*
X87460000Y178180000D03*
X86610000Y178180000D03*
X85760000Y178180000D03*
X84910000Y178180000D03*
X84060000Y178180000D03*
X83210000Y178180000D03*
X82360000Y178180000D03*
X81510000Y178180000D03*
X80660000Y178180000D03*
X79810000Y178180000D03*
X78960000Y178180000D03*
X78110000Y178180000D03*
X77260000Y178180000D03*
X76410000Y178180000D03*
X75560000Y178180000D03*
D23*
X79860000Y172830000D03*
D24*
X79860000Y171180000D03*
X79860000Y169530000D03*
X81510000Y172830000D03*
X81510000Y171180000D03*
X81510000Y169530000D03*
X83160000Y172830000D03*
X83160000Y171180000D03*
X83160000Y169530000D03*
D25*
X74510000Y178180000D03*
X74510000Y164180000D03*
X88510000Y164180000D03*
X88510000Y178180000D03*
%TD*%
D21*
%TO.C,U3*%
X74510000Y114400000D03*
X74510000Y113550000D03*
X74510000Y112700000D03*
X74510000Y111850000D03*
X74510000Y111000000D03*
X74510000Y110150000D03*
X74510000Y109300000D03*
X74510000Y108450000D03*
X74510000Y107600000D03*
X74510000Y106750000D03*
X74510000Y105900000D03*
X74510000Y105050000D03*
X74510000Y104200000D03*
X74510000Y103350000D03*
X74510000Y102500000D03*
D22*
X75560000Y101450000D03*
X76410000Y101450000D03*
X77260000Y101450000D03*
X78110000Y101450000D03*
X78960000Y101450000D03*
X79810000Y101450000D03*
X80660000Y101450000D03*
X81510000Y101450000D03*
X82360000Y101450000D03*
X83210000Y101450000D03*
X84060000Y101450000D03*
X84910000Y101450000D03*
X85760000Y101450000D03*
X86610000Y101450000D03*
X87460000Y101450000D03*
D21*
X88510000Y102500000D03*
X88510000Y103350000D03*
X88510000Y104200000D03*
X88510000Y105050000D03*
X88510000Y105900000D03*
X88510000Y106750000D03*
X88510000Y107600000D03*
X88510000Y108450000D03*
X88510000Y109300000D03*
X88510000Y110150000D03*
X88510000Y111000000D03*
X88510000Y111850000D03*
X88510000Y112700000D03*
X88510000Y113550000D03*
X88510000Y114400000D03*
D22*
X87460000Y115450000D03*
X86610000Y115450000D03*
X85760000Y115450000D03*
X84910000Y115450000D03*
X84060000Y115450000D03*
X83210000Y115450000D03*
X82360000Y115450000D03*
X81510000Y115450000D03*
X80660000Y115450000D03*
X79810000Y115450000D03*
X78960000Y115450000D03*
X78110000Y115450000D03*
X77260000Y115450000D03*
X76410000Y115450000D03*
X75560000Y115450000D03*
D23*
X79860000Y110100000D03*
D24*
X79860000Y108450000D03*
X79860000Y106800000D03*
X81510000Y110100000D03*
X81510000Y108450000D03*
X81510000Y106800000D03*
X83160000Y110100000D03*
X83160000Y108450000D03*
X83160000Y106800000D03*
D25*
X74510000Y115450000D03*
X74510000Y101450000D03*
X88510000Y101450000D03*
X88510000Y115450000D03*
%TD*%
D21*
%TO.C,U3*%
X74510000Y51670000D03*
X74510000Y50820000D03*
X74510000Y49970000D03*
X74510000Y49120000D03*
X74510000Y48270000D03*
X74510000Y47420000D03*
X74510000Y46570000D03*
X74510000Y45720000D03*
X74510000Y44870000D03*
X74510000Y44020000D03*
X74510000Y43170000D03*
X74510000Y42320000D03*
X74510000Y41470000D03*
X74510000Y40620000D03*
X74510000Y39770000D03*
D22*
X75560000Y38720000D03*
X76410000Y38720000D03*
X77260000Y38720000D03*
X78110000Y38720000D03*
X78960000Y38720000D03*
X79810000Y38720000D03*
X80660000Y38720000D03*
X81510000Y38720000D03*
X82360000Y38720000D03*
X83210000Y38720000D03*
X84060000Y38720000D03*
X84910000Y38720000D03*
X85760000Y38720000D03*
X86610000Y38720000D03*
X87460000Y38720000D03*
D21*
X88510000Y39770000D03*
X88510000Y40620000D03*
X88510000Y41470000D03*
X88510000Y42320000D03*
X88510000Y43170000D03*
X88510000Y44020000D03*
X88510000Y44870000D03*
X88510000Y45720000D03*
X88510000Y46570000D03*
X88510000Y47420000D03*
X88510000Y48270000D03*
X88510000Y49120000D03*
X88510000Y49970000D03*
X88510000Y50820000D03*
X88510000Y51670000D03*
D22*
X87460000Y52720000D03*
X86610000Y52720000D03*
X85760000Y52720000D03*
X84910000Y52720000D03*
X84060000Y52720000D03*
X83210000Y52720000D03*
X82360000Y52720000D03*
X81510000Y52720000D03*
X80660000Y52720000D03*
X79810000Y52720000D03*
X78960000Y52720000D03*
X78110000Y52720000D03*
X77260000Y52720000D03*
X76410000Y52720000D03*
X75560000Y52720000D03*
D23*
X79860000Y47370000D03*
D24*
X79860000Y45720000D03*
X79860000Y44070000D03*
X81510000Y47370000D03*
X81510000Y45720000D03*
X81510000Y44070000D03*
X83160000Y47370000D03*
X83160000Y45720000D03*
X83160000Y44070000D03*
D25*
X74510000Y52720000D03*
X74510000Y38720000D03*
X88510000Y38720000D03*
X88510000Y52720000D03*
%TD*%
D21*
%TO.C,U3*%
X51150000Y177130000D03*
X51150000Y176280000D03*
X51150000Y175430000D03*
X51150000Y174580000D03*
X51150000Y173730000D03*
X51150000Y172880000D03*
X51150000Y172030000D03*
X51150000Y171180000D03*
X51150000Y170330000D03*
X51150000Y169480000D03*
X51150000Y168630000D03*
X51150000Y167780000D03*
X51150000Y166930000D03*
X51150000Y166080000D03*
X51150000Y165230000D03*
D22*
X52200000Y164180000D03*
X53050000Y164180000D03*
X53900000Y164180000D03*
X54750000Y164180000D03*
X55600000Y164180000D03*
X56450000Y164180000D03*
X57300000Y164180000D03*
X58150000Y164180000D03*
X59000000Y164180000D03*
X59850000Y164180000D03*
X60700000Y164180000D03*
X61550000Y164180000D03*
X62400000Y164180000D03*
X63250000Y164180000D03*
X64100000Y164180000D03*
D21*
X65150000Y165230000D03*
X65150000Y166080000D03*
X65150000Y166930000D03*
X65150000Y167780000D03*
X65150000Y168630000D03*
X65150000Y169480000D03*
X65150000Y170330000D03*
X65150000Y171180000D03*
X65150000Y172030000D03*
X65150000Y172880000D03*
X65150000Y173730000D03*
X65150000Y174580000D03*
X65150000Y175430000D03*
X65150000Y176280000D03*
X65150000Y177130000D03*
D22*
X64100000Y178180000D03*
X63250000Y178180000D03*
X62400000Y178180000D03*
X61550000Y178180000D03*
X60700000Y178180000D03*
X59850000Y178180000D03*
X59000000Y178180000D03*
X58150000Y178180000D03*
X57300000Y178180000D03*
X56450000Y178180000D03*
X55600000Y178180000D03*
X54750000Y178180000D03*
X53900000Y178180000D03*
X53050000Y178180000D03*
X52200000Y178180000D03*
D23*
X56500000Y172830000D03*
D24*
X56500000Y171180000D03*
X56500000Y169530000D03*
X58150000Y172830000D03*
X58150000Y171180000D03*
X58150000Y169530000D03*
X59800000Y172830000D03*
X59800000Y171180000D03*
X59800000Y169530000D03*
D25*
X51150000Y178180000D03*
X51150000Y164180000D03*
X65150000Y164180000D03*
X65150000Y178180000D03*
%TD*%
D21*
%TO.C,U3*%
X51150000Y114400000D03*
X51150000Y113550000D03*
X51150000Y112700000D03*
X51150000Y111850000D03*
X51150000Y111000000D03*
X51150000Y110150000D03*
X51150000Y109300000D03*
X51150000Y108450000D03*
X51150000Y107600000D03*
X51150000Y106750000D03*
X51150000Y105900000D03*
X51150000Y105050000D03*
X51150000Y104200000D03*
X51150000Y103350000D03*
X51150000Y102500000D03*
D22*
X52200000Y101450000D03*
X53050000Y101450000D03*
X53900000Y101450000D03*
X54750000Y101450000D03*
X55600000Y101450000D03*
X56450000Y101450000D03*
X57300000Y101450000D03*
X58150000Y101450000D03*
X59000000Y101450000D03*
X59850000Y101450000D03*
X60700000Y101450000D03*
X61550000Y101450000D03*
X62400000Y101450000D03*
X63250000Y101450000D03*
X64100000Y101450000D03*
D21*
X65150000Y102500000D03*
X65150000Y103350000D03*
X65150000Y104200000D03*
X65150000Y105050000D03*
X65150000Y105900000D03*
X65150000Y106750000D03*
X65150000Y107600000D03*
X65150000Y108450000D03*
X65150000Y109300000D03*
X65150000Y110150000D03*
X65150000Y111000000D03*
X65150000Y111850000D03*
X65150000Y112700000D03*
X65150000Y113550000D03*
X65150000Y114400000D03*
D22*
X64100000Y115450000D03*
X63250000Y115450000D03*
X62400000Y115450000D03*
X61550000Y115450000D03*
X60700000Y115450000D03*
X59850000Y115450000D03*
X59000000Y115450000D03*
X58150000Y115450000D03*
X57300000Y115450000D03*
X56450000Y115450000D03*
X55600000Y115450000D03*
X54750000Y115450000D03*
X53900000Y115450000D03*
X53050000Y115450000D03*
X52200000Y115450000D03*
D23*
X56500000Y110100000D03*
D24*
X56500000Y108450000D03*
X56500000Y106800000D03*
X58150000Y110100000D03*
X58150000Y108450000D03*
X58150000Y106800000D03*
X59800000Y110100000D03*
X59800000Y108450000D03*
X59800000Y106800000D03*
D25*
X51150000Y115450000D03*
X51150000Y101450000D03*
X65150000Y101450000D03*
X65150000Y115450000D03*
%TD*%
D21*
%TO.C,U3*%
X51150000Y51670000D03*
X51150000Y50820000D03*
X51150000Y49970000D03*
X51150000Y49120000D03*
X51150000Y48270000D03*
X51150000Y47420000D03*
X51150000Y46570000D03*
X51150000Y45720000D03*
X51150000Y44870000D03*
X51150000Y44020000D03*
X51150000Y43170000D03*
X51150000Y42320000D03*
X51150000Y41470000D03*
X51150000Y40620000D03*
X51150000Y39770000D03*
D22*
X52200000Y38720000D03*
X53050000Y38720000D03*
X53900000Y38720000D03*
X54750000Y38720000D03*
X55600000Y38720000D03*
X56450000Y38720000D03*
X57300000Y38720000D03*
X58150000Y38720000D03*
X59000000Y38720000D03*
X59850000Y38720000D03*
X60700000Y38720000D03*
X61550000Y38720000D03*
X62400000Y38720000D03*
X63250000Y38720000D03*
X64100000Y38720000D03*
D21*
X65150000Y39770000D03*
X65150000Y40620000D03*
X65150000Y41470000D03*
X65150000Y42320000D03*
X65150000Y43170000D03*
X65150000Y44020000D03*
X65150000Y44870000D03*
X65150000Y45720000D03*
X65150000Y46570000D03*
X65150000Y47420000D03*
X65150000Y48270000D03*
X65150000Y49120000D03*
X65150000Y49970000D03*
X65150000Y50820000D03*
X65150000Y51670000D03*
D22*
X64100000Y52720000D03*
X63250000Y52720000D03*
X62400000Y52720000D03*
X61550000Y52720000D03*
X60700000Y52720000D03*
X59850000Y52720000D03*
X59000000Y52720000D03*
X58150000Y52720000D03*
X57300000Y52720000D03*
X56450000Y52720000D03*
X55600000Y52720000D03*
X54750000Y52720000D03*
X53900000Y52720000D03*
X53050000Y52720000D03*
X52200000Y52720000D03*
D23*
X56500000Y47370000D03*
D24*
X56500000Y45720000D03*
X56500000Y44070000D03*
X58150000Y47370000D03*
X58150000Y45720000D03*
X58150000Y44070000D03*
X59800000Y47370000D03*
X59800000Y45720000D03*
X59800000Y44070000D03*
D25*
X51150000Y52720000D03*
X51150000Y38720000D03*
X65150000Y38720000D03*
X65150000Y52720000D03*
%TD*%
D21*
%TO.C,U3*%
X27790000Y177130000D03*
X27790000Y176280000D03*
X27790000Y175430000D03*
X27790000Y174580000D03*
X27790000Y173730000D03*
X27790000Y172880000D03*
X27790000Y172030000D03*
X27790000Y171180000D03*
X27790000Y170330000D03*
X27790000Y169480000D03*
X27790000Y168630000D03*
X27790000Y167780000D03*
X27790000Y166930000D03*
X27790000Y166080000D03*
X27790000Y165230000D03*
D22*
X28840000Y164180000D03*
X29690000Y164180000D03*
X30540000Y164180000D03*
X31390000Y164180000D03*
X32240000Y164180000D03*
X33090000Y164180000D03*
X33940000Y164180000D03*
X34790000Y164180000D03*
X35640000Y164180000D03*
X36490000Y164180000D03*
X37340000Y164180000D03*
X38190000Y164180000D03*
X39040000Y164180000D03*
X39890000Y164180000D03*
X40740000Y164180000D03*
D21*
X41790000Y165230000D03*
X41790000Y166080000D03*
X41790000Y166930000D03*
X41790000Y167780000D03*
X41790000Y168630000D03*
X41790000Y169480000D03*
X41790000Y170330000D03*
X41790000Y171180000D03*
X41790000Y172030000D03*
X41790000Y172880000D03*
X41790000Y173730000D03*
X41790000Y174580000D03*
X41790000Y175430000D03*
X41790000Y176280000D03*
X41790000Y177130000D03*
D22*
X40740000Y178180000D03*
X39890000Y178180000D03*
X39040000Y178180000D03*
X38190000Y178180000D03*
X37340000Y178180000D03*
X36490000Y178180000D03*
X35640000Y178180000D03*
X34790000Y178180000D03*
X33940000Y178180000D03*
X33090000Y178180000D03*
X32240000Y178180000D03*
X31390000Y178180000D03*
X30540000Y178180000D03*
X29690000Y178180000D03*
X28840000Y178180000D03*
D23*
X33140000Y172830000D03*
D24*
X33140000Y171180000D03*
X33140000Y169530000D03*
X34790000Y172830000D03*
X34790000Y171180000D03*
X34790000Y169530000D03*
X36440000Y172830000D03*
X36440000Y171180000D03*
X36440000Y169530000D03*
D25*
X27790000Y178180000D03*
X27790000Y164180000D03*
X41790000Y164180000D03*
X41790000Y178180000D03*
%TD*%
D21*
%TO.C,U3*%
X27790000Y114400000D03*
X27790000Y113550000D03*
X27790000Y112700000D03*
X27790000Y111850000D03*
X27790000Y111000000D03*
X27790000Y110150000D03*
X27790000Y109300000D03*
X27790000Y108450000D03*
X27790000Y107600000D03*
X27790000Y106750000D03*
X27790000Y105900000D03*
X27790000Y105050000D03*
X27790000Y104200000D03*
X27790000Y103350000D03*
X27790000Y102500000D03*
D22*
X28840000Y101450000D03*
X29690000Y101450000D03*
X30540000Y101450000D03*
X31390000Y101450000D03*
X32240000Y101450000D03*
X33090000Y101450000D03*
X33940000Y101450000D03*
X34790000Y101450000D03*
X35640000Y101450000D03*
X36490000Y101450000D03*
X37340000Y101450000D03*
X38190000Y101450000D03*
X39040000Y101450000D03*
X39890000Y101450000D03*
X40740000Y101450000D03*
D21*
X41790000Y102500000D03*
X41790000Y103350000D03*
X41790000Y104200000D03*
X41790000Y105050000D03*
X41790000Y105900000D03*
X41790000Y106750000D03*
X41790000Y107600000D03*
X41790000Y108450000D03*
X41790000Y109300000D03*
X41790000Y110150000D03*
X41790000Y111000000D03*
X41790000Y111850000D03*
X41790000Y112700000D03*
X41790000Y113550000D03*
X41790000Y114400000D03*
D22*
X40740000Y115450000D03*
X39890000Y115450000D03*
X39040000Y115450000D03*
X38190000Y115450000D03*
X37340000Y115450000D03*
X36490000Y115450000D03*
X35640000Y115450000D03*
X34790000Y115450000D03*
X33940000Y115450000D03*
X33090000Y115450000D03*
X32240000Y115450000D03*
X31390000Y115450000D03*
X30540000Y115450000D03*
X29690000Y115450000D03*
X28840000Y115450000D03*
D23*
X33140000Y110100000D03*
D24*
X33140000Y108450000D03*
X33140000Y106800000D03*
X34790000Y110100000D03*
X34790000Y108450000D03*
X34790000Y106800000D03*
X36440000Y110100000D03*
X36440000Y108450000D03*
X36440000Y106800000D03*
D25*
X27790000Y115450000D03*
X27790000Y101450000D03*
X41790000Y101450000D03*
X41790000Y115450000D03*
%TD*%
D21*
%TO.C,U3*%
X27790000Y51670000D03*
X27790000Y50820000D03*
X27790000Y49970000D03*
X27790000Y49120000D03*
X27790000Y48270000D03*
X27790000Y47420000D03*
X27790000Y46570000D03*
X27790000Y45720000D03*
X27790000Y44870000D03*
X27790000Y44020000D03*
X27790000Y43170000D03*
X27790000Y42320000D03*
X27790000Y41470000D03*
X27790000Y40620000D03*
X27790000Y39770000D03*
D22*
X28840000Y38720000D03*
X29690000Y38720000D03*
X30540000Y38720000D03*
X31390000Y38720000D03*
X32240000Y38720000D03*
X33090000Y38720000D03*
X33940000Y38720000D03*
X34790000Y38720000D03*
X35640000Y38720000D03*
X36490000Y38720000D03*
X37340000Y38720000D03*
X38190000Y38720000D03*
X39040000Y38720000D03*
X39890000Y38720000D03*
X40740000Y38720000D03*
D21*
X41790000Y39770000D03*
X41790000Y40620000D03*
X41790000Y41470000D03*
X41790000Y42320000D03*
X41790000Y43170000D03*
X41790000Y44020000D03*
X41790000Y44870000D03*
X41790000Y45720000D03*
X41790000Y46570000D03*
X41790000Y47420000D03*
X41790000Y48270000D03*
X41790000Y49120000D03*
X41790000Y49970000D03*
X41790000Y50820000D03*
X41790000Y51670000D03*
D22*
X40740000Y52720000D03*
X39890000Y52720000D03*
X39040000Y52720000D03*
X38190000Y52720000D03*
X37340000Y52720000D03*
X36490000Y52720000D03*
X35640000Y52720000D03*
X34790000Y52720000D03*
X33940000Y52720000D03*
X33090000Y52720000D03*
X32240000Y52720000D03*
X31390000Y52720000D03*
X30540000Y52720000D03*
X29690000Y52720000D03*
X28840000Y52720000D03*
D23*
X33140000Y47370000D03*
D24*
X33140000Y45720000D03*
X33140000Y44070000D03*
X34790000Y47370000D03*
X34790000Y45720000D03*
X34790000Y44070000D03*
X36440000Y47370000D03*
X36440000Y45720000D03*
X36440000Y44070000D03*
D25*
X27790000Y52720000D03*
X27790000Y38720000D03*
X41790000Y38720000D03*
X41790000Y52720000D03*
%TD*%
D21*
%TO.C,U3*%
X4430000Y177130000D03*
X4430000Y176280000D03*
X4430000Y175430000D03*
X4430000Y174580000D03*
X4430000Y173730000D03*
X4430000Y172880000D03*
X4430000Y172030000D03*
X4430000Y171180000D03*
X4430000Y170330000D03*
X4430000Y169480000D03*
X4430000Y168630000D03*
X4430000Y167780000D03*
X4430000Y166930000D03*
X4430000Y166080000D03*
X4430000Y165230000D03*
D22*
X5480000Y164180000D03*
X6330000Y164180000D03*
X7180000Y164180000D03*
X8030000Y164180000D03*
X8880000Y164180000D03*
X9730000Y164180000D03*
X10580000Y164180000D03*
X11430000Y164180000D03*
X12280000Y164180000D03*
X13130000Y164180000D03*
X13980000Y164180000D03*
X14830000Y164180000D03*
X15680000Y164180000D03*
X16530000Y164180000D03*
X17380000Y164180000D03*
D21*
X18430000Y165230000D03*
X18430000Y166080000D03*
X18430000Y166930000D03*
X18430000Y167780000D03*
X18430000Y168630000D03*
X18430000Y169480000D03*
X18430000Y170330000D03*
X18430000Y171180000D03*
X18430000Y172030000D03*
X18430000Y172880000D03*
X18430000Y173730000D03*
X18430000Y174580000D03*
X18430000Y175430000D03*
X18430000Y176280000D03*
X18430000Y177130000D03*
D22*
X17380000Y178180000D03*
X16530000Y178180000D03*
X15680000Y178180000D03*
X14830000Y178180000D03*
X13980000Y178180000D03*
X13130000Y178180000D03*
X12280000Y178180000D03*
X11430000Y178180000D03*
X10580000Y178180000D03*
X9730000Y178180000D03*
X8880000Y178180000D03*
X8030000Y178180000D03*
X7180000Y178180000D03*
X6330000Y178180000D03*
X5480000Y178180000D03*
D23*
X9780000Y172830000D03*
D24*
X9780000Y171180000D03*
X9780000Y169530000D03*
X11430000Y172830000D03*
X11430000Y171180000D03*
X11430000Y169530000D03*
X13080000Y172830000D03*
X13080000Y171180000D03*
X13080000Y169530000D03*
D25*
X4430000Y178180000D03*
X4430000Y164180000D03*
X18430000Y164180000D03*
X18430000Y178180000D03*
%TD*%
D21*
%TO.C,U3*%
X4430000Y114400000D03*
X4430000Y113550000D03*
X4430000Y112700000D03*
X4430000Y111850000D03*
X4430000Y111000000D03*
X4430000Y110150000D03*
X4430000Y109300000D03*
X4430000Y108450000D03*
X4430000Y107600000D03*
X4430000Y106750000D03*
X4430000Y105900000D03*
X4430000Y105050000D03*
X4430000Y104200000D03*
X4430000Y103350000D03*
X4430000Y102500000D03*
D22*
X5480000Y101450000D03*
X6330000Y101450000D03*
X7180000Y101450000D03*
X8030000Y101450000D03*
X8880000Y101450000D03*
X9730000Y101450000D03*
X10580000Y101450000D03*
X11430000Y101450000D03*
X12280000Y101450000D03*
X13130000Y101450000D03*
X13980000Y101450000D03*
X14830000Y101450000D03*
X15680000Y101450000D03*
X16530000Y101450000D03*
X17380000Y101450000D03*
D21*
X18430000Y102500000D03*
X18430000Y103350000D03*
X18430000Y104200000D03*
X18430000Y105050000D03*
X18430000Y105900000D03*
X18430000Y106750000D03*
X18430000Y107600000D03*
X18430000Y108450000D03*
X18430000Y109300000D03*
X18430000Y110150000D03*
X18430000Y111000000D03*
X18430000Y111850000D03*
X18430000Y112700000D03*
X18430000Y113550000D03*
X18430000Y114400000D03*
D22*
X17380000Y115450000D03*
X16530000Y115450000D03*
X15680000Y115450000D03*
X14830000Y115450000D03*
X13980000Y115450000D03*
X13130000Y115450000D03*
X12280000Y115450000D03*
X11430000Y115450000D03*
X10580000Y115450000D03*
X9730000Y115450000D03*
X8880000Y115450000D03*
X8030000Y115450000D03*
X7180000Y115450000D03*
X6330000Y115450000D03*
X5480000Y115450000D03*
D23*
X9780000Y110100000D03*
D24*
X9780000Y108450000D03*
X9780000Y106800000D03*
X11430000Y110100000D03*
X11430000Y108450000D03*
X11430000Y106800000D03*
X13080000Y110100000D03*
X13080000Y108450000D03*
X13080000Y106800000D03*
D25*
X4430000Y115450000D03*
X4430000Y101450000D03*
X18430000Y101450000D03*
X18430000Y115450000D03*
%TD*%
D18*
%TO.C,C10*%
X75315000Y153400000D03*
X76275000Y153400000D03*
%TD*%
%TO.C,C10*%
X75315000Y90670000D03*
X76275000Y90670000D03*
%TD*%
%TO.C,C10*%
X75315000Y27940000D03*
X76275000Y27940000D03*
%TD*%
%TO.C,C10*%
X51955000Y153400000D03*
X52915000Y153400000D03*
%TD*%
%TO.C,C10*%
X51955000Y90670000D03*
X52915000Y90670000D03*
%TD*%
%TO.C,C10*%
X51955000Y27940000D03*
X52915000Y27940000D03*
%TD*%
%TO.C,C10*%
X28595000Y153400000D03*
X29555000Y153400000D03*
%TD*%
%TO.C,C10*%
X28595000Y90670000D03*
X29555000Y90670000D03*
%TD*%
%TO.C,C10*%
X28595000Y27940000D03*
X29555000Y27940000D03*
%TD*%
%TO.C,C10*%
X5235000Y153400000D03*
X6195000Y153400000D03*
%TD*%
%TO.C,C10*%
X5235000Y90670000D03*
X6195000Y90670000D03*
%TD*%
D26*
%TO.C,U10*%
X71350000Y177530000D03*
X71350000Y174990000D03*
X71350000Y172450000D03*
X71350000Y169910000D03*
X71350000Y167370000D03*
X71350000Y164830000D03*
X71350000Y162290000D03*
X71350000Y159750000D03*
X71350000Y157210000D03*
X71350000Y154670000D03*
X71350000Y152130000D03*
X71350000Y149590000D03*
X91670000Y177530000D03*
X91670000Y174990000D03*
X91670000Y172450000D03*
X91670000Y169910000D03*
X91670000Y167370000D03*
X91670000Y164830000D03*
X91670000Y162290000D03*
X91670000Y159750000D03*
X91670000Y157210000D03*
X91670000Y154670000D03*
X91670000Y152130000D03*
X91670000Y149590000D03*
X91670000Y147050000D03*
X91670000Y144510000D03*
X91670000Y141970000D03*
X91670000Y139430000D03*
%TD*%
%TO.C,U10*%
X71350000Y114800000D03*
X71350000Y112260000D03*
X71350000Y109720000D03*
X71350000Y107180000D03*
X71350000Y104640000D03*
X71350000Y102100000D03*
X71350000Y99560000D03*
X71350000Y97020000D03*
X71350000Y94480000D03*
X71350000Y91940000D03*
X71350000Y89400000D03*
X71350000Y86860000D03*
X91670000Y114800000D03*
X91670000Y112260000D03*
X91670000Y109720000D03*
X91670000Y107180000D03*
X91670000Y104640000D03*
X91670000Y102100000D03*
X91670000Y99560000D03*
X91670000Y97020000D03*
X91670000Y94480000D03*
X91670000Y91940000D03*
X91670000Y89400000D03*
X91670000Y86860000D03*
X91670000Y84320000D03*
X91670000Y81780000D03*
X91670000Y79240000D03*
X91670000Y76700000D03*
%TD*%
%TO.C,U10*%
X71350000Y52070000D03*
X71350000Y49530000D03*
X71350000Y46990000D03*
X71350000Y44450000D03*
X71350000Y41910000D03*
X71350000Y39370000D03*
X71350000Y36830000D03*
X71350000Y34290000D03*
X71350000Y31750000D03*
X71350000Y29210000D03*
X71350000Y26670000D03*
X71350000Y24130000D03*
X91670000Y52070000D03*
X91670000Y49530000D03*
X91670000Y46990000D03*
X91670000Y44450000D03*
X91670000Y41910000D03*
X91670000Y39370000D03*
X91670000Y36830000D03*
X91670000Y34290000D03*
X91670000Y31750000D03*
X91670000Y29210000D03*
X91670000Y26670000D03*
X91670000Y24130000D03*
X91670000Y21590000D03*
X91670000Y19050000D03*
X91670000Y16510000D03*
X91670000Y13970000D03*
%TD*%
%TO.C,U10*%
X47990000Y177530000D03*
X47990000Y174990000D03*
X47990000Y172450000D03*
X47990000Y169910000D03*
X47990000Y167370000D03*
X47990000Y164830000D03*
X47990000Y162290000D03*
X47990000Y159750000D03*
X47990000Y157210000D03*
X47990000Y154670000D03*
X47990000Y152130000D03*
X47990000Y149590000D03*
X68310000Y177530000D03*
X68310000Y174990000D03*
X68310000Y172450000D03*
X68310000Y169910000D03*
X68310000Y167370000D03*
X68310000Y164830000D03*
X68310000Y162290000D03*
X68310000Y159750000D03*
X68310000Y157210000D03*
X68310000Y154670000D03*
X68310000Y152130000D03*
X68310000Y149590000D03*
X68310000Y147050000D03*
X68310000Y144510000D03*
X68310000Y141970000D03*
X68310000Y139430000D03*
%TD*%
%TO.C,U10*%
X47990000Y114800000D03*
X47990000Y112260000D03*
X47990000Y109720000D03*
X47990000Y107180000D03*
X47990000Y104640000D03*
X47990000Y102100000D03*
X47990000Y99560000D03*
X47990000Y97020000D03*
X47990000Y94480000D03*
X47990000Y91940000D03*
X47990000Y89400000D03*
X47990000Y86860000D03*
X68310000Y114800000D03*
X68310000Y112260000D03*
X68310000Y109720000D03*
X68310000Y107180000D03*
X68310000Y104640000D03*
X68310000Y102100000D03*
X68310000Y99560000D03*
X68310000Y97020000D03*
X68310000Y94480000D03*
X68310000Y91940000D03*
X68310000Y89400000D03*
X68310000Y86860000D03*
X68310000Y84320000D03*
X68310000Y81780000D03*
X68310000Y79240000D03*
X68310000Y76700000D03*
%TD*%
%TO.C,U10*%
X47990000Y52070000D03*
X47990000Y49530000D03*
X47990000Y46990000D03*
X47990000Y44450000D03*
X47990000Y41910000D03*
X47990000Y39370000D03*
X47990000Y36830000D03*
X47990000Y34290000D03*
X47990000Y31750000D03*
X47990000Y29210000D03*
X47990000Y26670000D03*
X47990000Y24130000D03*
X68310000Y52070000D03*
X68310000Y49530000D03*
X68310000Y46990000D03*
X68310000Y44450000D03*
X68310000Y41910000D03*
X68310000Y39370000D03*
X68310000Y36830000D03*
X68310000Y34290000D03*
X68310000Y31750000D03*
X68310000Y29210000D03*
X68310000Y26670000D03*
X68310000Y24130000D03*
X68310000Y21590000D03*
X68310000Y19050000D03*
X68310000Y16510000D03*
X68310000Y13970000D03*
%TD*%
%TO.C,U10*%
X24630000Y177530000D03*
X24630000Y174990000D03*
X24630000Y172450000D03*
X24630000Y169910000D03*
X24630000Y167370000D03*
X24630000Y164830000D03*
X24630000Y162290000D03*
X24630000Y159750000D03*
X24630000Y157210000D03*
X24630000Y154670000D03*
X24630000Y152130000D03*
X24630000Y149590000D03*
X44950000Y177530000D03*
X44950000Y174990000D03*
X44950000Y172450000D03*
X44950000Y169910000D03*
X44950000Y167370000D03*
X44950000Y164830000D03*
X44950000Y162290000D03*
X44950000Y159750000D03*
X44950000Y157210000D03*
X44950000Y154670000D03*
X44950000Y152130000D03*
X44950000Y149590000D03*
X44950000Y147050000D03*
X44950000Y144510000D03*
X44950000Y141970000D03*
X44950000Y139430000D03*
%TD*%
%TO.C,U10*%
X24630000Y114800000D03*
X24630000Y112260000D03*
X24630000Y109720000D03*
X24630000Y107180000D03*
X24630000Y104640000D03*
X24630000Y102100000D03*
X24630000Y99560000D03*
X24630000Y97020000D03*
X24630000Y94480000D03*
X24630000Y91940000D03*
X24630000Y89400000D03*
X24630000Y86860000D03*
X44950000Y114800000D03*
X44950000Y112260000D03*
X44950000Y109720000D03*
X44950000Y107180000D03*
X44950000Y104640000D03*
X44950000Y102100000D03*
X44950000Y99560000D03*
X44950000Y97020000D03*
X44950000Y94480000D03*
X44950000Y91940000D03*
X44950000Y89400000D03*
X44950000Y86860000D03*
X44950000Y84320000D03*
X44950000Y81780000D03*
X44950000Y79240000D03*
X44950000Y76700000D03*
%TD*%
%TO.C,U10*%
X24630000Y52070000D03*
X24630000Y49530000D03*
X24630000Y46990000D03*
X24630000Y44450000D03*
X24630000Y41910000D03*
X24630000Y39370000D03*
X24630000Y36830000D03*
X24630000Y34290000D03*
X24630000Y31750000D03*
X24630000Y29210000D03*
X24630000Y26670000D03*
X24630000Y24130000D03*
X44950000Y52070000D03*
X44950000Y49530000D03*
X44950000Y46990000D03*
X44950000Y44450000D03*
X44950000Y41910000D03*
X44950000Y39370000D03*
X44950000Y36830000D03*
X44950000Y34290000D03*
X44950000Y31750000D03*
X44950000Y29210000D03*
X44950000Y26670000D03*
X44950000Y24130000D03*
X44950000Y21590000D03*
X44950000Y19050000D03*
X44950000Y16510000D03*
X44950000Y13970000D03*
%TD*%
%TO.C,U10*%
X1270000Y177530000D03*
X1270000Y174990000D03*
X1270000Y172450000D03*
X1270000Y169910000D03*
X1270000Y167370000D03*
X1270000Y164830000D03*
X1270000Y162290000D03*
X1270000Y159750000D03*
X1270000Y157210000D03*
X1270000Y154670000D03*
X1270000Y152130000D03*
X1270000Y149590000D03*
X21590000Y177530000D03*
X21590000Y174990000D03*
X21590000Y172450000D03*
X21590000Y169910000D03*
X21590000Y167370000D03*
X21590000Y164830000D03*
X21590000Y162290000D03*
X21590000Y159750000D03*
X21590000Y157210000D03*
X21590000Y154670000D03*
X21590000Y152130000D03*
X21590000Y149590000D03*
X21590000Y147050000D03*
X21590000Y144510000D03*
X21590000Y141970000D03*
X21590000Y139430000D03*
%TD*%
%TO.C,U10*%
X1270000Y114800000D03*
X1270000Y112260000D03*
X1270000Y109720000D03*
X1270000Y107180000D03*
X1270000Y104640000D03*
X1270000Y102100000D03*
X1270000Y99560000D03*
X1270000Y97020000D03*
X1270000Y94480000D03*
X1270000Y91940000D03*
X1270000Y89400000D03*
X1270000Y86860000D03*
X21590000Y114800000D03*
X21590000Y112260000D03*
X21590000Y109720000D03*
X21590000Y107180000D03*
X21590000Y104640000D03*
X21590000Y102100000D03*
X21590000Y99560000D03*
X21590000Y97020000D03*
X21590000Y94480000D03*
X21590000Y91940000D03*
X21590000Y89400000D03*
X21590000Y86860000D03*
X21590000Y84320000D03*
X21590000Y81780000D03*
X21590000Y79240000D03*
X21590000Y76700000D03*
%TD*%
D27*
%TO.C,R10*%
X87225000Y130732500D03*
X87225000Y129712500D03*
%TD*%
%TO.C,R10*%
X87225000Y68002500D03*
X87225000Y66982500D03*
%TD*%
%TO.C,R10*%
X87225000Y5272500D03*
X87225000Y4252500D03*
%TD*%
%TO.C,R10*%
X63865000Y130732500D03*
X63865000Y129712500D03*
%TD*%
%TO.C,R10*%
X63865000Y68002500D03*
X63865000Y66982500D03*
%TD*%
%TO.C,R10*%
X63865000Y5272500D03*
X63865000Y4252500D03*
%TD*%
%TO.C,R10*%
X40505000Y130732500D03*
X40505000Y129712500D03*
%TD*%
%TO.C,R10*%
X40505000Y68002500D03*
X40505000Y66982500D03*
%TD*%
%TO.C,R10*%
X40505000Y5272500D03*
X40505000Y4252500D03*
%TD*%
%TO.C,R10*%
X17145000Y130732500D03*
X17145000Y129712500D03*
%TD*%
%TO.C,R10*%
X17145000Y68002500D03*
X17145000Y66982500D03*
%TD*%
D28*
%TO.C,U6*%
X74494900Y152127500D03*
X74494900Y151177500D03*
X74494900Y150227500D03*
X77095100Y150227500D03*
X77095100Y152127500D03*
%TD*%
%TO.C,U6*%
X74494900Y89397500D03*
X74494900Y88447500D03*
X74494900Y87497500D03*
X77095100Y87497500D03*
X77095100Y89397500D03*
%TD*%
%TO.C,U6*%
X74494900Y26667500D03*
X74494900Y25717500D03*
X74494900Y24767500D03*
X77095100Y24767500D03*
X77095100Y26667500D03*
%TD*%
%TO.C,U6*%
X51134900Y152127500D03*
X51134900Y151177500D03*
X51134900Y150227500D03*
X53735100Y150227500D03*
X53735100Y152127500D03*
%TD*%
%TO.C,U6*%
X51134900Y89397500D03*
X51134900Y88447500D03*
X51134900Y87497500D03*
X53735100Y87497500D03*
X53735100Y89397500D03*
%TD*%
%TO.C,U6*%
X51134900Y26667500D03*
X51134900Y25717500D03*
X51134900Y24767500D03*
X53735100Y24767500D03*
X53735100Y26667500D03*
%TD*%
%TO.C,U6*%
X27774900Y152127500D03*
X27774900Y151177500D03*
X27774900Y150227500D03*
X30375100Y150227500D03*
X30375100Y152127500D03*
%TD*%
%TO.C,U6*%
X27774900Y89397500D03*
X27774900Y88447500D03*
X27774900Y87497500D03*
X30375100Y87497500D03*
X30375100Y89397500D03*
%TD*%
%TO.C,U6*%
X27774900Y26667500D03*
X27774900Y25717500D03*
X27774900Y24767500D03*
X30375100Y24767500D03*
X30375100Y26667500D03*
%TD*%
%TO.C,U6*%
X4414900Y152127500D03*
X4414900Y151177500D03*
X4414900Y150227500D03*
X7015100Y150227500D03*
X7015100Y152127500D03*
%TD*%
%TO.C,U6*%
X4414900Y89397500D03*
X4414900Y88447500D03*
X4414900Y87497500D03*
X7015100Y87497500D03*
X7015100Y89397500D03*
%TD*%
D29*
%TO.C,J4*%
X75160000Y136485000D03*
X75160000Y135485000D03*
X75160000Y134485000D03*
X75160000Y133485000D03*
D30*
X71485000Y132185000D03*
X71485000Y137785000D03*
%TD*%
D29*
%TO.C,J4*%
X75160000Y73755000D03*
X75160000Y72755000D03*
X75160000Y71755000D03*
X75160000Y70755000D03*
D30*
X71485000Y69455000D03*
X71485000Y75055000D03*
%TD*%
D29*
%TO.C,J4*%
X75160000Y11025000D03*
X75160000Y10025000D03*
X75160000Y9025000D03*
X75160000Y8025000D03*
D30*
X71485000Y6725000D03*
X71485000Y12325000D03*
%TD*%
D29*
%TO.C,J4*%
X51800000Y136485000D03*
X51800000Y135485000D03*
X51800000Y134485000D03*
X51800000Y133485000D03*
D30*
X48125000Y132185000D03*
X48125000Y137785000D03*
%TD*%
D29*
%TO.C,J4*%
X51800000Y73755000D03*
X51800000Y72755000D03*
X51800000Y71755000D03*
X51800000Y70755000D03*
D30*
X48125000Y69455000D03*
X48125000Y75055000D03*
%TD*%
D29*
%TO.C,J4*%
X51800000Y11025000D03*
X51800000Y10025000D03*
X51800000Y9025000D03*
X51800000Y8025000D03*
D30*
X48125000Y6725000D03*
X48125000Y12325000D03*
%TD*%
D29*
%TO.C,J4*%
X28440000Y136485000D03*
X28440000Y135485000D03*
X28440000Y134485000D03*
X28440000Y133485000D03*
D30*
X24765000Y132185000D03*
X24765000Y137785000D03*
%TD*%
D29*
%TO.C,J4*%
X28440000Y73755000D03*
X28440000Y72755000D03*
X28440000Y71755000D03*
X28440000Y70755000D03*
D30*
X24765000Y69455000D03*
X24765000Y75055000D03*
%TD*%
D29*
%TO.C,J4*%
X28440000Y11025000D03*
X28440000Y10025000D03*
X28440000Y9025000D03*
X28440000Y8025000D03*
D30*
X24765000Y6725000D03*
X24765000Y12325000D03*
%TD*%
D29*
%TO.C,J4*%
X5080000Y136485000D03*
X5080000Y135485000D03*
X5080000Y134485000D03*
X5080000Y133485000D03*
D30*
X1405000Y132185000D03*
X1405000Y137785000D03*
%TD*%
D29*
%TO.C,J4*%
X5080000Y73755000D03*
X5080000Y72755000D03*
X5080000Y71755000D03*
X5080000Y70755000D03*
D30*
X1405000Y69455000D03*
X1405000Y75055000D03*
%TD*%
D31*
%TO.C,SW1*%
X81365000Y146897500D03*
X85465000Y146897500D03*
X81365000Y145297500D03*
X85465000Y145297500D03*
%TD*%
%TO.C,SW1*%
X81365000Y84167500D03*
X85465000Y84167500D03*
X81365000Y82567500D03*
X85465000Y82567500D03*
%TD*%
%TO.C,SW1*%
X81365000Y21437500D03*
X85465000Y21437500D03*
X81365000Y19837500D03*
X85465000Y19837500D03*
%TD*%
%TO.C,SW1*%
X58005000Y146897500D03*
X62105000Y146897500D03*
X58005000Y145297500D03*
X62105000Y145297500D03*
%TD*%
%TO.C,SW1*%
X58005000Y84167500D03*
X62105000Y84167500D03*
X58005000Y82567500D03*
X62105000Y82567500D03*
%TD*%
%TO.C,SW1*%
X58005000Y21437500D03*
X62105000Y21437500D03*
X58005000Y19837500D03*
X62105000Y19837500D03*
%TD*%
%TO.C,SW1*%
X34645000Y146897500D03*
X38745000Y146897500D03*
X34645000Y145297500D03*
X38745000Y145297500D03*
%TD*%
%TO.C,SW1*%
X34645000Y84167500D03*
X38745000Y84167500D03*
X34645000Y82567500D03*
X38745000Y82567500D03*
%TD*%
%TO.C,SW1*%
X34645000Y21437500D03*
X38745000Y21437500D03*
X34645000Y19837500D03*
X38745000Y19837500D03*
%TD*%
%TO.C,SW1*%
X11285000Y146897500D03*
X15385000Y146897500D03*
X11285000Y145297500D03*
X15385000Y145297500D03*
%TD*%
%TO.C,SW1*%
X11285000Y84167500D03*
X15385000Y84167500D03*
X11285000Y82567500D03*
X15385000Y82567500D03*
%TD*%
D17*
%TO.C,C6*%
X87225000Y151657500D03*
X87225000Y150697500D03*
%TD*%
%TO.C,C6*%
X87225000Y88927500D03*
X87225000Y87967500D03*
%TD*%
%TO.C,C6*%
X87225000Y26197500D03*
X87225000Y25237500D03*
%TD*%
%TO.C,C6*%
X63865000Y151657500D03*
X63865000Y150697500D03*
%TD*%
%TO.C,C6*%
X63865000Y88927500D03*
X63865000Y87967500D03*
%TD*%
%TO.C,C6*%
X63865000Y26197500D03*
X63865000Y25237500D03*
%TD*%
%TO.C,C6*%
X40505000Y151657500D03*
X40505000Y150697500D03*
%TD*%
%TO.C,C6*%
X40505000Y88927500D03*
X40505000Y87967500D03*
%TD*%
%TO.C,C6*%
X40505000Y26197500D03*
X40505000Y25237500D03*
%TD*%
%TO.C,C6*%
X17145000Y151657500D03*
X17145000Y150697500D03*
%TD*%
%TO.C,C6*%
X17145000Y88927500D03*
X17145000Y87967500D03*
%TD*%
D32*
%TO.C,R14*%
X80115000Y155940000D03*
X79095000Y155940000D03*
%TD*%
%TO.C,R14*%
X80115000Y93210000D03*
X79095000Y93210000D03*
%TD*%
%TO.C,R14*%
X80115000Y30480000D03*
X79095000Y30480000D03*
%TD*%
%TO.C,R14*%
X56755000Y155940000D03*
X55735000Y155940000D03*
%TD*%
%TO.C,R14*%
X56755000Y93210000D03*
X55735000Y93210000D03*
%TD*%
%TO.C,R14*%
X56755000Y30480000D03*
X55735000Y30480000D03*
%TD*%
%TO.C,R14*%
X33395000Y155940000D03*
X32375000Y155940000D03*
%TD*%
%TO.C,R14*%
X33395000Y93210000D03*
X32375000Y93210000D03*
%TD*%
%TO.C,R14*%
X33395000Y30480000D03*
X32375000Y30480000D03*
%TD*%
%TO.C,R14*%
X10035000Y155940000D03*
X9015000Y155940000D03*
%TD*%
%TO.C,R14*%
X10035000Y93210000D03*
X9015000Y93210000D03*
%TD*%
D17*
%TO.C,C12*%
X88495000Y140545000D03*
X88495000Y139585000D03*
%TD*%
%TO.C,C12*%
X88495000Y77815000D03*
X88495000Y76855000D03*
%TD*%
%TO.C,C12*%
X88495000Y15085000D03*
X88495000Y14125000D03*
%TD*%
%TO.C,C12*%
X65135000Y140545000D03*
X65135000Y139585000D03*
%TD*%
%TO.C,C12*%
X65135000Y77815000D03*
X65135000Y76855000D03*
%TD*%
%TO.C,C12*%
X65135000Y15085000D03*
X65135000Y14125000D03*
%TD*%
%TO.C,C12*%
X41775000Y140545000D03*
X41775000Y139585000D03*
%TD*%
%TO.C,C12*%
X41775000Y77815000D03*
X41775000Y76855000D03*
%TD*%
%TO.C,C12*%
X41775000Y15085000D03*
X41775000Y14125000D03*
%TD*%
%TO.C,C12*%
X18415000Y140545000D03*
X18415000Y139585000D03*
%TD*%
%TO.C,C12*%
X18415000Y77815000D03*
X18415000Y76855000D03*
%TD*%
D14*
%TO.C,C7*%
X72465000Y179435000D03*
X71505000Y179435000D03*
%TD*%
%TO.C,C7*%
X72465000Y116705000D03*
X71505000Y116705000D03*
%TD*%
%TO.C,C7*%
X72465000Y53975000D03*
X71505000Y53975000D03*
%TD*%
%TO.C,C7*%
X49105000Y179435000D03*
X48145000Y179435000D03*
%TD*%
%TO.C,C7*%
X49105000Y116705000D03*
X48145000Y116705000D03*
%TD*%
%TO.C,C7*%
X49105000Y53975000D03*
X48145000Y53975000D03*
%TD*%
%TO.C,C7*%
X25745000Y179435000D03*
X24785000Y179435000D03*
%TD*%
%TO.C,C7*%
X25745000Y116705000D03*
X24785000Y116705000D03*
%TD*%
%TO.C,C7*%
X25745000Y53975000D03*
X24785000Y53975000D03*
%TD*%
%TO.C,C7*%
X2385000Y179435000D03*
X1425000Y179435000D03*
%TD*%
%TO.C,C7*%
X2385000Y116705000D03*
X1425000Y116705000D03*
%TD*%
D33*
%TO.C,D3*%
X74645000Y155940000D03*
X76945000Y155940000D03*
%TD*%
%TO.C,D3*%
X74645000Y93210000D03*
X76945000Y93210000D03*
%TD*%
%TO.C,D3*%
X74645000Y30480000D03*
X76945000Y30480000D03*
%TD*%
%TO.C,D3*%
X51285000Y155940000D03*
X53585000Y155940000D03*
%TD*%
%TO.C,D3*%
X51285000Y93210000D03*
X53585000Y93210000D03*
%TD*%
%TO.C,D3*%
X51285000Y30480000D03*
X53585000Y30480000D03*
%TD*%
%TO.C,D3*%
X27925000Y155940000D03*
X30225000Y155940000D03*
%TD*%
%TO.C,D3*%
X27925000Y93210000D03*
X30225000Y93210000D03*
%TD*%
%TO.C,D3*%
X27925000Y30480000D03*
X30225000Y30480000D03*
%TD*%
%TO.C,D3*%
X4565000Y155940000D03*
X6865000Y155940000D03*
%TD*%
%TO.C,D3*%
X4565000Y93210000D03*
X6865000Y93210000D03*
%TD*%
D32*
%TO.C,R19*%
X78527500Y138795000D03*
X77507500Y138795000D03*
%TD*%
%TO.C,R19*%
X78527500Y76065000D03*
X77507500Y76065000D03*
%TD*%
%TO.C,R19*%
X78527500Y13335000D03*
X77507500Y13335000D03*
%TD*%
%TO.C,R19*%
X55167500Y138795000D03*
X54147500Y138795000D03*
%TD*%
%TO.C,R19*%
X55167500Y76065000D03*
X54147500Y76065000D03*
%TD*%
%TO.C,R19*%
X55167500Y13335000D03*
X54147500Y13335000D03*
%TD*%
%TO.C,R19*%
X31807500Y138795000D03*
X30787500Y138795000D03*
%TD*%
%TO.C,R19*%
X31807500Y76065000D03*
X30787500Y76065000D03*
%TD*%
%TO.C,R19*%
X31807500Y13335000D03*
X30787500Y13335000D03*
%TD*%
%TO.C,R19*%
X8447500Y138795000D03*
X7427500Y138795000D03*
%TD*%
%TO.C,R19*%
X8447500Y76065000D03*
X7427500Y76065000D03*
%TD*%
D19*
%TO.C,U5*%
X86302600Y139115000D03*
X86302600Y140065000D03*
X86302600Y141015000D03*
X83702400Y141015000D03*
X83702400Y139115000D03*
%TD*%
%TO.C,U5*%
X86302600Y76385000D03*
X86302600Y77335000D03*
X86302600Y78285000D03*
X83702400Y78285000D03*
X83702400Y76385000D03*
%TD*%
%TO.C,U5*%
X86302600Y13655000D03*
X86302600Y14605000D03*
X86302600Y15555000D03*
X83702400Y15555000D03*
X83702400Y13655000D03*
%TD*%
%TO.C,U5*%
X62942600Y139115000D03*
X62942600Y140065000D03*
X62942600Y141015000D03*
X60342400Y141015000D03*
X60342400Y139115000D03*
%TD*%
%TO.C,U5*%
X62942600Y76385000D03*
X62942600Y77335000D03*
X62942600Y78285000D03*
X60342400Y78285000D03*
X60342400Y76385000D03*
%TD*%
%TO.C,U5*%
X62942600Y13655000D03*
X62942600Y14605000D03*
X62942600Y15555000D03*
X60342400Y15555000D03*
X60342400Y13655000D03*
%TD*%
%TO.C,U5*%
X39582600Y139115000D03*
X39582600Y140065000D03*
X39582600Y141015000D03*
X36982400Y141015000D03*
X36982400Y139115000D03*
%TD*%
%TO.C,U5*%
X39582600Y76385000D03*
X39582600Y77335000D03*
X39582600Y78285000D03*
X36982400Y78285000D03*
X36982400Y76385000D03*
%TD*%
%TO.C,U5*%
X39582600Y13655000D03*
X39582600Y14605000D03*
X39582600Y15555000D03*
X36982400Y15555000D03*
X36982400Y13655000D03*
%TD*%
%TO.C,U5*%
X16222600Y139115000D03*
X16222600Y140065000D03*
X16222600Y141015000D03*
X13622400Y141015000D03*
X13622400Y139115000D03*
%TD*%
%TO.C,U5*%
X16222600Y76385000D03*
X16222600Y77335000D03*
X16222600Y78285000D03*
X13622400Y78285000D03*
X13622400Y76385000D03*
%TD*%
%TO.C,U2*%
X86302600Y134035000D03*
X86302600Y134985000D03*
X86302600Y135935000D03*
X83702400Y135935000D03*
X83702400Y135035000D03*
X83702400Y134035000D03*
%TD*%
%TO.C,U2*%
X86302600Y71305000D03*
X86302600Y72255000D03*
X86302600Y73205000D03*
X83702400Y73205000D03*
X83702400Y72305000D03*
X83702400Y71305000D03*
%TD*%
%TO.C,U2*%
X86302600Y8575000D03*
X86302600Y9525000D03*
X86302600Y10475000D03*
X83702400Y10475000D03*
X83702400Y9575000D03*
X83702400Y8575000D03*
%TD*%
%TO.C,U2*%
X62942600Y134035000D03*
X62942600Y134985000D03*
X62942600Y135935000D03*
X60342400Y135935000D03*
X60342400Y135035000D03*
X60342400Y134035000D03*
%TD*%
%TO.C,U2*%
X62942600Y71305000D03*
X62942600Y72255000D03*
X62942600Y73205000D03*
X60342400Y73205000D03*
X60342400Y72305000D03*
X60342400Y71305000D03*
%TD*%
%TO.C,U2*%
X62942600Y8575000D03*
X62942600Y9525000D03*
X62942600Y10475000D03*
X60342400Y10475000D03*
X60342400Y9575000D03*
X60342400Y8575000D03*
%TD*%
%TO.C,U2*%
X39582600Y134035000D03*
X39582600Y134985000D03*
X39582600Y135935000D03*
X36982400Y135935000D03*
X36982400Y135035000D03*
X36982400Y134035000D03*
%TD*%
%TO.C,U2*%
X39582600Y71305000D03*
X39582600Y72255000D03*
X39582600Y73205000D03*
X36982400Y73205000D03*
X36982400Y72305000D03*
X36982400Y71305000D03*
%TD*%
%TO.C,U2*%
X39582600Y8575000D03*
X39582600Y9525000D03*
X39582600Y10475000D03*
X36982400Y10475000D03*
X36982400Y9575000D03*
X36982400Y8575000D03*
%TD*%
%TO.C,U2*%
X16222600Y134035000D03*
X16222600Y134985000D03*
X16222600Y135935000D03*
X13622400Y135935000D03*
X13622400Y135035000D03*
X13622400Y134035000D03*
%TD*%
%TO.C,U2*%
X16222600Y71305000D03*
X16222600Y72255000D03*
X16222600Y73205000D03*
X13622400Y73205000D03*
X13622400Y72305000D03*
X13622400Y71305000D03*
%TD*%
D16*
%TO.C,ST1*%
X72620000Y128000000D03*
%TD*%
%TO.C,ST1*%
X72620000Y65270000D03*
%TD*%
%TO.C,ST1*%
X72620000Y2540000D03*
%TD*%
%TO.C,ST1*%
X49260000Y128000000D03*
%TD*%
%TO.C,ST1*%
X49260000Y65270000D03*
%TD*%
%TO.C,ST1*%
X49260000Y2540000D03*
%TD*%
%TO.C,ST1*%
X25900000Y128000000D03*
%TD*%
%TO.C,ST1*%
X25900000Y65270000D03*
%TD*%
%TO.C,ST1*%
X25900000Y2540000D03*
%TD*%
%TO.C,ST1*%
X2540000Y128000000D03*
%TD*%
%TO.C,ST1*%
X2540000Y65270000D03*
%TD*%
D31*
%TO.C,SW2*%
X81365000Y151977500D03*
X85465000Y151977500D03*
X81365000Y150377500D03*
X85465000Y150377500D03*
%TD*%
%TO.C,SW2*%
X81365000Y89247500D03*
X85465000Y89247500D03*
X81365000Y87647500D03*
X85465000Y87647500D03*
%TD*%
%TO.C,SW2*%
X81365000Y26517500D03*
X85465000Y26517500D03*
X81365000Y24917500D03*
X85465000Y24917500D03*
%TD*%
%TO.C,SW2*%
X58005000Y151977500D03*
X62105000Y151977500D03*
X58005000Y150377500D03*
X62105000Y150377500D03*
%TD*%
%TO.C,SW2*%
X58005000Y89247500D03*
X62105000Y89247500D03*
X58005000Y87647500D03*
X62105000Y87647500D03*
%TD*%
%TO.C,SW2*%
X58005000Y26517500D03*
X62105000Y26517500D03*
X58005000Y24917500D03*
X62105000Y24917500D03*
%TD*%
%TO.C,SW2*%
X34645000Y151977500D03*
X38745000Y151977500D03*
X34645000Y150377500D03*
X38745000Y150377500D03*
%TD*%
%TO.C,SW2*%
X34645000Y89247500D03*
X38745000Y89247500D03*
X34645000Y87647500D03*
X38745000Y87647500D03*
%TD*%
%TO.C,SW2*%
X34645000Y26517500D03*
X38745000Y26517500D03*
X34645000Y24917500D03*
X38745000Y24917500D03*
%TD*%
%TO.C,SW2*%
X11285000Y151977500D03*
X15385000Y151977500D03*
X11285000Y150377500D03*
X15385000Y150377500D03*
%TD*%
%TO.C,SW2*%
X11285000Y89247500D03*
X15385000Y89247500D03*
X11285000Y87647500D03*
X15385000Y87647500D03*
%TD*%
D34*
%TO.C,R11*%
X75795000Y129712500D03*
X75795000Y130732500D03*
%TD*%
%TO.C,R11*%
X75795000Y66982500D03*
X75795000Y68002500D03*
%TD*%
%TO.C,R11*%
X75795000Y4252500D03*
X75795000Y5272500D03*
%TD*%
%TO.C,R11*%
X52435000Y129712500D03*
X52435000Y130732500D03*
%TD*%
%TO.C,R11*%
X52435000Y66982500D03*
X52435000Y68002500D03*
%TD*%
%TO.C,R11*%
X52435000Y4252500D03*
X52435000Y5272500D03*
%TD*%
%TO.C,R11*%
X29075000Y129712500D03*
X29075000Y130732500D03*
%TD*%
%TO.C,R11*%
X29075000Y66982500D03*
X29075000Y68002500D03*
%TD*%
%TO.C,R11*%
X29075000Y4252500D03*
X29075000Y5272500D03*
%TD*%
%TO.C,R11*%
X5715000Y129712500D03*
X5715000Y130732500D03*
%TD*%
%TO.C,R11*%
X5715000Y66982500D03*
X5715000Y68002500D03*
%TD*%
D35*
%TO.C,FID4*%
X87225000Y126095000D03*
%TD*%
%TO.C,FID4*%
X87225000Y63365000D03*
%TD*%
%TO.C,FID4*%
X87225000Y635000D03*
%TD*%
%TO.C,FID4*%
X63865000Y126095000D03*
%TD*%
%TO.C,FID4*%
X63865000Y63365000D03*
%TD*%
%TO.C,FID4*%
X63865000Y635000D03*
%TD*%
%TO.C,FID4*%
X40505000Y126095000D03*
%TD*%
%TO.C,FID4*%
X40505000Y63365000D03*
%TD*%
%TO.C,FID4*%
X40505000Y635000D03*
%TD*%
%TO.C,FID4*%
X17145000Y126095000D03*
%TD*%
%TO.C,FID4*%
X17145000Y63365000D03*
%TD*%
D11*
%TO.C,R16*%
X84492500Y137525000D03*
X85512500Y137525000D03*
%TD*%
%TO.C,R16*%
X84492500Y74795000D03*
X85512500Y74795000D03*
%TD*%
%TO.C,R16*%
X84492500Y12065000D03*
X85512500Y12065000D03*
%TD*%
%TO.C,R16*%
X61132500Y137525000D03*
X62152500Y137525000D03*
%TD*%
%TO.C,R16*%
X61132500Y74795000D03*
X62152500Y74795000D03*
%TD*%
%TO.C,R16*%
X61132500Y12065000D03*
X62152500Y12065000D03*
%TD*%
%TO.C,R16*%
X37772500Y137525000D03*
X38792500Y137525000D03*
%TD*%
%TO.C,R16*%
X37772500Y74795000D03*
X38792500Y74795000D03*
%TD*%
%TO.C,R16*%
X37772500Y12065000D03*
X38792500Y12065000D03*
%TD*%
%TO.C,R16*%
X14412500Y137525000D03*
X15432500Y137525000D03*
%TD*%
%TO.C,R16*%
X14412500Y74795000D03*
X15432500Y74795000D03*
%TD*%
%TO.C,R9*%
X79095000Y154035000D03*
X80115000Y154035000D03*
%TD*%
%TO.C,R9*%
X79095000Y91305000D03*
X80115000Y91305000D03*
%TD*%
%TO.C,R9*%
X79095000Y28575000D03*
X80115000Y28575000D03*
%TD*%
%TO.C,R9*%
X55735000Y154035000D03*
X56755000Y154035000D03*
%TD*%
%TO.C,R9*%
X55735000Y91305000D03*
X56755000Y91305000D03*
%TD*%
%TO.C,R9*%
X55735000Y28575000D03*
X56755000Y28575000D03*
%TD*%
%TO.C,R9*%
X32375000Y154035000D03*
X33395000Y154035000D03*
%TD*%
%TO.C,R9*%
X32375000Y91305000D03*
X33395000Y91305000D03*
%TD*%
%TO.C,R9*%
X32375000Y28575000D03*
X33395000Y28575000D03*
%TD*%
%TO.C,R9*%
X9015000Y154035000D03*
X10035000Y154035000D03*
%TD*%
%TO.C,R9*%
X9015000Y91305000D03*
X10035000Y91305000D03*
%TD*%
D33*
%TO.C,D2*%
X74645000Y157845000D03*
X76945000Y157845000D03*
%TD*%
%TO.C,D2*%
X74645000Y95115000D03*
X76945000Y95115000D03*
%TD*%
%TO.C,D2*%
X74645000Y32385000D03*
X76945000Y32385000D03*
%TD*%
%TO.C,D2*%
X51285000Y157845000D03*
X53585000Y157845000D03*
%TD*%
%TO.C,D2*%
X51285000Y95115000D03*
X53585000Y95115000D03*
%TD*%
%TO.C,D2*%
X51285000Y32385000D03*
X53585000Y32385000D03*
%TD*%
%TO.C,D2*%
X27925000Y157845000D03*
X30225000Y157845000D03*
%TD*%
%TO.C,D2*%
X27925000Y95115000D03*
X30225000Y95115000D03*
%TD*%
%TO.C,D2*%
X27925000Y32385000D03*
X30225000Y32385000D03*
%TD*%
%TO.C,D2*%
X4565000Y157845000D03*
X6865000Y157845000D03*
%TD*%
%TO.C,D2*%
X4565000Y95115000D03*
X6865000Y95115000D03*
%TD*%
D36*
%TO.C,D1*%
X88012500Y157845000D03*
X86437500Y157845000D03*
%TD*%
%TO.C,D1*%
X88012500Y95115000D03*
X86437500Y95115000D03*
%TD*%
%TO.C,D1*%
X88012500Y32385000D03*
X86437500Y32385000D03*
%TD*%
%TO.C,D1*%
X64652500Y157845000D03*
X63077500Y157845000D03*
%TD*%
%TO.C,D1*%
X64652500Y95115000D03*
X63077500Y95115000D03*
%TD*%
%TO.C,D1*%
X64652500Y32385000D03*
X63077500Y32385000D03*
%TD*%
%TO.C,D1*%
X41292500Y157845000D03*
X39717500Y157845000D03*
%TD*%
%TO.C,D1*%
X41292500Y95115000D03*
X39717500Y95115000D03*
%TD*%
%TO.C,D1*%
X41292500Y32385000D03*
X39717500Y32385000D03*
%TD*%
%TO.C,D1*%
X17932500Y157845000D03*
X16357500Y157845000D03*
%TD*%
%TO.C,D1*%
X17932500Y95115000D03*
X16357500Y95115000D03*
%TD*%
D17*
%TO.C,C2*%
X91670000Y135465000D03*
X91670000Y134505000D03*
%TD*%
%TO.C,C2*%
X91670000Y72735000D03*
X91670000Y71775000D03*
%TD*%
%TO.C,C2*%
X91670000Y10005000D03*
X91670000Y9045000D03*
%TD*%
%TO.C,C2*%
X68310000Y135465000D03*
X68310000Y134505000D03*
%TD*%
%TO.C,C2*%
X68310000Y72735000D03*
X68310000Y71775000D03*
%TD*%
%TO.C,C2*%
X68310000Y10005000D03*
X68310000Y9045000D03*
%TD*%
%TO.C,C2*%
X44950000Y135465000D03*
X44950000Y134505000D03*
%TD*%
%TO.C,C2*%
X44950000Y72735000D03*
X44950000Y71775000D03*
%TD*%
%TO.C,C2*%
X44950000Y10005000D03*
X44950000Y9045000D03*
%TD*%
%TO.C,C2*%
X21590000Y135465000D03*
X21590000Y134505000D03*
%TD*%
%TO.C,C2*%
X21590000Y72735000D03*
X21590000Y71775000D03*
%TD*%
D32*
%TO.C,R13*%
X76305000Y148955000D03*
X75285000Y148955000D03*
%TD*%
%TO.C,R13*%
X76305000Y86225000D03*
X75285000Y86225000D03*
%TD*%
%TO.C,R13*%
X76305000Y23495000D03*
X75285000Y23495000D03*
%TD*%
%TO.C,R13*%
X52945000Y148955000D03*
X51925000Y148955000D03*
%TD*%
%TO.C,R13*%
X52945000Y86225000D03*
X51925000Y86225000D03*
%TD*%
%TO.C,R13*%
X52945000Y23495000D03*
X51925000Y23495000D03*
%TD*%
%TO.C,R13*%
X29585000Y148955000D03*
X28565000Y148955000D03*
%TD*%
%TO.C,R13*%
X29585000Y86225000D03*
X28565000Y86225000D03*
%TD*%
%TO.C,R13*%
X29585000Y23495000D03*
X28565000Y23495000D03*
%TD*%
%TO.C,R13*%
X6225000Y148955000D03*
X5205000Y148955000D03*
%TD*%
%TO.C,R13*%
X6225000Y86225000D03*
X5205000Y86225000D03*
%TD*%
D36*
%TO.C,D5*%
X88012500Y154035000D03*
X86437500Y154035000D03*
%TD*%
%TO.C,D5*%
X88012500Y91305000D03*
X86437500Y91305000D03*
%TD*%
%TO.C,D5*%
X88012500Y28575000D03*
X86437500Y28575000D03*
%TD*%
%TO.C,D5*%
X64652500Y154035000D03*
X63077500Y154035000D03*
%TD*%
%TO.C,D5*%
X64652500Y91305000D03*
X63077500Y91305000D03*
%TD*%
%TO.C,D5*%
X64652500Y28575000D03*
X63077500Y28575000D03*
%TD*%
%TO.C,D5*%
X41292500Y154035000D03*
X39717500Y154035000D03*
%TD*%
%TO.C,D5*%
X41292500Y91305000D03*
X39717500Y91305000D03*
%TD*%
%TO.C,D5*%
X41292500Y28575000D03*
X39717500Y28575000D03*
%TD*%
%TO.C,D5*%
X17932500Y154035000D03*
X16357500Y154035000D03*
%TD*%
%TO.C,D5*%
X17932500Y91305000D03*
X16357500Y91305000D03*
%TD*%
D37*
%TO.C,C9*%
X81510000Y139290000D03*
X81510000Y140840000D03*
%TD*%
%TO.C,C9*%
X81510000Y76560000D03*
X81510000Y78110000D03*
%TD*%
%TO.C,C9*%
X81510000Y13830000D03*
X81510000Y15380000D03*
%TD*%
%TO.C,C9*%
X58150000Y139290000D03*
X58150000Y140840000D03*
%TD*%
%TO.C,C9*%
X58150000Y76560000D03*
X58150000Y78110000D03*
%TD*%
%TO.C,C9*%
X58150000Y13830000D03*
X58150000Y15380000D03*
%TD*%
%TO.C,C9*%
X34790000Y139290000D03*
X34790000Y140840000D03*
%TD*%
%TO.C,C9*%
X34790000Y76560000D03*
X34790000Y78110000D03*
%TD*%
%TO.C,C9*%
X34790000Y13830000D03*
X34790000Y15380000D03*
%TD*%
%TO.C,C9*%
X11430000Y139290000D03*
X11430000Y140840000D03*
%TD*%
%TO.C,C9*%
X11430000Y76560000D03*
X11430000Y78110000D03*
%TD*%
D27*
%TO.C,R17*%
X79922500Y138670000D03*
X79922500Y137650000D03*
%TD*%
%TO.C,R17*%
X79922500Y75940000D03*
X79922500Y74920000D03*
%TD*%
%TO.C,R17*%
X79922500Y13210000D03*
X79922500Y12190000D03*
%TD*%
%TO.C,R17*%
X56562500Y138670000D03*
X56562500Y137650000D03*
%TD*%
%TO.C,R17*%
X56562500Y75940000D03*
X56562500Y74920000D03*
%TD*%
%TO.C,R17*%
X56562500Y13210000D03*
X56562500Y12190000D03*
%TD*%
%TO.C,R17*%
X33202500Y138670000D03*
X33202500Y137650000D03*
%TD*%
%TO.C,R17*%
X33202500Y75940000D03*
X33202500Y74920000D03*
%TD*%
%TO.C,R17*%
X33202500Y13210000D03*
X33202500Y12190000D03*
%TD*%
%TO.C,R17*%
X9842500Y138670000D03*
X9842500Y137650000D03*
%TD*%
%TO.C,R17*%
X9842500Y75940000D03*
X9842500Y74920000D03*
%TD*%
D32*
%TO.C,R12*%
X78527500Y133080000D03*
X77507500Y133080000D03*
%TD*%
%TO.C,R12*%
X78527500Y70350000D03*
X77507500Y70350000D03*
%TD*%
%TO.C,R12*%
X78527500Y7620000D03*
X77507500Y7620000D03*
%TD*%
%TO.C,R12*%
X55167500Y133080000D03*
X54147500Y133080000D03*
%TD*%
%TO.C,R12*%
X55167500Y70350000D03*
X54147500Y70350000D03*
%TD*%
%TO.C,R12*%
X55167500Y7620000D03*
X54147500Y7620000D03*
%TD*%
%TO.C,R12*%
X31807500Y133080000D03*
X30787500Y133080000D03*
%TD*%
%TO.C,R12*%
X31807500Y70350000D03*
X30787500Y70350000D03*
%TD*%
%TO.C,R12*%
X31807500Y7620000D03*
X30787500Y7620000D03*
%TD*%
%TO.C,R12*%
X8447500Y133080000D03*
X7427500Y133080000D03*
%TD*%
%TO.C,R12*%
X8447500Y70350000D03*
X7427500Y70350000D03*
%TD*%
D38*
%TO.C,J1*%
X78620000Y130361250D03*
X84400000Y130361250D03*
D39*
X80260000Y131466250D03*
X81260000Y131466250D03*
D40*
X81760000Y131466250D03*
X82760000Y131466250D03*
X83260000Y131466250D03*
X82260000Y131466250D03*
D39*
X80760000Y131466250D03*
X79760000Y131466250D03*
D41*
X78285000Y131466250D03*
D42*
X84735000Y131466250D03*
D43*
X77192000Y126711250D03*
D44*
X77192000Y130891250D03*
X85828000Y130891250D03*
D43*
X85828000Y126711250D03*
D41*
X79060000Y131466250D03*
D42*
X83960000Y131466250D03*
%TD*%
D38*
%TO.C,J1*%
X78620000Y67631250D03*
X84400000Y67631250D03*
D39*
X80260000Y68736250D03*
X81260000Y68736250D03*
D40*
X81760000Y68736250D03*
X82760000Y68736250D03*
X83260000Y68736250D03*
X82260000Y68736250D03*
D39*
X80760000Y68736250D03*
X79760000Y68736250D03*
D41*
X78285000Y68736250D03*
D42*
X84735000Y68736250D03*
D43*
X77192000Y63981250D03*
D44*
X77192000Y68161250D03*
X85828000Y68161250D03*
D43*
X85828000Y63981250D03*
D41*
X79060000Y68736250D03*
D42*
X83960000Y68736250D03*
%TD*%
D38*
%TO.C,J1*%
X78620000Y4901250D03*
X84400000Y4901250D03*
D39*
X80260000Y6006250D03*
X81260000Y6006250D03*
D40*
X81760000Y6006250D03*
X82760000Y6006250D03*
X83260000Y6006250D03*
X82260000Y6006250D03*
D39*
X80760000Y6006250D03*
X79760000Y6006250D03*
D41*
X78285000Y6006250D03*
D42*
X84735000Y6006250D03*
D43*
X77192000Y1251250D03*
D44*
X77192000Y5431250D03*
X85828000Y5431250D03*
D43*
X85828000Y1251250D03*
D41*
X79060000Y6006250D03*
D42*
X83960000Y6006250D03*
%TD*%
D38*
%TO.C,J1*%
X55260000Y130361250D03*
X61040000Y130361250D03*
D39*
X56900000Y131466250D03*
X57900000Y131466250D03*
D40*
X58400000Y131466250D03*
X59400000Y131466250D03*
X59900000Y131466250D03*
X58900000Y131466250D03*
D39*
X57400000Y131466250D03*
X56400000Y131466250D03*
D41*
X54925000Y131466250D03*
D42*
X61375000Y131466250D03*
D43*
X53832000Y126711250D03*
D44*
X53832000Y130891250D03*
X62468000Y130891250D03*
D43*
X62468000Y126711250D03*
D41*
X55700000Y131466250D03*
D42*
X60600000Y131466250D03*
%TD*%
D38*
%TO.C,J1*%
X55260000Y67631250D03*
X61040000Y67631250D03*
D39*
X56900000Y68736250D03*
X57900000Y68736250D03*
D40*
X58400000Y68736250D03*
X59400000Y68736250D03*
X59900000Y68736250D03*
X58900000Y68736250D03*
D39*
X57400000Y68736250D03*
X56400000Y68736250D03*
D41*
X54925000Y68736250D03*
D42*
X61375000Y68736250D03*
D43*
X53832000Y63981250D03*
D44*
X53832000Y68161250D03*
X62468000Y68161250D03*
D43*
X62468000Y63981250D03*
D41*
X55700000Y68736250D03*
D42*
X60600000Y68736250D03*
%TD*%
D38*
%TO.C,J1*%
X55260000Y4901250D03*
X61040000Y4901250D03*
D39*
X56900000Y6006250D03*
X57900000Y6006250D03*
D40*
X58400000Y6006250D03*
X59400000Y6006250D03*
X59900000Y6006250D03*
X58900000Y6006250D03*
D39*
X57400000Y6006250D03*
X56400000Y6006250D03*
D41*
X54925000Y6006250D03*
D42*
X61375000Y6006250D03*
D43*
X53832000Y1251250D03*
D44*
X53832000Y5431250D03*
X62468000Y5431250D03*
D43*
X62468000Y1251250D03*
D41*
X55700000Y6006250D03*
D42*
X60600000Y6006250D03*
%TD*%
D38*
%TO.C,J1*%
X31900000Y130361250D03*
X37680000Y130361250D03*
D39*
X33540000Y131466250D03*
X34540000Y131466250D03*
D40*
X35040000Y131466250D03*
X36040000Y131466250D03*
X36540000Y131466250D03*
X35540000Y131466250D03*
D39*
X34040000Y131466250D03*
X33040000Y131466250D03*
D41*
X31565000Y131466250D03*
D42*
X38015000Y131466250D03*
D43*
X30472000Y126711250D03*
D44*
X30472000Y130891250D03*
X39108000Y130891250D03*
D43*
X39108000Y126711250D03*
D41*
X32340000Y131466250D03*
D42*
X37240000Y131466250D03*
%TD*%
D38*
%TO.C,J1*%
X31900000Y67631250D03*
X37680000Y67631250D03*
D39*
X33540000Y68736250D03*
X34540000Y68736250D03*
D40*
X35040000Y68736250D03*
X36040000Y68736250D03*
X36540000Y68736250D03*
X35540000Y68736250D03*
D39*
X34040000Y68736250D03*
X33040000Y68736250D03*
D41*
X31565000Y68736250D03*
D42*
X38015000Y68736250D03*
D43*
X30472000Y63981250D03*
D44*
X30472000Y68161250D03*
X39108000Y68161250D03*
D43*
X39108000Y63981250D03*
D41*
X32340000Y68736250D03*
D42*
X37240000Y68736250D03*
%TD*%
D38*
%TO.C,J1*%
X31900000Y4901250D03*
X37680000Y4901250D03*
D39*
X33540000Y6006250D03*
X34540000Y6006250D03*
D40*
X35040000Y6006250D03*
X36040000Y6006250D03*
X36540000Y6006250D03*
X35540000Y6006250D03*
D39*
X34040000Y6006250D03*
X33040000Y6006250D03*
D41*
X31565000Y6006250D03*
D42*
X38015000Y6006250D03*
D43*
X30472000Y1251250D03*
D44*
X30472000Y5431250D03*
X39108000Y5431250D03*
D43*
X39108000Y1251250D03*
D41*
X32340000Y6006250D03*
D42*
X37240000Y6006250D03*
%TD*%
D38*
%TO.C,J1*%
X8540000Y130361250D03*
X14320000Y130361250D03*
D39*
X10180000Y131466250D03*
X11180000Y131466250D03*
D40*
X11680000Y131466250D03*
X12680000Y131466250D03*
X13180000Y131466250D03*
X12180000Y131466250D03*
D39*
X10680000Y131466250D03*
X9680000Y131466250D03*
D41*
X8205000Y131466250D03*
D42*
X14655000Y131466250D03*
D43*
X7112000Y126711250D03*
D44*
X7112000Y130891250D03*
X15748000Y130891250D03*
D43*
X15748000Y126711250D03*
D41*
X8980000Y131466250D03*
D42*
X13880000Y131466250D03*
%TD*%
D38*
%TO.C,J1*%
X8540000Y67631250D03*
X14320000Y67631250D03*
D39*
X10180000Y68736250D03*
X11180000Y68736250D03*
D40*
X11680000Y68736250D03*
X12680000Y68736250D03*
X13180000Y68736250D03*
X12180000Y68736250D03*
D39*
X10680000Y68736250D03*
X9680000Y68736250D03*
D41*
X8205000Y68736250D03*
D42*
X14655000Y68736250D03*
D43*
X7112000Y63981250D03*
D44*
X7112000Y68161250D03*
X15748000Y68161250D03*
D43*
X15748000Y63981250D03*
D41*
X8980000Y68736250D03*
D42*
X13880000Y68736250D03*
%TD*%
D34*
%TO.C,R8*%
X88495000Y150667500D03*
X88495000Y151687500D03*
%TD*%
%TO.C,R8*%
X88495000Y87937500D03*
X88495000Y88957500D03*
%TD*%
%TO.C,R8*%
X88495000Y25207500D03*
X88495000Y26227500D03*
%TD*%
%TO.C,R8*%
X65135000Y150667500D03*
X65135000Y151687500D03*
%TD*%
%TO.C,R8*%
X65135000Y87937500D03*
X65135000Y88957500D03*
%TD*%
%TO.C,R8*%
X65135000Y25207500D03*
X65135000Y26227500D03*
%TD*%
%TO.C,R8*%
X41775000Y150667500D03*
X41775000Y151687500D03*
%TD*%
%TO.C,R8*%
X41775000Y87937500D03*
X41775000Y88957500D03*
%TD*%
%TO.C,R8*%
X41775000Y25207500D03*
X41775000Y26227500D03*
%TD*%
%TO.C,R8*%
X18415000Y150667500D03*
X18415000Y151687500D03*
%TD*%
%TO.C,R8*%
X18415000Y87937500D03*
X18415000Y88957500D03*
%TD*%
D14*
%TO.C,C8*%
X91515000Y179435000D03*
X90555000Y179435000D03*
%TD*%
%TO.C,C8*%
X91515000Y116705000D03*
X90555000Y116705000D03*
%TD*%
%TO.C,C8*%
X91515000Y53975000D03*
X90555000Y53975000D03*
%TD*%
%TO.C,C8*%
X68155000Y179435000D03*
X67195000Y179435000D03*
%TD*%
%TO.C,C8*%
X68155000Y116705000D03*
X67195000Y116705000D03*
%TD*%
%TO.C,C8*%
X68155000Y53975000D03*
X67195000Y53975000D03*
%TD*%
%TO.C,C8*%
X44795000Y179435000D03*
X43835000Y179435000D03*
%TD*%
%TO.C,C8*%
X44795000Y116705000D03*
X43835000Y116705000D03*
%TD*%
%TO.C,C8*%
X44795000Y53975000D03*
X43835000Y53975000D03*
%TD*%
%TO.C,C8*%
X21435000Y179435000D03*
X20475000Y179435000D03*
%TD*%
%TO.C,C8*%
X21435000Y116705000D03*
X20475000Y116705000D03*
%TD*%
D35*
%TO.C,FID3*%
X71350000Y182610000D03*
%TD*%
%TO.C,FID3*%
X71350000Y119880000D03*
%TD*%
%TO.C,FID3*%
X71350000Y57150000D03*
%TD*%
%TO.C,FID3*%
X47990000Y182610000D03*
%TD*%
%TO.C,FID3*%
X47990000Y119880000D03*
%TD*%
%TO.C,FID3*%
X47990000Y57150000D03*
%TD*%
%TO.C,FID3*%
X24630000Y182610000D03*
%TD*%
%TO.C,FID3*%
X24630000Y119880000D03*
%TD*%
%TO.C,FID3*%
X24630000Y57150000D03*
%TD*%
%TO.C,FID3*%
X1270000Y182610000D03*
%TD*%
%TO.C,FID3*%
X1270000Y119880000D03*
%TD*%
D36*
%TO.C,D4*%
X88012500Y155940000D03*
X86437500Y155940000D03*
%TD*%
%TO.C,D4*%
X88012500Y93210000D03*
X86437500Y93210000D03*
%TD*%
%TO.C,D4*%
X88012500Y30480000D03*
X86437500Y30480000D03*
%TD*%
%TO.C,D4*%
X64652500Y155940000D03*
X63077500Y155940000D03*
%TD*%
%TO.C,D4*%
X64652500Y93210000D03*
X63077500Y93210000D03*
%TD*%
%TO.C,D4*%
X64652500Y30480000D03*
X63077500Y30480000D03*
%TD*%
%TO.C,D4*%
X41292500Y155940000D03*
X39717500Y155940000D03*
%TD*%
%TO.C,D4*%
X41292500Y93210000D03*
X39717500Y93210000D03*
%TD*%
%TO.C,D4*%
X41292500Y30480000D03*
X39717500Y30480000D03*
%TD*%
%TO.C,D4*%
X17932500Y155940000D03*
X16357500Y155940000D03*
%TD*%
%TO.C,D4*%
X17932500Y93210000D03*
X16357500Y93210000D03*
%TD*%
D11*
%TO.C,R15*%
X77507500Y137525000D03*
X78527500Y137525000D03*
%TD*%
%TO.C,R15*%
X77507500Y74795000D03*
X78527500Y74795000D03*
%TD*%
%TO.C,R15*%
X77507500Y12065000D03*
X78527500Y12065000D03*
%TD*%
%TO.C,R15*%
X54147500Y137525000D03*
X55167500Y137525000D03*
%TD*%
%TO.C,R15*%
X54147500Y74795000D03*
X55167500Y74795000D03*
%TD*%
%TO.C,R15*%
X54147500Y12065000D03*
X55167500Y12065000D03*
%TD*%
%TO.C,R15*%
X30787500Y137525000D03*
X31807500Y137525000D03*
%TD*%
%TO.C,R15*%
X30787500Y74795000D03*
X31807500Y74795000D03*
%TD*%
%TO.C,R15*%
X30787500Y12065000D03*
X31807500Y12065000D03*
%TD*%
%TO.C,R15*%
X7427500Y137525000D03*
X8447500Y137525000D03*
%TD*%
%TO.C,R15*%
X7427500Y74795000D03*
X8447500Y74795000D03*
%TD*%
D45*
%TO.C,D6*%
X91585000Y182572500D03*
X90485000Y182572500D03*
X90485000Y180742500D03*
X91585000Y180742500D03*
%TD*%
%TO.C,D6*%
X91585000Y119842500D03*
X90485000Y119842500D03*
X90485000Y118012500D03*
X91585000Y118012500D03*
%TD*%
%TO.C,D6*%
X91585000Y57112500D03*
X90485000Y57112500D03*
X90485000Y55282500D03*
X91585000Y55282500D03*
%TD*%
%TO.C,D6*%
X68225000Y182572500D03*
X67125000Y182572500D03*
X67125000Y180742500D03*
X68225000Y180742500D03*
%TD*%
%TO.C,D6*%
X68225000Y119842500D03*
X67125000Y119842500D03*
X67125000Y118012500D03*
X68225000Y118012500D03*
%TD*%
%TO.C,D6*%
X68225000Y57112500D03*
X67125000Y57112500D03*
X67125000Y55282500D03*
X68225000Y55282500D03*
%TD*%
%TO.C,D6*%
X44865000Y182572500D03*
X43765000Y182572500D03*
X43765000Y180742500D03*
X44865000Y180742500D03*
%TD*%
%TO.C,D6*%
X44865000Y119842500D03*
X43765000Y119842500D03*
X43765000Y118012500D03*
X44865000Y118012500D03*
%TD*%
%TO.C,D6*%
X44865000Y57112500D03*
X43765000Y57112500D03*
X43765000Y55282500D03*
X44865000Y55282500D03*
%TD*%
%TO.C,D6*%
X21505000Y182572500D03*
X20405000Y182572500D03*
X20405000Y180742500D03*
X21505000Y180742500D03*
%TD*%
%TO.C,D6*%
X21505000Y119842500D03*
X20405000Y119842500D03*
X20405000Y118012500D03*
X21505000Y118012500D03*
%TD*%
%TO.C,D6*%
X21505000Y57112500D03*
X20405000Y57112500D03*
X20405000Y55282500D03*
X21505000Y55282500D03*
%TD*%
D11*
%TO.C,R15*%
X7427500Y12065000D03*
X8447500Y12065000D03*
%TD*%
D36*
%TO.C,D4*%
X17932500Y30480000D03*
X16357500Y30480000D03*
%TD*%
D35*
%TO.C,FID3*%
X1270000Y57150000D03*
%TD*%
D14*
%TO.C,C8*%
X21435000Y53975000D03*
X20475000Y53975000D03*
%TD*%
D34*
%TO.C,R8*%
X18415000Y25207500D03*
X18415000Y26227500D03*
%TD*%
D38*
%TO.C,J1*%
X8540000Y4901250D03*
X14320000Y4901250D03*
D39*
X10180000Y6006250D03*
X11180000Y6006250D03*
D40*
X11680000Y6006250D03*
X12680000Y6006250D03*
X13180000Y6006250D03*
X12180000Y6006250D03*
D39*
X10680000Y6006250D03*
X9680000Y6006250D03*
D41*
X8205000Y6006250D03*
D42*
X14655000Y6006250D03*
D43*
X7112000Y1251250D03*
D44*
X7112000Y5431250D03*
X15748000Y5431250D03*
D43*
X15748000Y1251250D03*
D41*
X8980000Y6006250D03*
D42*
X13880000Y6006250D03*
%TD*%
D32*
%TO.C,R12*%
X8447500Y7620000D03*
X7427500Y7620000D03*
%TD*%
D27*
%TO.C,R17*%
X9842500Y13210000D03*
X9842500Y12190000D03*
%TD*%
D37*
%TO.C,C9*%
X11430000Y13830000D03*
X11430000Y15380000D03*
%TD*%
D36*
%TO.C,D5*%
X17932500Y28575000D03*
X16357500Y28575000D03*
%TD*%
D32*
%TO.C,R13*%
X6225000Y23495000D03*
X5205000Y23495000D03*
%TD*%
D17*
%TO.C,C2*%
X21590000Y10005000D03*
X21590000Y9045000D03*
%TD*%
D36*
%TO.C,D1*%
X17932500Y32385000D03*
X16357500Y32385000D03*
%TD*%
D33*
%TO.C,D2*%
X4565000Y32385000D03*
X6865000Y32385000D03*
%TD*%
D11*
%TO.C,R9*%
X9015000Y28575000D03*
X10035000Y28575000D03*
%TD*%
%TO.C,R16*%
X14412500Y12065000D03*
X15432500Y12065000D03*
%TD*%
D35*
%TO.C,FID4*%
X17145000Y635000D03*
%TD*%
D34*
%TO.C,R11*%
X5715000Y4252500D03*
X5715000Y5272500D03*
%TD*%
D31*
%TO.C,SW2*%
X11285000Y26517500D03*
X15385000Y26517500D03*
X11285000Y24917500D03*
X15385000Y24917500D03*
%TD*%
D16*
%TO.C,ST1*%
X2540000Y2540000D03*
%TD*%
D19*
%TO.C,U2*%
X16222600Y8575000D03*
X16222600Y9525000D03*
X16222600Y10475000D03*
X13622400Y10475000D03*
X13622400Y9575000D03*
X13622400Y8575000D03*
%TD*%
%TO.C,U5*%
X16222600Y13655000D03*
X16222600Y14605000D03*
X16222600Y15555000D03*
X13622400Y15555000D03*
X13622400Y13655000D03*
%TD*%
D32*
%TO.C,R19*%
X8447500Y13335000D03*
X7427500Y13335000D03*
%TD*%
D33*
%TO.C,D3*%
X4565000Y30480000D03*
X6865000Y30480000D03*
%TD*%
D14*
%TO.C,C7*%
X2385000Y53975000D03*
X1425000Y53975000D03*
%TD*%
D17*
%TO.C,C12*%
X18415000Y15085000D03*
X18415000Y14125000D03*
%TD*%
D32*
%TO.C,R14*%
X10035000Y30480000D03*
X9015000Y30480000D03*
%TD*%
D17*
%TO.C,C6*%
X17145000Y26197500D03*
X17145000Y25237500D03*
%TD*%
D31*
%TO.C,SW1*%
X11285000Y21437500D03*
X15385000Y21437500D03*
X11285000Y19837500D03*
X15385000Y19837500D03*
%TD*%
D29*
%TO.C,J4*%
X5080000Y11025000D03*
X5080000Y10025000D03*
X5080000Y9025000D03*
X5080000Y8025000D03*
D30*
X1405000Y6725000D03*
X1405000Y12325000D03*
%TD*%
D28*
%TO.C,U6*%
X4414900Y26667500D03*
X4414900Y25717500D03*
X4414900Y24767500D03*
X7015100Y24767500D03*
X7015100Y26667500D03*
%TD*%
D27*
%TO.C,R10*%
X17145000Y5272500D03*
X17145000Y4252500D03*
%TD*%
D26*
%TO.C,U10*%
X1270000Y52070000D03*
X1270000Y49530000D03*
X1270000Y46990000D03*
X1270000Y44450000D03*
X1270000Y41910000D03*
X1270000Y39370000D03*
X1270000Y36830000D03*
X1270000Y34290000D03*
X1270000Y31750000D03*
X1270000Y29210000D03*
X1270000Y26670000D03*
X1270000Y24130000D03*
X21590000Y52070000D03*
X21590000Y49530000D03*
X21590000Y46990000D03*
X21590000Y44450000D03*
X21590000Y41910000D03*
X21590000Y39370000D03*
X21590000Y36830000D03*
X21590000Y34290000D03*
X21590000Y31750000D03*
X21590000Y29210000D03*
X21590000Y26670000D03*
X21590000Y24130000D03*
X21590000Y21590000D03*
X21590000Y19050000D03*
X21590000Y16510000D03*
X21590000Y13970000D03*
%TD*%
D18*
%TO.C,C10*%
X5235000Y27940000D03*
X6195000Y27940000D03*
%TD*%
D21*
%TO.C,U3*%
X4430000Y51670000D03*
X4430000Y50820000D03*
X4430000Y49970000D03*
X4430000Y49120000D03*
X4430000Y48270000D03*
X4430000Y47420000D03*
X4430000Y46570000D03*
X4430000Y45720000D03*
X4430000Y44870000D03*
X4430000Y44020000D03*
X4430000Y43170000D03*
X4430000Y42320000D03*
X4430000Y41470000D03*
X4430000Y40620000D03*
X4430000Y39770000D03*
D22*
X5480000Y38720000D03*
X6330000Y38720000D03*
X7180000Y38720000D03*
X8030000Y38720000D03*
X8880000Y38720000D03*
X9730000Y38720000D03*
X10580000Y38720000D03*
X11430000Y38720000D03*
X12280000Y38720000D03*
X13130000Y38720000D03*
X13980000Y38720000D03*
X14830000Y38720000D03*
X15680000Y38720000D03*
X16530000Y38720000D03*
X17380000Y38720000D03*
D21*
X18430000Y39770000D03*
X18430000Y40620000D03*
X18430000Y41470000D03*
X18430000Y42320000D03*
X18430000Y43170000D03*
X18430000Y44020000D03*
X18430000Y44870000D03*
X18430000Y45720000D03*
X18430000Y46570000D03*
X18430000Y47420000D03*
X18430000Y48270000D03*
X18430000Y49120000D03*
X18430000Y49970000D03*
X18430000Y50820000D03*
X18430000Y51670000D03*
D22*
X17380000Y52720000D03*
X16530000Y52720000D03*
X15680000Y52720000D03*
X14830000Y52720000D03*
X13980000Y52720000D03*
X13130000Y52720000D03*
X12280000Y52720000D03*
X11430000Y52720000D03*
X10580000Y52720000D03*
X9730000Y52720000D03*
X8880000Y52720000D03*
X8030000Y52720000D03*
X7180000Y52720000D03*
X6330000Y52720000D03*
X5480000Y52720000D03*
D23*
X9780000Y47370000D03*
D24*
X9780000Y45720000D03*
X9780000Y44070000D03*
X11430000Y47370000D03*
X11430000Y45720000D03*
X11430000Y44070000D03*
X13080000Y47370000D03*
X13080000Y45720000D03*
X13080000Y44070000D03*
D25*
X4430000Y52720000D03*
X4430000Y38720000D03*
X18430000Y38720000D03*
X18430000Y52720000D03*
%TD*%
D20*
%TO.C,C1*%
X1130000Y55562500D03*
X2680000Y55562500D03*
%TD*%
D19*
%TO.C,U1*%
X10825100Y8575000D03*
X10825100Y9525000D03*
X10825100Y10475000D03*
X8224900Y10475000D03*
X8224900Y8575000D03*
%TD*%
D18*
%TO.C,C13*%
X9045000Y26670000D03*
X10005000Y26670000D03*
%TD*%
D17*
%TO.C,C3*%
X6667500Y10005000D03*
X6667500Y9045000D03*
%TD*%
D16*
%TO.C,ST3*%
X20320000Y2540000D03*
%TD*%
D15*
%TO.C,C11*%
X17145000Y20157500D03*
X17145000Y21117500D03*
%TD*%
D14*
%TO.C,C14*%
X10957500Y7620000D03*
X9997500Y7620000D03*
%TD*%
D12*
%TO.C,J3*%
X7510000Y17415000D03*
X7510000Y19415000D03*
D13*
X2310000Y15015000D03*
X2310000Y21815000D03*
%TD*%
D11*
%TO.C,R7*%
X9015000Y32385000D03*
X10035000Y32385000D03*
%TD*%
M02*
